<svg width="161" height="26" viewBox="0 0 161 26" fill="none" xmlns="http://www.w3.org/2000/svg">
<mask id="path-1-outside-1_0_3" maskUnits="userSpaceOnUse" x="-0.867188" y="-0.765625" width="162" height="27" fill="black">
<rect fill="white" x="-0.867188" y="-0.765625" width="162" height="27"/>
<path d="M6.27344 19.4688C4.64062 19.4688 3.35156 18.8906 2.40625 17.7344C1.46875 16.5703 1 14.9258 1 12.8008C1 10.6445 1.42578 8.96094 2.27734 7.75C3.12891 6.53906 4.31641 5.93359 5.83984 5.93359C7.26172 5.93359 8.38281 6.45312 9.20312 7.49219C10.0234 8.52344 10.4336 9.97266 10.4336 11.8398V13.5039H4.16406C4.1875 14.668 4.42578 15.5352 4.87891 16.1055C5.33203 16.668 5.95703 16.9492 6.75391 16.9492C7.76953 16.9492 8.80859 16.6328 9.87109 16V18.5664C8.87109 19.168 7.67188 19.4688 6.27344 19.4688ZM5.81641 8.33594C5.37109 8.33594 5.00391 8.57422 4.71484 9.05078C4.42578 9.51953 4.25781 10.25 4.21094 11.2422H7.375C7.35938 10.2891 7.21484 9.56641 6.94141 9.07422C6.66797 8.58203 6.29297 8.33594 5.81641 8.33594ZM19 19.2344V11.4531C19 10.5078 18.8867 9.79297 18.6602 9.30859C18.4336 8.82422 18.0664 8.58203 17.5586 8.58203C16.8867 8.58203 16.3945 8.91797 16.082 9.58984C15.7695 10.2539 15.6133 11.3789 15.6133 12.9648V19.2344H12.4961V6.17969H14.9688L15.3438 7.85547H15.543C15.8242 7.25391 16.2266 6.78516 16.75 6.44922C17.2734 6.10547 17.8867 5.93359 18.5898 5.93359C19.7773 5.93359 20.6641 6.33984 21.25 7.15234C21.8438 7.96484 22.1406 9.15234 22.1406 10.7148V19.2344H19ZM27.7305 12.2031L28.5156 10.6445L31.0938 6.17969H34.3984L31.0938 11.5352L34.6211 19.2344H31.3516L28.9961 13.7148L27.7773 14.8164V19.2344H24.6602V1H27.7773V9.58984L27.6367 12.2031H27.7305ZM42.3789 19.2344L41.7578 17.4531H41.6875C41.2266 18.2188 40.75 18.7461 40.2578 19.0352C39.7656 19.3242 39.1445 19.4688 38.3945 19.4688C37.4336 19.4688 36.6758 19.1094 36.1211 18.3906C35.5742 17.6719 35.3008 16.6719 35.3008 15.3906C35.3008 14.0156 35.6758 12.9961 36.4258 12.332C37.1836 11.6602 38.3125 11.2891 39.8125 11.2188L41.5469 11.1484V10.2109C41.5469 8.99219 41.0195 8.38281 39.9648 8.38281C39.1836 8.38281 38.2852 8.6875 37.2695 9.29688L36.1914 7.14062C37.4883 6.32031 38.8984 5.91016 40.4219 5.91016C41.8047 5.91016 42.8555 6.30859 43.5742 7.10547C44.3008 7.89453 44.6641 9.01562 44.6641 10.4688V19.2344H42.3789ZM39.6719 17.0312C40.2422 17.0312 40.6953 16.7773 41.0312 16.2695C41.375 15.7539 41.5469 15.0703 41.5469 14.2188V13.1172L40.5859 13.1641C39.875 13.2031 39.3516 13.4062 39.0156 13.7734C38.6875 14.1406 38.5234 14.6875 38.5234 15.4141C38.5234 16.4922 38.9062 17.0312 39.6719 17.0312ZM53.0781 5.93359C54.2656 5.93359 55.1992 6.52344 55.8789 7.70312C56.5586 8.88281 56.8984 10.543 56.8984 12.6836C56.8984 14.8477 56.5547 16.5195 55.8672 17.6992C55.1875 18.8789 54.2422 19.4688 53.0312 19.4688C52.4453 19.4688 51.9258 19.3438 51.4727 19.0938C51.0273 18.8359 50.6055 18.3867 50.207 17.7461H50.0078L49.4805 19.2344H47.1836V1H50.3008V5.26562C50.3008 5.44531 50.2969 5.63281 50.2891 5.82812C50.2812 6.02344 50.2305 6.70703 50.1367 7.87891H50.3008C50.6836 7.16016 51.0977 6.65625 51.543 6.36719C51.9883 6.07812 52.5 5.93359 53.0781 5.93359ZM52 8.58203C51.4062 8.58203 50.9766 8.85938 50.7109 9.41406C50.4531 9.96875 50.3164 10.9453 50.3008 12.3438V12.6602C50.3008 14.1758 50.4336 15.2422 50.6992 15.8594C50.9727 16.4766 51.4141 16.7852 52.0234 16.7852C53.1484 16.7852 53.7109 15.4023 53.7109 12.6367C53.7109 9.93359 53.1406 8.58203 52 8.58203Z"/>
<path d="M68.1836 19.2344L66.8828 11.6523L66.4258 8.45312H66.3789C66.2617 9.49219 66.168 10.2461 66.0977 10.7148C66.0273 11.1758 65.5312 14.0156 64.6094 19.2344H60.6016L58 6.17969H61.1289L62.3242 13.375C62.4648 14.1719 62.5938 15.3398 62.7109 16.8789H62.7812C62.7969 16.4648 62.8516 15.8359 62.9453 14.9922C63.0391 14.1406 63.1055 13.5938 63.1445 13.3516L64.4336 6.17969H68.4414L69.7188 13.375C69.8672 14.1406 69.9961 15.3086 70.1055 16.8789H70.1523C70.2617 15.4805 70.3984 14.3125 70.5625 13.375L71.8047 6.17969H74.8516L72.2383 19.2344H68.1836ZM81.25 19.4688C79.6172 19.4688 78.3281 18.8906 77.3828 17.7344C76.4453 16.5703 75.9766 14.9258 75.9766 12.8008C75.9766 10.6445 76.4023 8.96094 77.2539 7.75C78.1055 6.53906 79.293 5.93359 80.8164 5.93359C82.2383 5.93359 83.3594 6.45312 84.1797 7.49219C85 8.52344 85.4102 9.97266 85.4102 11.8398V13.5039H79.1406C79.1641 14.668 79.4023 15.5352 79.8555 16.1055C80.3086 16.668 80.9336 16.9492 81.7305 16.9492C82.7461 16.9492 83.7852 16.6328 84.8477 16V18.5664C83.8477 19.168 82.6484 19.4688 81.25 19.4688ZM80.793 8.33594C80.3477 8.33594 79.9805 8.57422 79.6914 9.05078C79.4023 9.51953 79.2344 10.25 79.1875 11.2422H82.3516C82.3359 10.2891 82.1914 9.56641 81.918 9.07422C81.6445 8.58203 81.2695 8.33594 80.793 8.33594ZM93.3672 5.93359C94.5547 5.93359 95.4883 6.52344 96.168 7.70312C96.8477 8.88281 97.1875 10.543 97.1875 12.6836C97.1875 14.8477 96.8438 16.5195 96.1562 17.6992C95.4766 18.8789 94.5312 19.4688 93.3203 19.4688C92.7344 19.4688 92.2148 19.3438 91.7617 19.0938C91.3164 18.8359 90.8945 18.3867 90.4961 17.7461H90.2969L89.7695 19.2344H87.4727V1H90.5898V5.26562C90.5898 5.44531 90.5859 5.63281 90.5781 5.82812C90.5703 6.02344 90.5195 6.70703 90.4258 7.87891H90.5898C90.9727 7.16016 91.3867 6.65625 91.832 6.36719C92.2773 6.07812 92.7891 5.93359 93.3672 5.93359ZM92.2891 8.58203C91.6953 8.58203 91.2656 8.85938 91 9.41406C90.7422 9.96875 90.6055 10.9453 90.5898 12.3438V12.6602C90.5898 14.1758 90.7227 15.2422 90.9883 15.8594C91.2617 16.4766 91.7031 16.7852 92.3125 16.7852C93.4375 16.7852 94 15.4023 94 12.6367C94 9.93359 93.4297 8.58203 92.2891 8.58203ZM110.465 10.5039C110.465 13.332 109.887 15.4961 108.73 16.9961C107.582 18.4883 105.926 19.2344 103.762 19.2344H99.5664V2.10156H104.148C106.141 2.10156 107.691 2.83984 108.801 4.31641C109.91 5.78516 110.465 7.84766 110.465 10.5039ZM107.195 10.5977C107.195 6.76953 106.141 4.85547 104.031 4.85547H102.754V16.4453H103.785C104.949 16.4453 105.809 15.9609 106.363 14.9922C106.918 14.0156 107.195 12.5508 107.195 10.5977ZM117.602 19.4688C115.969 19.4688 114.68 18.8906 113.734 17.7344C112.797 16.5703 112.328 14.9258 112.328 12.8008C112.328 10.6445 112.754 8.96094 113.605 7.75C114.457 6.53906 115.645 5.93359 117.168 5.93359C118.59 5.93359 119.711 6.45312 120.531 7.49219C121.352 8.52344 121.762 9.97266 121.762 11.8398V13.5039H115.492C115.516 14.668 115.754 15.5352 116.207 16.1055C116.66 16.668 117.285 16.9492 118.082 16.9492C119.098 16.9492 120.137 16.6328 121.199 16V18.5664C120.199 19.168 119 19.4688 117.602 19.4688ZM117.145 8.33594C116.699 8.33594 116.332 8.57422 116.043 9.05078C115.754 9.51953 115.586 10.25 115.539 11.2422H118.703C118.688 10.2891 118.543 9.56641 118.27 9.07422C117.996 8.58203 117.621 8.33594 117.145 8.33594ZM130.832 15.4141C130.832 16.6875 130.457 17.6836 129.707 18.4023C128.965 19.1133 127.867 19.4688 126.414 19.4688C125.125 19.4688 124.059 19.2148 123.215 18.707V16C123.645 16.2969 124.145 16.543 124.715 16.7383C125.293 16.9336 125.801 17.0312 126.238 17.0312C126.723 17.0312 127.09 16.9141 127.34 16.6797C127.598 16.4375 127.727 16.1211 127.727 15.7305C127.727 15.332 127.594 14.9844 127.328 14.6875C127.062 14.3906 126.574 14.0273 125.863 13.5977C124.918 13.0352 124.238 12.4375 123.824 11.8047C123.418 11.1641 123.215 10.4102 123.215 9.54297C123.215 8.43359 123.594 7.55469 124.352 6.90625C125.117 6.25781 126.164 5.93359 127.492 5.93359C128.648 5.93359 129.738 6.23828 130.762 6.84766L129.742 9.08594C128.906 8.63281 128.172 8.40625 127.539 8.40625C127.141 8.40625 126.84 8.51172 126.637 8.72266C126.441 8.93359 126.344 9.19141 126.344 9.49609C126.344 9.84766 126.465 10.1602 126.707 10.4336C126.957 10.707 127.418 11.0469 128.09 11.4531C128.902 11.9453 129.473 12.3633 129.801 12.707C130.129 13.0508 130.383 13.4414 130.562 13.8789C130.742 14.3164 130.832 14.8281 130.832 15.4141ZM135.941 19.2344H132.824V6.17969H135.941V19.2344ZM132.695 2.76953C132.695 2.25391 132.844 1.84766 133.141 1.55078C133.445 1.24609 133.867 1.09375 134.406 1.09375C134.914 1.09375 135.32 1.24609 135.625 1.55078C135.93 1.84766 136.082 2.25391 136.082 2.76953C136.082 3.30078 135.926 3.71484 135.613 4.01172C135.301 4.30078 134.898 4.44531 134.406 4.44531C133.891 4.44531 133.477 4.30078 133.164 4.01172C132.852 3.71484 132.695 3.30078 132.695 2.76953ZM148.012 6.20312V8.03125L146.453 8.38281C146.758 8.92969 146.91 9.61719 146.91 10.4453C146.91 11.8281 146.535 12.9102 145.785 13.6914C145.035 14.4727 143.988 14.8633 142.645 14.8633C142.254 14.8633 141.965 14.832 141.777 14.7695C141.629 14.9023 141.488 15.0508 141.355 15.2148C141.223 15.3789 141.156 15.582 141.156 15.8242C141.156 16.3711 141.629 16.6445 142.574 16.6445H144.461C145.57 16.6445 146.422 16.9453 147.016 17.5469C147.617 18.1406 147.918 19.0391 147.918 20.2422C147.918 21.7578 147.41 22.9297 146.395 23.7578C145.379 24.5859 143.918 25 142.012 25C140.566 25 139.453 24.6836 138.672 24.0508C137.891 23.4258 137.5 22.5312 137.5 21.3672C137.5 20.6406 137.723 20 138.168 19.4453C138.613 18.8984 139.23 18.5 140.02 18.25C139.621 18.0938 139.293 17.8516 139.035 17.5234C138.785 17.1953 138.66 16.8125 138.66 16.375C138.66 16.1094 138.699 15.8711 138.777 15.6602C138.855 15.4414 138.965 15.2383 139.105 15.0508C139.254 14.8555 139.551 14.5703 139.996 14.1953C139.457 13.8672 139.031 13.3633 138.719 12.6836C138.406 12.0039 138.25 11.25 138.25 10.4219C138.25 8.99219 138.625 7.88672 139.375 7.10547C140.125 6.32422 141.199 5.93359 142.598 5.93359C142.863 5.93359 143.168 5.96484 143.512 6.02734C143.855 6.08203 144.117 6.14062 144.297 6.20312H148.012ZM140.336 21.1328C140.336 21.6484 140.496 22.043 140.816 22.3164C141.145 22.5977 141.609 22.7383 142.211 22.7383C143.156 22.7383 143.863 22.5586 144.332 22.1992C144.809 21.8398 145.047 21.3477 145.047 20.7227C145.047 20.2305 144.918 19.8828 144.66 19.6797C144.41 19.4766 143.938 19.375 143.242 19.375H141.73C141.309 19.375 140.969 19.5312 140.711 19.8438C140.461 20.1641 140.336 20.5938 140.336 21.1328ZM141.297 10.4453C141.297 11.9844 141.73 12.7539 142.598 12.7539C143.441 12.7539 143.863 11.9766 143.863 10.4219C143.863 8.82812 143.441 8.03125 142.598 8.03125C141.73 8.03125 141.297 8.83594 141.297 10.4453ZM156.086 19.2344V11.4531C156.086 10.5078 155.973 9.79297 155.746 9.30859C155.52 8.82422 155.152 8.58203 154.645 8.58203C153.973 8.58203 153.48 8.91797 153.168 9.58984C152.855 10.2539 152.699 11.3789 152.699 12.9648V19.2344H149.582V6.17969H152.055L152.43 7.85547H152.629C152.91 7.25391 153.312 6.78516 153.836 6.44922C154.359 6.10547 154.973 5.93359 155.676 5.93359C156.863 5.93359 157.75 6.33984 158.336 7.15234C158.93 7.96484 159.227 9.15234 159.227 10.7148V19.2344H156.086Z"/>
</mask>
<path d="M6.27344 19.4688C4.64062 19.4688 3.35156 18.8906 2.40625 17.7344C1.46875 16.5703 1 14.9258 1 12.8008C1 10.6445 1.42578 8.96094 2.27734 7.75C3.12891 6.53906 4.31641 5.93359 5.83984 5.93359C7.26172 5.93359 8.38281 6.45312 9.20312 7.49219C10.0234 8.52344 10.4336 9.97266 10.4336 11.8398V13.5039H4.16406C4.1875 14.668 4.42578 15.5352 4.87891 16.1055C5.33203 16.668 5.95703 16.9492 6.75391 16.9492C7.76953 16.9492 8.80859 16.6328 9.87109 16V18.5664C8.87109 19.168 7.67188 19.4688 6.27344 19.4688ZM5.81641 8.33594C5.37109 8.33594 5.00391 8.57422 4.71484 9.05078C4.42578 9.51953 4.25781 10.25 4.21094 11.2422H7.375C7.35938 10.2891 7.21484 9.56641 6.94141 9.07422C6.66797 8.58203 6.29297 8.33594 5.81641 8.33594ZM19 19.2344V11.4531C19 10.5078 18.8867 9.79297 18.6602 9.30859C18.4336 8.82422 18.0664 8.58203 17.5586 8.58203C16.8867 8.58203 16.3945 8.91797 16.082 9.58984C15.7695 10.2539 15.6133 11.3789 15.6133 12.9648V19.2344H12.4961V6.17969H14.9688L15.3438 7.85547H15.543C15.8242 7.25391 16.2266 6.78516 16.75 6.44922C17.2734 6.10547 17.8867 5.93359 18.5898 5.93359C19.7773 5.93359 20.6641 6.33984 21.25 7.15234C21.8438 7.96484 22.1406 9.15234 22.1406 10.7148V19.2344H19ZM27.7305 12.2031L28.5156 10.6445L31.0938 6.17969H34.3984L31.0938 11.5352L34.6211 19.2344H31.3516L28.9961 13.7148L27.7773 14.8164V19.2344H24.6602V1H27.7773V9.58984L27.6367 12.2031H27.7305ZM42.3789 19.2344L41.7578 17.4531H41.6875C41.2266 18.2188 40.75 18.7461 40.2578 19.0352C39.7656 19.3242 39.1445 19.4688 38.3945 19.4688C37.4336 19.4688 36.6758 19.1094 36.1211 18.3906C35.5742 17.6719 35.3008 16.6719 35.3008 15.3906C35.3008 14.0156 35.6758 12.9961 36.4258 12.332C37.1836 11.6602 38.3125 11.2891 39.8125 11.2188L41.5469 11.1484V10.2109C41.5469 8.99219 41.0195 8.38281 39.9648 8.38281C39.1836 8.38281 38.2852 8.6875 37.2695 9.29688L36.1914 7.14062C37.4883 6.32031 38.8984 5.91016 40.4219 5.91016C41.8047 5.91016 42.8555 6.30859 43.5742 7.10547C44.3008 7.89453 44.6641 9.01562 44.6641 10.4688V19.2344H42.3789ZM39.6719 17.0312C40.2422 17.0312 40.6953 16.7773 41.0312 16.2695C41.375 15.7539 41.5469 15.0703 41.5469 14.2188V13.1172L40.5859 13.1641C39.875 13.2031 39.3516 13.4062 39.0156 13.7734C38.6875 14.1406 38.5234 14.6875 38.5234 15.4141C38.5234 16.4922 38.9062 17.0312 39.6719 17.0312ZM53.0781 5.93359C54.2656 5.93359 55.1992 6.52344 55.8789 7.70312C56.5586 8.88281 56.8984 10.543 56.8984 12.6836C56.8984 14.8477 56.5547 16.5195 55.8672 17.6992C55.1875 18.8789 54.2422 19.4688 53.0312 19.4688C52.4453 19.4688 51.9258 19.3438 51.4727 19.0938C51.0273 18.8359 50.6055 18.3867 50.207 17.7461H50.0078L49.4805 19.2344H47.1836V1H50.3008V5.26562C50.3008 5.44531 50.2969 5.63281 50.2891 5.82812C50.2812 6.02344 50.2305 6.70703 50.1367 7.87891H50.3008C50.6836 7.16016 51.0977 6.65625 51.543 6.36719C51.9883 6.07812 52.5 5.93359 53.0781 5.93359ZM52 8.58203C51.4062 8.58203 50.9766 8.85938 50.7109 9.41406C50.4531 9.96875 50.3164 10.9453 50.3008 12.3438V12.6602C50.3008 14.1758 50.4336 15.2422 50.6992 15.8594C50.9727 16.4766 51.4141 16.7852 52.0234 16.7852C53.1484 16.7852 53.7109 15.4023 53.7109 12.6367C53.7109 9.93359 53.1406 8.58203 52 8.58203Z" fill="black"/>
<path d="M68.1836 19.2344L66.8828 11.6523L66.4258 8.45312H66.3789C66.2617 9.49219 66.168 10.2461 66.0977 10.7148C66.0273 11.1758 65.5312 14.0156 64.6094 19.2344H60.6016L58 6.17969H61.1289L62.3242 13.375C62.4648 14.1719 62.5938 15.3398 62.7109 16.8789H62.7812C62.7969 16.4648 62.8516 15.8359 62.9453 14.9922C63.0391 14.1406 63.1055 13.5938 63.1445 13.3516L64.4336 6.17969H68.4414L69.7188 13.375C69.8672 14.1406 69.9961 15.3086 70.1055 16.8789H70.1523C70.2617 15.4805 70.3984 14.3125 70.5625 13.375L71.8047 6.17969H74.8516L72.2383 19.2344H68.1836ZM81.25 19.4688C79.6172 19.4688 78.3281 18.8906 77.3828 17.7344C76.4453 16.5703 75.9766 14.9258 75.9766 12.8008C75.9766 10.6445 76.4023 8.96094 77.2539 7.75C78.1055 6.53906 79.293 5.93359 80.8164 5.93359C82.2383 5.93359 83.3594 6.45312 84.1797 7.49219C85 8.52344 85.4102 9.97266 85.4102 11.8398V13.5039H79.1406C79.1641 14.668 79.4023 15.5352 79.8555 16.1055C80.3086 16.668 80.9336 16.9492 81.7305 16.9492C82.7461 16.9492 83.7852 16.6328 84.8477 16V18.5664C83.8477 19.168 82.6484 19.4688 81.25 19.4688ZM80.793 8.33594C80.3477 8.33594 79.9805 8.57422 79.6914 9.05078C79.4023 9.51953 79.2344 10.25 79.1875 11.2422H82.3516C82.3359 10.2891 82.1914 9.56641 81.918 9.07422C81.6445 8.58203 81.2695 8.33594 80.793 8.33594ZM93.3672 5.93359C94.5547 5.93359 95.4883 6.52344 96.168 7.70312C96.8477 8.88281 97.1875 10.543 97.1875 12.6836C97.1875 14.8477 96.8438 16.5195 96.1562 17.6992C95.4766 18.8789 94.5312 19.4688 93.3203 19.4688C92.7344 19.4688 92.2148 19.3438 91.7617 19.0938C91.3164 18.8359 90.8945 18.3867 90.4961 17.7461H90.2969L89.7695 19.2344H87.4727V1H90.5898V5.26562C90.5898 5.44531 90.5859 5.63281 90.5781 5.82812C90.5703 6.02344 90.5195 6.70703 90.4258 7.87891H90.5898C90.9727 7.16016 91.3867 6.65625 91.832 6.36719C92.2773 6.07812 92.7891 5.93359 93.3672 5.93359ZM92.2891 8.58203C91.6953 8.58203 91.2656 8.85938 91 9.41406C90.7422 9.96875 90.6055 10.9453 90.5898 12.3438V12.6602C90.5898 14.1758 90.7227 15.2422 90.9883 15.8594C91.2617 16.4766 91.7031 16.7852 92.3125 16.7852C93.4375 16.7852 94 15.4023 94 12.6367C94 9.93359 93.4297 8.58203 92.2891 8.58203ZM110.465 10.5039C110.465 13.332 109.887 15.4961 108.73 16.9961C107.582 18.4883 105.926 19.2344 103.762 19.2344H99.5664V2.10156H104.148C106.141 2.10156 107.691 2.83984 108.801 4.31641C109.91 5.78516 110.465 7.84766 110.465 10.5039ZM107.195 10.5977C107.195 6.76953 106.141 4.85547 104.031 4.85547H102.754V16.4453H103.785C104.949 16.4453 105.809 15.9609 106.363 14.9922C106.918 14.0156 107.195 12.5508 107.195 10.5977ZM117.602 19.4688C115.969 19.4688 114.68 18.8906 113.734 17.7344C112.797 16.5703 112.328 14.9258 112.328 12.8008C112.328 10.6445 112.754 8.96094 113.605 7.75C114.457 6.53906 115.645 5.93359 117.168 5.93359C118.59 5.93359 119.711 6.45312 120.531 7.49219C121.352 8.52344 121.762 9.97266 121.762 11.8398V13.5039H115.492C115.516 14.668 115.754 15.5352 116.207 16.1055C116.66 16.668 117.285 16.9492 118.082 16.9492C119.098 16.9492 120.137 16.6328 121.199 16V18.5664C120.199 19.168 119 19.4688 117.602 19.4688ZM117.145 8.33594C116.699 8.33594 116.332 8.57422 116.043 9.05078C115.754 9.51953 115.586 10.25 115.539 11.2422H118.703C118.688 10.2891 118.543 9.56641 118.27 9.07422C117.996 8.58203 117.621 8.33594 117.145 8.33594ZM130.832 15.4141C130.832 16.6875 130.457 17.6836 129.707 18.4023C128.965 19.1133 127.867 19.4688 126.414 19.4688C125.125 19.4688 124.059 19.2148 123.215 18.707V16C123.645 16.2969 124.145 16.543 124.715 16.7383C125.293 16.9336 125.801 17.0312 126.238 17.0312C126.723 17.0312 127.09 16.9141 127.34 16.6797C127.598 16.4375 127.727 16.1211 127.727 15.7305C127.727 15.332 127.594 14.9844 127.328 14.6875C127.062 14.3906 126.574 14.0273 125.863 13.5977C124.918 13.0352 124.238 12.4375 123.824 11.8047C123.418 11.1641 123.215 10.4102 123.215 9.54297C123.215 8.43359 123.594 7.55469 124.352 6.90625C125.117 6.25781 126.164 5.93359 127.492 5.93359C128.648 5.93359 129.738 6.23828 130.762 6.84766L129.742 9.08594C128.906 8.63281 128.172 8.40625 127.539 8.40625C127.141 8.40625 126.84 8.51172 126.637 8.72266C126.441 8.93359 126.344 9.19141 126.344 9.49609C126.344 9.84766 126.465 10.1602 126.707 10.4336C126.957 10.707 127.418 11.0469 128.09 11.4531C128.902 11.9453 129.473 12.3633 129.801 12.707C130.129 13.0508 130.383 13.4414 130.562 13.8789C130.742 14.3164 130.832 14.8281 130.832 15.4141ZM135.941 19.2344H132.824V6.17969H135.941V19.2344ZM132.695 2.76953C132.695 2.25391 132.844 1.84766 133.141 1.55078C133.445 1.24609 133.867 1.09375 134.406 1.09375C134.914 1.09375 135.32 1.24609 135.625 1.55078C135.93 1.84766 136.082 2.25391 136.082 2.76953C136.082 3.30078 135.926 3.71484 135.613 4.01172C135.301 4.30078 134.898 4.44531 134.406 4.44531C133.891 4.44531 133.477 4.30078 133.164 4.01172C132.852 3.71484 132.695 3.30078 132.695 2.76953ZM148.012 6.20312V8.03125L146.453 8.38281C146.758 8.92969 146.91 9.61719 146.91 10.4453C146.91 11.8281 146.535 12.9102 145.785 13.6914C145.035 14.4727 143.988 14.8633 142.645 14.8633C142.254 14.8633 141.965 14.832 141.777 14.7695C141.629 14.9023 141.488 15.0508 141.355 15.2148C141.223 15.3789 141.156 15.582 141.156 15.8242C141.156 16.3711 141.629 16.6445 142.574 16.6445H144.461C145.57 16.6445 146.422 16.9453 147.016 17.5469C147.617 18.1406 147.918 19.0391 147.918 20.2422C147.918 21.7578 147.41 22.9297 146.395 23.7578C145.379 24.5859 143.918 25 142.012 25C140.566 25 139.453 24.6836 138.672 24.0508C137.891 23.4258 137.5 22.5312 137.5 21.3672C137.5 20.6406 137.723 20 138.168 19.4453C138.613 18.8984 139.23 18.5 140.02 18.25C139.621 18.0938 139.293 17.8516 139.035 17.5234C138.785 17.1953 138.66 16.8125 138.66 16.375C138.66 16.1094 138.699 15.8711 138.777 15.6602C138.855 15.4414 138.965 15.2383 139.105 15.0508C139.254 14.8555 139.551 14.5703 139.996 14.1953C139.457 13.8672 139.031 13.3633 138.719 12.6836C138.406 12.0039 138.25 11.25 138.25 10.4219C138.25 8.99219 138.625 7.88672 139.375 7.10547C140.125 6.32422 141.199 5.93359 142.598 5.93359C142.863 5.93359 143.168 5.96484 143.512 6.02734C143.855 6.08203 144.117 6.14062 144.297 6.20312H148.012ZM140.336 21.1328C140.336 21.6484 140.496 22.043 140.816 22.3164C141.145 22.5977 141.609 22.7383 142.211 22.7383C143.156 22.7383 143.863 22.5586 144.332 22.1992C144.809 21.8398 145.047 21.3477 145.047 20.7227C145.047 20.2305 144.918 19.8828 144.66 19.6797C144.41 19.4766 143.938 19.375 143.242 19.375H141.73C141.309 19.375 140.969 19.5312 140.711 19.8438C140.461 20.1641 140.336 20.5938 140.336 21.1328ZM141.297 10.4453C141.297 11.9844 141.73 12.7539 142.598 12.7539C143.441 12.7539 143.863 11.9766 143.863 10.4219C143.863 8.82812 143.441 8.03125 142.598 8.03125C141.73 8.03125 141.297 8.83594 141.297 10.4453ZM156.086 19.2344V11.4531C156.086 10.5078 155.973 9.79297 155.746 9.30859C155.52 8.82422 155.152 8.58203 154.645 8.58203C153.973 8.58203 153.48 8.91797 153.168 9.58984C152.855 10.2539 152.699 11.3789 152.699 12.9648V19.2344H149.582V6.17969H152.055L152.43 7.85547H152.629C152.91 7.25391 153.312 6.78516 153.836 6.44922C154.359 6.10547 154.973 5.93359 155.676 5.93359C156.863 5.93359 157.75 6.33984 158.336 7.15234C158.93 7.96484 159.227 9.15234 159.227 10.7148V19.2344H156.086Z" fill="white"/>
<path d="M2.40625 17.7344L1.6274 18.3616L1.63206 18.3673L2.40625 17.7344ZM9.20312 7.49219L8.41824 8.11184L8.42052 8.11471L9.20312 7.49219ZM10.4336 13.5039V14.5039H11.4336V13.5039H10.4336ZM4.16406 13.5039V12.5039H3.14373L3.16427 13.524L4.16406 13.5039ZM4.87891 16.1055L4.09593 16.7276L4.10015 16.7328L4.87891 16.1055ZM9.87109 16H10.8711V14.2405L9.35939 15.1408L9.87109 16ZM9.87109 18.5664L10.3866 19.4233L10.8711 19.1318V18.5664H9.87109ZM4.71484 9.05078L5.56604 9.57568L5.56985 9.56939L4.71484 9.05078ZM4.21094 11.2422L3.21205 11.195L3.16258 12.2422H4.21094V11.2422ZM7.375 11.2422V12.2422H8.39153L8.37487 11.2258L7.375 11.2422ZM6.27344 19.4688V18.4688C4.90882 18.4688 3.91654 18.0018 3.18044 17.1014L2.40625 17.7344L1.63206 18.3673C2.78659 19.7795 4.37243 20.4688 6.27344 20.4688V19.4688ZM2.40625 17.7344L3.18507 17.1071C2.44033 16.1824 2 14.7918 2 12.8008H1H0C0 15.0598 0.497169 16.9582 1.62743 18.3616L2.40625 17.7344ZM1 12.8008H2C2 10.7607 2.40506 9.30682 3.09533 8.32523L2.27734 7.75L1.45935 7.17477C0.446505 8.61506 0 10.5283 0 12.8008H1ZM2.27734 7.75L3.09533 8.32523C3.75324 7.38967 4.63069 6.93359 5.83984 6.93359V5.93359V4.93359C4.00212 4.93359 2.50457 5.68845 1.45935 7.17477L2.27734 7.75ZM5.83984 5.93359V6.93359C6.98176 6.93359 7.80317 7.33274 8.41824 8.11183L9.20312 7.49219L9.98801 6.87254C8.96246 5.57351 7.54168 4.93359 5.83984 4.93359V5.93359ZM9.20312 7.49219L8.42052 8.11471C9.05175 8.90826 9.43359 10.1065 9.43359 11.8398H10.4336H11.4336C11.4336 9.83879 10.9951 8.13862 9.98573 6.86966L9.20312 7.49219ZM10.4336 11.8398H9.43359V13.5039H10.4336H11.4336V11.8398H10.4336ZM10.4336 13.5039V12.5039H4.16406V13.5039V14.5039H10.4336V13.5039ZM4.16406 13.5039L3.16427 13.524C3.18966 14.7855 3.44651 15.9101 4.09595 16.7275L4.87891 16.1055L5.66186 15.4834C5.40506 15.1602 5.18534 14.5505 5.16386 13.4838L4.16406 13.5039ZM4.87891 16.1055L4.10015 16.7328C4.76435 17.5573 5.68999 17.9492 6.75391 17.9492V16.9492V15.9492C6.22407 15.9492 5.89971 15.7786 5.65766 15.4781L4.87891 16.1055ZM6.75391 16.9492V17.9492C7.98518 17.9492 9.19919 17.5641 10.3828 16.8592L9.87109 16L9.35939 15.1408C8.418 15.7015 7.55388 15.9492 6.75391 15.9492V16.9492ZM9.87109 16H8.87109V18.5664H9.87109H10.8711V16H9.87109ZM9.87109 18.5664L9.35561 17.7095C8.5396 18.2004 7.52645 18.4688 6.27344 18.4688V19.4688V20.4688C7.8173 20.4688 9.20258 20.1356 10.3866 19.4233L9.87109 18.5664ZM5.81641 8.33594V7.33594C4.93081 7.33594 4.27756 7.84349 3.85983 8.53217L4.71484 9.05078L5.56985 9.56939C5.65696 9.42579 5.72381 9.3714 5.75139 9.3535C5.76996 9.34145 5.78341 9.33594 5.81641 9.33594V8.33594ZM4.71484 9.05078L3.86367 8.52589C3.44 9.21293 3.26144 10.1497 3.21205 11.195L4.21094 11.2422L5.20982 11.2894C5.25419 10.3503 5.41156 9.82613 5.56601 9.57567L4.71484 9.05078ZM4.21094 11.2422V12.2422H7.375V11.2422V10.2422H4.21094V11.2422ZM7.375 11.2422L8.37487 11.2258C8.35818 10.208 8.20625 9.2918 7.81556 8.58858L6.94141 9.07422L6.06725 9.55986C6.22344 9.84101 6.36057 10.3701 6.37513 11.2586L7.375 11.2422ZM6.94141 9.07422L7.81556 8.58858C7.40401 7.84778 6.72862 7.33594 5.81641 7.33594V8.33594V9.33594C5.87252 9.33594 5.89229 9.34728 5.90642 9.35656C5.9285 9.37104 5.98946 9.41984 6.06725 9.55986L6.94141 9.07422ZM19 19.2344H18V20.2344H19V19.2344ZM16.082 9.58984L16.9869 10.0156L16.9888 10.0116L16.082 9.58984ZM15.6133 19.2344V20.2344H16.6133V19.2344H15.6133ZM12.4961 19.2344H11.4961V20.2344H12.4961V19.2344ZM12.4961 6.17969V5.17969H11.4961V6.17969H12.4961ZM14.9688 6.17969L15.9446 5.96131L15.7697 5.17969H14.9688V6.17969ZM15.3438 7.85547L14.3679 8.07384L14.5428 8.85547H15.3438V7.85547ZM15.543 7.85547V8.85547H16.1793L16.4489 8.279L15.543 7.85547ZM16.75 6.44922L17.2902 7.29085L17.2989 7.28509L16.75 6.44922ZM21.25 7.15234L20.4389 7.73728L20.4426 7.74236L21.25 7.15234ZM22.1406 19.2344V20.2344H23.1406V19.2344H22.1406ZM19 19.2344H20V11.4531H19H18V19.2344H19ZM19 11.4531H20C20 10.4571 19.8853 9.56752 19.566 8.88491L18.6602 9.30859L17.7543 9.73228C17.8882 10.0184 18 10.5585 18 11.4531H19ZM18.6602 9.30859L19.566 8.88491C19.3914 8.51168 19.1333 8.17155 18.7654 7.9289C18.3943 7.68413 17.9772 7.58203 17.5586 7.58203V8.58203V9.58203C17.6059 9.58203 17.6334 9.58763 17.6463 9.59121C17.6582 9.59449 17.6625 9.5973 17.6642 9.59845C17.6662 9.59976 17.675 9.60572 17.6895 9.62351C17.7048 9.64215 17.7279 9.67583 17.7543 9.73228L18.6602 9.30859ZM17.5586 8.58203V7.58203C17.0481 7.58203 16.5547 7.71256 16.1218 8.00803C15.6949 8.29942 15.3891 8.70845 15.1753 9.16811L16.082 9.58984L16.9888 10.0116C17.0875 9.79936 17.184 9.70449 17.2493 9.65993C17.3086 9.61947 17.3972 9.58203 17.5586 9.58203V8.58203ZM16.082 9.58984L15.1772 9.16405C14.7632 10.0439 14.6133 11.364 14.6133 12.9648H15.6133H16.6133C16.6133 11.3938 16.7759 10.4639 16.9869 10.0156L16.082 9.58984ZM15.6133 12.9648H14.6133V19.2344H15.6133H16.6133V12.9648H15.6133ZM15.6133 19.2344V18.2344H12.4961V19.2344V20.2344H15.6133V19.2344ZM12.4961 19.2344H13.4961V6.17969H12.4961H11.4961V19.2344H12.4961ZM12.4961 6.17969V7.17969H14.9688V6.17969V5.17969H12.4961V6.17969ZM14.9688 6.17969L13.9929 6.39806L14.3679 8.07384L15.3438 7.85547L16.3196 7.63709L15.9446 5.96131L14.9688 6.17969ZM15.3438 7.85547V8.85547H15.543V7.85547V6.85547H15.3438V7.85547ZM15.543 7.85547L16.4489 8.279C16.6558 7.83644 16.9365 7.51775 17.2901 7.2908L16.75 6.44922L16.2099 5.60763C15.5166 6.05256 14.9927 6.67137 14.6371 7.43194L15.543 7.85547ZM16.75 6.44922L17.2989 7.28509C17.6398 7.06125 18.057 6.93359 18.5898 6.93359V5.93359V4.93359C17.7164 4.93359 16.9071 5.14969 16.2011 5.61335L16.75 6.44922ZM18.5898 5.93359V6.93359C19.5237 6.93359 20.0773 7.23588 20.4389 7.73726L21.25 7.15234L22.0611 6.56742C21.2508 5.44381 20.031 4.93359 18.5898 4.93359V5.93359ZM21.25 7.15234L20.4426 7.74236C20.8592 8.31239 21.1406 9.25489 21.1406 10.7148H22.1406H23.1406C23.1406 9.0498 22.8283 7.6173 22.0574 6.56233L21.25 7.15234ZM22.1406 10.7148H21.1406V19.2344H22.1406H23.1406V10.7148H22.1406ZM22.1406 19.2344V18.2344H19V19.2344V20.2344H22.1406V19.2344ZM27.7305 12.2031V13.2031H28.3464L28.6235 12.653L27.7305 12.2031ZM28.5156 10.6445L27.6496 10.1445L27.6354 10.1692L27.6225 10.1946L28.5156 10.6445ZM31.0938 6.17969V5.17969H30.5164L30.2278 5.67964L31.0938 6.17969ZM34.3984 6.17969L35.2495 6.70482L36.1906 5.17969H34.3984V6.17969ZM31.0938 11.5352L30.2427 11.01L29.9618 11.4653L30.1846 11.9517L31.0938 11.5352ZM34.6211 19.2344V20.2344H36.1792L35.5302 18.8179L34.6211 19.2344ZM31.3516 19.2344L30.4318 19.6269L30.6911 20.2344H31.3516V19.2344ZM28.9961 13.7148L29.9158 13.3223L29.3656 12.0329L28.3256 12.973L28.9961 13.7148ZM27.7773 14.8164L27.1068 14.0745L26.7773 14.3723V14.8164H27.7773ZM27.7773 19.2344V20.2344H28.7773V19.2344H27.7773ZM24.6602 19.2344H23.6602V20.2344H24.6602V19.2344ZM24.6602 1V0H23.6602V1H24.6602ZM27.7773 1H28.7773V0H27.7773V1ZM27.7773 9.58984L28.7759 9.64358L28.7773 9.61673V9.58984H27.7773ZM27.6367 12.2031L26.6382 12.1494L26.5815 13.2031H27.6367V12.2031ZM27.7305 12.2031L28.6235 12.653L29.4087 11.0944L28.5156 10.6445L27.6225 10.1946L26.8374 11.7532L27.7305 12.2031ZM28.5156 10.6445L29.3816 11.1446L31.9597 6.67974L31.0938 6.17969L30.2278 5.67964L27.6496 10.1445L28.5156 10.6445ZM31.0938 6.17969V7.17969H34.3984V6.17969V5.17969H31.0938V6.17969ZM34.3984 6.17969L33.5474 5.65455L30.2427 11.01L31.0938 11.5352L31.9448 12.0603L35.2495 6.70482L34.3984 6.17969ZM31.0938 11.5352L30.1846 11.9517L33.712 19.6509L34.6211 19.2344L35.5302 18.8179L32.0029 11.1186L31.0938 11.5352ZM34.6211 19.2344V18.2344H31.3516V19.2344V20.2344H34.6211V19.2344ZM31.3516 19.2344L32.2713 18.8419L29.9158 13.3223L28.9961 13.7148L28.0763 14.1073L30.4318 19.6269L31.3516 19.2344ZM28.9961 13.7148L28.3256 12.973L27.1068 14.0745L27.7773 14.8164L28.4479 15.5583L29.6666 14.4567L28.9961 13.7148ZM27.7773 14.8164H26.7773V19.2344H27.7773H28.7773V14.8164H27.7773ZM27.7773 19.2344V18.2344H24.6602V19.2344V20.2344H27.7773V19.2344ZM24.6602 19.2344H25.6602V1H24.6602H23.6602V19.2344H24.6602ZM24.6602 1V2H27.7773V1V0H24.6602V1ZM27.7773 1H26.7773V9.58984H27.7773H28.7773V1H27.7773ZM27.7773 9.58984L26.7788 9.53611L26.6382 12.1494L27.6367 12.2031L28.6353 12.2569L28.7759 9.64358L27.7773 9.58984ZM27.6367 12.2031V13.2031H27.7305V12.2031V11.2031H27.6367V12.2031ZM42.3789 19.2344L41.4347 19.5636L41.6685 20.2344H42.3789V19.2344ZM41.7578 17.4531L42.7021 17.1239L42.4682 16.4531H41.7578V17.4531ZM41.6875 17.4531V16.4531H41.1223L40.8308 16.9373L41.6875 17.4531ZM36.1211 18.3906L35.3252 18.9962L35.3294 19.0016L36.1211 18.3906ZM36.4258 12.332L37.0887 13.0807L37.0892 13.0803L36.4258 12.332ZM39.8125 11.2188L39.772 10.2196L39.7657 10.2198L39.8125 11.2188ZM41.5469 11.1484L41.5874 12.1476L42.5469 12.1087V11.1484H41.5469ZM37.2695 9.29688L36.3751 9.74409L36.858 10.71L37.784 10.1544L37.2695 9.29688ZM36.1914 7.14062L35.6568 6.2955L34.8925 6.77895L35.297 7.58784L36.1914 7.14062ZM43.5742 7.10547L42.8316 7.77527L42.8386 7.78284L43.5742 7.10547ZM44.6641 19.2344V20.2344H45.6641V19.2344H44.6641ZM41.0312 16.2695L40.1992 15.7148L40.1972 15.7178L41.0312 16.2695ZM41.5469 13.1172H42.5469V12.0672L41.4982 12.1184L41.5469 13.1172ZM40.5859 13.1641L40.5372 12.1652L40.5311 12.1656L40.5859 13.1641ZM39.0156 13.7734L38.2778 13.0984L38.27 13.1071L39.0156 13.7734ZM42.3789 19.2344L43.3232 18.9051L42.7021 17.1239L41.7578 17.4531L40.8136 17.7824L41.4347 19.5636L42.3789 19.2344ZM41.7578 17.4531V16.4531H41.6875V17.4531V18.4531H41.7578V17.4531ZM41.6875 17.4531L40.8308 16.9373C40.4118 17.6333 40.0407 18.003 39.7514 18.1729L40.2578 19.0352L40.7642 19.8974C41.4593 19.4892 42.0413 18.8042 42.5442 17.9689L41.6875 17.4531ZM40.2578 19.0352L39.7514 18.1729C39.4537 18.3477 39.0209 18.4688 38.3945 18.4688V19.4688V20.4688C39.2682 20.4688 40.0776 20.3007 40.7642 19.8974L40.2578 19.0352ZM38.3945 19.4688V18.4688C37.7225 18.4688 37.2656 18.2369 36.9128 17.7797L36.1211 18.3906L35.3294 19.0016C36.0859 19.9819 37.1447 20.4688 38.3945 20.4688V19.4688ZM36.1211 18.3906L36.9169 17.7851C36.5478 17.3 36.3008 16.5422 36.3008 15.3906H35.3008H34.3008C34.3008 16.8015 34.6006 18.0437 35.3253 18.9961L36.1211 18.3906ZM35.3008 15.3906H36.3008C36.3008 14.1907 36.6242 13.492 37.0887 13.0807L36.4258 12.332L35.7629 11.5833C34.7273 12.5002 34.3008 13.8405 34.3008 15.3906H35.3008ZM36.4258 12.332L37.0892 13.0803C37.6107 12.6179 38.4814 12.2822 39.8593 12.2177L39.8125 11.2188L39.7657 10.2198C38.1436 10.2959 36.7565 10.7024 35.7624 11.5838L36.4258 12.332ZM39.8125 11.2188L39.853 12.2179L41.5874 12.1476L41.5469 11.1484L41.5064 10.1493L39.772 10.2196L39.8125 11.2188ZM41.5469 11.1484H42.5469V10.2109H41.5469H40.5469V11.1484H41.5469ZM41.5469 10.2109H42.5469C42.5469 9.48001 42.3918 8.74511 41.9075 8.18547C41.3993 7.59817 40.687 7.38281 39.9648 7.38281V8.38281V9.38281C40.2973 9.38281 40.3761 9.47214 40.3952 9.49422C40.4382 9.54395 40.5469 9.72311 40.5469 10.2109H41.5469ZM39.9648 8.38281V7.38281C38.9319 7.38281 37.8519 7.78127 36.755 8.43938L37.2695 9.29688L37.784 10.1544C38.7184 9.59373 39.4353 9.38281 39.9648 9.38281V8.38281ZM37.2695 9.29688L38.164 8.84966L37.0858 6.69341L36.1914 7.14062L35.297 7.58784L36.3751 9.74409L37.2695 9.29688ZM36.1914 7.14062L36.726 7.98575C37.8641 7.26583 39.0891 6.91016 40.4219 6.91016V5.91016V4.91016C38.7077 4.91016 37.1124 5.3748 35.6568 6.2955L36.1914 7.14062ZM40.4219 5.91016V6.91016C41.6084 6.91016 42.3538 7.24544 42.8316 7.77524L43.5742 7.10547L44.3168 6.4357C43.3571 5.37175 42.0009 4.91016 40.4219 4.91016V5.91016ZM43.5742 7.10547L42.8386 7.78284C43.3425 8.33014 43.6641 9.17626 43.6641 10.4688H44.6641H45.6641C45.6641 8.85499 45.259 7.45893 44.3099 6.4281L43.5742 7.10547ZM44.6641 10.4688H43.6641V19.2344H44.6641H45.6641V10.4688H44.6641ZM44.6641 19.2344V18.2344H42.3789V19.2344V20.2344H44.6641V19.2344ZM39.6719 17.0312V18.0312C40.604 18.0312 41.3591 17.5864 41.8653 16.8213L41.0312 16.2695L40.1972 15.7178C40.0315 15.9682 39.8804 16.0312 39.6719 16.0312V17.0312ZM41.0312 16.2695L41.8633 16.8242C42.3505 16.0934 42.5469 15.1961 42.5469 14.2188H41.5469H40.5469C40.5469 14.9445 40.3995 15.4144 40.1992 15.7148L41.0312 16.2695ZM41.5469 14.2188H42.5469V13.1172H41.5469H40.5469V14.2188H41.5469ZM41.5469 13.1172L41.4982 12.1184L40.5372 12.1653L40.5859 13.1641L40.6347 14.1629L41.5956 14.116L41.5469 13.1172ZM40.5859 13.1641L40.5311 12.1656C39.6718 12.2128 38.8542 12.4684 38.2778 13.0984L39.0156 13.7734L39.7534 14.4485C39.8489 14.3441 40.0782 14.1935 40.6408 14.1626L40.5859 13.1641ZM39.0156 13.7734L38.27 13.1071C37.7152 13.7279 37.5234 14.556 37.5234 15.4141H38.5234H39.5234C39.5234 14.819 39.6598 14.5533 39.7613 14.4398L39.0156 13.7734ZM38.5234 15.4141H37.5234C37.5234 16.0411 37.6293 16.6907 37.9952 17.206C38.4058 17.7841 39.0239 18.0312 39.6719 18.0312V17.0312V16.0312C39.5974 16.0312 39.5803 16.0183 39.5943 16.0249C39.6136 16.034 39.6261 16.0483 39.6259 16.048C39.609 16.0242 39.5234 15.8651 39.5234 15.4141H38.5234ZM55.8672 17.6992L55.0032 17.1957L55.0007 17.2L55.8672 17.6992ZM51.4727 19.0938L50.9716 19.9592L50.9805 19.9643L50.9896 19.9693L51.4727 19.0938ZM50.207 17.7461L51.0562 17.218L50.7627 16.7461H50.207V17.7461ZM50.0078 17.7461V16.7461H49.3012L49.0652 17.4121L50.0078 17.7461ZM49.4805 19.2344V20.2344H50.1871L50.423 19.5684L49.4805 19.2344ZM47.1836 19.2344H46.1836V20.2344H47.1836V19.2344ZM47.1836 1V0H46.1836V1H47.1836ZM50.3008 1H51.3008V0H50.3008V1ZM50.1367 7.87891L49.1399 7.79916L49.0535 8.87891H50.1367V7.87891ZM50.3008 7.87891V8.87891H50.9012L51.1834 8.349L50.3008 7.87891ZM50.7109 9.41406L49.809 8.98213L49.8041 8.99258L50.7109 9.41406ZM50.3008 12.3438L49.3008 12.3326V12.3438H50.3008ZM50.6992 15.8594L49.7806 16.2547L49.7849 16.2644L50.6992 15.8594ZM53.0781 5.93359V6.93359C53.8494 6.93359 54.4799 7.27811 55.0124 8.20235L55.8789 7.70312L56.7454 7.2039C55.9185 5.76877 54.6818 4.93359 53.0781 4.93359V5.93359ZM55.8789 7.70312L55.0124 8.20235C55.5683 9.16706 55.8984 10.6271 55.8984 12.6836H56.8984H57.8984C57.8984 10.4588 57.5489 8.59857 56.7454 7.2039L55.8789 7.70312ZM56.8984 12.6836H55.8984C55.8984 14.7645 55.564 16.2334 55.0032 17.1957L55.8672 17.6992L56.7312 18.2027C57.5454 16.8056 57.8984 14.9308 57.8984 12.6836H56.8984ZM55.8672 17.6992L55.0007 17.2C54.4728 18.1163 53.8341 18.4688 53.0312 18.4688V19.4688V20.4688C54.6503 20.4688 55.9022 19.6415 56.7337 18.1984L55.8672 17.6992ZM53.0312 19.4688V18.4688C52.5916 18.4688 52.2423 18.3763 51.9557 18.2182L51.4727 19.0938L50.9896 19.9693C51.6093 20.3112 52.299 20.4688 53.0312 20.4688V19.4688ZM51.4727 19.0938L51.9737 18.2283C51.7211 18.0821 51.4055 17.7795 51.0562 17.218L50.207 17.7461L49.3579 18.2742C49.8055 18.9939 50.3336 19.5898 50.9716 19.9592L51.4727 19.0938ZM50.207 17.7461V16.7461H50.0078V17.7461V18.7461H50.207V17.7461ZM50.0078 17.7461L49.0652 17.4121L48.5379 18.9004L49.4805 19.2344L50.423 19.5684L50.9504 18.0801L50.0078 17.7461ZM49.4805 19.2344V18.2344H47.1836V19.2344V20.2344H49.4805V19.2344ZM47.1836 19.2344H48.1836V1H47.1836H46.1836V19.2344H47.1836ZM47.1836 1V2H50.3008V1V0H47.1836V1ZM50.3008 1H49.3008V5.26562H50.3008H51.3008V1H50.3008ZM50.3008 5.26562H49.3008C49.3008 5.43089 49.2972 5.60502 49.2899 5.78816L50.2891 5.82812L51.2883 5.86809C51.2966 5.66061 51.3008 5.45974 51.3008 5.26562H50.3008ZM50.2891 5.82812L49.2899 5.78816C49.2831 5.958 49.2346 6.61482 49.1399 7.79916L50.1367 7.87891L51.1335 7.95865C51.2263 6.79924 51.2794 6.08888 51.2883 5.86809L50.2891 5.82812ZM50.1367 7.87891V8.87891H50.3008V7.87891V6.87891H50.1367V7.87891ZM50.3008 7.87891L51.1834 8.349C51.5254 7.70679 51.8404 7.36631 52.0874 7.20597L51.543 6.36719L50.9985 5.52841C50.3549 5.94619 49.8417 6.61352 49.4182 7.40882L50.3008 7.87891ZM51.543 6.36719L52.0874 7.20597C52.3563 7.03147 52.6754 6.93359 53.0781 6.93359V5.93359V4.93359C52.3246 4.93359 51.6203 5.12478 50.9985 5.52841L51.543 6.36719ZM52 8.58203V7.58203C51.5424 7.58203 51.0913 7.69093 50.6901 7.94985C50.2911 8.2074 50.0054 8.57207 49.809 8.98216L50.7109 9.41406L51.6129 9.84597C51.6821 9.70137 51.744 9.65002 51.7747 9.63022C51.8033 9.6118 51.8639 9.58203 52 9.58203V8.58203ZM50.7109 9.41406L49.8041 8.99258C49.4477 9.75941 49.3165 10.9291 49.3008 12.3326L50.3008 12.3438L51.3007 12.3549C51.3163 10.9615 51.4586 10.1781 51.6178 9.83555L50.7109 9.41406ZM50.3008 12.3438H49.3008V12.6602H50.3008H51.3008V12.3438H50.3008ZM50.3008 12.6602H49.3008C49.3008 14.1831 49.4269 15.4327 49.7807 16.2547L50.6992 15.8594L51.6178 15.4641C51.4403 15.0517 51.3008 14.1685 51.3008 12.6602H50.3008ZM50.6992 15.8594L49.7849 16.2644C49.977 16.6979 50.2587 17.0911 50.6624 17.3733C51.0726 17.6601 51.5418 17.7852 52.0234 17.7852V16.7852V15.7852C51.8957 15.7852 51.8395 15.7559 51.8083 15.7341C51.7706 15.7078 51.6949 15.6381 51.6135 15.4543L50.6992 15.8594ZM52.0234 16.7852V17.7852C52.5279 17.7852 52.9999 17.6236 53.3955 17.2994C53.7743 16.989 54.0339 16.5708 54.2154 16.1248C54.5707 15.2513 54.7109 14.0576 54.7109 12.6367H53.7109H52.7109C52.7109 13.9815 52.5699 14.862 52.3628 15.3712C52.2629 15.6167 52.171 15.7171 52.1279 15.7524C52.1017 15.7739 52.0814 15.7852 52.0234 15.7852V16.7852ZM53.7109 12.6367H54.7109C54.7109 11.2451 54.5686 10.0697 54.2045 9.20693C54.0182 8.76528 53.7524 8.35406 53.3684 8.05075C52.9694 7.73556 52.4989 7.58203 52 7.58203V8.58203V9.58203C52.0714 9.58203 52.0999 9.59744 52.1287 9.62015C52.1724 9.65473 52.2631 9.75035 52.3619 9.98447C52.5681 10.4733 52.7109 11.3252 52.7109 12.6367H53.7109ZM68.1836 19.2344L67.198 19.4035L67.3405 20.2344H68.1836V19.2344ZM66.8828 11.6523L65.8929 11.7938L65.8948 11.8076L65.8972 11.8214L66.8828 11.6523ZM66.4258 8.45312L67.4157 8.3117L67.2931 7.45312H66.4258V8.45312ZM66.3789 8.45312V7.45312H65.4854L65.3852 8.34105L66.3789 8.45312ZM66.0977 10.7148L67.0862 10.8656L67.0866 10.8632L66.0977 10.7148ZM64.6094 19.2344V20.2344H65.4482L65.5941 19.4083L64.6094 19.2344ZM60.6016 19.2344L59.6208 19.4298L59.7812 20.2344H60.6016V19.2344ZM58 6.17969V5.17969H56.7811L57.0193 6.37513L58 6.17969ZM61.1289 6.17969L62.1154 6.01581L61.9765 5.17969H61.1289V6.17969ZM62.3242 13.375L61.3377 13.5389L61.3394 13.5488L62.3242 13.375ZM62.7109 16.8789L61.7138 16.9548L61.7842 17.8789H62.7109V16.8789ZM62.7812 16.8789V17.8789H63.7442L63.7805 16.9166L62.7812 16.8789ZM62.9453 14.9922L63.9392 15.1026L63.9393 15.1016L62.9453 14.9922ZM63.1445 13.3516L62.1603 13.1747L62.1587 13.1835L62.1573 13.1923L63.1445 13.3516ZM64.4336 6.17969V5.17969H63.5973L63.4494 6.00278L64.4336 6.17969ZM68.4414 6.17969L69.426 6.0049L69.2795 5.17969H68.4414V6.17969ZM69.7188 13.375L68.7341 13.5498L68.7355 13.5576L68.737 13.5653L69.7188 13.375ZM70.1055 16.8789L69.1079 16.9484L69.1727 17.8789H70.1055V16.8789ZM70.1523 16.8789V17.8789H71.0772L71.1493 16.9569L70.1523 16.8789ZM70.5625 13.375L71.5475 13.5474L71.5479 13.5451L70.5625 13.375ZM71.8047 6.17969V5.17969H70.9625L70.8193 6.00957L71.8047 6.17969ZM74.8516 6.17969L75.8321 6.37597L76.0716 5.17969H74.8516V6.17969ZM72.2383 19.2344V20.2344H73.0579L73.2188 19.4307L72.2383 19.2344ZM68.1836 19.2344L69.1692 19.0653L67.8684 11.4833L66.8828 11.6523L65.8972 11.8214L67.198 19.4035L68.1836 19.2344ZM66.8828 11.6523L67.8728 11.5109L67.4157 8.3117L66.4258 8.45312L65.4358 8.59455L65.8929 11.7938L66.8828 11.6523ZM66.4258 8.45312V7.45312H66.3789V8.45312V9.45312H66.4258V8.45312ZM66.3789 8.45312L65.3852 8.34105C65.2682 9.37883 65.1761 10.1172 65.1087 10.5665L66.0977 10.7148L67.0866 10.8632C67.1598 10.375 67.2553 9.60554 67.3726 8.5652L66.3789 8.45312ZM66.0977 10.7148L65.1091 10.564C65.0411 11.0097 64.5484 13.831 63.6246 19.0604L64.6094 19.2344L65.5941 19.4083C66.5141 14.2002 67.0136 11.3418 67.0862 10.8656L66.0977 10.7148ZM64.6094 19.2344V18.2344H60.6016V19.2344V20.2344H64.6094V19.2344ZM60.6016 19.2344L61.5823 19.0389L58.9807 5.98425L58 6.17969L57.0193 6.37513L59.6208 19.4298L60.6016 19.2344ZM58 6.17969V7.17969H61.1289V6.17969V5.17969H58V6.17969ZM61.1289 6.17969L60.1424 6.34356L61.3377 13.5389L62.3242 13.375L63.3107 13.2111L62.1154 6.01581L61.1289 6.17969ZM62.3242 13.375L61.3394 13.5488C61.4713 14.2962 61.5973 15.4249 61.7138 16.9548L62.7109 16.8789L63.708 16.803C63.5902 15.2548 63.4584 14.0476 63.309 13.2012L62.3242 13.375ZM62.7109 16.8789V17.8789H62.7812V16.8789V15.8789H62.7109V16.8789ZM62.7812 16.8789L63.7805 16.9166C63.7947 16.5407 63.846 15.9417 63.9392 15.1026L62.9453 14.9922L61.9514 14.8818C61.8572 15.7302 61.799 16.389 61.782 16.8412L62.7812 16.8789ZM62.9453 14.9922L63.9393 15.1016C64.0338 14.2431 64.0975 13.7232 64.1318 13.5108L63.1445 13.3516L62.1573 13.1923C62.1134 13.4643 62.0443 14.0382 61.9513 14.8828L62.9453 14.9922ZM63.1445 13.3516L64.1288 13.5285L65.4178 6.35659L64.4336 6.17969L63.4494 6.00278L62.1603 13.1747L63.1445 13.3516ZM64.4336 6.17969V7.17969H68.4414V6.17969V5.17969H64.4336V6.17969ZM68.4414 6.17969L67.4568 6.35448L68.7341 13.5498L69.7188 13.375L70.7034 13.2002L69.426 6.0049L68.4414 6.17969ZM69.7188 13.375L68.737 13.5653C68.8734 14.2686 68.9991 15.3866 69.1079 16.9484L70.1055 16.8789L71.1031 16.8094C70.9931 15.2306 70.861 14.0127 70.7005 13.1847L69.7188 13.375ZM70.1055 16.8789V17.8789H70.1523V16.8789V15.8789H70.1055V16.8789ZM70.1523 16.8789L71.1493 16.9569C71.2572 15.5768 71.3908 14.4428 71.5475 13.5474L70.5625 13.375L69.5775 13.2026C69.406 14.1822 69.2662 15.3842 69.1554 16.8009L70.1523 16.8789ZM70.5625 13.375L71.5479 13.5451L72.7901 6.34981L71.8047 6.17969L70.8193 6.00957L69.5771 13.2049L70.5625 13.375ZM71.8047 6.17969V7.17969H74.8516V6.17969V5.17969H71.8047V6.17969ZM74.8516 6.17969L73.871 5.9834L71.2577 19.0381L72.2383 19.2344L73.2188 19.4307L75.8321 6.37597L74.8516 6.17969ZM72.2383 19.2344V18.2344H68.1836V19.2344V20.2344H72.2383V19.2344ZM77.3828 17.7344L76.604 18.3616L76.6086 18.3673L77.3828 17.7344ZM84.1797 7.49219L83.3948 8.11184L83.3971 8.11471L84.1797 7.49219ZM85.4102 13.5039V14.5039H86.4102V13.5039H85.4102ZM79.1406 13.5039V12.5039H78.1203L78.1408 13.524L79.1406 13.5039ZM79.8555 16.1055L79.0725 16.7276L79.0767 16.7328L79.8555 16.1055ZM84.8477 16H85.8477V14.2405L84.336 15.1408L84.8477 16ZM84.8477 18.5664L85.3631 19.4233L85.8477 19.1318V18.5664H84.8477ZM79.6914 9.05078L80.5426 9.57568L80.5464 9.56939L79.6914 9.05078ZM79.1875 11.2422L78.1886 11.195L78.1391 12.2422H79.1875V11.2422ZM82.3516 11.2422V12.2422H83.3681L83.3514 11.2258L82.3516 11.2422ZM81.25 19.4688V18.4688C79.8854 18.4688 78.8931 18.0018 78.157 17.1014L77.3828 17.7344L76.6086 18.3673C77.7631 19.7795 79.349 20.4688 81.25 20.4688V19.4688ZM77.3828 17.7344L78.1616 17.1071C77.4169 16.1824 76.9766 14.7918 76.9766 12.8008H75.9766H74.9766C74.9766 15.0598 75.4737 16.9582 76.604 18.3616L77.3828 17.7344ZM75.9766 12.8008H76.9766C76.9766 10.7607 77.3816 9.30682 78.0719 8.32523L77.2539 7.75L76.4359 7.17477C75.4231 8.61506 74.9766 10.5283 74.9766 12.8008H75.9766ZM77.2539 7.75L78.0719 8.32523C78.7298 7.38967 79.6073 6.93359 80.8164 6.93359V5.93359V4.93359C78.9787 4.93359 77.4811 5.68845 76.4359 7.17477L77.2539 7.75ZM80.8164 5.93359V6.93359C81.9583 6.93359 82.7797 7.33274 83.3948 8.11183L84.1797 7.49219L84.9646 6.87254C83.939 5.57351 82.5182 4.93359 80.8164 4.93359V5.93359ZM84.1797 7.49219L83.3971 8.11471C84.0283 8.90826 84.4102 10.1065 84.4102 11.8398H85.4102H86.4102C86.4102 9.83879 85.9717 8.13862 84.9623 6.86966L84.1797 7.49219ZM85.4102 11.8398H84.4102V13.5039H85.4102H86.4102V11.8398H85.4102ZM85.4102 13.5039V12.5039H79.1406V13.5039V14.5039H85.4102V13.5039ZM79.1406 13.5039L78.1408 13.524C78.1662 14.7855 78.4231 15.9101 79.0725 16.7275L79.8555 16.1055L80.6384 15.4834C80.3816 15.1602 80.1619 14.5505 80.1404 13.4838L79.1406 13.5039ZM79.8555 16.1055L79.0767 16.7328C79.7409 17.5573 80.6666 17.9492 81.7305 17.9492V16.9492V15.9492C81.2006 15.9492 80.8763 15.7786 80.6342 15.4781L79.8555 16.1055ZM81.7305 16.9492V17.9492C82.9617 17.9492 84.1758 17.5641 85.3594 16.8592L84.8477 16L84.336 15.1408C83.3946 15.7015 82.5304 15.9492 81.7305 15.9492V16.9492ZM84.8477 16H83.8477V18.5664H84.8477H85.8477V16H84.8477ZM84.8477 18.5664L84.3322 17.7095C83.5162 18.2004 82.503 18.4688 81.25 18.4688V19.4688V20.4688C82.7939 20.4688 84.1791 20.1356 85.3631 19.4233L84.8477 18.5664ZM80.793 8.33594V7.33594C79.9074 7.33594 79.2541 7.84349 78.8364 8.53217L79.6914 9.05078L80.5464 9.56939C80.6335 9.42579 80.7004 9.3714 80.728 9.3535C80.7465 9.34145 80.76 9.33594 80.793 9.33594V8.33594ZM79.6914 9.05078L78.8402 8.52589C78.4166 9.21293 78.238 10.1497 78.1886 11.195L79.1875 11.2422L80.1864 11.2894C80.2308 10.3503 80.3881 9.82613 80.5426 9.57567L79.6914 9.05078ZM79.1875 11.2422V12.2422H82.3516V11.2422V10.2422H79.1875V11.2422ZM82.3516 11.2422L83.3514 11.2258C83.3347 10.208 83.1828 9.2918 82.7921 8.58858L81.918 9.07422L81.0438 9.55986C81.2 9.84101 81.3371 10.3701 81.3517 11.2586L82.3516 11.2422ZM81.918 9.07422L82.7921 8.58858C82.3806 7.84778 81.7052 7.33594 80.793 7.33594V8.33594V9.33594C80.8491 9.33594 80.8689 9.34728 80.883 9.35656C80.9051 9.37104 80.966 9.41984 81.0438 9.55986L81.918 9.07422ZM96.1562 17.6992L95.2923 17.1957L95.2898 17.2L96.1562 17.6992ZM91.7617 19.0938L91.2607 19.9592L91.2696 19.9643L91.2786 19.9693L91.7617 19.0938ZM90.4961 17.7461L91.3453 17.218L91.0518 16.7461H90.4961V17.7461ZM90.2969 17.7461V16.7461H89.5903L89.3543 17.4121L90.2969 17.7461ZM89.7695 19.2344V20.2344H90.4761L90.7121 19.5684L89.7695 19.2344ZM87.4727 19.2344H86.4727V20.2344H87.4727V19.2344ZM87.4727 1V0H86.4727V1H87.4727ZM90.5898 1H91.5898V0H90.5898V1ZM90.4258 7.87891L89.429 7.79916L89.3426 8.87891H90.4258V7.87891ZM90.5898 7.87891V8.87891H91.1902L91.4725 8.349L90.5898 7.87891ZM91 9.41406L90.098 8.98213L90.0932 8.99258L91 9.41406ZM90.5898 12.3438L89.5898 12.3326V12.3438H90.5898ZM90.9883 15.8594L90.0697 16.2547L90.074 16.2644L90.9883 15.8594ZM93.3672 5.93359V6.93359C94.1385 6.93359 94.769 7.27811 95.3015 8.20235L96.168 7.70312L97.0344 7.2039C96.2076 5.76877 94.9709 4.93359 93.3672 4.93359V5.93359ZM96.168 7.70312L95.3015 8.20235C95.8573 9.16706 96.1875 10.6271 96.1875 12.6836H97.1875H98.1875C98.1875 10.4588 97.838 8.59857 97.0344 7.2039L96.168 7.70312ZM97.1875 12.6836H96.1875C96.1875 14.7645 95.8531 16.2334 95.2923 17.1957L96.1562 17.6992L97.0202 18.2027C97.8344 16.8056 98.1875 14.9308 98.1875 12.6836H97.1875ZM96.1562 17.6992L95.2898 17.2C94.7619 18.1163 94.1231 18.4688 93.3203 18.4688V19.4688V20.4688C94.9394 20.4688 96.1913 19.6415 97.0227 18.1984L96.1562 17.6992ZM93.3203 19.4688V18.4688C92.8807 18.4688 92.5313 18.3763 92.2448 18.2182L91.7617 19.0938L91.2786 19.9693C91.8984 20.3112 92.5881 20.4688 93.3203 20.4688V19.4688ZM91.7617 19.0938L92.2628 18.2283C92.0102 18.0821 91.6945 17.7795 91.3453 17.218L90.4961 17.7461L89.6469 18.2742C90.0945 18.9939 90.6226 19.5898 91.2607 19.9592L91.7617 19.0938ZM90.4961 17.7461V16.7461H90.2969V17.7461V18.7461H90.4961V17.7461ZM90.2969 17.7461L89.3543 17.4121L88.827 18.9004L89.7695 19.2344L90.7121 19.5684L91.2395 18.0801L90.2969 17.7461ZM89.7695 19.2344V18.2344H87.4727V19.2344V20.2344H89.7695V19.2344ZM87.4727 19.2344H88.4727V1H87.4727H86.4727V19.2344H87.4727ZM87.4727 1V2H90.5898V1V0H87.4727V1ZM90.5898 1H89.5898V5.26562H90.5898H91.5898V1H90.5898ZM90.5898 5.26562H89.5898C89.5898 5.43089 89.5863 5.60502 89.5789 5.78816L90.5781 5.82812L91.5773 5.86809C91.5856 5.66061 91.5898 5.45974 91.5898 5.26562H90.5898ZM90.5781 5.82812L89.5789 5.78816C89.5721 5.958 89.5237 6.61482 89.429 7.79916L90.4258 7.87891L91.4226 7.95865C91.5154 6.79924 91.5685 6.08888 91.5773 5.86809L90.5781 5.82812ZM90.4258 7.87891V8.87891H90.5898V7.87891V6.87891H90.4258V7.87891ZM90.5898 7.87891L91.4725 8.349C91.8145 7.70679 92.1295 7.36631 92.3765 7.20597L91.832 6.36719L91.2876 5.52841C90.6439 5.94619 90.1308 6.61352 89.7072 7.40882L90.5898 7.87891ZM91.832 6.36719L92.3765 7.20597C92.6453 7.03147 92.9644 6.93359 93.3672 6.93359V5.93359V4.93359C92.6137 4.93359 91.9094 5.12478 91.2876 5.52841L91.832 6.36719ZM92.2891 8.58203V7.58203C91.8315 7.58203 91.3803 7.69093 90.9792 7.94985C90.5802 8.2074 90.2945 8.57207 90.0981 8.98216L91 9.41406L91.9019 9.84597C91.9712 9.70137 92.0331 9.65002 92.0638 9.63022C92.0923 9.6118 92.1529 9.58203 92.2891 9.58203V8.58203ZM91 9.41406L90.0932 8.99258C89.7367 9.75941 89.6056 10.9291 89.5899 12.3326L90.5898 12.3438L91.5898 12.3549C91.6053 10.9615 91.7476 10.1781 91.9068 9.83555L91 9.41406ZM90.5898 12.3438H89.5898V12.6602H90.5898H91.5898V12.3438H90.5898ZM90.5898 12.6602H89.5898C89.5898 14.1831 89.716 15.4327 90.0697 16.2547L90.9883 15.8594L91.9068 15.4641C91.7294 15.0517 91.5898 14.1685 91.5898 12.6602H90.5898ZM90.9883 15.8594L90.074 16.2644C90.266 16.6979 90.5478 17.0911 90.9514 17.3733C91.3617 17.6601 91.8308 17.7852 92.3125 17.7852V16.7852V15.7852C92.1848 15.7852 92.1285 15.7559 92.0974 15.7341C92.0597 15.7078 91.984 15.6381 91.9026 15.4543L90.9883 15.8594ZM92.3125 16.7852V17.7852C92.817 17.7852 93.2889 17.6236 93.6846 17.2994C94.0634 16.989 94.323 16.5708 94.5044 16.1248C94.8598 15.2513 95 14.0576 95 12.6367H94H93C93 13.9815 92.859 14.862 92.6518 15.3712C92.552 15.6167 92.46 15.7171 92.417 15.7524C92.3908 15.7739 92.3705 15.7852 92.3125 15.7852V16.7852ZM94 12.6367H95C95 11.2451 94.8577 10.0697 94.4936 9.20693C94.3072 8.76528 94.0414 8.35406 93.6575 8.05075C93.2585 7.73556 92.788 7.58203 92.2891 7.58203V8.58203V9.58203C92.3605 9.58203 92.389 9.59744 92.4177 9.62015C92.4615 9.65473 92.5521 9.75035 92.6509 9.98447C92.8572 10.4733 93 11.3252 93 12.6367H94ZM108.73 16.9961L107.938 16.3856L107.938 16.3862L108.73 16.9961ZM99.5664 19.2344H98.5664V20.2344H99.5664V19.2344ZM99.5664 2.10156V1.10156H98.5664V2.10156H99.5664ZM108.801 4.31641L108.001 4.91708L108.003 4.91912L108.801 4.31641ZM102.754 4.85547V3.85547H101.754V4.85547H102.754ZM102.754 16.4453H101.754V17.4453H102.754V16.4453ZM106.363 14.9922L107.231 15.4891L107.233 15.4861L106.363 14.9922ZM110.465 10.5039H109.465C109.465 13.2152 108.908 15.1281 107.938 16.3856L108.73 16.9961L109.522 17.6066C110.866 15.864 111.465 13.4488 111.465 10.5039H110.465ZM108.73 16.9961L107.938 16.3862C107.009 17.5936 105.668 18.2344 103.762 18.2344V19.2344V20.2344C106.184 20.2344 108.155 19.383 109.523 17.606L108.73 16.9961ZM103.762 19.2344V18.2344H99.5664V19.2344V20.2344H103.762V19.2344ZM99.5664 19.2344H100.566V2.10156H99.5664H98.5664V19.2344H99.5664ZM99.5664 2.10156V3.10156H104.148V2.10156V1.10156H99.5664V2.10156ZM104.148 2.10156V3.10156C105.855 3.10156 107.097 3.71403 108.001 4.91708L108.801 4.31641L109.6 3.71573C108.285 1.96566 106.426 1.10156 104.148 1.10156V2.10156ZM108.801 4.31641L108.003 4.91912C108.934 6.15236 109.465 7.97211 109.465 10.5039H110.465H111.465C111.465 7.7232 110.886 5.41795 109.599 3.71369L108.801 4.31641ZM107.195 10.5977H108.195C108.195 8.62451 107.929 6.98626 107.28 5.80841C106.947 5.2044 106.504 4.70404 105.933 4.35873C105.36 4.01231 104.715 3.85547 104.031 3.85547V4.85547V5.85547C104.402 5.85547 104.68 5.93788 104.898 6.06998C105.118 6.20318 105.334 6.4206 105.528 6.77362C105.934 7.50983 106.195 8.74267 106.195 10.5977H107.195ZM104.031 4.85547V3.85547H102.754V4.85547V5.85547H104.031V4.85547ZM102.754 4.85547H101.754V16.4453H102.754H103.754V4.85547H102.754ZM102.754 16.4453V17.4453H103.785V16.4453V15.4453H102.754V16.4453ZM103.785 16.4453V17.4453C105.289 17.4453 106.489 16.785 107.231 15.4891L106.363 14.9922L105.495 14.4953C105.128 15.1368 104.61 15.4453 103.785 15.4453V16.4453ZM106.363 14.9922L107.233 15.4861C107.915 14.2852 108.195 12.6127 108.195 10.5977H107.195H106.195C106.195 12.4889 105.921 13.7461 105.494 14.4983L106.363 14.9922ZM113.734 17.7344L112.956 18.3616L112.96 18.3673L113.734 17.7344ZM120.531 7.49219L119.746 8.11184L119.749 8.11471L120.531 7.49219ZM121.762 13.5039V14.5039H122.762V13.5039H121.762ZM115.492 13.5039V12.5039H114.472L114.492 13.524L115.492 13.5039ZM116.207 16.1055L115.424 16.7276L115.428 16.7328L116.207 16.1055ZM121.199 16H122.199V14.2405L120.688 15.1408L121.199 16ZM121.199 18.5664L121.715 19.4233L122.199 19.1318V18.5664H121.199ZM116.043 9.05078L116.894 9.57568L116.898 9.56939L116.043 9.05078ZM115.539 11.2422L114.54 11.195L114.491 12.2422H115.539V11.2422ZM118.703 11.2422V12.2422H119.72L119.703 11.2258L118.703 11.2422ZM117.602 19.4688V18.4688C116.237 18.4688 115.245 18.0018 114.509 17.1014L113.734 17.7344L112.96 18.3673C114.115 19.7795 115.701 20.4688 117.602 20.4688V19.4688ZM113.734 17.7344L114.513 17.1071C113.768 16.1824 113.328 14.7918 113.328 12.8008H112.328H111.328C111.328 15.0598 111.825 16.9582 112.956 18.3616L113.734 17.7344ZM112.328 12.8008H113.328C113.328 10.7607 113.733 9.30682 114.423 8.32523L113.605 7.75L112.787 7.17477C111.775 8.61506 111.328 10.5283 111.328 12.8008H112.328ZM113.605 7.75L114.423 8.32523C115.081 7.38967 115.959 6.93359 117.168 6.93359V5.93359V4.93359C115.33 4.93359 113.833 5.68845 112.787 7.17477L113.605 7.75ZM117.168 5.93359V6.93359C118.31 6.93359 119.131 7.33274 119.746 8.11183L120.531 7.49219L121.316 6.87254C120.291 5.57351 118.87 4.93359 117.168 4.93359V5.93359ZM120.531 7.49219L119.749 8.11471C120.38 8.90826 120.762 10.1065 120.762 11.8398H121.762H122.762C122.762 9.83879 122.323 8.13862 121.314 6.86966L120.531 7.49219ZM121.762 11.8398H120.762V13.5039H121.762H122.762V11.8398H121.762ZM121.762 13.5039V12.5039H115.492V13.5039V14.5039H121.762V13.5039ZM115.492 13.5039L114.492 13.524C114.518 14.7855 114.775 15.9101 115.424 16.7275L116.207 16.1055L116.99 15.4834C116.733 15.1602 116.513 14.5505 116.492 13.4838L115.492 13.5039ZM116.207 16.1055L115.428 16.7328C116.092 17.5573 117.018 17.9492 118.082 17.9492V16.9492V15.9492C117.552 15.9492 117.228 15.7786 116.986 15.4781L116.207 16.1055ZM118.082 16.9492V17.9492C119.313 17.9492 120.527 17.5641 121.711 16.8592L121.199 16L120.688 15.1408C119.746 15.7015 118.882 15.9492 118.082 15.9492V16.9492ZM121.199 16H120.199V18.5664H121.199H122.199V16H121.199ZM121.199 18.5664L120.684 17.7095C119.868 18.2004 118.855 18.4688 117.602 18.4688V19.4688V20.4688C119.145 20.4688 120.531 20.1356 121.715 19.4233L121.199 18.5664ZM117.145 8.33594V7.33594C116.259 7.33594 115.606 7.84349 115.188 8.53217L116.043 9.05078L116.898 9.56939C116.985 9.42579 117.052 9.3714 117.08 9.3535C117.098 9.34145 117.112 9.33594 117.145 9.33594V8.33594ZM116.043 9.05078L115.192 8.52589C114.768 9.21293 114.59 10.1497 114.54 11.195L115.539 11.2422L116.538 11.2894C116.582 10.3503 116.74 9.82613 116.894 9.57567L116.043 9.05078ZM115.539 11.2422V12.2422H118.703V11.2422V10.2422H115.539V11.2422ZM118.703 11.2422L119.703 11.2258C119.686 10.208 119.534 9.2918 119.144 8.58858L118.27 9.07422L117.395 9.55986C117.552 9.84101 117.689 10.3701 117.703 11.2586L118.703 11.2422ZM118.27 9.07422L119.144 8.58858C118.732 7.84778 118.057 7.33594 117.145 7.33594V8.33594V9.33594C117.201 9.33594 117.22 9.34728 117.235 9.35656C117.257 9.37104 117.318 9.41984 117.395 9.55986L118.27 9.07422ZM129.707 18.4023L130.399 19.1245L130.399 19.1243L129.707 18.4023ZM123.215 18.707H122.215V19.2723L122.699 19.5638L123.215 18.707ZM123.215 16L123.783 15.1773L122.215 14.0936V16H123.215ZM124.715 16.7383L124.391 17.6843L124.395 17.6857L124.715 16.7383ZM127.34 16.6797L128.024 17.4092L128.025 17.4085L127.34 16.6797ZM125.863 13.5977L126.381 12.7418L126.375 12.7383L125.863 13.5977ZM123.824 11.8047L122.98 12.3402L122.984 12.3463L122.987 12.3522L123.824 11.8047ZM124.352 6.90625L123.705 6.14315L123.701 6.14644L124.352 6.90625ZM130.762 6.84766L131.672 7.26218L132.043 6.44681L131.273 5.98843L130.762 6.84766ZM129.742 9.08594L129.266 9.96509L130.208 10.4759L130.652 9.50046L129.742 9.08594ZM126.637 8.72266L125.916 8.02901L125.91 8.03607L125.903 8.04325L126.637 8.72266ZM126.707 10.4336L125.958 11.0966L125.964 11.1025L125.969 11.1084L126.707 10.4336ZM128.09 11.4531L128.608 10.5978L128.607 10.5974L128.09 11.4531ZM130.832 15.4141H129.832C129.832 16.4808 129.525 17.1914 129.015 17.6804L129.707 18.4023L130.399 19.1243C131.389 18.1758 131.832 16.8942 131.832 15.4141H130.832ZM129.707 18.4023L129.015 17.6802C128.524 18.1504 127.717 18.4688 126.414 18.4688V19.4688V20.4688C128.018 20.4688 129.405 20.0762 130.399 19.1245L129.707 18.4023ZM126.414 19.4688V18.4688C125.252 18.4688 124.377 18.2396 123.731 17.8502L123.215 18.707L122.699 19.5638C123.74 20.1901 124.998 20.4688 126.414 20.4688V19.4688ZM123.215 18.707H124.215V16H123.215H122.215V18.707H123.215ZM123.215 16L122.646 16.8227C123.162 17.179 123.747 17.4638 124.391 17.6843L124.715 16.7383L125.039 15.7922C124.542 15.6221 124.127 15.4147 123.783 15.1773L123.215 16ZM124.715 16.7383L124.395 17.6857C125.038 17.9031 125.658 18.0312 126.238 18.0312V17.0312V16.0312C125.943 16.0312 125.547 15.964 125.035 15.7909L124.715 16.7383ZM126.238 17.0312V18.0312C126.872 18.0312 127.524 17.878 128.024 17.4092L127.34 16.6797L126.656 15.9501C126.656 15.9501 126.574 16.0312 126.238 16.0312V17.0312ZM127.34 16.6797L128.025 17.4085C128.506 16.9565 128.727 16.3652 128.727 15.7305H127.727H126.727C126.727 15.877 126.69 15.9185 126.655 15.9508L127.34 16.6797ZM127.727 15.7305H128.727C128.727 15.086 128.503 14.501 128.073 14.0207L127.328 14.6875L126.583 15.3543C126.684 15.4678 126.727 15.578 126.727 15.7305H127.727ZM127.328 14.6875L128.073 14.0207C127.703 13.6063 127.105 13.1797 126.381 12.7418L125.863 13.5977L125.346 14.4535C126.043 14.875 126.422 15.175 126.583 15.3543L127.328 14.6875ZM125.863 13.5977L126.375 12.7383C125.505 12.2209 124.963 11.7181 124.661 11.2572L123.824 11.8047L122.987 12.3522C123.514 13.1569 124.331 13.8494 125.352 14.457L125.863 13.5977ZM123.824 11.8047L124.669 11.2691C124.378 10.8107 124.215 10.2483 124.215 9.54297H123.215H122.215C122.215 10.572 122.458 11.5175 122.98 12.3402L123.824 11.8047ZM123.215 9.54297H124.215C124.215 8.68894 124.493 8.10178 125.002 7.66606L124.352 6.90625L123.701 6.14644C122.695 7.0076 122.215 8.17825 122.215 9.54297H123.215ZM124.352 6.90625L124.998 7.66934C125.531 7.21742 126.323 6.93359 127.492 6.93359V5.93359V4.93359C126.005 4.93359 124.703 5.29821 123.705 6.14316L124.352 6.90625ZM127.492 5.93359V6.93359C128.463 6.93359 129.377 7.18673 130.25 7.70688L130.762 6.84766L131.273 5.98843C130.1 5.28983 128.834 4.93359 127.492 4.93359V5.93359ZM130.762 6.84766L129.852 6.43314L128.832 8.67142L129.742 9.08594L130.652 9.50046L131.672 7.26218L130.762 6.84766ZM129.742 9.08594L130.219 8.20679C129.304 7.71104 128.401 7.40625 127.539 7.40625V8.40625V9.40625C127.943 9.40625 128.508 9.55459 129.266 9.96509L129.742 9.08594ZM127.539 8.40625V7.40625C126.97 7.40625 126.368 7.55982 125.916 8.02901L126.637 8.72266L127.357 9.4163C127.341 9.4332 127.329 9.43467 127.346 9.42902C127.367 9.42157 127.426 9.40625 127.539 9.40625V8.40625ZM126.637 8.72266L125.903 8.04325C125.526 8.45083 125.344 8.95603 125.344 9.49609H126.344H127.344C127.344 9.45207 127.35 9.43287 127.352 9.42845C127.353 9.42501 127.356 9.41721 127.37 9.40207L126.637 8.72266ZM126.344 9.49609H125.344C125.344 10.1022 125.561 10.6481 125.958 11.0966L126.707 10.4336L127.456 9.77056C127.368 9.67219 127.344 9.59311 127.344 9.49609H126.344ZM126.707 10.4336L125.969 11.1084C126.322 11.4945 126.889 11.8956 127.572 12.3089L128.09 11.4531L128.607 10.5974C127.947 10.1982 127.592 9.91956 127.445 9.75882L126.707 10.4336ZM128.09 11.4531L127.572 12.3084C128.368 12.7909 128.844 13.1533 129.077 13.3975L129.801 12.707L130.524 12.0166C130.101 11.5732 129.437 11.0997 128.608 10.5978L128.09 11.4531ZM129.801 12.707L129.077 13.3975C129.32 13.6516 129.505 13.9371 129.637 14.2588L130.562 13.8789L131.488 13.499C131.26 12.9458 130.938 12.4499 130.524 12.0166L129.801 12.707ZM130.562 13.8789L129.637 14.2588C129.757 14.5507 129.832 14.9283 129.832 15.4141H130.832H131.832C131.832 14.7279 131.727 14.0821 131.488 13.499L130.562 13.8789ZM135.941 19.2344V20.2344H136.941V19.2344H135.941ZM132.824 19.2344H131.824V20.2344H132.824V19.2344ZM132.824 6.17969V5.17969H131.824V6.17969H132.824ZM135.941 6.17969H136.941V5.17969H135.941V6.17969ZM135.625 1.55078L134.918 2.25795L134.927 2.26701L135.625 1.55078ZM135.613 4.01172L136.292 4.74588L136.302 4.73672L135.613 4.01172ZM133.164 4.01172L132.475 4.73678L132.485 4.74582L133.164 4.01172ZM135.941 19.2344V18.2344H132.824V19.2344V20.2344H135.941V19.2344ZM132.824 19.2344H133.824V6.17969H132.824H131.824V19.2344H132.824ZM132.824 6.17969V7.17969H135.941V6.17969V5.17969H132.824V6.17969ZM135.941 6.17969H134.941V19.2344H135.941H136.941V6.17969H135.941ZM132.695 2.76953H133.695C133.695 2.45484 133.779 2.3262 133.848 2.25789L133.141 1.55078L132.434 0.843674C131.908 1.36911 131.695 2.05297 131.695 2.76953H132.695ZM133.141 1.55078L133.848 2.25789C133.92 2.1852 134.062 2.09375 134.406 2.09375V1.09375V0.09375C133.672 0.09375 132.97 0.306986 132.434 0.843674L133.141 1.55078ZM134.406 1.09375V2.09375C134.7 2.09375 134.834 2.17394 134.918 2.25789L135.625 1.55078L136.332 0.843674C135.807 0.318251 135.128 0.09375 134.406 0.09375V1.09375ZM135.625 1.55078L134.927 2.26701C134.999 2.3368 135.082 2.46235 135.082 2.76953H136.082H137.082C137.082 2.04547 136.861 1.35851 136.323 0.834551L135.625 1.55078ZM136.082 2.76953H135.082C135.082 3.09485 134.994 3.22095 134.925 3.28672L135.613 4.01172L136.302 4.73672C136.858 4.20873 137.082 3.50671 137.082 2.76953H136.082ZM135.613 4.01172L134.934 3.27762C134.835 3.36916 134.689 3.44531 134.406 3.44531V4.44531V5.44531C135.108 5.44531 135.766 5.2324 136.292 4.74582L135.613 4.01172ZM134.406 4.44531V3.44531C134.086 3.44531 133.933 3.36112 133.843 3.27762L133.164 4.01172L132.485 4.74582C133.02 5.24044 133.695 5.44531 134.406 5.44531V4.44531ZM133.164 4.01172L133.853 3.28672C133.784 3.22095 133.695 3.09485 133.695 2.76953H132.695H131.695C131.695 3.50671 131.92 4.20873 132.475 4.73672L133.164 4.01172ZM148.012 6.20312H149.012V5.20312H148.012V6.20312ZM148.012 8.03125L148.232 9.00674L149.012 8.83081V8.03125H148.012ZM146.453 8.38281L146.233 7.40732L144.929 7.70152L145.58 8.86951L146.453 8.38281ZM141.777 14.7695L142.094 13.8208L141.543 13.6373L141.111 14.0243L141.777 14.7695ZM147.016 17.5469L146.304 18.2494L146.313 18.2586L147.016 17.5469ZM138.672 24.0508L139.301 23.2737L139.297 23.2699L138.672 24.0508ZM138.168 19.4453L137.393 18.8139L137.388 18.8193L138.168 19.4453ZM140.02 18.25L140.322 19.2033L143.014 18.3502L140.385 17.319L140.02 18.25ZM139.035 17.5234L138.24 18.1295L138.244 18.1354L138.249 18.1413L139.035 17.5234ZM138.777 15.6602L139.715 16.0075L139.719 15.9965L138.777 15.6602ZM139.105 15.0508L138.309 14.4457L138.305 14.4508L139.105 15.0508ZM139.996 14.1953L140.64 14.9602L141.704 14.0643L140.516 13.3411L139.996 14.1953ZM143.512 6.02734L143.333 7.01121L143.344 7.01319L143.355 7.01492L143.512 6.02734ZM144.297 6.20312L143.968 7.14762L144.128 7.20312H144.297V6.20312ZM140.816 22.3164L141.467 21.5571L141.466 21.5558L140.816 22.3164ZM144.332 22.1992L143.73 21.4008L143.724 21.4056L144.332 22.1992ZM144.66 19.6797L144.03 20.4558L144.035 20.4605L144.041 20.4652L144.66 19.6797ZM140.711 19.8438L139.94 19.2074L139.931 19.2178L139.923 19.2285L140.711 19.8438ZM148.012 6.20312H147.012V8.03125H148.012H149.012V6.20312H148.012ZM148.012 8.03125L147.792 7.05576L146.233 7.40732L146.453 8.38281L146.673 9.3583L148.232 9.00674L148.012 8.03125ZM146.453 8.38281L145.58 8.86951C145.779 9.22717 145.91 9.73439 145.91 10.4453H146.91H147.91C147.91 9.49999 147.737 8.63221 147.327 7.89611L146.453 8.38281ZM146.91 10.4453H145.91C145.91 11.6445 145.589 12.4514 145.064 12.9989L145.785 13.6914L146.507 14.3839C147.481 13.3689 147.91 12.0118 147.91 10.4453H146.91ZM145.785 13.6914L145.064 12.9989C144.546 13.5384 143.786 13.8633 142.645 13.8633V14.8633V15.8633C144.191 15.8633 145.525 15.4069 146.507 14.3839L145.785 13.6914ZM142.645 14.8633V13.8633C142.474 13.8633 142.341 13.8564 142.242 13.8456C142.193 13.8403 142.156 13.8345 142.13 13.8294C142.103 13.8241 142.092 13.8204 142.094 13.8208L141.777 14.7695L141.461 15.7182C141.808 15.8337 142.23 15.8633 142.645 15.8633V14.8633ZM141.777 14.7695L141.111 14.0243C140.92 14.1948 140.743 14.3825 140.578 14.5856L141.355 15.2148L142.133 15.844C142.234 15.7191 142.338 15.6099 142.444 15.5148L141.777 14.7695ZM141.355 15.2148L140.578 14.5856C140.28 14.9535 140.156 15.3885 140.156 15.8242H141.156H142.156C142.156 15.7948 142.16 15.7898 142.157 15.801C142.155 15.8063 142.152 15.8137 142.147 15.8221C142.143 15.8305 142.138 15.838 142.133 15.844L141.355 15.2148ZM141.156 15.8242H140.156C140.156 16.4539 140.464 16.9892 141.01 17.305C141.473 17.5727 142.038 17.6445 142.574 17.6445V16.6445V15.6445C142.383 15.6445 142.242 15.6305 142.143 15.6114C142.042 15.5919 142.008 15.5716 142.011 15.5739C142.022 15.5797 142.07 15.6123 142.111 15.6839C142.153 15.7554 142.156 15.8132 142.156 15.8242H141.156ZM142.574 16.6445V17.6445H144.461V16.6445V15.6445H142.574V16.6445ZM144.461 16.6445V17.6445C145.39 17.6445 145.951 17.8923 146.304 18.2493L147.016 17.5469L147.727 16.8444C146.892 15.9984 145.751 15.6445 144.461 15.6445V16.6445ZM147.016 17.5469L146.313 18.2586C146.656 18.5969 146.918 19.1921 146.918 20.2422H147.918H148.918C148.918 18.886 148.578 17.6843 147.718 16.8352L147.016 17.5469ZM147.918 20.2422H146.918C146.918 21.51 146.507 22.3756 145.763 22.9828L146.395 23.7578L147.026 24.5328C148.313 23.4838 148.918 22.0056 148.918 20.2422H147.918ZM146.395 23.7578L145.763 22.9828C144.991 23.612 143.789 24 142.012 24V25V26C144.046 26 145.767 25.5599 147.026 24.5328L146.395 23.7578ZM142.012 25V24C140.698 24 139.841 23.7109 139.301 23.2737L138.672 24.0508L138.042 24.8278C139.065 25.6563 140.435 26 142.012 26V25ZM138.672 24.0508L139.297 23.2699C138.793 22.867 138.5 22.2832 138.5 21.3672H137.5H136.5C136.5 22.7793 136.988 23.9846 138.047 24.8316L138.672 24.0508ZM137.5 21.3672H138.5C138.5 20.863 138.648 20.4444 138.948 20.0713L138.168 19.4453L137.388 18.8193C136.797 19.5556 136.5 20.4183 136.5 21.3672H137.5ZM138.168 19.4453L138.943 20.0767C139.246 19.7057 139.685 19.4049 140.322 19.2033L140.02 18.25L139.717 17.2967C138.776 17.5951 137.981 18.0912 137.393 18.8139L138.168 19.4453ZM140.02 18.25L140.385 17.319C140.148 17.226 139.966 17.09 139.821 16.9056L139.035 17.5234L138.249 18.1413C138.62 18.6131 139.095 18.9615 139.654 19.181L140.02 18.25ZM139.035 17.5234L139.831 16.9174C139.722 16.7744 139.66 16.6077 139.66 16.375H138.66H137.66C137.66 17.0173 137.849 17.6162 138.24 18.1295L139.035 17.5234ZM138.66 16.375H139.66C139.66 16.207 139.685 16.0891 139.715 16.0075L138.777 15.6602L137.84 15.3128C137.714 15.653 137.66 16.0118 137.66 16.375H138.66ZM138.777 15.6602L139.719 15.9965C139.763 15.8731 139.825 15.7587 139.905 15.6508L139.105 15.0508L138.305 14.4508C138.105 14.7178 137.948 15.0097 137.836 15.3238L138.777 15.6602ZM139.105 15.0508L139.902 15.6559C139.976 15.5577 140.196 15.3346 140.64 14.9602L139.996 14.1953L139.352 13.4304C138.906 13.806 138.532 14.1533 138.309 14.4457L139.105 15.0508ZM139.996 14.1953L140.516 13.3411C140.177 13.1345 139.872 12.7988 139.627 12.2659L138.719 12.6836L137.81 13.1013C138.19 13.9277 138.737 14.5999 139.476 15.0495L139.996 14.1953ZM138.719 12.6836L139.627 12.2659C139.381 11.7306 139.25 11.1213 139.25 10.4219H138.25H137.25C137.25 11.3787 137.431 12.2772 137.81 13.1013L138.719 12.6836ZM138.25 10.4219H139.25C139.25 9.16519 139.577 8.33952 140.096 7.798L139.375 7.10547L138.654 6.41294C137.673 7.43392 137.25 8.81918 137.25 10.4219H138.25ZM139.375 7.10547L140.096 7.798C140.607 7.26616 141.388 6.93359 142.598 6.93359V5.93359V4.93359C141.01 4.93359 139.643 5.38228 138.654 6.41294L139.375 7.10547ZM142.598 5.93359V6.93359C142.788 6.93359 143.031 6.9563 143.333 7.01121L143.512 6.02734L143.691 5.04347C143.305 4.97338 142.939 4.93359 142.598 4.93359V5.93359ZM143.512 6.02734L143.355 7.01492C143.679 7.06661 143.872 7.11427 143.968 7.14762L144.297 6.20312L144.625 5.25863C144.362 5.16698 144.031 5.09746 143.669 5.03976L143.512 6.02734ZM144.297 6.20312V7.20312H148.012V6.20312V5.20312H144.297V6.20312ZM140.336 21.1328H139.336C139.336 21.8694 139.575 22.5715 140.167 23.077L140.816 22.3164L141.466 21.5558C141.417 21.5145 141.336 21.4275 141.336 21.1328H140.336ZM140.816 22.3164L140.166 23.0757C140.735 23.5637 141.464 23.7383 142.211 23.7383V22.7383V21.7383C141.755 21.7383 141.554 21.6316 141.467 21.5571L140.816 22.3164ZM142.211 22.7383V23.7383C143.254 23.7383 144.22 23.5452 144.94 22.9928L144.332 22.1992L143.724 21.4056C143.507 21.572 143.059 21.7383 142.211 21.7383V22.7383ZM144.332 22.1992L144.934 22.9976C145.675 22.4391 146.047 21.6442 146.047 20.7227H145.047H144.047C144.047 21.0511 143.942 21.2405 143.73 21.4008L144.332 22.1992ZM145.047 20.7227H146.047C146.047 20.0814 145.879 19.3666 145.279 18.8942L144.66 19.6797L144.041 20.4652C144.008 20.4387 144.004 20.4162 144.013 20.4404C144.025 20.4732 144.047 20.5586 144.047 20.7227H145.047ZM144.66 19.6797L145.291 18.9036C144.997 18.6653 144.648 18.5422 144.328 18.4735C144 18.403 143.633 18.375 143.242 18.375V19.375V20.375C143.547 20.375 143.764 20.3978 143.908 20.4289C144.061 20.4617 144.073 20.4909 144.03 20.4558L144.66 19.6797ZM143.242 19.375V18.375H141.73V19.375V20.375H143.242V19.375ZM141.73 19.375V18.375C141.024 18.375 140.396 18.6539 139.94 19.2074L140.711 19.8438L141.482 20.4801C141.541 20.4086 141.593 20.375 141.73 20.375V19.375ZM140.711 19.8438L139.923 19.2285C139.497 19.7744 139.336 20.4436 139.336 21.1328H140.336H141.336C141.336 20.7439 141.425 20.5537 141.499 20.459L140.711 19.8438ZM141.297 10.4453H140.297C140.297 11.276 140.408 12.0595 140.751 12.6676C141.141 13.3597 141.795 13.7539 142.598 13.7539V12.7539V11.7539C142.533 11.7539 142.525 11.7412 142.538 11.749C142.55 11.7562 142.53 11.7514 142.493 11.6859C142.402 11.5245 142.297 11.1537 142.297 10.4453H141.297ZM142.598 12.7539V13.7539C142.968 13.7539 143.339 13.6668 143.675 13.4603C144.008 13.2553 144.253 12.9668 144.426 12.6479C144.756 12.0402 144.863 11.257 144.863 10.4219H143.863H142.863C142.863 11.1415 142.76 11.5243 142.668 11.6939C142.63 11.7637 142.611 11.7667 142.628 11.756C142.648 11.7439 142.65 11.7539 142.598 11.7539V12.7539ZM143.863 10.4219H144.863C144.863 9.56939 144.756 8.77549 144.431 8.16102C144.26 7.83894 144.018 7.54473 143.684 7.33443C143.347 7.12189 142.972 7.03125 142.598 7.03125V8.03125V9.03125C142.645 9.03125 142.64 9.04022 142.619 9.0269C142.601 9.01581 142.623 9.02043 142.663 9.09679C142.76 9.27919 142.863 9.68061 142.863 10.4219H143.863ZM142.598 8.03125V7.03125C142.221 7.03125 141.843 7.12074 141.502 7.3317C141.164 7.54094 140.917 7.83518 140.742 8.16041C140.407 8.78092 140.297 9.58351 140.297 10.4453H141.297H142.297C142.297 9.69774 142.403 9.2933 142.502 9.10912C142.544 9.03201 142.568 9.02449 142.555 9.03256C142.539 9.04235 142.541 9.03125 142.598 9.03125V8.03125ZM156.086 19.2344H155.086V20.2344H156.086V19.2344ZM153.168 9.58984L154.073 10.0156L154.075 10.0116L153.168 9.58984ZM152.699 19.2344V20.2344H153.699V19.2344H152.699ZM149.582 19.2344H148.582V20.2344H149.582V19.2344ZM149.582 6.17969V5.17969H148.582V6.17969H149.582ZM152.055 6.17969L153.031 5.96131L152.856 5.17969H152.055V6.17969ZM152.43 7.85547L151.454 8.07384L151.629 8.85547H152.43V7.85547ZM152.629 7.85547V8.85547H153.265L153.535 8.279L152.629 7.85547ZM153.836 6.44922L154.376 7.29085L154.385 7.28509L153.836 6.44922ZM158.336 7.15234L157.525 7.73728L157.529 7.74236L158.336 7.15234ZM159.227 19.2344V20.2344H160.227V19.2344H159.227ZM156.086 19.2344H157.086V11.4531H156.086H155.086V19.2344H156.086ZM156.086 11.4531H157.086C157.086 10.4571 156.971 9.56752 156.652 8.88491L155.746 9.30859L154.84 9.73228C154.974 10.0184 155.086 10.5585 155.086 11.4531H156.086ZM155.746 9.30859L156.652 8.88491C156.477 8.51168 156.219 8.17155 155.851 7.9289C155.48 7.68413 155.063 7.58203 154.645 7.58203V8.58203V9.58203C154.692 9.58203 154.719 9.58763 154.732 9.59121C154.744 9.59449 154.748 9.5973 154.75 9.59845C154.752 9.59976 154.761 9.60572 154.775 9.62351C154.791 9.64215 154.814 9.67583 154.84 9.73228L155.746 9.30859ZM154.645 8.58203V7.58203C154.134 7.58203 153.641 7.71256 153.208 8.00803C152.781 8.29942 152.475 8.70845 152.261 9.16811L153.168 9.58984L154.075 10.0116C154.173 9.79936 154.27 9.70449 154.335 9.65993C154.395 9.61947 154.483 9.58203 154.645 9.58203V8.58203ZM153.168 9.58984L152.263 9.16405C151.849 10.0439 151.699 11.364 151.699 12.9648H152.699H153.699C153.699 11.3938 153.862 10.4639 154.073 10.0156L153.168 9.58984ZM152.699 12.9648H151.699V19.2344H152.699H153.699V12.9648H152.699ZM152.699 19.2344V18.2344H149.582V19.2344V20.2344H152.699V19.2344ZM149.582 19.2344H150.582V6.17969H149.582H148.582V19.2344H149.582ZM149.582 6.17969V7.17969H152.055V6.17969V5.17969H149.582V6.17969ZM152.055 6.17969L151.079 6.39806L151.454 8.07384L152.43 7.85547L153.406 7.63709L153.031 5.96131L152.055 6.17969ZM152.43 7.85547V8.85547H152.629V7.85547V6.85547H152.43V7.85547ZM152.629 7.85547L153.535 8.279C153.742 7.83644 154.022 7.51775 154.376 7.2908L153.836 6.44922L153.296 5.60763C152.603 6.05256 152.079 6.67137 151.723 7.43194L152.629 7.85547ZM153.836 6.44922L154.385 7.28509C154.726 7.06125 155.143 6.93359 155.676 6.93359V5.93359V4.93359C154.802 4.93359 153.993 5.14969 153.287 5.61335L153.836 6.44922ZM155.676 5.93359V6.93359C156.61 6.93359 157.163 7.23588 157.525 7.73726L158.336 7.15234L159.147 6.56742C158.337 5.44381 157.117 4.93359 155.676 4.93359V5.93359ZM158.336 7.15234L157.529 7.74236C157.945 8.31239 158.227 9.25489 158.227 10.7148H159.227H160.227C160.227 9.0498 159.914 7.6173 159.143 6.56233L158.336 7.15234ZM159.227 10.7148H158.227V19.2344H159.227H160.227V10.7148H159.227ZM159.227 19.2344V18.2344H156.086V19.2344V20.2344H159.227V19.2344Z" fill="#00A218" mask="url(#path-1-outside-1_0_3)"/>
</svg>
