<svg width="108" height="18" viewBox="0 0 108 18" fill="none" xmlns="http://www.w3.org/2000/svg">
<mask id="path-1-outside-1_0_3" maskUnits="userSpaceOnUse" x="-0.578125" y="-0.84375" width="109" height="19" fill="black">
<rect fill="white" x="-0.578125" y="-0.84375" width="109" height="19"/>
<path d="M4.51562 13.3125C3.42708 13.3125 2.56771 12.9271 1.9375 12.1562C1.3125 11.3802 1 10.2839 1 8.86719C1 7.42969 1.28385 6.30729 1.85156 5.5C2.41927 4.69271 3.21094 4.28906 4.22656 4.28906C5.17448 4.28906 5.92188 4.63542 6.46875 5.32812C7.01562 6.01562 7.28906 6.98177 7.28906 8.22656V9.33594H3.10938C3.125 10.112 3.28385 10.6901 3.58594 11.0703C3.88802 11.4453 4.30469 11.6328 4.83594 11.6328C5.51302 11.6328 6.20573 11.4219 6.91406 11V12.7109C6.2474 13.112 5.44792 13.3125 4.51562 13.3125ZM4.21094 5.89062C3.91406 5.89062 3.66927 6.04948 3.47656 6.36719C3.28385 6.67969 3.17188 7.16667 3.14062 7.82812H5.25C5.23958 7.19271 5.14323 6.71094 4.96094 6.38281C4.77865 6.05469 4.52865 5.89062 4.21094 5.89062ZM13 13.1562V7.96875C13 7.33854 12.9245 6.86198 12.7734 6.53906C12.6224 6.21615 12.3776 6.05469 12.0391 6.05469C11.5911 6.05469 11.263 6.27865 11.0547 6.72656C10.8464 7.16927 10.7422 7.91927 10.7422 8.97656V13.1562H8.66406V4.45312H10.3125L10.5625 5.57031H10.6953C10.8828 5.16927 11.151 4.85677 11.5 4.63281C11.849 4.40365 12.2578 4.28906 12.7266 4.28906C13.5182 4.28906 14.1094 4.5599 14.5 5.10156C14.8958 5.64323 15.0938 6.4349 15.0938 7.47656V13.1562H13ZM18.8203 8.46875L19.3438 7.42969L21.0625 4.45312H23.2656L21.0625 8.02344L23.4141 13.1562H21.2344L19.6641 9.47656L18.8516 10.2109V13.1562H16.7734V1H18.8516V6.72656L18.7578 8.46875H18.8203ZM28.5859 13.1562L28.1719 11.9688H28.125C27.8177 12.4792 27.5 12.8307 27.1719 13.0234C26.8438 13.2161 26.4297 13.3125 25.9297 13.3125C25.2891 13.3125 24.7839 13.0729 24.4141 12.5938C24.0495 12.1146 23.8672 11.4479 23.8672 10.5938C23.8672 9.67708 24.1172 8.9974 24.6172 8.55469C25.1224 8.10677 25.875 7.85938 26.875 7.8125L28.0312 7.76562V7.14062C28.0312 6.32812 27.6797 5.92188 26.9766 5.92188C26.4557 5.92188 25.8568 6.125 25.1797 6.53125L24.4609 5.09375C25.3255 4.54688 26.2656 4.27344 27.2812 4.27344C28.2031 4.27344 28.9036 4.53906 29.3828 5.07031C29.8672 5.59635 30.1094 6.34375 30.1094 7.3125V13.1562H28.5859ZM26.7812 11.6875C27.1615 11.6875 27.4635 11.5182 27.6875 11.1797C27.9167 10.8359 28.0312 10.3802 28.0312 9.8125V9.07812L27.3906 9.10938C26.9167 9.13542 26.5677 9.27083 26.3438 9.51562C26.125 9.76042 26.0156 10.125 26.0156 10.6094C26.0156 11.3281 26.2708 11.6875 26.7812 11.6875ZM35.7188 4.28906C36.5104 4.28906 37.1328 4.68229 37.5859 5.46875C38.0391 6.25521 38.2656 7.36198 38.2656 8.78906C38.2656 10.2318 38.0365 11.3464 37.5781 12.1328C37.125 12.9193 36.4948 13.3125 35.6875 13.3125C35.2969 13.3125 34.9505 13.2292 34.6484 13.0625C34.3516 12.8906 34.0703 12.5911 33.8047 12.1641H33.6719L33.3203 13.1562H31.7891V1H33.8672V3.84375C33.8672 3.96354 33.8646 4.08854 33.8594 4.21875C33.8542 4.34896 33.8203 4.80469 33.7578 5.58594H33.8672C34.1224 5.10677 34.3984 4.77083 34.6953 4.57812C34.9922 4.38542 35.3333 4.28906 35.7188 4.28906ZM35 6.05469C34.6042 6.05469 34.3177 6.23958 34.1406 6.60938C33.9688 6.97917 33.8776 7.63021 33.8672 8.5625V8.77344C33.8672 9.78385 33.9557 10.4948 34.1328 10.9062C34.3151 11.3177 34.6094 11.5234 35.0156 11.5234C35.7656 11.5234 36.1406 10.6016 36.1406 8.75781C36.1406 6.95573 35.7604 6.05469 35 6.05469Z"/>
<path d="M45.7891 13.1562L44.9219 8.10156L44.6172 5.96875H44.5859C44.5078 6.66146 44.4453 7.16406 44.3984 7.47656C44.3516 7.78385 44.0208 9.67708 43.4062 13.1562H40.7344L39 4.45312H41.0859L41.8828 9.25C41.9766 9.78125 42.0625 10.5599 42.1406 11.5859H42.1875C42.1979 11.3099 42.2344 10.8906 42.2969 10.3281C42.3594 9.76042 42.4036 9.39583 42.4297 9.23438L43.2891 4.45312H45.9609L46.8125 9.25C46.9115 9.76042 46.9974 10.5391 47.0703 11.5859H47.1016C47.1745 10.6536 47.2656 9.875 47.375 9.25L48.2031 4.45312H50.2344L48.4922 13.1562H45.7891ZM54.5 13.3125C53.4115 13.3125 52.5521 12.9271 51.9219 12.1562C51.2969 11.3802 50.9844 10.2839 50.9844 8.86719C50.9844 7.42969 51.2682 6.30729 51.8359 5.5C52.4036 4.69271 53.1953 4.28906 54.2109 4.28906C55.1589 4.28906 55.9062 4.63542 56.4531 5.32812C57 6.01562 57.2734 6.98177 57.2734 8.22656V9.33594H53.0938C53.1094 10.112 53.2682 10.6901 53.5703 11.0703C53.8724 11.4453 54.2891 11.6328 54.8203 11.6328C55.4974 11.6328 56.1901 11.4219 56.8984 11V12.7109C56.2318 13.112 55.4323 13.3125 54.5 13.3125ZM54.1953 5.89062C53.8984 5.89062 53.6536 6.04948 53.4609 6.36719C53.2682 6.67969 53.1562 7.16667 53.125 7.82812H55.2344C55.224 7.19271 55.1276 6.71094 54.9453 6.38281C54.763 6.05469 54.513 5.89062 54.1953 5.89062ZM62.5781 4.28906C63.3698 4.28906 63.9922 4.68229 64.4453 5.46875C64.8984 6.25521 65.125 7.36198 65.125 8.78906C65.125 10.2318 64.8958 11.3464 64.4375 12.1328C63.9844 12.9193 63.3542 13.3125 62.5469 13.3125C62.1562 13.3125 61.8099 13.2292 61.5078 13.0625C61.2109 12.8906 60.9297 12.5911 60.6641 12.1641H60.5312L60.1797 13.1562H58.6484V1H60.7266V3.84375C60.7266 3.96354 60.724 4.08854 60.7188 4.21875C60.7135 4.34896 60.6797 4.80469 60.6172 5.58594H60.7266C60.9818 5.10677 61.2578 4.77083 61.5547 4.57812C61.8516 4.38542 62.1927 4.28906 62.5781 4.28906ZM61.8594 6.05469C61.4635 6.05469 61.1771 6.23958 61 6.60938C60.8281 6.97917 60.737 7.63021 60.7266 8.5625V8.77344C60.7266 9.78385 60.8151 10.4948 60.9922 10.9062C61.1745 11.3177 61.4688 11.5234 61.875 11.5234C62.625 11.5234 63 10.6016 63 8.75781C63 6.95573 62.6198 6.05469 61.8594 6.05469ZM73.9766 7.33594C73.9766 9.22135 73.5911 10.6641 72.8203 11.6641C72.0547 12.6589 70.9505 13.1562 69.5078 13.1562H66.7109V1.73438H69.7656C71.0938 1.73438 72.1276 2.22656 72.8672 3.21094C73.6068 4.1901 73.9766 5.5651 73.9766 7.33594ZM71.7969 7.39844C71.7969 4.84635 71.0938 3.57031 69.6875 3.57031H68.8359V11.2969H69.5234C70.2995 11.2969 70.8724 10.974 71.2422 10.3281C71.612 9.67708 71.7969 8.70052 71.7969 7.39844ZM78.7344 13.3125C77.6458 13.3125 76.7865 12.9271 76.1562 12.1562C75.5312 11.3802 75.2188 10.2839 75.2188 8.86719C75.2188 7.42969 75.5026 6.30729 76.0703 5.5C76.638 4.69271 77.4297 4.28906 78.4453 4.28906C79.3932 4.28906 80.1406 4.63542 80.6875 5.32812C81.2344 6.01562 81.5078 6.98177 81.5078 8.22656V9.33594H77.3281C77.3438 10.112 77.5026 10.6901 77.8047 11.0703C78.1068 11.4453 78.5234 11.6328 79.0547 11.6328C79.7318 11.6328 80.4245 11.4219 81.1328 11V12.7109C80.4661 13.112 79.6667 13.3125 78.7344 13.3125ZM78.4297 5.89062C78.1328 5.89062 77.888 6.04948 77.6953 6.36719C77.5026 6.67969 77.3906 7.16667 77.3594 7.82812H79.4688C79.4583 7.19271 79.362 6.71094 79.1797 6.38281C78.9974 6.05469 78.7474 5.89062 78.4297 5.89062ZM87.5547 10.6094C87.5547 11.4583 87.3047 12.1224 86.8047 12.6016C86.3099 13.0755 85.5781 13.3125 84.6094 13.3125C83.75 13.3125 83.0391 13.1432 82.4766 12.8047V11C82.763 11.1979 83.0964 11.362 83.4766 11.4922C83.862 11.6224 84.2005 11.6875 84.4922 11.6875C84.8151 11.6875 85.0599 11.6094 85.2266 11.4531C85.3984 11.2917 85.4844 11.0807 85.4844 10.8203C85.4844 10.5547 85.3958 10.3229 85.2188 10.125C85.0417 9.92708 84.7161 9.6849 84.2422 9.39844C83.612 9.02344 83.1589 8.625 82.8828 8.20312C82.612 7.77604 82.4766 7.27344 82.4766 6.69531C82.4766 5.95573 82.7292 5.36979 83.2344 4.9375C83.7448 4.50521 84.4427 4.28906 85.3281 4.28906C86.099 4.28906 86.8255 4.49219 87.5078 4.89844L86.8281 6.39062C86.2708 6.08854 85.7812 5.9375 85.3594 5.9375C85.0938 5.9375 84.8932 6.00781 84.7578 6.14844C84.6276 6.28906 84.5625 6.46094 84.5625 6.66406C84.5625 6.89844 84.6432 7.10677 84.8047 7.28906C84.9714 7.47135 85.2786 7.69792 85.7266 7.96875C86.2682 8.29688 86.6484 8.57552 86.8672 8.80469C87.0859 9.03385 87.2552 9.29427 87.375 9.58594C87.4948 9.8776 87.5547 10.2188 87.5547 10.6094ZM90.9609 13.1562H88.8828V4.45312H90.9609V13.1562ZM88.7969 2.17969C88.7969 1.83594 88.8958 1.5651 89.0938 1.36719C89.2969 1.16406 89.5781 1.0625 89.9375 1.0625C90.276 1.0625 90.5469 1.16406 90.75 1.36719C90.9531 1.5651 91.0547 1.83594 91.0547 2.17969C91.0547 2.53385 90.9505 2.8099 90.7422 3.00781C90.5339 3.20052 90.2656 3.29688 89.9375 3.29688C89.5938 3.29688 89.3177 3.20052 89.1094 3.00781C88.901 2.8099 88.7969 2.53385 88.7969 2.17969ZM99.0078 4.46875V5.6875L97.9688 5.92188C98.1719 6.28646 98.2734 6.74479 98.2734 7.29688C98.2734 8.21875 98.0234 8.9401 97.5234 9.46094C97.0234 9.98177 96.3255 10.2422 95.4297 10.2422C95.1693 10.2422 94.9766 10.2214 94.8516 10.1797C94.7526 10.2682 94.6589 10.3672 94.5703 10.4766C94.4818 10.5859 94.4375 10.7214 94.4375 10.8828C94.4375 11.2474 94.7526 11.4297 95.3828 11.4297H96.6406C97.3802 11.4297 97.9479 11.6302 98.3438 12.0312C98.7448 12.4271 98.9453 13.026 98.9453 13.8281C98.9453 14.8385 98.6068 15.6198 97.9297 16.1719C97.2526 16.724 96.2786 17 95.0078 17C94.0443 17 93.3021 16.7891 92.7812 16.3672C92.2604 15.9505 92 15.3542 92 14.5781C92 14.0938 92.1484 13.6667 92.4453 13.2969C92.7422 12.9323 93.1536 12.6667 93.6797 12.5C93.4141 12.3958 93.1953 12.2344 93.0234 12.0156C92.8568 11.7969 92.7734 11.5417 92.7734 11.25C92.7734 11.0729 92.7995 10.9141 92.8516 10.7734C92.9036 10.6276 92.9766 10.4922 93.0703 10.3672C93.1693 10.237 93.3672 10.0469 93.6641 9.79688C93.3047 9.57812 93.0208 9.24219 92.8125 8.78906C92.6042 8.33594 92.5 7.83333 92.5 7.28125C92.5 6.32812 92.75 5.59115 93.25 5.07031C93.75 4.54948 94.4661 4.28906 95.3984 4.28906C95.5755 4.28906 95.7786 4.3099 96.0078 4.35156C96.237 4.38802 96.4115 4.42708 96.5312 4.46875H99.0078ZM93.8906 14.4219C93.8906 14.7656 93.9974 15.0286 94.2109 15.2109C94.4297 15.3984 94.7396 15.4922 95.1406 15.4922C95.7708 15.4922 96.2422 15.3724 96.5547 15.1328C96.8724 14.8932 97.0312 14.5651 97.0312 14.1484C97.0312 13.8203 96.9453 13.5885 96.7734 13.4531C96.6068 13.3177 96.2917 13.25 95.8281 13.25H94.8203C94.5391 13.25 94.3125 13.3542 94.1406 13.5625C93.974 13.776 93.8906 14.0625 93.8906 14.4219ZM94.5312 7.29688C94.5312 8.32292 94.8203 8.83594 95.3984 8.83594C95.9609 8.83594 96.2422 8.31771 96.2422 7.28125C96.2422 6.21875 95.9609 5.6875 95.3984 5.6875C94.8203 5.6875 94.5312 6.22396 94.5312 7.29688ZM104.391 13.1562V7.96875C104.391 7.33854 104.315 6.86198 104.164 6.53906C104.013 6.21615 103.768 6.05469 103.43 6.05469C102.982 6.05469 102.654 6.27865 102.445 6.72656C102.237 7.16927 102.133 7.91927 102.133 8.97656V13.1562H100.055V4.45312H101.703L101.953 5.57031H102.086C102.273 5.16927 102.542 4.85677 102.891 4.63281C103.24 4.40365 103.648 4.28906 104.117 4.28906C104.909 4.28906 105.5 4.5599 105.891 5.10156C106.286 5.64323 106.484 6.4349 106.484 7.47656V13.1562H104.391Z"/>
</mask>
<path d="M4.51562 13.3125C3.42708 13.3125 2.56771 12.9271 1.9375 12.1562C1.3125 11.3802 1 10.2839 1 8.86719C1 7.42969 1.28385 6.30729 1.85156 5.5C2.41927 4.69271 3.21094 4.28906 4.22656 4.28906C5.17448 4.28906 5.92188 4.63542 6.46875 5.32812C7.01562 6.01562 7.28906 6.98177 7.28906 8.22656V9.33594H3.10938C3.125 10.112 3.28385 10.6901 3.58594 11.0703C3.88802 11.4453 4.30469 11.6328 4.83594 11.6328C5.51302 11.6328 6.20573 11.4219 6.91406 11V12.7109C6.2474 13.112 5.44792 13.3125 4.51562 13.3125ZM4.21094 5.89062C3.91406 5.89062 3.66927 6.04948 3.47656 6.36719C3.28385 6.67969 3.17188 7.16667 3.14062 7.82812H5.25C5.23958 7.19271 5.14323 6.71094 4.96094 6.38281C4.77865 6.05469 4.52865 5.89062 4.21094 5.89062ZM13 13.1562V7.96875C13 7.33854 12.9245 6.86198 12.7734 6.53906C12.6224 6.21615 12.3776 6.05469 12.0391 6.05469C11.5911 6.05469 11.263 6.27865 11.0547 6.72656C10.8464 7.16927 10.7422 7.91927 10.7422 8.97656V13.1562H8.66406V4.45312H10.3125L10.5625 5.57031H10.6953C10.8828 5.16927 11.151 4.85677 11.5 4.63281C11.849 4.40365 12.2578 4.28906 12.7266 4.28906C13.5182 4.28906 14.1094 4.5599 14.5 5.10156C14.8958 5.64323 15.0938 6.4349 15.0938 7.47656V13.1562H13ZM18.8203 8.46875L19.3438 7.42969L21.0625 4.45312H23.2656L21.0625 8.02344L23.4141 13.1562H21.2344L19.6641 9.47656L18.8516 10.2109V13.1562H16.7734V1H18.8516V6.72656L18.7578 8.46875H18.8203ZM28.5859 13.1562L28.1719 11.9688H28.125C27.8177 12.4792 27.5 12.8307 27.1719 13.0234C26.8438 13.2161 26.4297 13.3125 25.9297 13.3125C25.2891 13.3125 24.7839 13.0729 24.4141 12.5938C24.0495 12.1146 23.8672 11.4479 23.8672 10.5938C23.8672 9.67708 24.1172 8.9974 24.6172 8.55469C25.1224 8.10677 25.875 7.85938 26.875 7.8125L28.0312 7.76562V7.14062C28.0312 6.32812 27.6797 5.92188 26.9766 5.92188C26.4557 5.92188 25.8568 6.125 25.1797 6.53125L24.4609 5.09375C25.3255 4.54688 26.2656 4.27344 27.2812 4.27344C28.2031 4.27344 28.9036 4.53906 29.3828 5.07031C29.8672 5.59635 30.1094 6.34375 30.1094 7.3125V13.1562H28.5859ZM26.7812 11.6875C27.1615 11.6875 27.4635 11.5182 27.6875 11.1797C27.9167 10.8359 28.0312 10.3802 28.0312 9.8125V9.07812L27.3906 9.10938C26.9167 9.13542 26.5677 9.27083 26.3438 9.51562C26.125 9.76042 26.0156 10.125 26.0156 10.6094C26.0156 11.3281 26.2708 11.6875 26.7812 11.6875ZM35.7188 4.28906C36.5104 4.28906 37.1328 4.68229 37.5859 5.46875C38.0391 6.25521 38.2656 7.36198 38.2656 8.78906C38.2656 10.2318 38.0365 11.3464 37.5781 12.1328C37.125 12.9193 36.4948 13.3125 35.6875 13.3125C35.2969 13.3125 34.9505 13.2292 34.6484 13.0625C34.3516 12.8906 34.0703 12.5911 33.8047 12.1641H33.6719L33.3203 13.1562H31.7891V1H33.8672V3.84375C33.8672 3.96354 33.8646 4.08854 33.8594 4.21875C33.8542 4.34896 33.8203 4.80469 33.7578 5.58594H33.8672C34.1224 5.10677 34.3984 4.77083 34.6953 4.57812C34.9922 4.38542 35.3333 4.28906 35.7188 4.28906ZM35 6.05469C34.6042 6.05469 34.3177 6.23958 34.1406 6.60938C33.9688 6.97917 33.8776 7.63021 33.8672 8.5625V8.77344C33.8672 9.78385 33.9557 10.4948 34.1328 10.9062C34.3151 11.3177 34.6094 11.5234 35.0156 11.5234C35.7656 11.5234 36.1406 10.6016 36.1406 8.75781C36.1406 6.95573 35.7604 6.05469 35 6.05469Z" fill="black"/>
<path d="M45.7891 13.1562L44.9219 8.10156L44.6172 5.96875H44.5859C44.5078 6.66146 44.4453 7.16406 44.3984 7.47656C44.3516 7.78385 44.0208 9.67708 43.4062 13.1562H40.7344L39 4.45312H41.0859L41.8828 9.25C41.9766 9.78125 42.0625 10.5599 42.1406 11.5859H42.1875C42.1979 11.3099 42.2344 10.8906 42.2969 10.3281C42.3594 9.76042 42.4036 9.39583 42.4297 9.23438L43.2891 4.45312H45.9609L46.8125 9.25C46.9115 9.76042 46.9974 10.5391 47.0703 11.5859H47.1016C47.1745 10.6536 47.2656 9.875 47.375 9.25L48.2031 4.45312H50.2344L48.4922 13.1562H45.7891ZM54.5 13.3125C53.4115 13.3125 52.5521 12.9271 51.9219 12.1562C51.2969 11.3802 50.9844 10.2839 50.9844 8.86719C50.9844 7.42969 51.2682 6.30729 51.8359 5.5C52.4036 4.69271 53.1953 4.28906 54.2109 4.28906C55.1589 4.28906 55.9062 4.63542 56.4531 5.32812C57 6.01562 57.2734 6.98177 57.2734 8.22656V9.33594H53.0938C53.1094 10.112 53.2682 10.6901 53.5703 11.0703C53.8724 11.4453 54.2891 11.6328 54.8203 11.6328C55.4974 11.6328 56.1901 11.4219 56.8984 11V12.7109C56.2318 13.112 55.4323 13.3125 54.5 13.3125ZM54.1953 5.89062C53.8984 5.89062 53.6536 6.04948 53.4609 6.36719C53.2682 6.67969 53.1562 7.16667 53.125 7.82812H55.2344C55.224 7.19271 55.1276 6.71094 54.9453 6.38281C54.763 6.05469 54.513 5.89062 54.1953 5.89062ZM62.5781 4.28906C63.3698 4.28906 63.9922 4.68229 64.4453 5.46875C64.8984 6.25521 65.125 7.36198 65.125 8.78906C65.125 10.2318 64.8958 11.3464 64.4375 12.1328C63.9844 12.9193 63.3542 13.3125 62.5469 13.3125C62.1562 13.3125 61.8099 13.2292 61.5078 13.0625C61.2109 12.8906 60.9297 12.5911 60.6641 12.1641H60.5312L60.1797 13.1562H58.6484V1H60.7266V3.84375C60.7266 3.96354 60.724 4.08854 60.7188 4.21875C60.7135 4.34896 60.6797 4.80469 60.6172 5.58594H60.7266C60.9818 5.10677 61.2578 4.77083 61.5547 4.57812C61.8516 4.38542 62.1927 4.28906 62.5781 4.28906ZM61.8594 6.05469C61.4635 6.05469 61.1771 6.23958 61 6.60938C60.8281 6.97917 60.737 7.63021 60.7266 8.5625V8.77344C60.7266 9.78385 60.8151 10.4948 60.9922 10.9062C61.1745 11.3177 61.4688 11.5234 61.875 11.5234C62.625 11.5234 63 10.6016 63 8.75781C63 6.95573 62.6198 6.05469 61.8594 6.05469ZM73.9766 7.33594C73.9766 9.22135 73.5911 10.6641 72.8203 11.6641C72.0547 12.6589 70.9505 13.1562 69.5078 13.1562H66.7109V1.73438H69.7656C71.0938 1.73438 72.1276 2.22656 72.8672 3.21094C73.6068 4.1901 73.9766 5.5651 73.9766 7.33594ZM71.7969 7.39844C71.7969 4.84635 71.0938 3.57031 69.6875 3.57031H68.8359V11.2969H69.5234C70.2995 11.2969 70.8724 10.974 71.2422 10.3281C71.612 9.67708 71.7969 8.70052 71.7969 7.39844ZM78.7344 13.3125C77.6458 13.3125 76.7865 12.9271 76.1562 12.1562C75.5312 11.3802 75.2188 10.2839 75.2188 8.86719C75.2188 7.42969 75.5026 6.30729 76.0703 5.5C76.638 4.69271 77.4297 4.28906 78.4453 4.28906C79.3932 4.28906 80.1406 4.63542 80.6875 5.32812C81.2344 6.01562 81.5078 6.98177 81.5078 8.22656V9.33594H77.3281C77.3438 10.112 77.5026 10.6901 77.8047 11.0703C78.1068 11.4453 78.5234 11.6328 79.0547 11.6328C79.7318 11.6328 80.4245 11.4219 81.1328 11V12.7109C80.4661 13.112 79.6667 13.3125 78.7344 13.3125ZM78.4297 5.89062C78.1328 5.89062 77.888 6.04948 77.6953 6.36719C77.5026 6.67969 77.3906 7.16667 77.3594 7.82812H79.4688C79.4583 7.19271 79.362 6.71094 79.1797 6.38281C78.9974 6.05469 78.7474 5.89062 78.4297 5.89062ZM87.5547 10.6094C87.5547 11.4583 87.3047 12.1224 86.8047 12.6016C86.3099 13.0755 85.5781 13.3125 84.6094 13.3125C83.75 13.3125 83.0391 13.1432 82.4766 12.8047V11C82.763 11.1979 83.0964 11.362 83.4766 11.4922C83.862 11.6224 84.2005 11.6875 84.4922 11.6875C84.8151 11.6875 85.0599 11.6094 85.2266 11.4531C85.3984 11.2917 85.4844 11.0807 85.4844 10.8203C85.4844 10.5547 85.3958 10.3229 85.2188 10.125C85.0417 9.92708 84.7161 9.6849 84.2422 9.39844C83.612 9.02344 83.1589 8.625 82.8828 8.20312C82.612 7.77604 82.4766 7.27344 82.4766 6.69531C82.4766 5.95573 82.7292 5.36979 83.2344 4.9375C83.7448 4.50521 84.4427 4.28906 85.3281 4.28906C86.099 4.28906 86.8255 4.49219 87.5078 4.89844L86.8281 6.39062C86.2708 6.08854 85.7812 5.9375 85.3594 5.9375C85.0938 5.9375 84.8932 6.00781 84.7578 6.14844C84.6276 6.28906 84.5625 6.46094 84.5625 6.66406C84.5625 6.89844 84.6432 7.10677 84.8047 7.28906C84.9714 7.47135 85.2786 7.69792 85.7266 7.96875C86.2682 8.29688 86.6484 8.57552 86.8672 8.80469C87.0859 9.03385 87.2552 9.29427 87.375 9.58594C87.4948 9.8776 87.5547 10.2188 87.5547 10.6094ZM90.9609 13.1562H88.8828V4.45312H90.9609V13.1562ZM88.7969 2.17969C88.7969 1.83594 88.8958 1.5651 89.0938 1.36719C89.2969 1.16406 89.5781 1.0625 89.9375 1.0625C90.276 1.0625 90.5469 1.16406 90.75 1.36719C90.9531 1.5651 91.0547 1.83594 91.0547 2.17969C91.0547 2.53385 90.9505 2.8099 90.7422 3.00781C90.5339 3.20052 90.2656 3.29688 89.9375 3.29688C89.5938 3.29688 89.3177 3.20052 89.1094 3.00781C88.901 2.8099 88.7969 2.53385 88.7969 2.17969ZM99.0078 4.46875V5.6875L97.9688 5.92188C98.1719 6.28646 98.2734 6.74479 98.2734 7.29688C98.2734 8.21875 98.0234 8.9401 97.5234 9.46094C97.0234 9.98177 96.3255 10.2422 95.4297 10.2422C95.1693 10.2422 94.9766 10.2214 94.8516 10.1797C94.7526 10.2682 94.6589 10.3672 94.5703 10.4766C94.4818 10.5859 94.4375 10.7214 94.4375 10.8828C94.4375 11.2474 94.7526 11.4297 95.3828 11.4297H96.6406C97.3802 11.4297 97.9479 11.6302 98.3438 12.0312C98.7448 12.4271 98.9453 13.026 98.9453 13.8281C98.9453 14.8385 98.6068 15.6198 97.9297 16.1719C97.2526 16.724 96.2786 17 95.0078 17C94.0443 17 93.3021 16.7891 92.7812 16.3672C92.2604 15.9505 92 15.3542 92 14.5781C92 14.0938 92.1484 13.6667 92.4453 13.2969C92.7422 12.9323 93.1536 12.6667 93.6797 12.5C93.4141 12.3958 93.1953 12.2344 93.0234 12.0156C92.8568 11.7969 92.7734 11.5417 92.7734 11.25C92.7734 11.0729 92.7995 10.9141 92.8516 10.7734C92.9036 10.6276 92.9766 10.4922 93.0703 10.3672C93.1693 10.237 93.3672 10.0469 93.6641 9.79688C93.3047 9.57812 93.0208 9.24219 92.8125 8.78906C92.6042 8.33594 92.5 7.83333 92.5 7.28125C92.5 6.32812 92.75 5.59115 93.25 5.07031C93.75 4.54948 94.4661 4.28906 95.3984 4.28906C95.5755 4.28906 95.7786 4.3099 96.0078 4.35156C96.237 4.38802 96.4115 4.42708 96.5312 4.46875H99.0078ZM93.8906 14.4219C93.8906 14.7656 93.9974 15.0286 94.2109 15.2109C94.4297 15.3984 94.7396 15.4922 95.1406 15.4922C95.7708 15.4922 96.2422 15.3724 96.5547 15.1328C96.8724 14.8932 97.0312 14.5651 97.0312 14.1484C97.0312 13.8203 96.9453 13.5885 96.7734 13.4531C96.6068 13.3177 96.2917 13.25 95.8281 13.25H94.8203C94.5391 13.25 94.3125 13.3542 94.1406 13.5625C93.974 13.776 93.8906 14.0625 93.8906 14.4219ZM94.5312 7.29688C94.5312 8.32292 94.8203 8.83594 95.3984 8.83594C95.9609 8.83594 96.2422 8.31771 96.2422 7.28125C96.2422 6.21875 95.9609 5.6875 95.3984 5.6875C94.8203 5.6875 94.5312 6.22396 94.5312 7.29688ZM104.391 13.1562V7.96875C104.391 7.33854 104.315 6.86198 104.164 6.53906C104.013 6.21615 103.768 6.05469 103.43 6.05469C102.982 6.05469 102.654 6.27865 102.445 6.72656C102.237 7.16927 102.133 7.91927 102.133 8.97656V13.1562H100.055V4.45312H101.703L101.953 5.57031H102.086C102.273 5.16927 102.542 4.85677 102.891 4.63281C103.24 4.40365 103.648 4.28906 104.117 4.28906C104.909 4.28906 105.5 4.5599 105.891 5.10156C106.286 5.64323 106.484 6.4349 106.484 7.47656V13.1562H104.391Z" fill="#A7A7A7"/>
<path d="M1.9375 12.1562L1.15865 12.7835L1.16331 12.7892L1.9375 12.1562ZM1.85156 5.5L1.03357 4.92477L1.85156 5.5ZM6.46875 5.32812L5.68386 5.94777L5.68615 5.95065L6.46875 5.32812ZM7.28906 9.33594V10.3359H8.28906V9.33594H7.28906ZM3.10938 9.33594V8.33594H2.08904L2.10958 9.35607L3.10938 9.33594ZM3.58594 11.0703L2.80296 11.6924L2.80718 11.6976L3.58594 11.0703ZM6.91406 11H7.91406V9.24049L6.40236 10.1408L6.91406 11ZM6.91406 12.7109L7.42954 13.5678L7.91406 13.2764V12.7109H6.91406ZM3.47656 6.36719L4.32776 6.89209L4.33157 6.8858L3.47656 6.36719ZM3.14062 7.82812L2.14174 7.78093L2.09227 8.82812H3.14062V7.82812ZM5.25 7.82812V8.82812H6.26653L6.24987 7.81173L5.25 7.82812ZM4.51562 13.3125V12.3125C3.69528 12.3125 3.13268 12.0382 2.71169 11.5233L1.9375 12.1562L1.16331 12.7892C2.00273 13.8159 3.15888 14.3125 4.51562 14.3125V13.3125ZM1.9375 12.1562L2.71632 11.529C2.28408 10.9923 2 10.1499 2 8.86719H1H0C0 10.4179 0.340919 11.7681 1.15868 12.7835L1.9375 12.1562ZM1 8.86719H2C2 7.54588 2.26313 6.65317 2.66955 6.07523L1.85156 5.5L1.03357 4.92477C0.304578 5.96141 0 7.3135 0 8.86719H1ZM1.85156 5.5L2.66955 6.07523C3.04361 5.54332 3.52523 5.28906 4.22656 5.28906V4.28906V3.28906C2.89665 3.28906 1.79493 3.8421 1.03357 4.92477L1.85156 5.5ZM4.22656 4.28906V5.28906C4.89452 5.28906 5.34223 5.51503 5.68387 5.94777L6.46875 5.32812L7.25363 4.70848C6.50152 3.7558 5.45444 3.28906 4.22656 3.28906V4.28906ZM6.46875 5.32812L5.68615 5.95065C6.04394 6.40045 6.28906 7.11563 6.28906 8.22656H7.28906H8.28906C8.28906 6.84791 7.98731 5.6308 7.25135 4.7056L6.46875 5.32812ZM7.28906 8.22656H6.28906V9.33594H7.28906H8.28906V8.22656H7.28906ZM7.28906 9.33594V8.33594H3.10938V9.33594V10.3359H7.28906V9.33594ZM3.10938 9.33594L2.10958 9.35607C2.12716 10.2295 2.30458 11.0651 2.80298 11.6924L3.58594 11.0703L4.36889 10.4482C4.26313 10.3151 4.12284 9.99449 4.10917 9.31581L3.10938 9.33594ZM3.58594 11.0703L2.80718 11.6976C3.32034 12.3347 4.03765 12.6328 4.83594 12.6328V11.6328V10.6328C4.57172 10.6328 4.4557 10.556 4.36469 10.443L3.58594 11.0703ZM4.83594 11.6328V12.6328C5.72867 12.6328 6.59632 12.3532 7.42577 11.8592L6.91406 11L6.40236 10.1408C5.81514 10.4906 5.29737 10.6328 4.83594 10.6328V11.6328ZM6.91406 11H5.91406V12.7109H6.91406H7.91406V11H6.91406ZM6.91406 12.7109L6.39858 11.854C5.91591 12.1444 5.30249 12.3125 4.51562 12.3125V13.3125V14.3125C5.59334 14.3125 6.57889 14.0796 7.42954 13.5678L6.91406 12.7109ZM4.21094 5.89062V4.89062C3.47378 4.89062 2.94292 5.31875 2.62155 5.84858L3.47656 6.36719L4.33157 6.8858C4.3705 6.82162 4.38266 6.82681 4.34905 6.84862C4.3317 6.85988 4.30792 6.87165 4.27946 6.88C4.25114 6.8883 4.22702 6.89062 4.21094 6.89062V5.89062ZM3.47656 6.36719L2.62539 5.8423C2.29807 6.37309 2.1755 7.06637 2.14174 7.78093L3.14062 7.82812L4.13951 7.87532C4.16825 7.26697 4.26964 6.98629 4.32773 6.89208L3.47656 6.36719ZM3.14062 7.82812V8.82812H5.25V7.82812V6.82812H3.14062V7.82812ZM5.25 7.82812L6.24987 7.81173C6.23839 7.11168 6.13463 6.43633 5.83509 5.89717L4.96094 6.38281L4.08678 6.86846C4.15183 6.98554 4.24078 7.27374 4.25013 7.84452L5.25 7.82812ZM4.96094 6.38281L5.83509 5.89717C5.51469 5.32044 4.9643 4.89062 4.21094 4.89062V5.89062V6.89062C4.20348 6.89062 4.18469 6.88953 4.15889 6.88207C4.13263 6.87448 4.10814 6.8629 4.08806 6.84972C4.04764 6.82319 4.05456 6.81046 4.08678 6.86846L4.96094 6.38281ZM13 13.1562H12V14.1562H13V13.1562ZM11.0547 6.72656L11.9595 7.15236L11.9614 7.14829L11.0547 6.72656ZM10.7422 13.1562V14.1562H11.7422V13.1562H10.7422ZM8.66406 13.1562H7.66406V14.1562H8.66406V13.1562ZM8.66406 4.45312V3.45312H7.66406V4.45312H8.66406ZM10.3125 4.45312L11.2884 4.23475L11.1135 3.45312H10.3125V4.45312ZM10.5625 5.57031L9.58664 5.78869L9.76154 6.57031H10.5625V5.57031ZM10.6953 5.57031V6.57031H11.3317L11.6012 5.99384L10.6953 5.57031ZM11.5 4.63281L12.0402 5.47445L12.0489 5.46868L11.5 4.63281ZM14.5 5.10156L13.6889 5.68649L13.6926 5.69158L14.5 5.10156ZM15.0938 13.1562V14.1562H16.0938V13.1562H15.0938ZM13 13.1562H14V7.96875H13H12V13.1562H13ZM13 7.96875H14C14 7.28785 13.923 6.63653 13.6792 6.11538L12.7734 6.53906L11.8676 6.96275C11.9259 7.08743 12 7.38924 12 7.96875H13ZM12.7734 6.53906L13.6792 6.11538C13.5424 5.82288 13.3338 5.54329 13.0272 5.34101C12.7173 5.13661 12.3731 5.05469 12.0391 5.05469V6.05469V7.05469C12.0441 7.05469 12.0322 7.05524 12.0086 7.04873C11.984 7.04192 11.9548 7.0296 11.926 7.01055C11.8641 6.96973 11.8534 6.93233 11.8676 6.96275L12.7734 6.53906ZM12.0391 6.05469V5.05469C11.6405 5.05469 11.2442 5.15722 10.8933 5.39671C10.5484 5.6321 10.3097 5.95715 10.148 6.30483L11.0547 6.72656L11.9614 7.14829C12.008 7.04806 12.0375 7.03717 12.0208 7.04861C12.0136 7.05349 12.0062 7.05651 12.0029 7.05747C12.0005 7.05815 12.0108 7.05469 12.0391 7.05469V6.05469ZM11.0547 6.72656L10.1499 6.30077C9.83998 6.95928 9.74219 7.90435 9.74219 8.97656H10.7422H11.7422C11.7422 7.93419 11.8527 7.37926 11.9595 7.15236L11.0547 6.72656ZM10.7422 8.97656H9.74219V13.1562H10.7422H11.7422V8.97656H10.7422ZM10.7422 13.1562V12.1562H8.66406V13.1562V14.1562H10.7422V13.1562ZM8.66406 13.1562H9.66406V4.45312H8.66406H7.66406V13.1562H8.66406ZM8.66406 4.45312V5.45312H10.3125V4.45312V3.45312H8.66406V4.45312ZM10.3125 4.45312L9.33664 4.6715L9.58664 5.78869L10.5625 5.57031L11.5384 5.35194L11.2884 4.23475L10.3125 4.45312ZM10.5625 5.57031V6.57031H10.6953V5.57031V4.57031H10.5625V5.57031ZM10.6953 5.57031L11.6012 5.99384C11.7144 5.7518 11.861 5.58936 12.0401 5.4744L11.5 4.63281L10.9599 3.79123C10.4411 4.12418 10.0513 4.58674 9.78943 5.14678L10.6953 5.57031ZM11.5 4.63281L12.0489 5.46868C12.2153 5.35942 12.4281 5.28906 12.7266 5.28906V4.28906V3.28906C12.0875 3.28906 11.4826 3.44787 10.9511 3.79694L11.5 4.63281ZM12.7266 4.28906V5.28906C13.2646 5.28906 13.5226 5.45593 13.6889 5.68648L14.5 5.10156L15.3111 4.51664C14.6961 3.66386 13.7718 3.28906 12.7266 3.28906V4.28906ZM14.5 5.10156L13.6926 5.69158C13.9113 5.99077 14.0938 6.53744 14.0938 7.47656H15.0938H16.0938C16.0938 6.33235 15.8804 5.29569 15.3074 4.51155L14.5 5.10156ZM15.0938 7.47656H14.0938V13.1562H15.0938H16.0938V7.47656H15.0938ZM15.0938 13.1562V12.1562H13V13.1562V14.1562H15.0938V13.1562ZM18.8203 8.46875V9.46875H19.4363L19.7134 8.91865L18.8203 8.46875ZM19.3438 7.42969L18.4778 6.92964L18.4635 6.95433L18.4507 6.97979L19.3438 7.42969ZM21.0625 4.45312V3.45312H20.4852L20.1965 3.95307L21.0625 4.45312ZM23.2656 4.45312L24.1166 4.97826L25.0578 3.45312H23.2656V4.45312ZM21.0625 8.02344L20.2115 7.4983L19.9305 7.95358L20.1534 8.43995L21.0625 8.02344ZM23.4141 13.1562V14.1562H24.9722L24.3232 12.7397L23.4141 13.1562ZM21.2344 13.1562L20.3146 13.5488L20.5739 14.1562H21.2344V13.1562ZM19.6641 9.47656L20.5838 9.08406L20.0336 7.79466L18.9935 8.73469L19.6641 9.47656ZM18.8516 10.2109L18.181 9.46906L17.8516 9.76685V10.2109H18.8516ZM18.8516 13.1562V14.1562H19.8516V13.1562H18.8516ZM16.7734 13.1562H15.7734V14.1562H16.7734V13.1562ZM16.7734 1V0H15.7734V1H16.7734ZM18.8516 1H19.8516V0H18.8516V1ZM18.8516 6.72656L19.8501 6.7803L19.8516 6.75345V6.72656H18.8516ZM18.7578 8.46875L17.7593 8.41502L17.7026 9.46875H18.7578V8.46875ZM18.8203 8.46875L19.7134 8.91865L20.2368 7.87959L19.3438 7.42969L18.4507 6.97979L17.9272 8.01885L18.8203 8.46875ZM19.3438 7.42969L20.2097 7.92974L21.9285 4.95318L21.0625 4.45312L20.1965 3.95307L18.4778 6.92964L19.3438 7.42969ZM21.0625 4.45312V5.45312H23.2656V4.45312V3.45312H21.0625V4.45312ZM23.2656 4.45312L22.4146 3.92799L20.2115 7.4983L21.0625 8.02344L21.9135 8.54857L24.1166 4.97826L23.2656 4.45312ZM21.0625 8.02344L20.1534 8.43995L22.5049 13.5728L23.4141 13.1562L24.3232 12.7397L21.9716 7.60693L21.0625 8.02344ZM23.4141 13.1562V12.1562H21.2344V13.1562V14.1562H23.4141V13.1562ZM21.2344 13.1562L22.1541 12.7637L20.5838 9.08406L19.6641 9.47656L18.7443 9.86907L20.3146 13.5488L21.2344 13.1562ZM19.6641 9.47656L18.9935 8.73469L18.181 9.46906L18.8516 10.2109L19.5221 10.9528L20.3346 10.2184L19.6641 9.47656ZM18.8516 10.2109H17.8516V13.1562H18.8516H19.8516V10.2109H18.8516ZM18.8516 13.1562V12.1562H16.7734V13.1562V14.1562H18.8516V13.1562ZM16.7734 13.1562H17.7734V1H16.7734H15.7734V13.1562H16.7734ZM16.7734 1V2H18.8516V1V0H16.7734V1ZM18.8516 1H17.8516V6.72656H18.8516H19.8516V1H18.8516ZM18.8516 6.72656L17.853 6.67283L17.7593 8.41502L18.7578 8.46875L19.7564 8.52248L19.8501 6.7803L18.8516 6.72656ZM18.7578 8.46875V9.46875H18.8203V8.46875V7.46875H18.7578V8.46875ZM28.5859 13.1562L27.6417 13.4855L27.8756 14.1562H28.5859V13.1562ZM28.1719 11.9688L29.1161 11.6395L28.8822 10.9688H28.1719V11.9688ZM28.125 11.9688V10.9688H27.5598L27.2683 11.453L28.125 11.9688ZM24.4141 12.5938L23.6182 13.1993L23.6224 13.2047L24.4141 12.5938ZM24.6172 8.55469L25.2801 9.30339L25.2806 9.30295L24.6172 8.55469ZM26.875 7.8125L26.8345 6.8133L26.8282 6.8136L26.875 7.8125ZM28.0312 7.76562L28.0718 8.7648L29.0312 8.72591V7.76562H28.0312ZM25.1797 6.53125L24.2853 6.97846L24.7682 7.94433L25.6942 7.38874L25.1797 6.53125ZM24.4609 5.09375L23.9264 4.24862L23.1621 4.73207L23.5665 5.54096L24.4609 5.09375ZM29.3828 5.07031L28.6402 5.74012L28.6472 5.74768L29.3828 5.07031ZM30.1094 13.1562V14.1562H31.1094V13.1562H30.1094ZM27.6875 11.1797L26.8554 10.625L26.8535 10.628L27.6875 11.1797ZM28.0312 9.07812H29.0312V8.02816L27.9825 8.07931L28.0312 9.07812ZM27.3906 9.10938L27.3419 8.11054L27.3358 8.11088L27.3906 9.10938ZM26.3438 9.51562L25.6059 8.84056L25.5981 8.84929L26.3438 9.51562ZM28.5859 13.1562L29.5302 12.827L29.1161 11.6395L28.1719 11.9688L27.2276 12.298L27.6417 13.4855L28.5859 13.1562ZM28.1719 11.9688V10.9688H28.125V11.9688V12.9688H28.1719V11.9688ZM28.125 11.9688L27.2683 11.453C27.0029 11.8937 26.7907 12.0876 26.6655 12.1612L27.1719 13.0234L27.6783 13.8857C28.2093 13.5738 28.6325 13.0646 28.9817 12.4845L28.125 11.9688ZM27.1719 13.0234L26.6655 12.1612C26.5318 12.2396 26.306 12.3125 25.9297 12.3125V13.3125V14.3125C26.5533 14.3125 27.1557 14.1927 27.6783 13.8857L27.1719 13.0234ZM25.9297 13.3125V12.3125C25.578 12.3125 25.3737 12.2004 25.2057 11.9828L24.4141 12.5938L23.6224 13.2047C24.194 13.9454 25.0002 14.3125 25.9297 14.3125V13.3125ZM24.4141 12.5938L25.2099 11.9882C25.0231 11.7427 24.8672 11.3183 24.8672 10.5938H23.8672H22.8672C22.8672 11.5776 23.0758 12.4864 23.6182 13.1993L24.4141 12.5938ZM23.8672 10.5938H24.8672C24.8672 9.85217 25.0656 9.49329 25.2801 9.30339L24.6172 8.55469L23.9543 7.80599C23.1688 8.50151 22.8672 9.50199 22.8672 10.5938H23.8672ZM24.6172 8.55469L25.2806 9.30295C25.5495 9.06451 26.0439 8.85256 26.9218 8.8114L26.875 7.8125L26.8282 6.8136C25.7061 6.86619 24.6953 7.14903 23.9538 7.80643L24.6172 8.55469ZM26.875 7.8125L26.9155 8.81168L28.0718 8.7648L28.0312 7.76562L27.9907 6.76645L26.8345 6.81332L26.875 7.8125ZM28.0312 7.76562H29.0312V7.14062H28.0312H27.0312V7.76562H28.0312ZM28.0312 7.14062H29.0312C29.0312 6.61282 28.9202 6.03027 28.5237 5.57219C28.1034 5.08645 27.523 4.92188 26.9766 4.92188V5.92188V6.92188C27.0584 6.92188 27.0856 6.93393 27.0785 6.93121C27.0655 6.92618 27.0365 6.90993 27.0114 6.88094C26.989 6.85506 26.9935 6.84647 27.0045 6.88458C27.0164 6.92569 27.0312 7.00637 27.0312 7.14062H28.0312ZM26.9766 5.92188V4.92188C26.2041 4.92188 25.4235 5.21877 24.6652 5.67376L25.1797 6.53125L25.6942 7.38874C26.29 7.03123 26.7074 6.92188 26.9766 6.92188V5.92188ZM25.1797 6.53125L26.0741 6.08404L25.3554 4.64654L24.4609 5.09375L23.5665 5.54096L24.2853 6.97846L25.1797 6.53125ZM24.4609 5.09375L24.9955 5.93888C25.7014 5.49239 26.4563 5.27344 27.2812 5.27344V4.27344V3.27344C26.0749 3.27344 24.9497 3.60136 23.9264 4.24862L24.4609 5.09375ZM27.2812 4.27344V5.27344C28.0069 5.27344 28.402 5.47591 28.6402 5.74008L29.3828 5.07031L30.1254 4.40054C29.4053 3.60222 28.3994 3.27344 27.2812 3.27344V4.27344ZM29.3828 5.07031L28.6472 5.74768C28.9089 6.03196 29.1094 6.50438 29.1094 7.3125H30.1094H31.1094C31.1094 6.18312 30.8254 5.16075 30.1185 4.39294L29.3828 5.07031ZM30.1094 7.3125H29.1094V13.1562H30.1094H31.1094V7.3125H30.1094ZM30.1094 13.1562V12.1562H28.5859V13.1562V14.1562H30.1094V13.1562ZM26.7812 11.6875V12.6875C27.5232 12.6875 28.1273 12.3273 28.5215 11.7314L27.6875 11.1797L26.8535 10.628C26.8334 10.6583 26.8182 10.6748 26.8104 10.6824C26.8029 10.6896 26.8008 10.6901 26.8041 10.6882C26.8055 10.6874 26.8072 10.6866 26.8089 10.6859C26.8105 10.6853 26.8113 10.6851 26.811 10.6852C26.8106 10.6853 26.8017 10.6875 26.7812 10.6875V11.6875ZM27.6875 11.1797L28.5196 11.7344C28.8922 11.1755 29.0312 10.506 29.0312 9.8125H28.0312H27.0312C27.0312 10.2544 26.9412 10.4964 26.8554 10.625L27.6875 11.1797ZM28.0312 9.8125H29.0312V9.07812H28.0312H27.0312V9.8125H28.0312ZM28.0312 9.07812L27.9825 8.07931L27.3419 8.11056L27.3906 9.10938L27.4393 10.1082L28.08 10.0769L28.0312 9.07812ZM27.3906 9.10938L27.3358 8.11088C26.7135 8.14507 26.0704 8.33297 25.6059 8.84061L26.3438 9.51562L27.0816 10.1906C27.065 10.2087 27.1198 10.1258 27.4455 10.1079L27.3906 9.10938ZM26.3438 9.51562L25.5981 8.84929C25.1527 9.34773 25.0156 9.99354 25.0156 10.6094H26.0156H27.0156C27.0156 10.4394 27.0352 10.3277 27.0555 10.26C27.0653 10.2272 27.0747 10.2069 27.0807 10.1958C27.0837 10.1902 27.086 10.1866 27.0874 10.1847C27.0881 10.1837 27.0886 10.183 27.0889 10.1826C27.0892 10.1822 27.0894 10.182 27.0894 10.182L26.3438 9.51562ZM26.0156 10.6094H25.0156C25.0156 11.0568 25.0896 11.5715 25.3917 11.997C25.7385 12.4853 26.2609 12.6875 26.7812 12.6875V11.6875V10.6875C26.7706 10.6875 26.8093 10.6858 26.8712 10.7149C26.9383 10.7464 26.9907 10.7944 27.0224 10.839C27.0496 10.8773 27.0462 10.8912 27.0366 10.8507C27.0269 10.8099 27.0156 10.7331 27.0156 10.6094H26.0156ZM37.5859 5.46875L36.7195 5.96798L37.5859 5.46875ZM37.5781 12.1328L36.7141 11.6293L36.7117 11.6336L37.5781 12.1328ZM34.6484 13.0625L34.1474 13.9279L34.1563 13.9331L34.1654 13.9381L34.6484 13.0625ZM33.8047 12.1641L34.6538 11.6359L34.3604 11.1641H33.8047V12.1641ZM33.6719 12.1641V11.1641H32.9653L32.7293 11.8301L33.6719 12.1641ZM33.3203 13.1562V14.1562H34.0269L34.2629 13.4902L33.3203 13.1562ZM31.7891 13.1562H30.7891V14.1562H31.7891V13.1562ZM31.7891 1V0H30.7891V1H31.7891ZM33.8672 1H34.8672V0H33.8672V1ZM33.7578 5.58594L32.761 5.50619L32.6746 6.58594H33.7578V5.58594ZM33.8672 5.58594V6.58594H34.4676L34.7498 6.05603L33.8672 5.58594ZM34.1406 6.60938L33.2386 6.17744L33.2338 6.18789L34.1406 6.60938ZM33.8672 8.5625L32.8672 8.55133V8.5625H33.8672ZM34.1328 10.9062L33.2142 11.3016L33.2185 11.3113L34.1328 10.9062ZM35.7188 4.28906V5.28906C36.0942 5.28906 36.4135 5.43696 36.7195 5.96798L37.5859 5.46875L38.4524 4.96952C37.8521 3.92762 36.9266 3.28906 35.7188 3.28906V4.28906ZM37.5859 5.46875L36.7195 5.96798C37.0487 6.53946 37.2656 7.44612 37.2656 8.78906H38.2656H39.2656C39.2656 7.27784 39.0294 5.97096 38.4524 4.96952L37.5859 5.46875ZM38.2656 8.78906H37.2656C37.2656 10.1486 37.0458 11.0603 36.7141 11.6293L37.5781 12.1328L38.4421 12.6363C39.0272 11.6324 39.2656 10.3149 39.2656 8.78906H38.2656ZM37.5781 12.1328L36.7117 11.6336C36.4103 12.1566 36.0867 12.3125 35.6875 12.3125V13.3125V14.3125C36.9029 14.3125 37.8397 13.6819 38.4446 12.632L37.5781 12.1328ZM35.6875 13.3125V12.3125C35.4432 12.3125 35.267 12.2617 35.1315 12.1869L34.6484 13.0625L34.1654 13.9381C34.634 14.1967 35.1506 14.3125 35.6875 14.3125V13.3125ZM34.6484 13.0625L35.1495 12.1971C35.0453 12.1368 34.8703 11.984 34.6538 11.6359L33.8047 12.1641L32.9555 12.6922C33.2703 13.1983 33.6578 13.6445 34.1474 13.9279L34.6484 13.0625ZM33.8047 12.1641V11.1641H33.6719V12.1641V13.1641H33.8047V12.1641ZM33.6719 12.1641L32.7293 11.8301L32.3777 12.8223L33.3203 13.1562L34.2629 13.4902L34.6145 12.498L33.6719 12.1641ZM33.3203 13.1562V12.1562H31.7891V13.1562V14.1562H33.3203V13.1562ZM31.7891 13.1562H32.7891V1H31.7891H30.7891V13.1562H31.7891ZM31.7891 1V2H33.8672V1V0H31.7891V1ZM33.8672 1H32.8672V3.84375H33.8672H34.8672V1H33.8672ZM33.8672 3.84375H32.8672C32.8672 3.94912 32.8649 4.06075 32.8602 4.17878L33.8594 4.21875L34.8586 4.25872C34.8643 4.11634 34.8672 3.97797 34.8672 3.84375H33.8672ZM33.8594 4.21875L32.8602 4.17878C32.856 4.28352 32.8245 4.71248 32.761 5.50619L33.7578 5.58594L34.7546 5.66568C34.8161 4.8969 34.8523 4.4144 34.8586 4.25872L33.8594 4.21875ZM33.7578 5.58594V6.58594H33.8672V5.58594V4.58594H33.7578V5.58594ZM33.8672 5.58594L34.7498 6.05603C34.9642 5.65341 35.1412 5.48089 35.2398 5.4169L34.6953 4.57812L34.1508 3.73935C33.6557 4.06078 33.2805 4.56014 32.9846 5.11585L33.8672 5.58594ZM34.6953 4.57812L35.2398 5.4169C35.3602 5.33876 35.5087 5.28906 35.7188 5.28906V4.28906V3.28906C35.158 3.28906 34.6242 3.43207 34.1508 3.73935L34.6953 4.57812ZM35 6.05469V5.05469C34.6414 5.05469 34.2755 5.14047 33.946 5.35318C33.6186 5.56449 33.3908 5.85983 33.2387 6.17747L34.1406 6.60938L35.0425 7.04128C35.0556 7.01407 35.0633 7.00549 35.0613 7.00795C35.0585 7.01122 35.0485 7.02197 35.0306 7.03354C35.0125 7.04523 34.9957 7.0517 34.9852 7.05454C34.9757 7.05711 34.979 7.05469 35 7.05469V6.05469ZM34.1406 6.60938L33.2338 6.18789C32.9633 6.76983 32.8777 7.61404 32.8672 8.55133L33.8672 8.5625L34.8671 8.57367C34.8775 7.64638 34.9742 7.18851 35.0475 7.03086L34.1406 6.60938ZM33.8672 8.5625H32.8672V8.77344H33.8672H34.8672V8.5625H33.8672ZM33.8672 8.77344H32.8672C32.8672 9.79118 32.949 10.6853 33.2143 11.3016L34.1328 10.9062L35.0514 10.5109C34.9624 10.3043 34.8672 9.77653 34.8672 8.77344H33.8672ZM34.1328 10.9062L33.2185 11.3113C33.365 11.6419 33.5872 11.9579 33.9173 12.1887C34.2539 12.4241 34.6355 12.5234 35.0156 12.5234V11.5234V10.5234C34.9988 10.5234 35.0001 10.5214 35.0137 10.5254C35.0203 10.5273 35.0285 10.5303 35.0377 10.5347C35.0468 10.5391 35.0555 10.5442 35.0632 10.5496C35.0794 10.5609 35.085 10.569 35.082 10.5651C35.0784 10.5604 35.065 10.5417 35.0471 10.5012L34.1328 10.9062ZM35.0156 11.5234V12.5234C35.4264 12.5234 35.8163 12.3907 36.1416 12.1241C36.4501 11.8713 36.6511 11.5396 36.7857 11.2088C37.0473 10.5658 37.1406 9.71774 37.1406 8.75781H36.1406H35.1406C35.1406 9.64164 35.0465 10.1764 34.9331 10.4552C34.8801 10.5854 34.8468 10.5994 34.874 10.5771C34.9181 10.541 34.9799 10.5234 35.0156 10.5234V11.5234ZM36.1406 8.75781H37.1406C37.1406 7.81674 37.0458 6.97919 36.7768 6.3417C36.638 6.01267 36.4316 5.68593 36.1189 5.43893C35.7912 5.18006 35.4039 5.05469 35 5.05469V6.05469V7.05469C34.9764 7.05469 34.9217 7.04194 34.8791 7.00833C34.8516 6.9866 34.8829 6.99774 34.9341 7.11924C35.0453 7.38279 35.1406 7.8968 35.1406 8.75781H36.1406ZM45.7891 13.1562L44.8035 13.3253L44.946 14.1562H45.7891V13.1562ZM44.9219 8.10156L43.9319 8.24298L43.9339 8.25685L43.9363 8.27065L44.9219 8.10156ZM44.6172 5.96875L45.6071 5.82733L45.4845 4.96875H44.6172V5.96875ZM44.5859 5.96875V4.96875H43.6924L43.5922 5.85668L44.5859 5.96875ZM44.3984 7.47656L45.387 7.62736L45.3874 7.6249L44.3984 7.47656ZM43.4062 13.1562V14.1562H44.2451L44.391 13.3302L43.4062 13.1562ZM40.7344 13.1562L39.7537 13.3517L39.914 14.1562H40.7344V13.1562ZM39 4.45312V3.45312H37.7811L38.0193 4.64856L39 4.45312ZM41.0859 4.45312L42.0724 4.28925L41.9335 3.45312H41.0859V4.45312ZM41.8828 9.25L40.8963 9.41389L40.898 9.42379L41.8828 9.25ZM42.1406 11.5859L41.1435 11.6619L41.2139 12.5859H42.1406V11.5859ZM42.1875 11.5859V12.5859H43.1505L43.1868 11.6236L42.1875 11.5859ZM42.2969 10.3281L43.2908 10.4386L43.2909 10.4376L42.2969 10.3281ZM42.4297 9.23438L41.4455 9.05747L41.4439 9.06629L41.4424 9.07514L42.4297 9.23438ZM43.2891 4.45312V3.45312H42.4528L42.3048 4.27622L43.2891 4.45312ZM45.9609 4.45312L46.9455 4.27833L46.799 3.45312H45.9609V4.45312ZM46.8125 9.25L45.8279 9.42479L45.8293 9.43257L45.8308 9.44033L46.8125 9.25ZM47.0703 11.5859L46.0727 11.6554L46.1375 12.5859H47.0703V11.5859ZM47.1016 11.5859V12.5859H48.0264L48.0985 11.6639L47.1016 11.5859ZM47.375 9.25L48.36 9.42238L48.3604 9.42012L47.375 9.25ZM48.2031 4.45312V3.45312H47.361L47.2177 4.283L48.2031 4.45312ZM50.2344 4.45312L51.2149 4.64941L51.4544 3.45312H50.2344V4.45312ZM48.4922 13.1562V14.1562H49.3118L49.4727 13.3525L48.4922 13.1562ZM45.7891 13.1562L46.7747 12.9872L45.9075 7.93247L44.9219 8.10156L43.9363 8.27065L44.8035 13.3253L45.7891 13.1562ZM44.9219 8.10156L45.9118 7.96014L45.6071 5.82733L44.6172 5.96875L43.6272 6.11017L43.9319 8.24298L44.9219 8.10156ZM44.6172 5.96875V4.96875H44.5859V5.96875V6.96875H44.6172V5.96875ZM44.5859 5.96875L43.5922 5.85668C43.5143 6.5481 43.4535 7.03515 43.4095 7.32822L44.3984 7.47656L45.3874 7.6249C45.4372 7.29297 45.5014 6.77481 45.5796 6.08082L44.5859 5.96875ZM44.3984 7.47656L43.4099 7.32576C43.3653 7.61779 43.038 9.4925 42.4215 12.9823L43.4062 13.1562L44.391 13.3302C45.0037 9.86166 45.3378 7.94992 45.387 7.62736L44.3984 7.47656ZM43.4062 13.1562V12.1562H40.7344V13.1562V14.1562H43.4062V13.1562ZM40.7344 13.1562L41.7151 12.9608L39.9807 4.25769L39 4.45312L38.0193 4.64856L39.7537 13.3517L40.7344 13.1562ZM39 4.45312V5.45312H41.0859V4.45312V3.45312H39V4.45312ZM41.0859 4.45312L40.0995 4.617L40.8963 9.41388L41.8828 9.25L42.8693 9.08612L42.0724 4.28925L41.0859 4.45312ZM41.8828 9.25L40.898 9.42379C40.983 9.90554 41.0661 10.6449 41.1435 11.6619L42.1406 11.5859L43.1377 11.51C43.0589 10.4749 42.9701 9.65696 42.8676 9.07621L41.8828 9.25ZM42.1406 11.5859V12.5859H42.1875V11.5859V10.5859H42.1406V11.5859ZM42.1875 11.5859L43.1868 11.6236C43.1958 11.3858 43.2288 10.9964 43.2908 10.4386L42.2969 10.3281L41.303 10.2177C41.24 10.7849 41.2001 11.234 41.1882 11.5482L42.1875 11.5859ZM42.2969 10.3281L43.2909 10.4376C43.3541 9.86289 43.3957 9.52526 43.4169 9.39361L42.4297 9.23438L41.4424 9.07514C41.4116 9.26641 41.3646 9.65795 41.3029 10.2187L42.2969 10.3281ZM42.4297 9.23438L43.4139 9.41128L44.2733 4.63003L43.2891 4.45312L42.3048 4.27622L41.4455 9.05747L42.4297 9.23438ZM43.2891 4.45312V5.45312H45.9609V4.45312V3.45312H43.2891V4.45312ZM45.9609 4.45312L44.9763 4.62792L45.8279 9.42479L46.8125 9.25L47.7971 9.07521L46.9455 4.27833L45.9609 4.45312ZM46.8125 9.25L45.8308 9.44033C45.9176 9.88837 46.0004 10.617 46.0727 11.6554L47.0703 11.5859L48.0679 11.5165C47.9944 10.4611 47.9053 9.63246 47.7942 9.05967L46.8125 9.25ZM47.0703 11.5859V12.5859H47.1016V11.5859V10.5859H47.0703V11.5859ZM47.1016 11.5859L48.0985 11.6639C48.17 10.75 48.258 10.0053 48.36 9.42238L47.375 9.25L46.39 9.07762C46.2732 9.74473 46.179 10.5573 46.1046 11.508L47.1016 11.5859ZM47.375 9.25L48.3604 9.42012L49.1885 4.62325L48.2031 4.45312L47.2177 4.283L46.3896 9.07988L47.375 9.25ZM48.2031 4.45312V5.45312H50.2344V4.45312V3.45312H48.2031V4.45312ZM50.2344 4.45312L49.2538 4.25684L47.5116 12.96L48.4922 13.1562L49.4727 13.3525L51.2149 4.64941L50.2344 4.45312ZM48.4922 13.1562V12.1562H45.7891V13.1562V14.1562H48.4922V13.1562ZM51.9219 12.1562L51.143 12.7835L51.1477 12.7892L51.9219 12.1562ZM51.8359 5.5L51.0179 4.92477L51.8359 5.5ZM56.4531 5.32812L55.6682 5.94777L55.6705 5.95065L56.4531 5.32812ZM57.2734 9.33594V10.3359H58.2734V9.33594H57.2734ZM53.0938 9.33594V8.33594H52.0734L52.094 9.35607L53.0938 9.33594ZM53.5703 11.0703L52.7873 11.6924L52.7916 11.6976L53.5703 11.0703ZM56.8984 11H57.8984V9.24049L56.3867 10.1408L56.8984 11ZM56.8984 12.7109L57.4139 13.5678L57.8984 13.2764V12.7109H56.8984ZM53.4609 6.36719L54.3121 6.89209L54.3159 6.8858L53.4609 6.36719ZM53.125 7.82812L52.1261 7.78093L52.0766 8.82812H53.125V7.82812ZM55.2344 7.82812V8.82812H56.2509L56.2342 7.81173L55.2344 7.82812ZM54.5 13.3125V12.3125C53.6797 12.3125 53.1171 12.0382 52.6961 11.5233L51.9219 12.1562L51.1477 12.7892C51.9871 13.8159 53.1433 14.3125 54.5 14.3125V13.3125ZM51.9219 12.1562L52.7007 11.529C52.2685 10.9923 51.9844 10.1499 51.9844 8.86719H50.9844H49.9844C49.9844 10.4179 50.3253 11.7681 51.1431 12.7835L51.9219 12.1562ZM50.9844 8.86719H51.9844C51.9844 7.54588 52.2475 6.65317 52.6539 6.07523L51.8359 5.5L51.0179 4.92477C50.289 5.96141 49.9844 7.3135 49.9844 8.86719H50.9844ZM51.8359 5.5L52.6539 6.07523C53.028 5.54332 53.5096 5.28906 54.2109 5.28906V4.28906V3.28906C52.881 3.28906 51.7793 3.8421 51.0179 4.92477L51.8359 5.5ZM54.2109 4.28906V5.28906C54.8789 5.28906 55.3266 5.51503 55.6682 5.94777L56.4531 5.32812L57.238 4.70848C56.4859 3.7558 55.4388 3.28906 54.2109 3.28906V4.28906ZM56.4531 5.32812L55.6705 5.95065C56.0283 6.40045 56.2734 7.11563 56.2734 8.22656H57.2734H58.2734C58.2734 6.84791 57.9717 5.6308 57.2357 4.7056L56.4531 5.32812ZM57.2734 8.22656H56.2734V9.33594H57.2734H58.2734V8.22656H57.2734ZM57.2734 9.33594V8.33594H53.0938V9.33594V10.3359H57.2734V9.33594ZM53.0938 9.33594L52.094 9.35607C52.1115 10.2295 52.289 11.0651 52.7874 11.6924L53.5703 11.0703L54.3533 10.4482C54.2475 10.3151 54.1072 9.99449 54.0935 9.31581L53.0938 9.33594ZM53.5703 11.0703L52.7916 11.6976C53.3047 12.3347 54.022 12.6328 54.8203 12.6328V11.6328V10.6328C54.5561 10.6328 54.4401 10.556 54.3491 10.443L53.5703 11.0703ZM54.8203 11.6328V12.6328C55.713 12.6328 56.5807 12.3532 57.4101 11.8592L56.8984 11L56.3867 10.1408C55.7995 10.4906 55.2817 10.6328 54.8203 10.6328V11.6328ZM56.8984 11H55.8984V12.7109H56.8984H57.8984V11H56.8984ZM56.8984 12.7109L56.383 11.854C55.9003 12.1444 55.2869 12.3125 54.5 12.3125V13.3125V14.3125C55.5777 14.3125 56.5633 14.0796 57.4139 13.5678L56.8984 12.7109ZM54.1953 5.89062V4.89062C53.4582 4.89062 52.9273 5.31875 52.6059 5.84858L53.4609 6.36719L54.3159 6.8858C54.3549 6.82162 54.367 6.82681 54.3334 6.84862C54.3161 6.85988 54.2923 6.87165 54.2638 6.88C54.2355 6.8883 54.2114 6.89062 54.1953 6.89062V5.89062ZM53.4609 6.36719L52.6098 5.8423C52.2824 6.37309 52.1599 7.06637 52.1261 7.78093L53.125 7.82812L54.1239 7.87532C54.1526 7.26697 54.254 6.98629 54.3121 6.89208L53.4609 6.36719ZM53.125 7.82812V8.82812H55.2344V7.82812V6.82812H53.125V7.82812ZM55.2344 7.82812L56.2342 7.81173C56.2228 7.11168 56.119 6.43633 55.8195 5.89717L54.9453 6.38281L54.0712 6.86846C54.1362 6.98554 54.2252 7.27374 54.2345 7.84452L55.2344 7.82812ZM54.9453 6.38281L55.8195 5.89717C55.4991 5.32044 54.9487 4.89062 54.1953 4.89062V5.89062V6.89062C54.1879 6.89062 54.1691 6.88953 54.1433 6.88207C54.117 6.87448 54.0925 6.8629 54.0724 6.84972C54.032 6.82319 54.0389 6.81046 54.0712 6.86846L54.9453 6.38281ZM64.4453 5.46875L63.5788 5.96798L64.4453 5.46875ZM64.4375 12.1328L63.5735 11.6293L63.571 11.6336L64.4375 12.1328ZM61.5078 13.0625L61.0068 13.9279L61.0157 13.9331L61.0247 13.9381L61.5078 13.0625ZM60.6641 12.1641L61.5132 11.6359L61.2197 11.1641H60.6641V12.1641ZM60.5312 12.1641V11.1641H59.8247L59.5887 11.8301L60.5312 12.1641ZM60.1797 13.1562V14.1562H60.8863L61.1223 13.4902L60.1797 13.1562ZM58.6484 13.1562H57.6484V14.1562H58.6484V13.1562ZM58.6484 1V0H57.6484V1H58.6484ZM60.7266 1H61.7266V0H60.7266V1ZM60.6172 5.58594L59.6204 5.50619L59.534 6.58594H60.6172V5.58594ZM60.7266 5.58594V6.58594H61.3269L61.6092 6.05603L60.7266 5.58594ZM61 6.60938L60.098 6.17744L60.0932 6.18789L61 6.60938ZM60.7266 8.5625L59.7266 8.55133V8.5625H60.7266ZM60.9922 10.9062L60.0736 11.3016L60.0779 11.3113L60.9922 10.9062ZM62.5781 4.28906V5.28906C62.9536 5.28906 63.2729 5.43696 63.5788 5.96798L64.4453 5.46875L65.3118 4.96952C64.7115 3.92762 63.786 3.28906 62.5781 3.28906V4.28906ZM64.4453 5.46875L63.5788 5.96798C63.9081 6.53946 64.125 7.44612 64.125 8.78906H65.125H66.125C66.125 7.27784 65.8888 5.97096 65.3118 4.96952L64.4453 5.46875ZM65.125 8.78906H64.125C64.125 10.1486 63.9051 11.0603 63.5735 11.6293L64.4375 12.1328L65.3015 12.6363C65.8865 11.6324 66.125 10.3149 66.125 8.78906H65.125ZM64.4375 12.1328L63.571 11.6336C63.2697 12.1566 62.946 12.3125 62.5469 12.3125V13.3125V14.3125C63.7623 14.3125 64.6991 13.6819 65.304 12.632L64.4375 12.1328ZM62.5469 13.3125V12.3125C62.3025 12.3125 62.1264 12.2617 61.9909 12.1869L61.5078 13.0625L61.0247 13.9381C61.4934 14.1967 62.01 14.3125 62.5469 14.3125V13.3125ZM61.5078 13.0625L62.0089 12.1971C61.9047 12.1368 61.7297 11.984 61.5132 11.6359L60.6641 12.1641L59.8149 12.6922C60.1297 13.1983 60.5172 13.6445 61.0068 13.9279L61.5078 13.0625ZM60.6641 12.1641V11.1641H60.5312V12.1641V13.1641H60.6641V12.1641ZM60.5312 12.1641L59.5887 11.8301L59.2371 12.8223L60.1797 13.1562L61.1223 13.4902L61.4738 12.498L60.5312 12.1641ZM60.1797 13.1562V12.1562H58.6484V13.1562V14.1562H60.1797V13.1562ZM58.6484 13.1562H59.6484V1H58.6484H57.6484V13.1562H58.6484ZM58.6484 1V2H60.7266V1V0H58.6484V1ZM60.7266 1H59.7266V3.84375H60.7266H61.7266V1H60.7266ZM60.7266 3.84375H59.7266C59.7266 3.94912 59.7243 4.06075 59.7195 4.17878L60.7188 4.21875L61.718 4.25872C61.7236 4.11634 61.7266 3.97797 61.7266 3.84375H60.7266ZM60.7188 4.21875L59.7195 4.17878C59.7154 4.28352 59.6839 4.71248 59.6204 5.50619L60.6172 5.58594L61.614 5.66568C61.6755 4.8969 61.7117 4.4144 61.718 4.25872L60.7188 4.21875ZM60.6172 5.58594V6.58594H60.7266V5.58594V4.58594H60.6172V5.58594ZM60.7266 5.58594L61.6092 6.05603C61.8236 5.65341 62.0006 5.48089 62.0992 5.4169L61.5547 4.57812L61.0102 3.73935C60.515 4.06078 60.1399 4.56014 59.8439 5.11585L60.7266 5.58594ZM61.5547 4.57812L62.0992 5.4169C62.2195 5.33876 62.3681 5.28906 62.5781 5.28906V4.28906V3.28906C62.0174 3.28906 61.4836 3.43207 61.0102 3.73935L61.5547 4.57812ZM61.8594 6.05469V5.05469C61.5007 5.05469 61.1349 5.14047 60.8054 5.35318C60.478 5.56449 60.2502 5.85983 60.0981 6.17747L61 6.60938L61.9019 7.04128C61.9149 7.01407 61.9227 7.00549 61.9207 7.00795C61.9179 7.01122 61.9079 7.02197 61.89 7.03354C61.8718 7.04523 61.8551 7.0517 61.8446 7.05454C61.8351 7.05711 61.8383 7.05469 61.8594 7.05469V6.05469ZM61 6.60938L60.0932 6.18789C59.8227 6.76983 59.7371 7.61404 59.7266 8.55133L60.7266 8.5625L61.7265 8.57367C61.7369 7.64638 61.8336 7.18851 61.9068 7.03086L61 6.60938ZM60.7266 8.5625H59.7266V8.77344H60.7266H61.7266V8.5625H60.7266ZM60.7266 8.77344H59.7266C59.7266 9.79118 59.8084 10.6853 60.0736 11.3016L60.9922 10.9062L61.9107 10.5109C61.8218 10.3043 61.7266 9.77653 61.7266 8.77344H60.7266ZM60.9922 10.9062L60.0779 11.3113C60.2243 11.6419 60.4465 11.9579 60.7766 12.1887C61.1133 12.4241 61.4949 12.5234 61.875 12.5234V11.5234V10.5234C61.8582 10.5234 61.8595 10.5214 61.8731 10.5254C61.8797 10.5273 61.8879 10.5303 61.8971 10.5347C61.9062 10.5391 61.9149 10.5442 61.9226 10.5496C61.9388 10.5609 61.9444 10.569 61.9414 10.5651C61.9377 10.5604 61.9244 10.5417 61.9065 10.5012L60.9922 10.9062ZM61.875 11.5234V12.5234C62.2857 12.5234 62.6756 12.3907 63.001 12.1241C63.3095 11.8713 63.5105 11.5396 63.645 11.2088C63.9066 10.5658 64 9.71774 64 8.75781H63H62C62 9.64164 61.9059 10.1764 61.7925 10.4552C61.7395 10.5854 61.7061 10.5994 61.7334 10.5771C61.7775 10.541 61.8393 10.5234 61.875 10.5234V11.5234ZM63 8.75781H64C64 7.81674 63.9052 6.97919 63.6362 6.3417C63.4973 6.01267 63.2909 5.68593 62.9783 5.43893C62.6506 5.18006 62.2632 5.05469 61.8594 5.05469V6.05469V7.05469C61.8357 7.05469 61.7811 7.04194 61.7385 7.00833C61.711 6.9866 61.7422 6.99774 61.7935 7.11924C61.9047 7.38279 62 7.8968 62 8.75781H63ZM72.8203 11.6641L72.0283 11.0536L72.0278 11.0542L72.8203 11.6641ZM66.7109 13.1562H65.7109V14.1562H66.7109V13.1562ZM66.7109 1.73438V0.734375H65.7109V1.73438H66.7109ZM72.8672 3.21094L72.0677 3.81162L72.0692 3.81365L72.8672 3.21094ZM68.8359 3.57031V2.57031H67.8359V3.57031H68.8359ZM68.8359 11.2969H67.8359V12.2969H68.8359V11.2969ZM71.2422 10.3281L72.11 10.825L72.1117 10.822L71.2422 10.3281ZM73.9766 7.33594H72.9766C72.9766 9.10455 72.6122 10.2961 72.0283 11.0536L72.8203 11.6641L73.6123 12.2746C74.5701 11.032 74.9766 9.33816 74.9766 7.33594H73.9766ZM72.8203 11.6641L72.0278 11.0542C71.4814 11.7641 70.6927 12.1562 69.5078 12.1562V13.1562V14.1562C71.2084 14.1562 72.628 13.5536 73.6128 12.274L72.8203 11.6641ZM69.5078 13.1562V12.1562H66.7109V13.1562V14.1562H69.5078V13.1562ZM66.7109 13.1562H67.7109V1.73438H66.7109H65.7109V13.1562H66.7109ZM66.7109 1.73438V2.73438H69.7656V1.73438V0.734375H66.7109V1.73438ZM69.7656 1.73438V2.73438C70.808 2.73438 71.5336 3.10074 72.0677 3.81161L72.8672 3.21094L73.6667 2.61026C72.7216 1.35238 71.3795 0.734375 69.7656 0.734375V1.73438ZM72.8672 3.21094L72.0692 3.81365C72.6309 4.55731 72.9766 5.68956 72.9766 7.33594H73.9766H74.9766C74.9766 5.44065 74.5826 3.8229 73.6651 2.60822L72.8672 3.21094ZM71.7969 7.39844H72.7969C72.7969 6.06331 72.6186 4.90358 72.1454 4.04474C71.9004 3.60023 71.5669 3.21951 71.128 2.95395C70.6871 2.68728 70.1953 2.57031 69.6875 2.57031V3.57031V4.57031C69.8828 4.57031 70.0062 4.61285 70.0928 4.66519C70.1811 4.71864 70.2871 4.81644 70.3937 5.00995C70.6236 5.42715 70.7969 6.18148 70.7969 7.39844H71.7969ZM69.6875 3.57031V2.57031H68.8359V3.57031V4.57031H69.6875V3.57031ZM68.8359 3.57031H67.8359V11.2969H68.8359H69.8359V3.57031H68.8359ZM68.8359 11.2969V12.2969H69.5234V11.2969V10.2969H68.8359V11.2969ZM69.5234 11.2969V12.2969C70.6391 12.2969 71.5528 11.7981 72.11 10.825L71.2422 10.3281L70.3744 9.83123C70.1919 10.1498 69.9598 10.2969 69.5234 10.2969V11.2969ZM71.2422 10.3281L72.1117 10.822C72.6089 9.94664 72.7969 8.76241 72.7969 7.39844H71.7969H70.7969C70.7969 8.63864 70.615 9.40752 70.3727 9.83424L71.2422 10.3281ZM76.1562 12.1562L75.3774 12.7835L75.3821 12.7892L76.1562 12.1562ZM76.0703 5.5L75.2523 4.92477L76.0703 5.5ZM80.6875 5.32812L79.9026 5.94777L79.9049 5.95065L80.6875 5.32812ZM81.5078 9.33594V10.3359H82.5078V9.33594H81.5078ZM77.3281 9.33594V8.33594H76.3078L76.3283 9.35607L77.3281 9.33594ZM77.8047 11.0703L77.0217 11.6924L77.0259 11.6976L77.8047 11.0703ZM81.1328 11H82.1328V9.24049L80.6211 10.1408L81.1328 11ZM81.1328 12.7109L81.6483 13.5678L82.1328 13.2764V12.7109H81.1328ZM77.6953 6.36719L78.5465 6.89209L78.5503 6.8858L77.6953 6.36719ZM77.3594 7.82812L76.3605 7.78093L76.311 8.82812H77.3594V7.82812ZM79.4688 7.82812V8.82812H80.4853L80.4686 7.81173L79.4688 7.82812ZM78.7344 13.3125V12.3125C77.914 12.3125 77.3514 12.0382 76.9304 11.5233L76.1562 12.1562L75.3821 12.7892C76.2215 13.8159 77.3776 14.3125 78.7344 14.3125V13.3125ZM76.1562 12.1562L76.9351 11.529C76.5028 10.9923 76.2188 10.1499 76.2188 8.86719H75.2188H74.2188C74.2188 10.4179 74.5597 11.7681 75.3774 12.7835L76.1562 12.1562ZM75.2188 8.86719H76.2188C76.2188 7.54588 76.4819 6.65317 76.8883 6.07523L76.0703 5.5L75.2523 4.92477C74.5233 5.96141 74.2188 7.3135 74.2188 8.86719H75.2188ZM76.0703 5.5L76.8883 6.07523C77.2624 5.54332 77.744 5.28906 78.4453 5.28906V4.28906V3.28906C77.1154 3.28906 76.0137 3.8421 75.2523 4.92477L76.0703 5.5ZM78.4453 4.28906V5.28906C79.1133 5.28906 79.561 5.51503 79.9026 5.94777L80.6875 5.32812L81.4724 4.70848C80.7203 3.7558 79.6732 3.28906 78.4453 3.28906V4.28906ZM80.6875 5.32812L79.9049 5.95065C80.2627 6.40045 80.5078 7.11563 80.5078 8.22656H81.5078H82.5078C82.5078 6.84791 82.2061 5.6308 81.4701 4.7056L80.6875 5.32812ZM81.5078 8.22656H80.5078V9.33594H81.5078H82.5078V8.22656H81.5078ZM81.5078 9.33594V8.33594H77.3281V9.33594V10.3359H81.5078V9.33594ZM77.3281 9.33594L76.3283 9.35607C76.3459 10.2295 76.5233 11.0651 77.0217 11.6924L77.8047 11.0703L78.5876 10.4482C78.4819 10.3151 78.3416 9.99449 78.3279 9.31581L77.3281 9.33594ZM77.8047 11.0703L77.0259 11.6976C77.5391 12.3347 78.2564 12.6328 79.0547 12.6328V11.6328V10.6328C78.7905 10.6328 78.6745 10.556 78.5834 10.443L77.8047 11.0703ZM79.0547 11.6328V12.6328C79.9474 12.6328 80.8151 12.3532 81.6445 11.8592L81.1328 11L80.6211 10.1408C80.0339 10.4906 79.5161 10.6328 79.0547 10.6328V11.6328ZM81.1328 11H80.1328V12.7109H81.1328H82.1328V11H81.1328ZM81.1328 12.7109L80.6173 11.854C80.1347 12.1444 79.5212 12.3125 78.7344 12.3125V13.3125V14.3125C79.8121 14.3125 80.7976 14.0796 81.6483 13.5678L81.1328 12.7109ZM78.4297 5.89062V4.89062C77.6925 4.89062 77.1617 5.31875 76.8403 5.84858L77.6953 6.36719L78.5503 6.8858C78.5892 6.82162 78.6014 6.82681 78.5678 6.84862C78.5504 6.85988 78.5267 6.87165 78.4982 6.88C78.4699 6.8883 78.4458 6.89062 78.4297 6.89062V5.89062ZM77.6953 6.36719L76.8441 5.8423C76.5168 6.37309 76.3942 7.06637 76.3605 7.78093L77.3594 7.82812L78.3583 7.87532C78.387 7.26697 78.4884 6.98629 78.5465 6.89208L77.6953 6.36719ZM77.3594 7.82812V8.82812H79.4688V7.82812V6.82812H77.3594V7.82812ZM79.4688 7.82812L80.4686 7.81173C80.4571 7.11168 80.3534 6.43633 80.0538 5.89717L79.1797 6.38281L78.3055 6.86846C78.3706 6.98554 78.4595 7.27374 78.4689 7.84452L79.4688 7.82812ZM79.1797 6.38281L80.0538 5.89717C79.7334 5.32044 79.1831 4.89062 78.4297 4.89062V5.89062V6.89062C78.4222 6.89062 78.4034 6.88953 78.3776 6.88207C78.3514 6.87448 78.3269 6.8629 78.3068 6.84972C78.2664 6.82319 78.2733 6.81046 78.3055 6.86846L79.1797 6.38281ZM86.8047 12.6016L87.4964 13.3237L87.4966 13.3236L86.8047 12.6016ZM82.4766 12.8047H81.4766V13.37L81.9609 13.6615L82.4766 12.8047ZM82.4766 11L83.045 10.1773L81.4766 9.09363V11H82.4766ZM83.4766 11.4922L83.1526 12.4383L83.1565 12.4396L83.4766 11.4922ZM85.2266 11.4531L85.9105 12.1827L85.9112 12.182L85.2266 11.4531ZM84.2422 9.39844L84.7595 8.54259L84.7535 8.53907L84.2422 9.39844ZM82.8828 8.20312L82.0383 8.73867L82.0421 8.74469L82.046 8.75065L82.8828 8.20312ZM83.2344 4.9375L82.5881 4.1744L82.5842 4.17769L83.2344 4.9375ZM87.5078 4.89844L88.4179 5.31296L88.7893 4.49759L88.0194 4.03921L87.5078 4.89844ZM86.8281 6.39062L86.3516 7.26977L87.2939 7.78055L87.7382 6.80515L86.8281 6.39062ZM84.7578 6.14844L84.0375 5.4548L84.0307 5.46185L84.0241 5.46903L84.7578 6.14844ZM84.8047 7.28906L84.0561 7.9521L84.0613 7.95801L84.0667 7.96383L84.8047 7.28906ZM85.7266 7.96875L86.2447 7.11344L86.244 7.11302L85.7266 7.96875ZM87.5547 10.6094H86.5547C86.5547 11.2516 86.373 11.6302 86.1128 11.8796L86.8047 12.6016L87.4966 13.3236C88.2364 12.6146 88.5547 11.665 88.5547 10.6094H87.5547ZM86.8047 12.6016L86.1129 11.8794C85.8695 12.1126 85.4275 12.3125 84.6094 12.3125V13.3125V14.3125C85.7287 14.3125 86.7503 14.0384 87.4964 13.3237L86.8047 12.6016ZM84.6094 13.3125V12.3125C83.8769 12.3125 83.358 12.168 82.9922 11.9479L82.4766 12.8047L81.9609 13.6615C82.7202 14.1184 83.6231 14.3125 84.6094 14.3125V13.3125ZM82.4766 12.8047H83.4766V11H82.4766H81.4766V12.8047H82.4766ZM82.4766 11L81.9081 11.8227C82.2806 12.0801 82.6987 12.2828 83.1526 12.4382L83.4766 11.4922L83.8006 10.5461C83.494 10.4412 83.2454 10.3158 83.045 10.1773L82.4766 11ZM83.4766 11.4922L83.1565 12.4396C83.6075 12.5919 84.0581 12.6875 84.4922 12.6875V11.6875V10.6875C84.3429 10.6875 84.1165 10.6528 83.7966 10.5448L83.4766 11.4922ZM84.4922 11.6875V12.6875C84.964 12.6875 85.4938 12.5733 85.9105 12.1827L85.2266 11.4531L84.5426 10.7236C84.5603 10.707 84.5776 10.6949 84.592 10.6867C84.606 10.6788 84.6143 10.6761 84.6139 10.6762C84.6113 10.6771 84.5757 10.6875 84.4922 10.6875V11.6875ZM85.2266 11.4531L85.9112 12.182C86.3065 11.8107 86.4844 11.3249 86.4844 10.8203H85.4844H84.4844C84.4844 10.8395 84.4815 10.8268 84.4938 10.7965C84.4997 10.7821 84.5076 10.7673 84.5172 10.7535C84.5266 10.7398 84.5356 10.7301 84.5419 10.7243L85.2266 11.4531ZM85.4844 10.8203H86.4844C86.4844 10.3087 86.3052 9.83952 85.964 9.45821L85.2188 10.125L84.4735 10.7918C84.4806 10.7997 84.4836 10.8044 84.4844 10.8056C84.4851 10.8067 84.4846 10.8061 84.4838 10.8041C84.4831 10.8022 84.483 10.8014 84.4833 10.8027C84.4835 10.8041 84.4844 10.8097 84.4844 10.8203H85.4844ZM85.2188 10.125L85.964 9.45821C85.6817 9.14275 85.247 8.83729 84.7594 8.54261L84.2422 9.39844L83.7249 10.2543C84.1853 10.5325 84.4016 10.7114 84.4735 10.7918L85.2188 10.125ZM84.2422 9.39844L84.7535 8.53907C84.1991 8.20918 83.8832 7.90564 83.7196 7.6556L82.8828 8.20312L82.046 8.75065C82.4345 9.34436 83.0248 9.8377 83.7308 10.2578L84.2422 9.39844ZM82.8828 8.20312L83.7273 7.66758C83.572 7.42264 83.4766 7.11162 83.4766 6.69531H82.4766H81.4766C81.4766 7.43526 81.652 8.12945 82.0383 8.73867L82.8828 8.20312ZM82.4766 6.69531H83.4766C83.4766 6.21107 83.6279 5.91688 83.8845 5.69731L83.2344 4.9375L82.5842 4.17769C81.8304 4.8227 81.4766 5.70038 81.4766 6.69531H82.4766ZM83.2344 4.9375L83.8807 5.70059C84.1591 5.46481 84.6019 5.28906 85.3281 5.28906V4.28906V3.28906C84.2835 3.28906 83.3305 3.5456 82.5881 4.17441L83.2344 4.9375ZM85.3281 4.28906V5.28906C85.9132 5.28906 86.4638 5.44064 86.9962 5.75766L87.5078 4.89844L88.0194 4.03921C87.1873 3.54374 86.2847 3.28906 85.3281 3.28906V4.28906ZM87.5078 4.89844L86.5978 4.48392L85.9181 5.9761L86.8281 6.39062L87.7382 6.80515L88.4179 5.31296L87.5078 4.89844ZM86.8281 6.39062L87.3047 5.51148C86.6687 5.16677 86.0106 4.9375 85.3594 4.9375V5.9375V6.9375C85.5519 6.9375 85.8729 7.01032 86.3516 7.26977L86.8281 6.39062ZM85.3594 5.9375V4.9375C84.9231 4.9375 84.4216 5.05591 84.0375 5.4548L84.7578 6.14844L85.4781 6.84208C85.428 6.89414 85.3747 6.92198 85.3407 6.9339C85.3118 6.94403 85.3122 6.9375 85.3594 6.9375V5.9375ZM84.7578 6.14844L84.0241 5.46903C83.7118 5.8063 83.5625 6.22556 83.5625 6.66406H84.5625H85.5625C85.5625 6.67082 85.5611 6.69849 85.5465 6.73704C85.5315 6.77657 85.5101 6.80784 85.4916 6.82785L84.7578 6.14844ZM84.5625 6.66406H83.5625C83.5625 7.15298 83.7396 7.59474 84.0561 7.9521L84.8047 7.28906L85.5533 6.62603C85.5483 6.62036 85.5473 6.61843 85.5486 6.62052C85.55 6.62273 85.5527 6.6276 85.5555 6.63477C85.5583 6.64199 85.5603 6.64922 85.5614 6.65557C85.5626 6.66182 85.5625 6.66499 85.5625 6.66406H84.5625ZM84.8047 7.28906L84.0667 7.96383C84.3364 8.25882 84.7496 8.54664 85.2091 8.82448L85.7266 7.96875L86.244 7.11302C85.8077 6.8492 85.6063 6.68388 85.5427 6.61429L84.8047 7.28906ZM85.7266 7.96875L85.2084 8.82406C85.734 9.14244 86.0201 9.36558 86.1438 9.49516L86.8672 8.80469L87.5905 8.11421C87.2767 7.78547 86.8024 7.45131 86.2447 7.11344L85.7266 7.96875ZM86.8672 8.80469L86.1438 9.49516C86.277 9.63471 86.3777 9.78992 86.45 9.96586L87.375 9.58594L88.3 9.20602C88.1327 8.79862 87.8948 8.433 87.5905 8.11421L86.8672 8.80469ZM87.375 9.58594L86.45 9.96586C86.51 10.1119 86.5547 10.3189 86.5547 10.6094H87.5547H88.5547C88.5547 10.1186 88.4796 9.64328 88.3 9.20602L87.375 9.58594ZM90.9609 13.1562V14.1562H91.9609V13.1562H90.9609ZM88.8828 13.1562H87.8828V14.1562H88.8828V13.1562ZM88.8828 4.45312V3.45312H87.8828V4.45312H88.8828ZM90.9609 4.45312H91.9609V3.45312H90.9609V4.45312ZM89.0938 1.36719L89.8009 2.07429L89.0938 1.36719ZM90.75 1.36719L90.0428 2.07435L90.0521 2.08342L90.75 1.36719ZM90.7422 3.00781L91.4213 3.74198L91.4309 3.73281L90.7422 3.00781ZM89.1094 3.00781L88.4206 3.73288L88.4303 3.74191L89.1094 3.00781ZM90.9609 13.1562V12.1562H88.8828V13.1562V14.1562H90.9609V13.1562ZM88.8828 13.1562H89.8828V4.45312H88.8828H87.8828V13.1562H88.8828ZM88.8828 4.45312V5.45312H90.9609V4.45312V3.45312H88.8828V4.45312ZM90.9609 4.45312H89.9609V13.1562H90.9609H91.9609V4.45312H90.9609ZM88.7969 2.17969H89.7969C89.7969 2.10296 89.8079 2.06854 89.8104 2.06194C89.8115 2.05874 89.8113 2.06022 89.8087 2.06435C89.806 2.06856 89.803 2.07214 89.8009 2.07429L89.0938 1.36719L88.3866 0.660081C87.9602 1.08656 87.7969 1.635 87.7969 2.17969H88.7969ZM89.0938 1.36719L89.8009 2.07429C89.7943 2.08087 89.7884 2.08222 89.7967 2.07923C89.8089 2.07481 89.8509 2.0625 89.9375 2.0625V1.0625V0.0625C89.3832 0.0625 88.8218 0.224955 88.3866 0.660081L89.0938 1.36719ZM89.9375 1.0625V2.0625C90.0069 2.0625 90.0376 2.07283 90.0434 2.075C90.0465 2.07616 90.0462 2.07634 90.0442 2.07507C90.0422 2.07377 90.0416 2.07302 90.0429 2.07429L90.75 1.36719L91.4571 0.660081C91.0332 0.23622 90.4903 0.0625 89.9375 0.0625V1.0625ZM90.75 1.36719L90.0521 2.08342C90.0506 2.08196 90.0477 2.0787 90.0449 2.07429C90.042 2.06992 90.0414 2.06779 90.0422 2.06987C90.0438 2.07406 90.0547 2.10566 90.0547 2.17969H91.0547H92.0547C92.0547 1.6275 91.884 1.07596 91.4479 0.650958L90.75 1.36719ZM91.0547 2.17969H90.0547C90.0547 2.2597 90.0429 2.29421 90.041 2.29929C90.0401 2.3017 90.0407 2.29928 90.044 2.29427C90.0474 2.28918 90.051 2.28511 90.0534 2.28281L90.7422 3.00781L91.4309 3.73281C91.8825 3.30379 92.0547 2.73978 92.0547 2.17969H91.0547ZM90.7422 3.00781L90.0631 2.27371C90.058 2.27846 90.055 2.28052 90.0467 2.28349C90.0361 2.2873 90.0035 2.29688 89.9375 2.29688V3.29688V4.29688C90.4753 4.29688 90.9994 4.13214 91.4212 3.74191L90.7422 3.00781ZM89.9375 3.29688V2.29688C89.8586 2.29688 89.8175 2.28582 89.8022 2.28047C89.7899 2.27616 89.7887 2.27395 89.7884 2.27371L89.1094 3.00781L88.4303 3.74191C88.8609 4.14018 89.3981 4.29688 89.9375 4.29688V3.29688ZM89.1094 3.00781L89.7981 2.28281C89.8005 2.28511 89.8042 2.28918 89.8075 2.29427C89.8108 2.29928 89.8115 2.3017 89.8106 2.29929C89.8087 2.29421 89.7969 2.2597 89.7969 2.17969H88.7969H87.7969C87.7969 2.73978 87.969 3.30379 88.4206 3.73281L89.1094 3.00781ZM99.0078 4.46875H100.008V3.46875H99.0078V4.46875ZM99.0078 5.6875L99.2278 6.66299L100.008 6.48706V5.6875H99.0078ZM97.9688 5.92188L97.7487 4.94638L96.4444 5.24058L97.0952 6.40858L97.9688 5.92188ZM97.5234 9.46094L96.802 8.76841L97.5234 9.46094ZM94.8516 10.1797L95.1678 9.231L94.6172 9.04749L94.1848 9.43445L94.8516 10.1797ZM98.3438 12.0312L97.632 12.7338L97.6413 12.743L98.3438 12.0312ZM92.7812 16.3672L93.4107 15.5901L93.4059 15.5863L92.7812 16.3672ZM92.4453 13.2969L91.6699 12.6654L91.6655 12.6708L92.4453 13.2969ZM93.6797 12.5L93.9817 13.4533L96.6743 12.6002L94.0448 11.569L93.6797 12.5ZM93.0234 12.0156L92.228 12.6217L92.2325 12.6276L92.2371 12.6334L93.0234 12.0156ZM92.8516 10.7734L93.7894 11.1208L93.7933 11.1098L92.8516 10.7734ZM93.0703 10.3672L92.2741 9.76209L92.2703 9.76719L93.0703 10.3672ZM93.6641 9.79688L94.3082 10.5618L95.3721 9.66586L94.184 8.94268L93.6641 9.79688ZM93.25 5.07031L93.9714 5.76284L93.25 5.07031ZM96.0078 4.35156L95.8289 5.33543L95.8398 5.33741L95.8507 5.33914L96.0078 4.35156ZM96.5312 4.46875L96.2027 5.41325L96.3623 5.46875H96.5312V4.46875ZM94.2109 15.2109L94.8617 14.4517L94.8602 14.4504L94.2109 15.2109ZM96.5547 15.1328L95.9526 14.3344L95.9463 14.3392L96.5547 15.1328ZM96.7734 13.4531L96.1428 14.2292L96.1487 14.234L96.1546 14.2386L96.7734 13.4531ZM94.1406 13.5625L93.3693 12.9261L93.3606 12.9366L93.3523 12.9472L94.1406 13.5625ZM99.0078 4.46875H98.0078V5.6875H99.0078H100.008V4.46875H99.0078ZM99.0078 5.6875L98.7878 4.71201L97.7487 4.94638L97.9688 5.92188L98.1888 6.89737L99.2278 6.66299L99.0078 5.6875ZM97.9688 5.92188L97.0952 6.40858C97.1929 6.58394 97.2734 6.86199 97.2734 7.29688H98.2734H99.2734C99.2734 6.62759 99.1509 5.98898 98.8423 5.43517L97.9688 5.92188ZM98.2734 7.29688H97.2734C97.2734 8.03509 97.0776 8.48138 96.802 8.76841L97.5234 9.46094L98.2448 10.1535C98.9693 9.39883 99.2734 8.40241 99.2734 7.29688H98.2734ZM97.5234 9.46094L96.802 8.76841C96.5341 9.04754 96.1231 9.24219 95.4297 9.24219V10.2422V11.2422C96.5279 11.2422 97.5128 10.916 98.2448 10.1535L97.5234 9.46094ZM95.4297 10.2422V9.24219C95.3241 9.24219 95.2483 9.23786 95.1973 9.23236C95.1421 9.22638 95.139 9.2214 95.1678 9.231L94.8516 10.1797L94.5353 11.1284C94.8193 11.223 95.1454 11.2422 95.4297 11.2422V10.2422ZM94.8516 10.1797L94.1848 9.43445C94.0437 9.5607 93.9133 9.69888 93.7931 9.84736L94.5703 10.4766L95.3476 11.1058C95.4044 11.0355 95.4615 10.9758 95.5184 10.9249L94.8516 10.1797ZM94.5703 10.4766L93.7931 9.84736C93.5395 10.1606 93.4375 10.5278 93.4375 10.8828H94.4375H95.4375C95.4375 10.8938 95.4359 10.9259 95.4212 10.9709C95.406 11.0175 95.3809 11.0645 95.3476 11.1058L94.5703 10.4766ZM94.4375 10.8828H93.4375C93.4375 11.4214 93.706 11.8883 94.1731 12.1586C94.557 12.3807 95.0041 12.4297 95.3828 12.4297V11.4297V10.4297C95.2705 10.4297 95.1987 10.4213 95.1586 10.4136C95.1168 10.4055 95.1313 10.4023 95.1746 10.4274C95.2241 10.456 95.3021 10.5171 95.363 10.6228C95.4239 10.7285 95.4375 10.8263 95.4375 10.8828H94.4375ZM95.3828 11.4297V12.4297H96.6406V11.4297V10.4297H95.3828V11.4297ZM96.6406 11.4297V12.4297C97.1997 12.4297 97.4775 12.5771 97.632 12.7337L98.3438 12.0312L99.0555 11.3288C98.4183 10.6833 97.5607 10.4297 96.6406 10.4297V11.4297ZM98.3438 12.0312L97.6413 12.743C97.7836 12.8834 97.9453 13.1791 97.9453 13.8281H98.9453H99.9453C99.9453 12.873 99.706 11.9708 99.0462 11.3195L98.3438 12.0312ZM98.9453 13.8281H97.9453C97.9453 14.5907 97.7039 15.0657 97.2978 15.3969L97.9297 16.1719L98.5616 16.9469C99.5096 16.1739 99.9453 15.0864 99.9453 13.8281H98.9453ZM97.9297 16.1719L97.2978 15.3969C96.8646 15.75 96.1501 16 95.0078 16V17V18C96.4072 18 97.6406 17.6979 98.5616 16.9469L97.9297 16.1719ZM95.0078 17V16C94.1756 16 93.6899 15.8163 93.4107 15.5901L92.7812 16.3672L92.1518 17.1443C92.9142 17.7618 93.9129 18 95.0078 18V17ZM92.7812 16.3672L93.4059 15.5863C93.1627 15.3917 93 15.1061 93 14.5781H92H91C91 15.6022 91.3582 16.5093 92.1566 17.1481L92.7812 16.3672ZM92 14.5781H93C93 14.3161 93.074 14.1111 93.2251 13.9229L92.4453 13.2969L91.6655 12.6708C91.2228 13.2222 91 13.8714 91 14.5781H92ZM92.4453 13.2969L93.2207 13.9283C93.3744 13.7396 93.6086 13.5715 93.9817 13.4533L93.6797 12.5L93.3777 11.5467C92.6987 11.7618 92.1099 12.125 91.6699 12.6654L92.4453 13.2969ZM93.6797 12.5L94.0448 11.569C93.9405 11.5281 93.8687 11.4728 93.8098 11.3978L93.0234 12.0156L92.2371 12.6334C92.5219 12.9959 92.8876 13.2635 93.3146 13.431L93.6797 12.5ZM93.0234 12.0156L93.8189 11.4096C93.7932 11.3759 93.7734 11.3369 93.7734 11.25H92.7734H91.7734C91.7734 11.7465 91.9203 12.2178 92.228 12.6217L93.0234 12.0156ZM92.7734 11.25H93.7734C93.7734 11.1705 93.7851 11.1321 93.7893 11.1208L92.8516 10.7734L91.9138 10.4261C91.8139 10.696 91.7734 10.9753 91.7734 11.25H92.7734ZM92.8516 10.7734L93.7933 11.1098C93.8113 11.0593 93.8362 11.0126 93.8703 10.9672L93.0703 10.3672L92.2703 9.76719C92.1169 9.97173 91.996 10.1959 91.9098 10.4371L92.8516 10.7734ZM93.0703 10.3672L93.8665 10.9723C93.8663 10.9725 93.8747 10.9616 93.8965 10.9381C93.9176 10.9153 93.9468 10.8855 93.9857 10.8482C94.064 10.7729 94.1702 10.678 94.3082 10.5618L93.6641 9.79688L93.0199 9.03196C92.7224 9.28254 92.4469 9.53478 92.2741 9.7621L93.0703 10.3672ZM93.6641 9.79688L94.184 8.94268C94.0243 8.84546 93.8619 8.67773 93.7211 8.37133L92.8125 8.78906L91.9039 9.2068C92.1797 9.80664 92.5851 10.3108 93.1441 10.6511L93.6641 9.79688ZM92.8125 8.78906L93.7211 8.37133C93.5792 8.06266 93.5 7.70468 93.5 7.28125H92.5H91.5C91.5 7.96199 91.6292 8.60921 91.9039 9.2068L92.8125 8.78906ZM92.5 7.28125H93.5C93.5 6.50113 93.7015 6.04395 93.9714 5.76284L93.25 5.07031L92.5286 4.37778C91.7985 5.13834 91.5 6.15512 91.5 7.28125H92.5ZM93.25 5.07031L93.9714 5.76284C94.232 5.49142 94.655 5.28906 95.3984 5.28906V4.28906V3.28906C94.2773 3.28906 93.268 3.60754 92.5286 4.37778L93.25 5.07031ZM95.3984 4.28906V5.28906C95.5002 5.28906 95.6415 5.30136 95.8289 5.33543L96.0078 4.35156L96.1867 3.36769C95.9158 3.31844 95.6508 3.28906 95.3984 3.28906V4.28906ZM96.0078 4.35156L95.8507 5.33914C96.061 5.3726 96.1667 5.40073 96.2027 5.41325L96.5312 4.46875L96.8598 3.52425C96.6562 3.45344 96.413 3.40345 96.1649 3.36398L96.0078 4.35156ZM96.5312 4.46875V5.46875H99.0078V4.46875V3.46875H96.5312V4.46875ZM93.8906 14.4219H92.8906C92.8906 14.9866 93.0763 15.5572 93.5617 15.9715L94.2109 15.2109L94.8602 14.4504C94.8664 14.4557 94.8746 14.4641 94.8826 14.4752C94.8905 14.4862 94.8951 14.4956 94.8973 14.5008C94.9014 14.5111 94.8906 14.4913 94.8906 14.4219H93.8906ZM94.2109 15.2109L93.5601 15.9702C94.0201 16.3644 94.5939 16.4922 95.1406 16.4922V15.4922V14.4922C94.8852 14.4922 94.8393 14.4324 94.8617 14.4517L94.2109 15.2109ZM95.1406 15.4922V16.4922C95.8682 16.4922 96.5988 16.359 97.1631 15.9264L96.5547 15.1328L95.9463 14.3392C95.8855 14.3858 95.6735 14.4922 95.1406 14.4922V15.4922ZM96.5547 15.1328L97.1568 15.9312C97.7385 15.4925 98.0312 14.8617 98.0312 14.1484H97.0312H96.0312C96.0312 14.2275 96.0169 14.2613 96.012 14.2713C96.0079 14.2798 95.9966 14.3012 95.9526 14.3344L96.5547 15.1328ZM97.0312 14.1484H98.0312C98.0312 13.6712 97.906 13.0724 97.3923 12.6676L96.7734 13.4531L96.1546 14.2386C96.1192 14.2108 96.0901 14.1791 96.0678 14.1474C96.046 14.1163 96.0345 14.0906 96.0292 14.0762C96.0198 14.051 96.0312 14.0665 96.0312 14.1484H97.0312ZM96.7734 13.4531L97.404 12.677C97.1524 12.4726 96.8631 12.3749 96.6222 12.3231C96.3728 12.2695 96.1026 12.25 95.8281 12.25V13.25V14.25C96.0172 14.25 96.1363 14.2643 96.202 14.2785C96.2332 14.2852 96.2409 14.2894 96.2321 14.2857C96.2234 14.282 96.1885 14.2663 96.1428 14.2292L96.7734 13.4531ZM95.8281 13.25V12.25H94.8203V13.25V14.25H95.8281V13.25ZM94.8203 13.25V12.25C94.2548 12.25 93.74 12.4768 93.3693 12.9261L94.1406 13.5625L94.912 14.1989C94.9122 14.1987 94.9074 14.2044 94.8969 14.2126C94.8862 14.2211 94.8726 14.2296 94.8572 14.2367C94.8236 14.2521 94.8054 14.25 94.8203 14.25V13.25ZM94.1406 13.5625L93.3523 12.9472C93.0095 13.3864 92.8906 13.9124 92.8906 14.4219H93.8906H94.8906C94.8906 14.2126 94.9384 14.1657 94.9289 14.1778L94.1406 13.5625ZM94.5312 7.29688H93.5312C93.5312 7.87102 93.6064 8.46214 93.8768 8.94206C94.1945 9.50584 94.7401 9.83594 95.3984 9.83594V8.83594V7.83594C95.4062 7.83594 95.4608 7.83922 95.5282 7.87908C95.5947 7.91839 95.6201 7.96169 95.6193 7.96028C95.6151 7.95291 95.5904 7.90373 95.5683 7.78563C95.5464 7.66946 95.5312 7.50933 95.5312 7.29688H94.5312ZM95.3984 8.83594V9.83594C95.6981 9.83594 96.0074 9.765 96.2909 9.59088C96.572 9.41828 96.7723 9.17835 96.9102 8.92426C97.1696 8.44613 97.2422 7.85721 97.2422 7.28125H96.2422H95.2422C95.2422 7.49797 95.2273 7.66269 95.2054 7.78341C95.1832 7.90634 95.158 7.9598 95.1523 7.97027C95.1496 7.9753 95.1741 7.92971 95.2442 7.88666C95.3168 7.8421 95.38 7.83594 95.3984 7.83594V8.83594ZM96.2422 7.28125H97.2422C97.2422 6.69439 97.17 6.09971 96.915 5.61805C96.7797 5.36238 96.5817 5.11798 96.3004 4.94088C96.0156 4.76153 95.7027 4.6875 95.3984 4.6875V5.6875V6.6875C95.3754 6.6875 95.3087 6.67987 95.2348 6.63334C95.1644 6.58905 95.1422 6.54387 95.1475 6.55383C95.1554 6.56882 95.1818 6.62812 95.2047 6.75777C95.2271 6.88505 95.2422 7.05695 95.2422 7.28125H96.2422ZM95.3984 5.6875V4.6875C95.0936 4.6875 94.7798 4.76022 94.493 4.93766C94.2089 5.11337 94.0068 5.35732 93.8677 5.61549C93.6056 6.10188 93.5312 6.7033 93.5312 7.29688H94.5312H95.5312C95.5312 7.07073 95.5467 6.8976 95.5697 6.76956C95.5931 6.63925 95.6201 6.57959 95.6284 6.5642C95.6338 6.55414 95.6124 6.59691 95.5451 6.63851C95.4751 6.68183 95.4143 6.6875 95.3984 6.6875V5.6875ZM104.391 13.1562H103.391V14.1562H104.391V13.1562ZM102.445 6.72656L103.35 7.15236L103.352 7.14829L102.445 6.72656ZM102.133 13.1562V14.1562H103.133V13.1562H102.133ZM100.055 13.1562H99.0547V14.1562H100.055V13.1562ZM100.055 4.45312V3.45312H99.0547V4.45312H100.055ZM101.703 4.45312L102.679 4.23475L102.504 3.45312H101.703V4.45312ZM101.953 5.57031L100.977 5.78869L101.152 6.57031H101.953V5.57031ZM102.086 5.57031V6.57031H102.722L102.992 5.99384L102.086 5.57031ZM102.891 4.63281L103.431 5.47445L103.44 5.46868L102.891 4.63281ZM105.891 5.10156L105.08 5.68649L105.083 5.69158L105.891 5.10156ZM106.484 13.1562V14.1562H107.484V13.1562H106.484ZM104.391 13.1562H105.391V7.96875H104.391H103.391V13.1562H104.391ZM104.391 7.96875H105.391C105.391 7.28785 105.314 6.63653 105.07 6.11538L104.164 6.53906L103.258 6.96275C103.317 7.08743 103.391 7.38924 103.391 7.96875H104.391ZM104.164 6.53906L105.07 6.11538C104.933 5.82288 104.724 5.54329 104.418 5.34101C104.108 5.13661 103.764 5.05469 103.43 5.05469V6.05469V7.05469C103.435 7.05469 103.423 7.05524 103.399 7.04873C103.375 7.04192 103.345 7.0296 103.317 7.01055C103.255 6.96973 103.244 6.93233 103.258 6.96275L104.164 6.53906ZM103.43 6.05469V5.05469C103.031 5.05469 102.635 5.15722 102.284 5.39671C101.939 5.6321 101.7 5.95715 101.539 6.30483L102.445 6.72656L103.352 7.14829C103.399 7.04806 103.428 7.03717 103.411 7.04861C103.404 7.05349 103.397 7.05651 103.393 7.05747C103.391 7.05815 103.401 7.05469 103.43 7.05469V6.05469ZM102.445 6.72656L101.54 6.30077C101.231 6.95928 101.133 7.90435 101.133 8.97656H102.133H103.133C103.133 7.93419 103.243 7.37926 103.35 7.15236L102.445 6.72656ZM102.133 8.97656H101.133V13.1562H102.133H103.133V8.97656H102.133ZM102.133 13.1562V12.1562H100.055V13.1562V14.1562H102.133V13.1562ZM100.055 13.1562H101.055V4.45312H100.055H99.0547V13.1562H100.055ZM100.055 4.45312V5.45312H101.703V4.45312V3.45312H100.055V4.45312ZM101.703 4.45312L100.727 4.6715L100.977 5.78869L101.953 5.57031L102.929 5.35194L102.679 4.23475L101.703 4.45312ZM101.953 5.57031V6.57031H102.086V5.57031V4.57031H101.953V5.57031ZM102.086 5.57031L102.992 5.99384C103.105 5.7518 103.252 5.58936 103.431 5.4744L102.891 4.63281L102.351 3.79123C101.832 4.12418 101.442 4.58674 101.18 5.14678L102.086 5.57031ZM102.891 4.63281L103.44 5.46868C103.606 5.35942 103.819 5.28906 104.117 5.28906V4.28906V3.28906C103.478 3.28906 102.873 3.44787 102.342 3.79694L102.891 4.63281ZM104.117 4.28906V5.28906C104.655 5.28906 104.913 5.45593 105.08 5.68648L105.891 5.10156L106.702 4.51664C106.087 3.66386 105.162 3.28906 104.117 3.28906V4.28906ZM105.891 5.10156L105.083 5.69158C105.302 5.99077 105.484 6.53744 105.484 7.47656H106.484H107.484C107.484 6.33235 107.271 5.29569 106.698 4.51155L105.891 5.10156ZM106.484 7.47656H105.484V13.1562H106.484H107.484V7.47656H106.484ZM106.484 13.1562V12.1562H104.391V13.1562V14.1562H106.484V13.1562Z" fill="#01410B" mask="url(#path-1-outside-1_0_3)"/>
</svg>
