<svg width="82" height="14" viewBox="0 0 82 14" fill="none" xmlns="http://www.w3.org/2000/svg">
<mask id="path-1-outside-1_0_3" maskUnits="userSpaceOnUse" x="-0.433594" y="-0.882812" width="82" height="15" fill="black">
<rect fill="white" x="-0.433594" y="-0.882812" width="82" height="15"/>
<path d="M3.63672 10.2344C2.82031 10.2344 2.17578 9.94531 1.70312 9.36719C1.23438 8.78516 1 7.96289 1 6.90039C1 5.82227 1.21289 4.98047 1.63867 4.375C2.06445 3.76953 2.6582 3.4668 3.41992 3.4668C4.13086 3.4668 4.69141 3.72656 5.10156 4.24609C5.51172 4.76172 5.7168 5.48633 5.7168 6.41992V7.25195H2.58203C2.59375 7.83398 2.71289 8.26758 2.93945 8.55273C3.16602 8.83398 3.47852 8.97461 3.87695 8.97461C4.38477 8.97461 4.9043 8.81641 5.43555 8.5V9.7832C4.93555 10.084 4.33594 10.2344 3.63672 10.2344ZM3.4082 4.66797C3.18555 4.66797 3.00195 4.78711 2.85742 5.02539C2.71289 5.25977 2.62891 5.625 2.60547 6.12109H4.1875C4.17969 5.64453 4.10742 5.2832 3.9707 5.03711C3.83398 4.79102 3.64648 4.66797 3.4082 4.66797ZM10 10.1172V6.22656C10 5.75391 9.94336 5.39648 9.83008 5.1543C9.7168 4.91211 9.5332 4.79102 9.2793 4.79102C8.94336 4.79102 8.69727 4.95898 8.54102 5.29492C8.38477 5.62695 8.30664 6.18945 8.30664 6.98242V10.1172H6.74805V3.58984H7.98438L8.17188 4.42773H8.27148C8.41211 4.12695 8.61328 3.89258 8.875 3.72461C9.13672 3.55273 9.44336 3.4668 9.79492 3.4668C10.3887 3.4668 10.832 3.66992 11.125 4.07617C11.4219 4.48242 11.5703 5.07617 11.5703 5.85742V10.1172H10ZM14.3652 6.60156L14.7578 5.82227L16.0469 3.58984H17.6992L16.0469 6.26758L17.8105 10.1172H16.1758L14.998 7.35742L14.3887 7.9082V10.1172H12.8301V1H14.3887V5.29492L14.3184 6.60156H14.3652ZM21.6895 10.1172L21.3789 9.22656H21.3438C21.1133 9.60938 20.875 9.87305 20.6289 10.0176C20.3828 10.1621 20.0723 10.2344 19.6973 10.2344C19.2168 10.2344 18.8379 10.0547 18.5605 9.69531C18.2871 9.33594 18.1504 8.83594 18.1504 8.19531C18.1504 7.50781 18.3379 6.99805 18.7129 6.66602C19.0918 6.33008 19.6562 6.14453 20.4062 6.10938L21.2734 6.07422V5.60547C21.2734 4.99609 21.0098 4.69141 20.4824 4.69141C20.0918 4.69141 19.6426 4.84375 19.1348 5.14844L18.5957 4.07031C19.2441 3.66016 19.9492 3.45508 20.7109 3.45508C21.4023 3.45508 21.9277 3.6543 22.2871 4.05273C22.6504 4.44727 22.832 5.00781 22.832 5.73438V10.1172H21.6895ZM20.3359 9.01562C20.6211 9.01562 20.8477 8.88867 21.0156 8.63477C21.1875 8.37695 21.2734 8.03516 21.2734 7.60938V7.05859L20.793 7.08203C20.4375 7.10156 20.1758 7.20312 20.0078 7.38672C19.8438 7.57031 19.7617 7.84375 19.7617 8.20703C19.7617 8.74609 19.9531 9.01562 20.3359 9.01562ZM27.0391 3.4668C27.6328 3.4668 28.0996 3.76172 28.4395 4.35156C28.7793 4.94141 28.9492 5.77148 28.9492 6.8418C28.9492 7.92383 28.7773 8.75977 28.4336 9.34961C28.0938 9.93945 27.6211 10.2344 27.0156 10.2344C26.7227 10.2344 26.4629 10.1719 26.2363 10.0469C26.0137 9.91797 25.8027 9.69336 25.6035 9.37305H25.5039L25.2402 10.1172H24.0918V1H25.6504V3.13281C25.6504 3.22266 25.6484 3.31641 25.6445 3.41406C25.6406 3.51172 25.6152 3.85352 25.5684 4.43945H25.6504C25.8418 4.08008 26.0488 3.82812 26.2715 3.68359C26.4941 3.53906 26.75 3.4668 27.0391 3.4668ZM26.5 4.79102C26.2031 4.79102 25.9883 4.92969 25.8555 5.20703C25.7266 5.48438 25.6582 5.97266 25.6504 6.67188V6.83008C25.6504 7.58789 25.7168 8.12109 25.8496 8.42969C25.9863 8.73828 26.207 8.89258 26.5117 8.89258C27.0742 8.89258 27.3555 8.20117 27.3555 6.81836C27.3555 5.4668 27.0703 4.79102 26.5 4.79102Z"/>
<path d="M34.5918 10.1172L33.9414 6.32617L33.7129 4.72656H33.6895C33.6309 5.24609 33.584 5.62305 33.5488 5.85742C33.5137 6.08789 33.2656 7.50781 32.8047 10.1172H30.8008L29.5 3.58984H31.0645L31.6621 7.1875C31.7324 7.58594 31.7969 8.16992 31.8555 8.93945H31.8906C31.8984 8.73242 31.9258 8.41797 31.9727 7.99609C32.0195 7.57031 32.0527 7.29688 32.0723 7.17578L32.7168 3.58984H34.7207L35.3594 7.1875C35.4336 7.57031 35.498 8.1543 35.5527 8.93945H35.5762C35.6309 8.24023 35.6992 7.65625 35.7812 7.1875L36.4023 3.58984H37.9258L36.6191 10.1172H34.5918ZM41.125 10.2344C40.3086 10.2344 39.6641 9.94531 39.1914 9.36719C38.7227 8.78516 38.4883 7.96289 38.4883 6.90039C38.4883 5.82227 38.7012 4.98047 39.127 4.375C39.5527 3.76953 40.1465 3.4668 40.9082 3.4668C41.6191 3.4668 42.1797 3.72656 42.5898 4.24609C43 4.76172 43.2051 5.48633 43.2051 6.41992V7.25195H40.0703C40.082 7.83398 40.2012 8.26758 40.4277 8.55273C40.6543 8.83398 40.9668 8.97461 41.3652 8.97461C41.873 8.97461 42.3926 8.81641 42.9238 8.5V9.7832C42.4238 10.084 41.8242 10.2344 41.125 10.2344ZM40.8965 4.66797C40.6738 4.66797 40.4902 4.78711 40.3457 5.02539C40.2012 5.25977 40.1172 5.625 40.0938 6.12109H41.6758C41.668 5.64453 41.5957 5.2832 41.459 5.03711C41.3223 4.79102 41.1348 4.66797 40.8965 4.66797ZM47.1836 3.4668C47.7773 3.4668 48.2441 3.76172 48.584 4.35156C48.9238 4.94141 49.0938 5.77148 49.0938 6.8418C49.0938 7.92383 48.9219 8.75977 48.5781 9.34961C48.2383 9.93945 47.7656 10.2344 47.1602 10.2344C46.8672 10.2344 46.6074 10.1719 46.3809 10.0469C46.1582 9.91797 45.9473 9.69336 45.748 9.37305H45.6484L45.3848 10.1172H44.2363V1H45.7949V3.13281C45.7949 3.22266 45.793 3.31641 45.7891 3.41406C45.7852 3.51172 45.7598 3.85352 45.7129 4.43945H45.7949C45.9863 4.08008 46.1934 3.82812 46.416 3.68359C46.6387 3.53906 46.8945 3.4668 47.1836 3.4668ZM46.6445 4.79102C46.3477 4.79102 46.1328 4.92969 46 5.20703C45.8711 5.48438 45.8027 5.97266 45.7949 6.67188V6.83008C45.7949 7.58789 45.8613 8.12109 45.9941 8.42969C46.1309 8.73828 46.3516 8.89258 46.6562 8.89258C47.2188 8.89258 47.5 8.20117 47.5 6.81836C47.5 5.4668 47.2148 4.79102 46.6445 4.79102ZM55.7324 5.75195C55.7324 7.16602 55.4434 8.24805 54.8652 8.99805C54.291 9.74414 53.4629 10.1172 52.3809 10.1172H50.2832V1.55078H52.5742C53.5703 1.55078 54.3457 1.91992 54.9004 2.6582C55.4551 3.39258 55.7324 4.42383 55.7324 5.75195ZM54.0977 5.79883C54.0977 3.88477 53.5703 2.92773 52.5156 2.92773H51.877V8.72266H52.3926C52.9746 8.72266 53.4043 8.48047 53.6816 7.99609C53.959 7.50781 54.0977 6.77539 54.0977 5.79883ZM59.3008 10.2344C58.4844 10.2344 57.8398 9.94531 57.3672 9.36719C56.8984 8.78516 56.6641 7.96289 56.6641 6.90039C56.6641 5.82227 56.877 4.98047 57.3027 4.375C57.7285 3.76953 58.3223 3.4668 59.084 3.4668C59.7949 3.4668 60.3555 3.72656 60.7656 4.24609C61.1758 4.76172 61.3809 5.48633 61.3809 6.41992V7.25195H58.2461C58.2578 7.83398 58.377 8.26758 58.6035 8.55273C58.8301 8.83398 59.1426 8.97461 59.541 8.97461C60.0488 8.97461 60.5684 8.81641 61.0996 8.5V9.7832C60.5996 10.084 60 10.2344 59.3008 10.2344ZM59.0723 4.66797C58.8496 4.66797 58.666 4.78711 58.5215 5.02539C58.377 5.25977 58.293 5.625 58.2695 6.12109H59.8516C59.8438 5.64453 59.7715 5.2832 59.6348 5.03711C59.498 4.79102 59.3105 4.66797 59.0723 4.66797ZM65.916 8.20703C65.916 8.84375 65.7285 9.3418 65.3535 9.70117C64.9824 10.0566 64.4336 10.2344 63.707 10.2344C63.0625 10.2344 62.5293 10.1074 62.1074 9.85352V8.5C62.3223 8.64844 62.5723 8.77148 62.8574 8.86914C63.1465 8.9668 63.4004 9.01562 63.6191 9.01562C63.8613 9.01562 64.0449 8.95703 64.1699 8.83984C64.2988 8.71875 64.3633 8.56055 64.3633 8.36523C64.3633 8.16602 64.2969 7.99219 64.1641 7.84375C64.0312 7.69531 63.7871 7.51367 63.4316 7.29883C62.959 7.01758 62.6191 6.71875 62.4121 6.40234C62.209 6.08203 62.1074 5.70508 62.1074 5.27148C62.1074 4.7168 62.2969 4.27734 62.6758 3.95312C63.0586 3.62891 63.582 3.4668 64.2461 3.4668C64.8242 3.4668 65.3691 3.61914 65.8809 3.92383L65.3711 5.04297C64.9531 4.81641 64.5859 4.70312 64.2695 4.70312C64.0703 4.70312 63.9199 4.75586 63.8184 4.86133C63.7207 4.9668 63.6719 5.0957 63.6719 5.24805C63.6719 5.42383 63.7324 5.58008 63.8535 5.7168C63.9785 5.85352 64.209 6.02344 64.5449 6.22656C64.9512 6.47266 65.2363 6.68164 65.4004 6.85352C65.5645 7.02539 65.6914 7.2207 65.7812 7.43945C65.8711 7.6582 65.916 7.91406 65.916 8.20703ZM68.4707 10.1172H66.9121V3.58984H68.4707V10.1172ZM66.8477 1.88477C66.8477 1.62695 66.9219 1.42383 67.0703 1.27539C67.2227 1.12305 67.4336 1.04688 67.7031 1.04688C67.957 1.04688 68.1602 1.12305 68.3125 1.27539C68.4648 1.42383 68.541 1.62695 68.541 1.88477C68.541 2.15039 68.4629 2.35742 68.3066 2.50586C68.1504 2.65039 67.9492 2.72266 67.7031 2.72266C67.4453 2.72266 67.2383 2.65039 67.082 2.50586C66.9258 2.35742 66.8477 2.15039 66.8477 1.88477ZM74.5059 3.60156V4.51562L73.7266 4.69141C73.8789 4.96484 73.9551 5.30859 73.9551 5.72266C73.9551 6.41406 73.7676 6.95508 73.3926 7.3457C73.0176 7.73633 72.4941 7.93164 71.8223 7.93164C71.627 7.93164 71.4824 7.91602 71.3887 7.88477C71.3145 7.95117 71.2441 8.02539 71.1777 8.10742C71.1113 8.18945 71.0781 8.29102 71.0781 8.41211C71.0781 8.68555 71.3145 8.82227 71.7871 8.82227H72.7305C73.2852 8.82227 73.7109 8.97266 74.0078 9.27344C74.3086 9.57031 74.459 10.0195 74.459 10.6211C74.459 11.3789 74.2051 11.9648 73.6973 12.3789C73.1895 12.793 72.459 13 71.5059 13C70.7832 13 70.2266 12.8418 69.8359 12.5254C69.4453 12.2129 69.25 11.7656 69.25 11.1836C69.25 10.8203 69.3613 10.5 69.584 10.2227C69.8066 9.94922 70.1152 9.75 70.5098 9.625C70.3105 9.54688 70.1465 9.42578 70.0176 9.26172C69.8926 9.09766 69.8301 8.90625 69.8301 8.6875C69.8301 8.55469 69.8496 8.43555 69.8887 8.33008C69.9277 8.2207 69.9824 8.11914 70.0527 8.02539C70.127 7.92773 70.2754 7.78516 70.498 7.59766C70.2285 7.43359 70.0156 7.18164 69.8594 6.8418C69.7031 6.50195 69.625 6.125 69.625 5.71094C69.625 4.99609 69.8125 4.44336 70.1875 4.05273C70.5625 3.66211 71.0996 3.4668 71.7988 3.4668C71.9316 3.4668 72.084 3.48242 72.2559 3.51367C72.4277 3.54102 72.5586 3.57031 72.6484 3.60156H74.5059ZM70.668 11.0664C70.668 11.3242 70.748 11.5215 70.9082 11.6582C71.0723 11.7988 71.3047 11.8691 71.6055 11.8691C72.0781 11.8691 72.4316 11.7793 72.666 11.5996C72.9043 11.4199 73.0234 11.1738 73.0234 10.8613C73.0234 10.6152 72.959 10.4414 72.8301 10.3398C72.7051 10.2383 72.4688 10.1875 72.1211 10.1875H71.3652C71.1543 10.1875 70.9844 10.2656 70.8555 10.4219C70.7305 10.582 70.668 10.7969 70.668 11.0664ZM71.1484 5.72266C71.1484 6.49219 71.3652 6.87695 71.7988 6.87695C72.2207 6.87695 72.4316 6.48828 72.4316 5.71094C72.4316 4.91406 72.2207 4.51562 71.7988 4.51562C71.3652 4.51562 71.1484 4.91797 71.1484 5.72266ZM78.543 10.1172V6.22656C78.543 5.75391 78.4863 5.39648 78.373 5.1543C78.2598 4.91211 78.0762 4.79102 77.8223 4.79102C77.4863 4.79102 77.2402 4.95898 77.084 5.29492C76.9277 5.62695 76.8496 6.18945 76.8496 6.98242V10.1172H75.291V3.58984H76.5273L76.7148 4.42773H76.8145C76.9551 4.12695 77.1562 3.89258 77.418 3.72461C77.6797 3.55273 77.9863 3.4668 78.3379 3.4668C78.9316 3.4668 79.375 3.66992 79.668 4.07617C79.9648 4.48242 80.1133 5.07617 80.1133 5.85742V10.1172H78.543Z"/>
</mask>
<path d="M3.63672 10.2344C2.82031 10.2344 2.17578 9.94531 1.70312 9.36719C1.23438 8.78516 1 7.96289 1 6.90039C1 5.82227 1.21289 4.98047 1.63867 4.375C2.06445 3.76953 2.6582 3.4668 3.41992 3.4668C4.13086 3.4668 4.69141 3.72656 5.10156 4.24609C5.51172 4.76172 5.7168 5.48633 5.7168 6.41992V7.25195H2.58203C2.59375 7.83398 2.71289 8.26758 2.93945 8.55273C3.16602 8.83398 3.47852 8.97461 3.87695 8.97461C4.38477 8.97461 4.9043 8.81641 5.43555 8.5V9.7832C4.93555 10.084 4.33594 10.2344 3.63672 10.2344ZM3.4082 4.66797C3.18555 4.66797 3.00195 4.78711 2.85742 5.02539C2.71289 5.25977 2.62891 5.625 2.60547 6.12109H4.1875C4.17969 5.64453 4.10742 5.2832 3.9707 5.03711C3.83398 4.79102 3.64648 4.66797 3.4082 4.66797ZM10 10.1172V6.22656C10 5.75391 9.94336 5.39648 9.83008 5.1543C9.7168 4.91211 9.5332 4.79102 9.2793 4.79102C8.94336 4.79102 8.69727 4.95898 8.54102 5.29492C8.38477 5.62695 8.30664 6.18945 8.30664 6.98242V10.1172H6.74805V3.58984H7.98438L8.17188 4.42773H8.27148C8.41211 4.12695 8.61328 3.89258 8.875 3.72461C9.13672 3.55273 9.44336 3.4668 9.79492 3.4668C10.3887 3.4668 10.832 3.66992 11.125 4.07617C11.4219 4.48242 11.5703 5.07617 11.5703 5.85742V10.1172H10ZM14.3652 6.60156L14.7578 5.82227L16.0469 3.58984H17.6992L16.0469 6.26758L17.8105 10.1172H16.1758L14.998 7.35742L14.3887 7.9082V10.1172H12.8301V1H14.3887V5.29492L14.3184 6.60156H14.3652ZM21.6895 10.1172L21.3789 9.22656H21.3438C21.1133 9.60938 20.875 9.87305 20.6289 10.0176C20.3828 10.1621 20.0723 10.2344 19.6973 10.2344C19.2168 10.2344 18.8379 10.0547 18.5605 9.69531C18.2871 9.33594 18.1504 8.83594 18.1504 8.19531C18.1504 7.50781 18.3379 6.99805 18.7129 6.66602C19.0918 6.33008 19.6562 6.14453 20.4062 6.10938L21.2734 6.07422V5.60547C21.2734 4.99609 21.0098 4.69141 20.4824 4.69141C20.0918 4.69141 19.6426 4.84375 19.1348 5.14844L18.5957 4.07031C19.2441 3.66016 19.9492 3.45508 20.7109 3.45508C21.4023 3.45508 21.9277 3.6543 22.2871 4.05273C22.6504 4.44727 22.832 5.00781 22.832 5.73438V10.1172H21.6895ZM20.3359 9.01562C20.6211 9.01562 20.8477 8.88867 21.0156 8.63477C21.1875 8.37695 21.2734 8.03516 21.2734 7.60938V7.05859L20.793 7.08203C20.4375 7.10156 20.1758 7.20312 20.0078 7.38672C19.8438 7.57031 19.7617 7.84375 19.7617 8.20703C19.7617 8.74609 19.9531 9.01562 20.3359 9.01562ZM27.0391 3.4668C27.6328 3.4668 28.0996 3.76172 28.4395 4.35156C28.7793 4.94141 28.9492 5.77148 28.9492 6.8418C28.9492 7.92383 28.7773 8.75977 28.4336 9.34961C28.0938 9.93945 27.6211 10.2344 27.0156 10.2344C26.7227 10.2344 26.4629 10.1719 26.2363 10.0469C26.0137 9.91797 25.8027 9.69336 25.6035 9.37305H25.5039L25.2402 10.1172H24.0918V1H25.6504V3.13281C25.6504 3.22266 25.6484 3.31641 25.6445 3.41406C25.6406 3.51172 25.6152 3.85352 25.5684 4.43945H25.6504C25.8418 4.08008 26.0488 3.82812 26.2715 3.68359C26.4941 3.53906 26.75 3.4668 27.0391 3.4668ZM26.5 4.79102C26.2031 4.79102 25.9883 4.92969 25.8555 5.20703C25.7266 5.48438 25.6582 5.97266 25.6504 6.67188V6.83008C25.6504 7.58789 25.7168 8.12109 25.8496 8.42969C25.9863 8.73828 26.207 8.89258 26.5117 8.89258C27.0742 8.89258 27.3555 8.20117 27.3555 6.81836C27.3555 5.4668 27.0703 4.79102 26.5 4.79102Z" fill="black"/>
<path d="M34.5918 10.1172L33.9414 6.32617L33.7129 4.72656H33.6895C33.6309 5.24609 33.584 5.62305 33.5488 5.85742C33.5137 6.08789 33.2656 7.50781 32.8047 10.1172H30.8008L29.5 3.58984H31.0645L31.6621 7.1875C31.7324 7.58594 31.7969 8.16992 31.8555 8.93945H31.8906C31.8984 8.73242 31.9258 8.41797 31.9727 7.99609C32.0195 7.57031 32.0527 7.29688 32.0723 7.17578L32.7168 3.58984H34.7207L35.3594 7.1875C35.4336 7.57031 35.498 8.1543 35.5527 8.93945H35.5762C35.6309 8.24023 35.6992 7.65625 35.7812 7.1875L36.4023 3.58984H37.9258L36.6191 10.1172H34.5918ZM41.125 10.2344C40.3086 10.2344 39.6641 9.94531 39.1914 9.36719C38.7227 8.78516 38.4883 7.96289 38.4883 6.90039C38.4883 5.82227 38.7012 4.98047 39.127 4.375C39.5527 3.76953 40.1465 3.4668 40.9082 3.4668C41.6191 3.4668 42.1797 3.72656 42.5898 4.24609C43 4.76172 43.2051 5.48633 43.2051 6.41992V7.25195H40.0703C40.082 7.83398 40.2012 8.26758 40.4277 8.55273C40.6543 8.83398 40.9668 8.97461 41.3652 8.97461C41.873 8.97461 42.3926 8.81641 42.9238 8.5V9.7832C42.4238 10.084 41.8242 10.2344 41.125 10.2344ZM40.8965 4.66797C40.6738 4.66797 40.4902 4.78711 40.3457 5.02539C40.2012 5.25977 40.1172 5.625 40.0938 6.12109H41.6758C41.668 5.64453 41.5957 5.2832 41.459 5.03711C41.3223 4.79102 41.1348 4.66797 40.8965 4.66797ZM47.1836 3.4668C47.7773 3.4668 48.2441 3.76172 48.584 4.35156C48.9238 4.94141 49.0938 5.77148 49.0938 6.8418C49.0938 7.92383 48.9219 8.75977 48.5781 9.34961C48.2383 9.93945 47.7656 10.2344 47.1602 10.2344C46.8672 10.2344 46.6074 10.1719 46.3809 10.0469C46.1582 9.91797 45.9473 9.69336 45.748 9.37305H45.6484L45.3848 10.1172H44.2363V1H45.7949V3.13281C45.7949 3.22266 45.793 3.31641 45.7891 3.41406C45.7852 3.51172 45.7598 3.85352 45.7129 4.43945H45.7949C45.9863 4.08008 46.1934 3.82812 46.416 3.68359C46.6387 3.53906 46.8945 3.4668 47.1836 3.4668ZM46.6445 4.79102C46.3477 4.79102 46.1328 4.92969 46 5.20703C45.8711 5.48438 45.8027 5.97266 45.7949 6.67188V6.83008C45.7949 7.58789 45.8613 8.12109 45.9941 8.42969C46.1309 8.73828 46.3516 8.89258 46.6562 8.89258C47.2188 8.89258 47.5 8.20117 47.5 6.81836C47.5 5.4668 47.2148 4.79102 46.6445 4.79102ZM55.7324 5.75195C55.7324 7.16602 55.4434 8.24805 54.8652 8.99805C54.291 9.74414 53.4629 10.1172 52.3809 10.1172H50.2832V1.55078H52.5742C53.5703 1.55078 54.3457 1.91992 54.9004 2.6582C55.4551 3.39258 55.7324 4.42383 55.7324 5.75195ZM54.0977 5.79883C54.0977 3.88477 53.5703 2.92773 52.5156 2.92773H51.877V8.72266H52.3926C52.9746 8.72266 53.4043 8.48047 53.6816 7.99609C53.959 7.50781 54.0977 6.77539 54.0977 5.79883ZM59.3008 10.2344C58.4844 10.2344 57.8398 9.94531 57.3672 9.36719C56.8984 8.78516 56.6641 7.96289 56.6641 6.90039C56.6641 5.82227 56.877 4.98047 57.3027 4.375C57.7285 3.76953 58.3223 3.4668 59.084 3.4668C59.7949 3.4668 60.3555 3.72656 60.7656 4.24609C61.1758 4.76172 61.3809 5.48633 61.3809 6.41992V7.25195H58.2461C58.2578 7.83398 58.377 8.26758 58.6035 8.55273C58.8301 8.83398 59.1426 8.97461 59.541 8.97461C60.0488 8.97461 60.5684 8.81641 61.0996 8.5V9.7832C60.5996 10.084 60 10.2344 59.3008 10.2344ZM59.0723 4.66797C58.8496 4.66797 58.666 4.78711 58.5215 5.02539C58.377 5.25977 58.293 5.625 58.2695 6.12109H59.8516C59.8438 5.64453 59.7715 5.2832 59.6348 5.03711C59.498 4.79102 59.3105 4.66797 59.0723 4.66797ZM65.916 8.20703C65.916 8.84375 65.7285 9.3418 65.3535 9.70117C64.9824 10.0566 64.4336 10.2344 63.707 10.2344C63.0625 10.2344 62.5293 10.1074 62.1074 9.85352V8.5C62.3223 8.64844 62.5723 8.77148 62.8574 8.86914C63.1465 8.9668 63.4004 9.01562 63.6191 9.01562C63.8613 9.01562 64.0449 8.95703 64.1699 8.83984C64.2988 8.71875 64.3633 8.56055 64.3633 8.36523C64.3633 8.16602 64.2969 7.99219 64.1641 7.84375C64.0312 7.69531 63.7871 7.51367 63.4316 7.29883C62.959 7.01758 62.6191 6.71875 62.4121 6.40234C62.209 6.08203 62.1074 5.70508 62.1074 5.27148C62.1074 4.7168 62.2969 4.27734 62.6758 3.95312C63.0586 3.62891 63.582 3.4668 64.2461 3.4668C64.8242 3.4668 65.3691 3.61914 65.8809 3.92383L65.3711 5.04297C64.9531 4.81641 64.5859 4.70312 64.2695 4.70312C64.0703 4.70312 63.9199 4.75586 63.8184 4.86133C63.7207 4.9668 63.6719 5.0957 63.6719 5.24805C63.6719 5.42383 63.7324 5.58008 63.8535 5.7168C63.9785 5.85352 64.209 6.02344 64.5449 6.22656C64.9512 6.47266 65.2363 6.68164 65.4004 6.85352C65.5645 7.02539 65.6914 7.2207 65.7812 7.43945C65.8711 7.6582 65.916 7.91406 65.916 8.20703ZM68.4707 10.1172H66.9121V3.58984H68.4707V10.1172ZM66.8477 1.88477C66.8477 1.62695 66.9219 1.42383 67.0703 1.27539C67.2227 1.12305 67.4336 1.04688 67.7031 1.04688C67.957 1.04688 68.1602 1.12305 68.3125 1.27539C68.4648 1.42383 68.541 1.62695 68.541 1.88477C68.541 2.15039 68.4629 2.35742 68.3066 2.50586C68.1504 2.65039 67.9492 2.72266 67.7031 2.72266C67.4453 2.72266 67.2383 2.65039 67.082 2.50586C66.9258 2.35742 66.8477 2.15039 66.8477 1.88477ZM74.5059 3.60156V4.51562L73.7266 4.69141C73.8789 4.96484 73.9551 5.30859 73.9551 5.72266C73.9551 6.41406 73.7676 6.95508 73.3926 7.3457C73.0176 7.73633 72.4941 7.93164 71.8223 7.93164C71.627 7.93164 71.4824 7.91602 71.3887 7.88477C71.3145 7.95117 71.2441 8.02539 71.1777 8.10742C71.1113 8.18945 71.0781 8.29102 71.0781 8.41211C71.0781 8.68555 71.3145 8.82227 71.7871 8.82227H72.7305C73.2852 8.82227 73.7109 8.97266 74.0078 9.27344C74.3086 9.57031 74.459 10.0195 74.459 10.6211C74.459 11.3789 74.2051 11.9648 73.6973 12.3789C73.1895 12.793 72.459 13 71.5059 13C70.7832 13 70.2266 12.8418 69.8359 12.5254C69.4453 12.2129 69.25 11.7656 69.25 11.1836C69.25 10.8203 69.3613 10.5 69.584 10.2227C69.8066 9.94922 70.1152 9.75 70.5098 9.625C70.3105 9.54688 70.1465 9.42578 70.0176 9.26172C69.8926 9.09766 69.8301 8.90625 69.8301 8.6875C69.8301 8.55469 69.8496 8.43555 69.8887 8.33008C69.9277 8.2207 69.9824 8.11914 70.0527 8.02539C70.127 7.92773 70.2754 7.78516 70.498 7.59766C70.2285 7.43359 70.0156 7.18164 69.8594 6.8418C69.7031 6.50195 69.625 6.125 69.625 5.71094C69.625 4.99609 69.8125 4.44336 70.1875 4.05273C70.5625 3.66211 71.0996 3.4668 71.7988 3.4668C71.9316 3.4668 72.084 3.48242 72.2559 3.51367C72.4277 3.54102 72.5586 3.57031 72.6484 3.60156H74.5059ZM70.668 11.0664C70.668 11.3242 70.748 11.5215 70.9082 11.6582C71.0723 11.7988 71.3047 11.8691 71.6055 11.8691C72.0781 11.8691 72.4316 11.7793 72.666 11.5996C72.9043 11.4199 73.0234 11.1738 73.0234 10.8613C73.0234 10.6152 72.959 10.4414 72.8301 10.3398C72.7051 10.2383 72.4688 10.1875 72.1211 10.1875H71.3652C71.1543 10.1875 70.9844 10.2656 70.8555 10.4219C70.7305 10.582 70.668 10.7969 70.668 11.0664ZM71.1484 5.72266C71.1484 6.49219 71.3652 6.87695 71.7988 6.87695C72.2207 6.87695 72.4316 6.48828 72.4316 5.71094C72.4316 4.91406 72.2207 4.51562 71.7988 4.51562C71.3652 4.51562 71.1484 4.91797 71.1484 5.72266ZM78.543 10.1172V6.22656C78.543 5.75391 78.4863 5.39648 78.373 5.1543C78.2598 4.91211 78.0762 4.79102 77.8223 4.79102C77.4863 4.79102 77.2402 4.95898 77.084 5.29492C76.9277 5.62695 76.8496 6.18945 76.8496 6.98242V10.1172H75.291V3.58984H76.5273L76.7148 4.42773H76.8145C76.9551 4.12695 77.1562 3.89258 77.418 3.72461C77.6797 3.55273 77.9863 3.4668 78.3379 3.4668C78.9316 3.4668 79.375 3.66992 79.668 4.07617C79.9648 4.48242 80.1133 5.07617 80.1133 5.85742V10.1172H78.543Z" fill="white"/>
<path d="M1.70312 9.36719L0.924279 9.99445L0.928935 10.0001L1.70312 9.36719ZM5.10156 4.24609L4.31667 4.86574L4.31896 4.86862L5.10156 4.24609ZM5.7168 7.25195V8.25195H6.7168V7.25195H5.7168ZM2.58203 7.25195V6.25195H1.56169L1.58223 7.27208L2.58203 7.25195ZM2.93945 8.55273L2.15648 9.17482L2.1607 9.18006L2.93945 8.55273ZM5.43555 8.5H6.43555V6.74049L4.92384 7.64084L5.43555 8.5ZM5.43555 9.7832L5.95103 10.6401L6.43555 10.3486V9.7832H5.43555ZM2.85742 5.02539L3.70862 5.55029L3.71243 5.544L2.85742 5.02539ZM2.60547 6.12109L1.60658 6.0739L1.55711 7.12109H2.60547V6.12109ZM4.1875 6.12109V7.12109H5.20403L5.18737 6.1047L4.1875 6.12109ZM3.63672 10.2344V9.23438C3.08851 9.23438 2.74076 9.05646 2.47732 8.73423L1.70312 9.36719L0.928935 10.0001C1.6108 10.8342 2.55211 11.2344 3.63672 11.2344V10.2344ZM1.70312 9.36719L2.48195 8.73995C2.20596 8.39725 2 7.82889 2 6.90039H1H0C0 8.09689 0.262794 9.17306 0.9243 9.99443L1.70312 9.36719ZM1 6.90039H2C2 5.93846 2.19217 5.32635 2.45666 4.95023L1.63867 4.375L0.820682 3.79977C0.233615 4.63459 0 5.70607 0 6.90039H1ZM1.63867 4.375L2.45666 4.95023C2.68879 4.62014 2.97249 4.4668 3.41992 4.4668V3.4668V2.4668C2.34392 2.4668 1.44012 2.91892 0.820682 3.79977L1.63867 4.375ZM3.41992 3.4668V4.4668C3.8509 4.4668 4.11176 4.60618 4.31668 4.86574L5.10156 4.24609L5.88645 3.62645C5.27105 2.84695 4.41082 2.4668 3.41992 2.4668V3.4668ZM5.10156 4.24609L4.31896 4.86862C4.54004 5.14654 4.7168 5.62019 4.7168 6.41992H5.7168H6.7168C6.7168 5.35246 6.4834 4.3769 5.88416 3.62357L5.10156 4.24609ZM5.7168 6.41992H4.7168V7.25195H5.7168H6.7168V6.41992H5.7168ZM5.7168 7.25195V6.25195H2.58203V7.25195V8.25195H5.7168V7.25195ZM2.58203 7.25195L1.58223 7.27208C1.59591 7.95147 1.73362 8.64257 2.1565 9.17481L2.93945 8.55273L3.72241 7.93066C3.69216 7.89259 3.59159 7.7165 3.58183 7.23182L2.58203 7.25195ZM2.93945 8.55273L2.1607 9.18006C2.59833 9.72333 3.21148 9.97461 3.87695 9.97461V8.97461V7.97461C3.79637 7.97461 3.76202 7.96078 3.75411 7.95722C3.74909 7.95496 3.73826 7.9503 3.71821 7.9254L2.93945 8.55273ZM3.87695 8.97461V9.97461C4.60042 9.97461 5.29489 9.7477 5.94725 9.35916L5.43555 8.5L4.92384 7.64084C4.5137 7.88511 4.16911 7.97461 3.87695 7.97461V8.97461ZM5.43555 8.5H4.43555V9.7832H5.43555H6.43555V8.5H5.43555ZM5.43555 9.7832L4.92007 8.9263C4.60406 9.1164 4.19051 9.23438 3.63672 9.23438V10.2344V11.2344C4.48136 11.2344 5.26704 11.0516 5.95103 10.6401L5.43555 9.7832ZM3.4082 4.66797V3.66797C2.74527 3.66797 2.27561 4.05638 2.00241 4.50678L2.85742 5.02539L3.71243 5.544C3.72727 5.51954 3.71209 5.55451 3.64788 5.59618C3.57464 5.6437 3.48653 5.66797 3.4082 5.66797V4.66797ZM2.85742 5.02539L2.00625 4.5005C1.72711 4.95317 1.63253 5.5247 1.60658 6.0739L2.60547 6.12109L3.60435 6.16829C3.61411 5.96188 3.63547 5.80848 3.6606 5.6992C3.68635 5.5872 3.71009 5.54785 3.70859 5.55028L2.85742 5.02539ZM2.60547 6.12109V7.12109H4.1875V6.12109V5.12109H2.60547V6.12109ZM4.1875 6.12109L5.18737 6.1047C5.17849 5.5635 5.09882 5.0086 4.84486 4.55147L3.9707 5.03711L3.09655 5.52275C3.11602 5.55781 3.18088 5.72556 3.18763 6.13749L4.1875 6.12109ZM3.9707 5.03711L4.84486 4.55147C4.57003 4.05677 4.08214 3.66797 3.4082 3.66797V4.66797V5.66797C3.34517 5.66797 3.2585 5.64855 3.17888 5.5963C3.10721 5.54926 3.08711 5.50577 3.09655 5.52275L3.9707 5.03711ZM10 10.1172H9V11.1172H10V10.1172ZM8.54102 5.29492L9.44584 5.72072L9.44774 5.71665L8.54102 5.29492ZM8.30664 10.1172V11.1172H9.30664V10.1172H8.30664ZM6.74805 10.1172H5.74805V11.1172H6.74805V10.1172ZM6.74805 3.58984V2.58984H5.74805V3.58984H6.74805ZM7.98438 3.58984L8.96024 3.37147L8.78533 2.58984H7.98438V3.58984ZM8.17188 4.42773L7.19601 4.64611L7.37092 5.42773H8.17188V4.42773ZM8.27148 4.42773V5.42773H8.90785L9.17737 4.85126L8.27148 4.42773ZM8.875 3.72461L9.41515 4.56624L9.42393 4.56048L8.875 3.72461ZM11.125 4.07617L10.3139 4.6611L10.3176 4.66619L11.125 4.07617ZM11.5703 10.1172V11.1172H12.5703V10.1172H11.5703ZM10 10.1172H11V6.22656H10H9V10.1172H10ZM10 6.22656H11C11 5.70321 10.9419 5.17103 10.7359 4.73061L9.83008 5.1543L8.92427 5.57798C8.94483 5.62194 9 5.8046 9 6.22656H10ZM9.83008 5.1543L10.7359 4.73061C10.618 4.47848 10.4341 4.22917 10.158 4.04706C9.87871 3.86284 9.57098 3.79102 9.2793 3.79102V4.79102V5.79102C9.24152 5.79102 9.15254 5.77974 9.05683 5.71661C8.96433 5.6556 8.92892 5.58792 8.92427 5.57798L9.83008 5.1543ZM9.2793 4.79102V3.79102C8.93677 3.79102 8.58889 3.87955 8.27903 4.09104C7.97516 4.29844 7.76997 4.5815 7.63429 4.87319L8.54102 5.29492L9.44774 5.71665C9.46832 5.67241 9.46429 5.70351 9.40652 5.74294C9.37885 5.76182 9.34904 5.77534 9.32146 5.7833C9.29487 5.79098 9.27901 5.79102 9.2793 5.79102V4.79102ZM8.54102 5.29492L7.6362 4.86912C7.37839 5.41696 7.30664 6.17453 7.30664 6.98242H8.30664H9.30664C9.30664 6.20438 9.39114 5.83695 9.44583 5.72072L8.54102 5.29492ZM8.30664 6.98242H7.30664V10.1172H8.30664H9.30664V6.98242H8.30664ZM8.30664 10.1172V9.11719H6.74805V10.1172V11.1172H8.30664V10.1172ZM6.74805 10.1172H7.74805V3.58984H6.74805H5.74805V10.1172H6.74805ZM6.74805 3.58984V4.58984H7.98438V3.58984V2.58984H6.74805V3.58984ZM7.98438 3.58984L7.00851 3.80822L7.19601 4.64611L8.17188 4.42773L9.14774 4.20936L8.96024 3.37147L7.98438 3.58984ZM8.17188 4.42773V5.42773H8.27148V4.42773V3.42773H8.17188V4.42773ZM8.27148 4.42773L9.17737 4.85126C9.24365 4.70949 9.32323 4.62517 9.41512 4.5662L8.875 3.72461L8.33488 2.88302C7.90333 3.15999 7.58057 3.54442 7.3656 4.0042L8.27148 4.42773ZM8.875 3.72461L9.42393 4.56048C9.50306 4.50851 9.61366 4.4668 9.79492 4.4668V3.4668V2.4668C9.27306 2.4668 8.77038 2.59696 8.32607 2.88874L8.875 3.72461ZM9.79492 3.4668V4.4668C10.1351 4.4668 10.2453 4.56596 10.3139 4.66109L11.125 4.07617L11.9361 3.49125C11.4188 2.77389 10.6423 2.4668 9.79492 2.4668V3.4668ZM11.125 4.07617L10.3176 4.66619C10.4373 4.82997 10.5703 5.17872 10.5703 5.85742H11.5703H12.5703C12.5703 4.97363 12.4065 4.13488 11.9324 3.48616L11.125 4.07617ZM11.5703 5.85742H10.5703V10.1172H11.5703H12.5703V5.85742H11.5703ZM11.5703 10.1172V9.11719H10V10.1172V11.1172H11.5703V10.1172ZM14.3652 6.60156V7.60156H14.9812L15.2583 7.05146L14.3652 6.60156ZM14.7578 5.82227L13.8918 5.32222L13.8776 5.34691L13.8647 5.37237L14.7578 5.82227ZM16.0469 3.58984V2.58984H15.4696L15.1809 3.08979L16.0469 3.58984ZM17.6992 3.58984L18.5502 4.11498L19.4913 2.58984H17.6992V3.58984ZM16.0469 6.26758L15.1959 5.74244L14.9149 6.19772L15.1377 6.68409L16.0469 6.26758ZM17.8105 10.1172V11.1172H19.3686L18.7197 9.70068L17.8105 10.1172ZM16.1758 10.1172L15.256 10.5097L15.5153 11.1172H16.1758V10.1172ZM14.998 7.35742L15.9178 6.96492L15.3675 5.67552L14.3275 6.61555L14.998 7.35742ZM14.3887 7.9082L13.7181 7.16633L13.3887 7.46411V7.9082H14.3887ZM14.3887 10.1172V11.1172H15.3887V10.1172H14.3887ZM12.8301 10.1172H11.8301V11.1172H12.8301V10.1172ZM12.8301 1V0H11.8301V1H12.8301ZM14.3887 1H15.3887V0H14.3887V1ZM14.3887 5.29492L15.3872 5.34866L15.3887 5.32181V5.29492H14.3887ZM14.3184 6.60156L13.3198 6.54783L13.2631 7.60156H14.3184V6.60156ZM14.3652 6.60156L15.2583 7.05146L15.6509 6.27216L14.7578 5.82227L13.8647 5.37237L13.4722 6.15166L14.3652 6.60156ZM14.7578 5.82227L15.6238 6.32232L16.9129 4.08989L16.0469 3.58984L15.1809 3.08979L13.8918 5.32222L14.7578 5.82227ZM16.0469 3.58984V4.58984H17.6992V3.58984V2.58984H16.0469V3.58984ZM17.6992 3.58984L16.8482 3.06471L15.1959 5.74244L16.0469 6.26758L16.8979 6.79271L18.5502 4.11498L17.6992 3.58984ZM16.0469 6.26758L15.1377 6.68409L16.9014 10.5337L17.8105 10.1172L18.7197 9.70068L16.956 5.85107L16.0469 6.26758ZM17.8105 10.1172V9.11719H16.1758V10.1172V11.1172H17.8105V10.1172ZM16.1758 10.1172L17.0955 9.72468L15.9178 6.96492L14.998 7.35742L14.0783 7.74993L15.256 10.5097L16.1758 10.1172ZM14.998 7.35742L14.3275 6.61555L13.7181 7.16633L14.3887 7.9082L15.0592 8.65008L15.6686 8.0993L14.998 7.35742ZM14.3887 7.9082H13.3887V10.1172H14.3887H15.3887V7.9082H14.3887ZM14.3887 10.1172V9.11719H12.8301V10.1172V11.1172H14.3887V10.1172ZM12.8301 10.1172H13.8301V1H12.8301H11.8301V10.1172H12.8301ZM12.8301 1V2H14.3887V1V0H12.8301V1ZM14.3887 1H13.3887V5.29492H14.3887H15.3887V1H14.3887ZM14.3887 5.29492L13.3901 5.24119L13.3198 6.54783L14.3184 6.60156L15.3169 6.6553L15.3872 5.34866L14.3887 5.29492ZM14.3184 6.60156V7.60156H14.3652V6.60156V5.60156H14.3184V6.60156ZM21.6895 10.1172L20.7452 10.4464L20.9791 11.1172H21.6895V10.1172ZM21.3789 9.22656L22.3232 8.89732L22.0893 8.22656H21.3789V9.22656ZM21.3438 9.22656V8.22656H20.7785L20.487 8.71078L21.3438 9.22656ZM18.5605 9.69531L17.7647 10.3008L17.7689 10.3063L18.5605 9.69531ZM18.7129 6.66602L19.3758 7.41471L19.3763 7.41428L18.7129 6.66602ZM20.4062 6.10938L20.3657 5.11018L20.3594 5.11047L20.4062 6.10938ZM21.2734 6.07422L21.3139 7.0734L22.2734 7.0345V6.07422H21.2734ZM19.1348 5.14844L18.2403 5.59565L18.7233 6.56152L19.6493 6.00593L19.1348 5.14844ZM18.5957 4.07031L18.0611 3.22519L17.2968 3.70863L17.7013 4.51753L18.5957 4.07031ZM22.2871 4.05273L21.5445 4.72254L21.5515 4.73011L22.2871 4.05273ZM22.832 10.1172V11.1172H23.832V10.1172H22.832ZM21.0156 8.63477L20.1836 8.08006L20.1816 8.08303L21.0156 8.63477ZM21.2734 7.05859H22.2734V6.00862L21.2247 6.05978L21.2734 7.05859ZM20.793 7.08203L20.7442 6.0832L20.7381 6.08354L20.793 7.08203ZM20.0078 7.38672L19.27 6.71166L19.2622 6.72039L20.0078 7.38672ZM21.6895 10.1172L22.6337 9.78794L22.3232 8.89732L21.3789 9.22656L20.4347 9.55581L20.7452 10.4464L21.6895 10.1172ZM21.3789 9.22656V8.22656H21.3438V9.22656V10.2266H21.3789V9.22656ZM21.3438 9.22656L20.487 8.71078C20.2985 9.0239 20.1657 9.12993 20.1225 9.15529L20.6289 10.0176L21.1353 10.8799C21.5843 10.6162 21.928 10.1949 22.2005 9.74234L21.3438 9.22656ZM20.6289 10.0176L20.1225 9.15529C20.0709 9.1856 19.9486 9.23438 19.6973 9.23438V10.2344V11.2344C20.1959 11.2344 20.6947 11.1386 21.1353 10.8799L20.6289 10.0176ZM19.6973 10.2344V9.23438C19.5057 9.23438 19.4277 9.18221 19.3522 9.08435L18.5605 9.69531L17.7689 10.3063C18.2481 10.9272 18.9279 11.2344 19.6973 11.2344V10.2344ZM18.5605 9.69531L19.3564 9.08979C19.2607 8.9641 19.1504 8.70627 19.1504 8.19531H18.1504H17.1504C17.1504 8.9656 17.3135 9.70778 17.7647 10.3008L18.5605 9.69531ZM18.1504 8.19531H19.1504C19.1504 7.6829 19.2863 7.49394 19.3758 7.41471L18.7129 6.66602L18.05 5.91732C17.3895 6.50216 17.1504 7.33272 17.1504 8.19531H18.1504ZM18.7129 6.66602L19.3763 7.41428C19.5189 7.28782 19.8251 7.13771 20.4531 7.10828L20.4062 6.10938L20.3594 5.11047C19.4874 5.15135 18.6647 5.37234 18.0495 5.91776L18.7129 6.66602ZM20.4062 6.10938L20.4468 7.10855L21.3139 7.0734L21.2734 6.07422L21.2329 5.07504L20.3657 5.1102L20.4062 6.10938ZM21.2734 6.07422H22.2734V5.60547H21.2734H20.2734V6.07422H21.2734ZM21.2734 5.60547H22.2734C22.2734 5.17923 22.1843 4.67285 21.8319 4.26555C21.4555 3.83059 20.9409 3.69141 20.4824 3.69141V4.69141V5.69141C20.5203 5.69141 20.5091 5.69712 20.469 5.6817C20.423 5.66397 20.3666 5.62868 20.3195 5.5743C20.2751 5.52303 20.2632 5.4827 20.2632 5.48273C20.264 5.48575 20.2734 5.522 20.2734 5.60547H21.2734ZM20.4824 4.69141V3.69141C19.8401 3.69141 19.2093 3.93752 18.6203 4.29094L19.1348 5.14844L19.6493 6.00593C20.0758 5.74998 20.3435 5.69141 20.4824 5.69141V4.69141ZM19.1348 5.14844L20.0292 4.70122L19.4901 3.6231L18.5957 4.07031L17.7013 4.51753L18.2403 5.59565L19.1348 5.14844ZM18.5957 4.07031L19.1303 4.91544C19.62 4.60567 20.1399 4.45508 20.7109 4.45508V3.45508V2.45508C19.7585 2.45508 18.8683 2.71464 18.0611 3.22519L18.5957 4.07031ZM20.7109 3.45508V4.45508C21.2061 4.45508 21.4261 4.59114 21.5445 4.7225L22.2871 4.05273L23.0297 3.38297C22.4294 2.71745 21.5986 2.45508 20.7109 2.45508V3.45508ZM22.2871 4.05273L21.5515 4.73011C21.6921 4.88287 21.832 5.16845 21.832 5.73438H22.832H23.832C23.832 4.84718 23.6086 4.01166 23.0228 3.37536L22.2871 4.05273ZM22.832 5.73438H21.832V10.1172H22.832H23.832V5.73438H22.832ZM22.832 10.1172V9.11719H21.6895V10.1172V11.1172H22.832V10.1172ZM20.3359 9.01562V10.0156C20.9829 10.0156 21.5114 9.69777 21.8496 9.1865L21.0156 8.63477L20.1816 8.08303C20.1704 8.09999 20.1831 8.07479 20.2309 8.04803C20.2534 8.03545 20.2766 8.02656 20.298 8.02124C20.319 8.01605 20.3326 8.01562 20.3359 8.01562V9.01562ZM21.0156 8.63477L21.8477 9.18947C22.163 8.71649 22.2734 8.16096 22.2734 7.60938H21.2734H20.2734C20.2734 7.90936 20.212 8.03741 20.1836 8.08007L21.0156 8.63477ZM21.2734 7.60938H22.2734V7.05859H21.2734H20.2734V7.60938H21.2734ZM21.2734 7.05859L21.2247 6.05978L20.7442 6.08322L20.793 7.08203L20.8417 8.08084L21.3222 8.05741L21.2734 7.05859ZM20.793 7.08203L20.7381 6.08354C20.2343 6.11122 19.6785 6.26526 19.27 6.71171L20.0078 7.38672L20.7456 8.06173C20.7307 8.07804 20.716 8.08988 20.7043 8.09762C20.693 8.10511 20.6877 8.10675 20.6919 8.10512C20.7023 8.10107 20.7484 8.08599 20.8478 8.08053L20.793 7.08203ZM20.0078 7.38672L19.2622 6.72039C18.8714 7.15763 18.7617 7.71229 18.7617 8.20703H19.7617H20.7617C20.7617 8.09758 20.7744 8.03898 20.7811 8.01684C20.7867 7.99819 20.7835 8.01948 20.7535 8.05305L20.0078 7.38672ZM19.7617 8.20703H18.7617C18.7617 8.56458 18.8197 9.01196 19.0899 9.39248C19.4048 9.83587 19.8794 10.0156 20.3359 10.0156V9.01562V8.01562C20.3572 8.01562 20.4238 8.01956 20.5096 8.05985C20.6007 8.10258 20.673 8.16746 20.7206 8.23448C20.7637 8.29523 20.7723 8.33721 20.7707 8.33044C20.769 8.32331 20.7617 8.28583 20.7617 8.20703H19.7617ZM28.4336 9.34961L27.5696 8.84609L27.5671 8.85038L28.4336 9.34961ZM26.2363 10.0469L25.7353 10.9123L25.7442 10.9175L25.7533 10.9225L26.2363 10.0469ZM25.6035 9.37305L26.4527 8.84491L26.1592 8.37305H25.6035V9.37305ZM25.5039 9.37305V8.37305H24.7973L24.5613 9.03906L25.5039 9.37305ZM25.2402 10.1172V11.1172H25.9468L26.1828 10.4512L25.2402 10.1172ZM24.0918 10.1172H23.0918V11.1172H24.0918V10.1172ZM24.0918 1V0H23.0918V1H24.0918ZM25.6504 1H26.6504V0H25.6504V1ZM25.5684 4.43945L24.5715 4.35971L24.4852 5.43945H25.5684V4.43945ZM25.6504 4.43945V5.43945H26.2508L26.533 4.90954L25.6504 4.43945ZM25.8555 5.20703L24.9535 4.7751L24.9486 4.78554L25.8555 5.20703ZM25.6504 6.67188L24.6504 6.6607V6.67188H25.6504ZM25.8496 8.42969L24.931 8.82503L24.9353 8.83475L25.8496 8.42969ZM27.0391 3.4668V4.4668C27.2166 4.4668 27.3803 4.51639 27.573 4.85079L28.4395 4.35156L29.3059 3.85234C28.8189 3.00705 28.049 2.4668 27.0391 2.4668V3.4668ZM28.4395 4.35156L27.573 4.85079C27.789 5.22565 27.9492 5.85562 27.9492 6.8418H28.9492H29.9492C29.9492 5.68735 29.7696 4.65716 29.3059 3.85234L28.4395 4.35156ZM28.9492 6.8418H27.9492C27.9492 7.8407 27.7866 8.47368 27.5696 8.84609L28.4336 9.34961L29.2976 9.85312C29.768 9.04585 29.9492 8.00695 29.9492 6.8418H28.9492ZM28.4336 9.34961L27.5671 8.85038C27.379 9.17682 27.213 9.23438 27.0156 9.23438V10.2344V11.2344C28.0292 11.2344 28.8085 10.7021 29.3001 9.84883L28.4336 9.34961ZM27.0156 10.2344V9.23438C26.8689 9.23438 26.7794 9.20439 26.7194 9.1713L26.2363 10.0469L25.7533 10.9225C26.1464 11.1394 26.5764 11.2344 27.0156 11.2344V10.2344ZM26.2363 10.0469L26.7374 9.18145C26.7075 9.16413 26.6027 9.08619 26.4527 8.84491L25.6035 9.37305L24.7544 9.90118C25.0027 10.3005 25.3199 10.6718 25.7353 10.9123L26.2363 10.0469ZM25.6035 9.37305V8.37305H25.5039V9.37305V10.373H25.6035V9.37305ZM25.5039 9.37305L24.5613 9.03906L24.2977 9.7832L25.2402 10.1172L26.1828 10.4512L26.4465 9.70703L25.5039 9.37305ZM25.2402 10.1172V9.11719H24.0918V10.1172V11.1172H25.2402V10.1172ZM24.0918 10.1172H25.0918V1H24.0918H23.0918V10.1172H24.0918ZM24.0918 1V2H25.6504V1V0H24.0918V1ZM25.6504 1H24.6504V3.13281H25.6504H26.6504V1H25.6504ZM25.6504 3.13281H24.6504C24.6504 3.20823 24.6488 3.28861 24.6453 3.37409L25.6445 3.41406L26.6437 3.45403C26.6481 3.3442 26.6504 3.23708 26.6504 3.13281H25.6504ZM25.6445 3.41406L24.6453 3.37409C24.6424 3.44628 24.6194 3.76131 24.5715 4.35971L25.5684 4.43945L26.5652 4.5192C26.6111 3.94572 26.6388 3.57716 26.6437 3.45403L25.6445 3.41406ZM25.5684 4.43945V5.43945H25.6504V4.43945V3.43945H25.5684V4.43945ZM25.6504 4.43945L26.533 4.90954C26.6836 4.62671 26.7916 4.53818 26.816 4.52237L26.2715 3.68359L25.727 2.84481C25.3061 3.11807 24.9999 3.53344 24.7678 3.96936L25.6504 4.43945ZM26.2715 3.68359L26.816 4.52237C26.8621 4.49241 26.9254 4.4668 27.0391 4.4668V3.4668V2.4668C26.5746 2.4668 26.1262 2.58572 25.727 2.84481L26.2715 3.68359ZM26.5 4.79102V3.79102C26.1908 3.79102 25.8676 3.86524 25.5739 4.05484C25.2823 4.24304 25.0835 4.50371 24.9536 4.77513L25.8555 5.20703L26.7574 5.63894C26.7602 5.63301 26.7353 5.68567 26.6585 5.7352C26.5796 5.78612 26.5123 5.79102 26.5 5.79102V4.79102ZM25.8555 5.20703L24.9486 4.78554C24.7211 5.27504 24.6583 5.95649 24.6505 6.6607L25.6504 6.67188L26.6503 6.68305C26.6539 6.36001 26.6715 6.10841 26.6979 5.9199C26.7109 5.82648 26.7252 5.75568 26.7385 5.70409C26.7451 5.67869 26.7509 5.65988 26.7554 5.64678C26.7599 5.63359 26.7625 5.628 26.7623 5.62852L25.8555 5.20703ZM25.6504 6.67188H24.6504V6.83008H25.6504H26.6504V6.67188H25.6504ZM25.6504 6.83008H24.6504C24.6504 7.59522 24.7101 8.31156 24.9311 8.82501L25.8496 8.42969L26.7682 8.03437C26.7235 7.93063 26.6504 7.58056 26.6504 6.83008H25.6504ZM25.8496 8.42969L24.9353 8.83475C25.059 9.11388 25.2514 9.39136 25.5447 9.59643C25.8446 9.80609 26.1824 9.89258 26.5117 9.89258V8.89258V7.89258C26.5203 7.89258 26.5452 7.89374 26.5807 7.90417C26.6173 7.91491 26.6555 7.9327 26.6907 7.95728C26.7633 8.00805 26.777 8.05409 26.7639 8.02462L25.8496 8.42969ZM26.5117 8.89258V9.89258C26.8756 9.89258 27.2245 9.77423 27.5147 9.53642C27.788 9.31245 27.9597 9.02394 28.0708 8.75082C28.2855 8.22298 28.3555 7.54781 28.3555 6.81836H27.3555H26.3555C26.3555 7.47172 26.2848 7.83366 26.2182 7.99722C26.1887 8.06981 26.1847 8.04058 26.247 7.98946C26.3263 7.9245 26.4291 7.89258 26.5117 7.89258V8.89258ZM27.3555 6.81836H28.3555C28.3555 6.10255 28.2844 5.43394 28.0629 4.90908C27.9479 4.63637 27.7712 4.35186 27.4941 4.13303C27.2021 3.90231 26.8563 3.79102 26.5 3.79102V4.79102V5.79102C26.4288 5.79102 26.3326 5.76419 26.2544 5.70242C26.1912 5.65253 26.1928 5.62144 26.2203 5.68662C26.284 5.83755 26.3555 6.18261 26.3555 6.81836H27.3555ZM34.5918 10.1172L33.6062 10.2863L33.7487 11.1172H34.5918V10.1172ZM33.9414 6.32617L32.9515 6.46759L32.9534 6.48146L32.9558 6.49526L33.9414 6.32617ZM33.7129 4.72656L34.7028 4.58514L34.5802 3.72656H33.7129V4.72656ZM33.6895 4.72656V3.72656H32.7959L32.6958 4.61449L33.6895 4.72656ZM33.5488 5.85742L34.5374 6.00822L34.5378 6.00576L33.5488 5.85742ZM32.8047 10.1172V11.1172H33.6435L33.7894 10.2911L32.8047 10.1172ZM30.8008 10.1172L29.8201 10.3126L29.9804 11.1172H30.8008V10.1172ZM29.5 3.58984V2.58984H28.2811L28.5193 3.78528L29.5 3.58984ZM31.0645 3.58984L32.0509 3.42597L31.912 2.58984H31.0645V3.58984ZM31.6621 7.1875L30.6756 7.35139L30.6773 7.36129L31.6621 7.1875ZM31.8555 8.93945L30.8584 9.01538L30.9287 9.93945H31.8555V8.93945ZM31.8906 8.93945V9.93945H32.8536L32.8899 8.97716L31.8906 8.93945ZM31.9727 7.99609L32.9665 8.10653L32.9667 8.10552L31.9727 7.99609ZM32.0723 7.17578L31.088 6.99888L31.0865 7.0077L31.085 7.01655L32.0723 7.17578ZM32.7168 3.58984V2.58984H31.8805L31.7326 3.41294L32.7168 3.58984ZM34.7207 3.58984L35.7053 3.41505L35.5588 2.58984H34.7207V3.58984ZM35.3594 7.1875L34.3748 7.36229L34.3762 7.37007L34.3777 7.37783L35.3594 7.1875ZM35.5527 8.93945L34.5552 9.00894L34.62 9.93945H35.5527V8.93945ZM35.5762 8.93945V9.93945H36.501L36.5731 9.01743L35.5762 8.93945ZM35.7812 7.1875L36.7663 7.35988L36.7667 7.35762L35.7812 7.1875ZM36.4023 3.58984V2.58984H35.5602L35.4169 3.41972L36.4023 3.58984ZM37.9258 3.58984L38.9063 3.78613L39.1458 2.58984H37.9258V3.58984ZM36.6191 10.1172V11.1172H37.4388L37.5997 10.3135L36.6191 10.1172ZM34.5918 10.1172L35.5774 9.9481L34.927 6.15708L33.9414 6.32617L32.9558 6.49526L33.6062 10.2863L34.5918 10.1172ZM33.9414 6.32617L34.9314 6.18475L34.7028 4.58514L33.7129 4.72656L32.7229 4.86798L32.9515 6.46759L33.9414 6.32617ZM33.7129 4.72656V3.72656H33.6895V4.72656V5.72656H33.7129V4.72656ZM33.6895 4.72656L32.6958 4.61449C32.6373 5.13274 32.5921 5.49413 32.5599 5.70908L33.5488 5.85742L34.5378 6.00576C34.5758 5.75196 34.6244 5.35945 34.6832 4.83863L33.6895 4.72656ZM33.5488 5.85742L32.5603 5.70662C32.5274 5.92183 32.2827 7.32323 31.8199 9.94323L32.8047 10.1172L33.7894 10.2911C34.2485 7.69239 34.4999 6.25395 34.5374 6.00822L33.5488 5.85742ZM32.8047 10.1172V9.11719H30.8008V10.1172V11.1172H32.8047V10.1172ZM30.8008 10.1172L31.7815 9.92175L30.4807 3.3944L29.5 3.58984L28.5193 3.78528L29.8201 10.3126L30.8008 10.1172ZM29.5 3.58984V4.58984H31.0645V3.58984V2.58984H29.5V3.58984ZM31.0645 3.58984L30.078 3.75372L30.6756 7.35138L31.6621 7.1875L32.6486 7.02362L32.0509 3.42597L31.0645 3.58984ZM31.6621 7.1875L30.6773 7.36129C30.7389 7.71023 30.8005 8.25493 30.8584 9.01538L31.8555 8.93945L32.8526 8.86353C32.7933 8.08491 32.7259 7.46165 32.6469 7.01371L31.6621 7.1875ZM31.8555 8.93945V9.93945H31.8906V8.93945V7.93945H31.8555V8.93945ZM31.8906 8.93945L32.8899 8.97716C32.8963 8.80828 32.9202 8.52374 32.9665 8.10653L31.9727 7.99609L30.9788 7.88566C30.9314 8.3122 30.9006 8.65656 30.8913 8.90174L31.8906 8.93945ZM31.9727 7.99609L32.9667 8.10552C33.0143 7.67278 33.0448 7.4263 33.0595 7.33501L32.0723 7.17578L31.085 7.01655C31.0607 7.16745 31.0248 7.46784 30.9787 7.88666L31.9727 7.99609ZM32.0723 7.17578L33.0565 7.35268L33.701 3.76675L32.7168 3.58984L31.7326 3.41294L31.088 6.99888L32.0723 7.17578ZM32.7168 3.58984V4.58984H34.7207V3.58984V2.58984H32.7168V3.58984ZM34.7207 3.58984L33.7361 3.76464L34.3748 7.36229L35.3594 7.1875L36.344 7.01271L35.7053 3.41505L34.7207 3.58984ZM35.3594 7.1875L34.3777 7.37783C34.4398 7.69827 34.5011 8.23227 34.5552 9.00894L35.5527 8.93945L36.5503 8.86997C36.495 8.07632 36.4274 7.44236 36.3411 6.99717L35.3594 7.1875ZM35.5527 8.93945V9.93945H35.5762V8.93945V7.93945H35.5527V8.93945ZM35.5762 8.93945L36.5731 9.01743C36.6264 8.33655 36.6916 7.78652 36.7663 7.35988L35.7812 7.1875L34.7962 7.01512C34.7068 7.52598 34.6353 8.14392 34.5792 8.86148L35.5762 8.93945ZM35.7812 7.1875L36.7667 7.35762L37.3878 3.75997L36.4023 3.58984L35.4169 3.41972L34.7958 7.01738L35.7812 7.1875ZM36.4023 3.58984V4.58984H37.9258V3.58984V2.58984H36.4023V3.58984ZM37.9258 3.58984L36.9452 3.39356L35.6386 9.9209L36.6191 10.1172L37.5997 10.3135L38.9063 3.78613L37.9258 3.58984ZM36.6191 10.1172V9.11719H34.5918V10.1172V11.1172H36.6191V10.1172ZM39.1914 9.36719L38.4126 9.99445L38.4172 10.0001L39.1914 9.36719ZM42.5898 4.24609L41.805 4.86574L41.8072 4.86862L42.5898 4.24609ZM43.2051 7.25195V8.25195H44.2051V7.25195H43.2051ZM40.0703 7.25195V6.25195H39.05L39.0705 7.27208L40.0703 7.25195ZM40.4277 8.55273L39.6448 9.17482L39.649 9.18006L40.4277 8.55273ZM42.9238 8.5H43.9238V6.74049L42.4121 7.64084L42.9238 8.5ZM42.9238 9.7832L43.4393 10.6401L43.9238 10.3486V9.7832H42.9238ZM40.3457 5.02539L41.1969 5.55029L41.2007 5.544L40.3457 5.02539ZM40.0938 6.12109L39.0949 6.0739L39.0454 7.12109H40.0938V6.12109ZM41.6758 6.12109V7.12109H42.6923L42.6756 6.1047L41.6758 6.12109ZM41.125 10.2344V9.23438C40.5768 9.23438 40.229 9.05646 39.9656 8.73423L39.1914 9.36719L38.4172 10.0001C39.0991 10.8342 40.0404 11.2344 41.125 11.2344V10.2344ZM39.1914 9.36719L39.9702 8.73995C39.6942 8.39725 39.4883 7.82889 39.4883 6.90039H38.4883H37.4883C37.4883 8.09689 37.7511 9.17306 38.4126 9.99443L39.1914 9.36719ZM38.4883 6.90039H39.4883C39.4883 5.93846 39.6804 5.32635 39.9449 4.95023L39.127 4.375L38.309 3.79977C37.7219 4.63459 37.4883 5.70607 37.4883 6.90039H38.4883ZM39.127 4.375L39.9449 4.95023C40.1771 4.62014 40.4608 4.4668 40.9082 4.4668V3.4668V2.4668C39.8322 2.4668 38.9284 2.91892 38.309 3.79977L39.127 4.375ZM40.9082 3.4668V4.4668C41.3392 4.4668 41.6 4.60618 41.805 4.86574L42.5898 4.24609L43.3747 3.62645C42.7593 2.84695 41.8991 2.4668 40.9082 2.4668V3.4668ZM42.5898 4.24609L41.8072 4.86862C42.0283 5.14654 42.2051 5.62019 42.2051 6.41992H43.2051H44.2051C44.2051 5.35246 43.9717 4.3769 43.3724 3.62357L42.5898 4.24609ZM43.2051 6.41992H42.2051V7.25195H43.2051H44.2051V6.41992H43.2051ZM43.2051 7.25195V6.25195H40.0703V7.25195V8.25195H43.2051V7.25195ZM40.0703 7.25195L39.0705 7.27208C39.0842 7.95147 39.2219 8.64257 39.6448 9.17481L40.4277 8.55273L41.2107 7.93066C41.1804 7.89259 41.0799 7.7165 41.0701 7.23182L40.0703 7.25195ZM40.4277 8.55273L39.649 9.18006C40.0866 9.72333 40.6998 9.97461 41.3652 9.97461V8.97461V7.97461C41.2846 7.97461 41.2503 7.96078 41.2424 7.95722C41.2374 7.95496 41.2265 7.9503 41.2065 7.9254L40.4277 8.55273ZM41.3652 8.97461V9.97461C42.0887 9.97461 42.7832 9.7477 43.4355 9.35916L42.9238 8.5L42.4121 7.64084C42.002 7.88511 41.6574 7.97461 41.3652 7.97461V8.97461ZM42.9238 8.5H41.9238V9.7832H42.9238H43.9238V8.5H42.9238ZM42.9238 9.7832L42.4083 8.9263C42.0923 9.1164 41.6788 9.23438 41.125 9.23438V10.2344V11.2344C41.9696 11.2344 42.7553 11.0516 43.4393 10.6401L42.9238 9.7832ZM40.8965 4.66797V3.66797C40.2335 3.66797 39.7639 4.05638 39.4907 4.50678L40.3457 5.02539L41.2007 5.544C41.2155 5.51954 41.2004 5.55451 41.1362 5.59618C41.0629 5.6437 40.9748 5.66797 40.8965 5.66797V4.66797ZM40.3457 5.02539L39.4945 4.5005C39.2154 4.95317 39.1208 5.5247 39.0949 6.0739L40.0938 6.12109L41.0926 6.16829C41.1024 5.96188 41.1238 5.80848 41.1489 5.6992C41.1746 5.5872 41.1984 5.54785 41.1969 5.55028L40.3457 5.02539ZM40.0938 6.12109V7.12109H41.6758V6.12109V5.12109H40.0938V6.12109ZM41.6758 6.12109L42.6756 6.1047C42.6668 5.5635 42.5871 5.0086 42.3331 4.55147L41.459 5.03711L40.5848 5.52275C40.6043 5.55781 40.6692 5.72556 40.6759 6.13749L41.6758 6.12109ZM41.459 5.03711L42.3331 4.55147C42.0583 4.05677 41.5704 3.66797 40.8965 3.66797V4.66797V5.66797C40.8335 5.66797 40.7468 5.64855 40.6672 5.5963C40.5955 5.54926 40.5754 5.50577 40.5848 5.52275L41.459 5.03711ZM48.5781 9.34961L47.7141 8.84609L47.7117 8.85038L48.5781 9.34961ZM46.3809 10.0469L45.8798 10.9123L45.8888 10.9175L45.8978 10.9225L46.3809 10.0469ZM45.748 9.37305L46.5972 8.84491L46.3037 8.37305H45.748V9.37305ZM45.6484 9.37305V8.37305H44.9418L44.7059 9.03906L45.6484 9.37305ZM45.3848 10.1172V11.1172H46.0914L46.3273 10.4512L45.3848 10.1172ZM44.2363 10.1172H43.2363V11.1172H44.2363V10.1172ZM44.2363 1V0H43.2363V1H44.2363ZM45.7949 1H46.7949V0H45.7949V1ZM45.7129 4.43945L44.7161 4.35971L44.6297 5.43945H45.7129V4.43945ZM45.7949 4.43945V5.43945H46.3953L46.6775 4.90954L45.7949 4.43945ZM46 5.20703L45.098 4.7751L45.0932 4.78554L46 5.20703ZM45.7949 6.67188L44.7949 6.6607V6.67188H45.7949ZM45.9941 8.42969L45.0755 8.82503L45.0799 8.83475L45.9941 8.42969ZM47.1836 3.4668V4.4668C47.3611 4.4668 47.5248 4.51639 47.7175 4.85079L48.584 4.35156L49.4505 3.85234C48.9634 3.00705 48.1936 2.4668 47.1836 2.4668V3.4668ZM48.584 4.35156L47.7175 4.85079C47.9335 5.22565 48.0938 5.85562 48.0938 6.8418H49.0938H50.0938C50.0938 5.68735 49.9142 4.65716 49.4505 3.85234L48.584 4.35156ZM49.0938 6.8418H48.0938C48.0938 7.8407 47.9312 8.47368 47.7141 8.84609L48.5781 9.34961L49.4421 9.85312C49.9126 9.04585 50.0938 8.00695 50.0938 6.8418H49.0938ZM48.5781 9.34961L47.7117 8.85038C47.5236 9.17682 47.3575 9.23438 47.1602 9.23438V10.2344V11.2344C48.1737 11.2344 48.953 10.7021 49.4446 9.84883L48.5781 9.34961ZM47.1602 10.2344V9.23438C47.0135 9.23438 46.9239 9.20439 46.8639 9.1713L46.3809 10.0469L45.8978 10.9225C46.2909 11.1394 46.7209 11.2344 47.1602 11.2344V10.2344ZM46.3809 10.0469L46.8819 9.18145C46.852 9.16413 46.7473 9.08619 46.5972 8.84491L45.748 9.37305L44.8989 9.90118C45.1473 10.3005 45.4644 10.6718 45.8798 10.9123L46.3809 10.0469ZM45.748 9.37305V8.37305H45.6484V9.37305V10.373H45.748V9.37305ZM45.6484 9.37305L44.7059 9.03906L44.4422 9.7832L45.3848 10.1172L46.3273 10.4512L46.591 9.70703L45.6484 9.37305ZM45.3848 10.1172V9.11719H44.2363V10.1172V11.1172H45.3848V10.1172ZM44.2363 10.1172H45.2363V1H44.2363H43.2363V10.1172H44.2363ZM44.2363 1V2H45.7949V1V0H44.2363V1ZM45.7949 1H44.7949V3.13281H45.7949H46.7949V1H45.7949ZM45.7949 3.13281H44.7949C44.7949 3.20823 44.7933 3.28861 44.7899 3.37409L45.7891 3.41406L46.7883 3.45403C46.7927 3.3442 46.7949 3.23708 46.7949 3.13281H45.7949ZM45.7891 3.41406L44.7899 3.37409C44.787 3.44628 44.7639 3.76131 44.7161 4.35971L45.7129 4.43945L46.7097 4.5192C46.7556 3.94572 46.7833 3.57716 46.7883 3.45403L45.7891 3.41406ZM45.7129 4.43945V5.43945H45.7949V4.43945V3.43945H45.7129V4.43945ZM45.7949 4.43945L46.6775 4.90954C46.8282 4.62671 46.9361 4.53818 46.9605 4.52237L46.416 3.68359L45.8715 2.84481C45.4506 3.11807 45.1445 3.53344 44.9123 3.96936L45.7949 4.43945ZM46.416 3.68359L46.9605 4.52237C47.0067 4.49241 47.0699 4.4668 47.1836 4.4668V3.4668V2.4668C46.7192 2.4668 46.2707 2.58572 45.8715 2.84481L46.416 3.68359ZM46.6445 4.79102V3.79102C46.3354 3.79102 46.0122 3.86524 45.7184 4.05484C45.4269 4.24304 45.2281 4.50371 45.0981 4.77513L46 5.20703L46.9019 5.63894C46.9048 5.63301 46.8798 5.68567 46.803 5.7352C46.7242 5.78612 46.6568 5.79102 46.6445 5.79102V4.79102ZM46 5.20703L45.0932 4.78554C44.8657 5.27504 44.8029 5.95649 44.795 6.6607L45.7949 6.67188L46.7949 6.68305C46.7985 6.36001 46.816 6.10841 46.8424 5.9199C46.8555 5.82648 46.8698 5.75568 46.883 5.70409C46.8896 5.67869 46.8954 5.65988 46.8999 5.64678C46.9045 5.63359 46.9071 5.628 46.9068 5.62852L46 5.20703ZM45.7949 6.67188H44.7949V6.83008H45.7949H46.7949V6.67188H45.7949ZM45.7949 6.83008H44.7949C44.7949 7.59522 44.8546 8.31156 45.0756 8.82501L45.9941 8.42969L46.9127 8.03437C46.868 7.93063 46.7949 7.58056 46.7949 6.83008H45.7949ZM45.9941 8.42969L45.0799 8.83475C45.2035 9.11388 45.3959 9.39136 45.6892 9.59643C45.9891 9.80609 46.3269 9.89258 46.6562 9.89258V8.89258V7.89258C46.6648 7.89258 46.6898 7.89374 46.7253 7.90417C46.7618 7.91491 46.8 7.9327 46.8352 7.95728C46.9078 8.00805 46.9215 8.05409 46.9084 8.02462L45.9941 8.42969ZM46.6562 8.89258V9.89258C47.0201 9.89258 47.369 9.77423 47.6592 9.53642C47.9325 9.31245 48.1043 9.02394 48.2154 8.75082C48.4301 8.22298 48.5 7.54781 48.5 6.81836H47.5H46.5C46.5 7.47172 46.4293 7.83366 46.3628 7.99722C46.3332 8.06981 46.3292 8.04058 46.3916 7.98946C46.4708 7.9245 46.5736 7.89258 46.6562 7.89258V8.89258ZM47.5 6.81836H48.5C48.5 6.10255 48.4289 5.43394 48.2075 4.90908C48.0924 4.63637 47.9157 4.35186 47.6387 4.13303C47.3466 3.90231 47.0009 3.79102 46.6445 3.79102V4.79102V5.79102C46.5734 5.79102 46.4771 5.76419 46.3989 5.70242C46.3358 5.65253 46.3373 5.62144 46.3648 5.68662C46.4285 5.83755 46.5 6.18261 46.5 6.81836H47.5ZM54.8652 8.99805L54.0732 8.38754L54.0728 8.38814L54.8652 8.99805ZM50.2832 10.1172H49.2832V11.1172H50.2832V10.1172ZM50.2832 1.55078V0.550781H49.2832V1.55078H50.2832ZM54.9004 2.6582L54.1009 3.25888L54.1024 3.26092L54.9004 2.6582ZM51.877 2.92773V1.92773H50.877V2.92773H51.877ZM51.877 8.72266H50.877V9.72266H51.877V8.72266ZM53.6816 7.99609L54.5495 8.49299L54.5512 8.48998L53.6816 7.99609ZM55.7324 5.75195H54.7324C54.7324 7.04921 54.4644 7.8801 54.0732 8.38754L54.8652 8.99805L55.6572 9.60855C56.4223 8.616 56.7324 7.28282 56.7324 5.75195H55.7324ZM54.8652 8.99805L54.0728 8.38814C53.7177 8.84942 53.2051 9.11719 52.3809 9.11719V10.1172V11.1172C53.7207 11.1172 54.8643 10.6389 55.6577 9.60796L54.8652 8.99805ZM52.3809 10.1172V9.11719H50.2832V10.1172V11.1172H52.3809V10.1172ZM50.2832 10.1172H51.2832V1.55078H50.2832H49.2832V10.1172H50.2832ZM50.2832 1.55078V2.55078H52.5742V1.55078V0.550781H50.2832V1.55078ZM52.5742 1.55078V2.55078C53.2846 2.55078 53.7517 2.7941 54.1009 3.25888L54.9004 2.6582L55.6999 2.05753C54.9397 1.04574 53.8561 0.550781 52.5742 0.550781V1.55078ZM54.9004 2.6582L54.1024 3.26092C54.4792 3.75978 54.7324 4.54829 54.7324 5.75195H55.7324H56.7324C56.7324 4.29937 56.4309 3.02538 55.6983 2.05549L54.9004 2.6582ZM54.0977 5.79883H55.0977C55.0977 4.78272 54.9633 3.86224 54.578 3.1629C54.377 2.79815 54.0984 2.47724 53.7254 2.25155C53.3505 2.02477 52.9355 1.92773 52.5156 1.92773V2.92773V3.92773C52.6231 3.92773 52.6696 3.95033 52.6902 3.9628C52.7126 3.97638 52.7636 4.01435 52.8263 4.12811C52.9683 4.38581 53.0977 4.90088 53.0977 5.79883H54.0977ZM52.5156 2.92773V1.92773H51.877V2.92773V3.92773H52.5156V2.92773ZM51.877 2.92773H50.877V8.72266H51.877H52.877V2.92773H51.877ZM51.877 8.72266V9.72266H52.3926V8.72266V7.72266H51.877V8.72266ZM52.3926 8.72266V9.72266C53.3143 9.72266 54.0848 9.30458 54.5495 8.49299L53.6816 7.99609L52.8138 7.4992C52.7238 7.65636 52.635 7.72266 52.3926 7.72266V8.72266ZM53.6816 7.99609L54.5512 8.48998C54.9559 7.77737 55.0977 6.83728 55.0977 5.79883H54.0977H53.0977C53.0977 6.71351 52.962 7.23825 52.8121 7.5022L53.6816 7.99609ZM57.3672 9.36719L56.5883 9.99445L56.593 10.0001L57.3672 9.36719ZM60.7656 4.24609L59.9807 4.86574L59.983 4.86862L60.7656 4.24609ZM61.3809 7.25195V8.25195H62.3809V7.25195H61.3809ZM58.2461 7.25195V6.25195H57.2258L57.2463 7.27208L58.2461 7.25195ZM58.6035 8.55273L57.8205 9.17482L57.8248 9.18006L58.6035 8.55273ZM61.0996 8.5H62.0996V6.74049L60.5879 7.64084L61.0996 8.5ZM61.0996 9.7832L61.6151 10.6401L62.0996 10.3486V9.7832H61.0996ZM58.5215 5.02539L59.3727 5.55029L59.3765 5.544L58.5215 5.02539ZM58.2695 6.12109L57.2706 6.0739L57.2212 7.12109H58.2695V6.12109ZM59.8516 6.12109V7.12109H60.8681L60.8514 6.1047L59.8516 6.12109ZM59.3008 10.2344V9.23438C58.7526 9.23438 58.4048 9.05646 58.1414 8.73423L57.3672 9.36719L56.593 10.0001C57.2749 10.8342 58.2162 11.2344 59.3008 11.2344V10.2344ZM57.3672 9.36719L58.146 8.73995C57.87 8.39725 57.6641 7.82889 57.6641 6.90039H56.6641H55.6641C55.6641 8.09689 55.9269 9.17306 56.5884 9.99443L57.3672 9.36719ZM56.6641 6.90039H57.6641C57.6641 5.93846 57.8562 5.32635 58.1207 4.95023L57.3027 4.375L56.4847 3.79977C55.8977 4.63459 55.6641 5.70607 55.6641 6.90039H56.6641ZM57.3027 4.375L58.1207 4.95023C58.3529 4.62014 58.6366 4.4668 59.084 4.4668V3.4668V2.4668C58.008 2.4668 57.1042 2.91892 56.4847 3.79977L57.3027 4.375ZM59.084 3.4668V4.4668C59.515 4.4668 59.7758 4.60618 59.9807 4.86574L60.7656 4.24609L61.5505 3.62645C60.9351 2.84695 60.0749 2.4668 59.084 2.4668V3.4668ZM60.7656 4.24609L59.983 4.86862C60.2041 5.14654 60.3809 5.62019 60.3809 6.41992H61.3809H62.3809C62.3809 5.35246 62.1475 4.3769 61.5482 3.62357L60.7656 4.24609ZM61.3809 6.41992H60.3809V7.25195H61.3809H62.3809V6.41992H61.3809ZM61.3809 7.25195V6.25195H58.2461V7.25195V8.25195H61.3809V7.25195ZM58.2461 7.25195L57.2463 7.27208C57.26 7.95147 57.3977 8.64257 57.8206 9.17481L58.6035 8.55273L59.3865 7.93066C59.3562 7.89259 59.2556 7.7165 59.2459 7.23182L58.2461 7.25195ZM58.6035 8.55273L57.8248 9.18006C58.2624 9.72333 58.8755 9.97461 59.541 9.97461V8.97461V7.97461C59.4604 7.97461 59.4261 7.96078 59.4182 7.95722C59.4132 7.95496 59.4023 7.9503 59.3823 7.9254L58.6035 8.55273ZM59.541 8.97461V9.97461C60.2645 9.97461 60.959 9.7477 61.6113 9.35916L61.0996 8.5L60.5879 7.64084C60.1778 7.88511 59.8332 7.97461 59.541 7.97461V8.97461ZM61.0996 8.5H60.0996V9.7832H61.0996H62.0996V8.5H61.0996ZM61.0996 9.7832L60.5841 8.9263C60.2681 9.1164 59.8546 9.23438 59.3008 9.23438V10.2344V11.2344C60.1454 11.2344 60.9311 11.0516 61.6151 10.6401L61.0996 9.7832ZM59.0723 4.66797V3.66797C58.4093 3.66797 57.9397 4.05638 57.6665 4.50678L58.5215 5.02539L59.3765 5.544C59.3913 5.51954 59.3761 5.55451 59.3119 5.59618C59.2387 5.6437 59.1506 5.66797 59.0723 5.66797V4.66797ZM58.5215 5.02539L57.6703 4.5005C57.3912 4.95317 57.2966 5.5247 57.2706 6.0739L58.2695 6.12109L59.2684 6.16829C59.2782 5.96188 59.2995 5.80848 59.3247 5.6992C59.3504 5.5872 59.3741 5.54785 59.3727 5.55028L58.5215 5.02539ZM58.2695 6.12109V7.12109H59.8516V6.12109V5.12109H58.2695V6.12109ZM59.8516 6.12109L60.8514 6.1047C60.8426 5.5635 60.7629 5.0086 60.5089 4.55147L59.6348 5.03711L58.7606 5.52275C58.7801 5.55781 58.8449 5.72556 58.8517 6.13749L59.8516 6.12109ZM59.6348 5.03711L60.5089 4.55147C60.2341 4.05677 59.7462 3.66797 59.0723 3.66797V4.66797V5.66797C59.0092 5.66797 58.9226 5.64855 58.8429 5.5963C58.7713 5.54926 58.7512 5.50577 58.7606 5.52275L59.6348 5.03711ZM65.3535 9.70117L66.0453 10.4233L66.0454 10.4232L65.3535 9.70117ZM62.1074 9.85352H61.1074V10.4188L61.5918 10.7103L62.1074 9.85352ZM62.1074 8.5L62.6759 7.67727L61.1074 6.59363V8.5H62.1074ZM62.8574 8.86914L62.5334 9.81521L62.5374 9.81654L62.8574 8.86914ZM64.1699 8.83984L64.8539 9.56938L64.8546 9.56869L64.1699 8.83984ZM63.4316 7.29883L63.9489 6.44298L63.943 6.43946L63.4316 7.29883ZM62.4121 6.40234L61.5676 6.93789L61.5714 6.94391L61.5753 6.94987L62.4121 6.40234ZM62.6758 3.95312L62.0295 3.19002L62.0256 3.19332L62.6758 3.95312ZM65.8809 3.92383L66.7909 4.33835L67.1623 3.52298L66.3925 3.0646L65.8809 3.92383ZM65.3711 5.04297L64.8945 5.92212L65.8368 6.43289L66.2811 5.45749L65.3711 5.04297ZM63.8184 4.86133L63.098 4.16769L63.0912 4.17474L63.0846 4.18192L63.8184 4.86133ZM63.8535 5.7168L63.1049 6.37983L63.1102 6.38574L63.1155 6.39157L63.8535 5.7168ZM64.5449 6.22656L65.063 5.37125L65.0623 5.37083L64.5449 6.22656ZM65.916 8.20703H64.916C64.916 8.63705 64.7968 8.84961 64.6616 8.97918L65.3535 9.70117L66.0454 10.4232C66.6602 9.83398 66.916 9.05045 66.916 8.20703H65.916ZM65.3535 9.70117L64.6618 8.97903C64.542 9.09374 64.283 9.23438 63.707 9.23438V10.2344V11.2344C64.5842 11.2344 65.4228 11.0195 66.0453 10.4233L65.3535 9.70117ZM63.707 10.2344V9.23438C63.1894 9.23438 62.8482 9.1322 62.6231 8.99672L62.1074 9.85352L61.5918 10.7103C62.2104 11.0826 62.9356 11.2344 63.707 11.2344V10.2344ZM62.1074 9.85352H63.1074V8.5H62.1074H61.1074V9.85352H62.1074ZM62.1074 8.5L61.539 9.32273C61.8398 9.53059 62.1746 9.6923 62.5334 9.8152L62.8574 8.86914L63.1814 7.92308C62.97 7.85066 62.8047 7.76629 62.6759 7.67727L62.1074 8.5ZM62.8574 8.86914L62.5374 9.81654C62.892 9.93635 63.258 10.0156 63.6191 10.0156V9.01562V8.01562C63.5428 8.01562 63.401 7.99724 63.1775 7.92175L62.8574 8.86914ZM63.6191 9.01562V10.0156C64.0102 10.0156 64.4789 9.92094 64.8539 9.56938L64.1699 8.83984L63.486 8.11031C63.5448 8.05518 63.6024 8.02926 63.6344 8.01902C63.6624 8.01009 63.6623 8.01562 63.6191 8.01562V9.01562ZM64.1699 8.83984L64.8546 9.56869C65.2068 9.23779 65.3633 8.80468 65.3633 8.36523H64.3633H63.3633C63.3633 8.35192 63.3658 8.3097 63.3888 8.25307C63.4128 8.19425 63.4487 8.14534 63.4852 8.111L64.1699 8.83984ZM64.3633 8.36523H65.3633C65.3633 7.92003 65.2062 7.50879 64.9093 7.17696L64.1641 7.84375L63.4188 8.51054C63.4096 8.50029 63.3926 8.47718 63.3793 8.44232C63.366 8.40745 63.3633 8.37893 63.3633 8.36523H64.3633ZM64.1641 7.84375L64.9093 7.17696C64.6713 6.91098 64.318 6.66606 63.9489 6.443L63.4316 7.29883L62.9144 8.15466C63.0738 8.25104 63.1954 8.33223 63.2844 8.3985C63.3285 8.4313 63.3613 8.45797 63.3848 8.47853C63.3964 8.48866 63.4048 8.49658 63.4107 8.50229C63.4166 8.50803 63.419 8.51079 63.4188 8.51054L64.1641 7.84375ZM63.4316 7.29883L63.943 6.43946C63.5461 6.20332 63.3435 5.99939 63.2489 5.85482L62.4121 6.40234L61.5753 6.94987C61.8948 7.43811 62.3718 7.83184 62.9203 8.1582L63.4316 7.29883ZM62.4121 6.40234L63.2566 5.8668C63.169 5.72863 63.1074 5.54326 63.1074 5.27148H62.1074H61.1074C61.1074 5.8669 61.249 6.43544 61.5676 6.93789L62.4121 6.40234ZM62.1074 5.27148H63.1074C63.1074 4.97214 63.1956 4.82443 63.3259 4.71293L62.6758 3.95312L62.0256 3.19332C61.3981 3.73026 61.1074 4.46145 61.1074 5.27148H62.1074ZM62.6758 3.95312L63.3221 4.71622C63.4729 4.58851 63.7412 4.4668 64.2461 4.4668V3.4668V2.4668C63.4228 2.4668 62.6443 2.6693 62.0295 3.19003L62.6758 3.95312ZM64.2461 3.4668V4.4668C64.6385 4.4668 65.0074 4.56759 65.3693 4.78305L65.8809 3.92383L66.3925 3.0646C65.7309 2.67069 65.0099 2.4668 64.2461 2.4668V3.4668ZM65.8809 3.92383L64.9708 3.50931L64.4611 4.62845L65.3711 5.04297L66.2811 5.45749L66.7909 4.33835L65.8809 3.92383ZM65.3711 5.04297L65.8476 4.16382C65.351 3.89463 64.8153 3.70312 64.2695 3.70312V4.70312V5.70312C64.3566 5.70312 64.5552 5.73818 64.8945 5.92212L65.3711 5.04297ZM64.2695 4.70312V3.70312C63.8997 3.70312 63.4483 3.80396 63.098 4.16769L63.8184 4.86133L64.5387 5.55497C64.4716 5.62461 64.3973 5.66563 64.3382 5.68634C64.2843 5.70526 64.2556 5.70312 64.2695 5.70312V4.70312ZM63.8184 4.86133L63.0846 4.18192C62.8049 4.48403 62.6719 4.86033 62.6719 5.24805H63.6719H64.6719C64.6719 5.2802 64.6664 5.33131 64.6437 5.39134C64.6205 5.45235 64.5869 5.50315 64.5521 5.54074L63.8184 4.86133ZM63.6719 5.24805H62.6719C62.6719 5.67837 62.8288 6.06805 63.1049 6.37983L63.8535 5.7168L64.6021 5.05376C64.6132 5.06627 64.6334 5.09365 64.6497 5.13575C64.6663 5.17844 64.6719 5.21849 64.6719 5.24805H63.6719ZM63.8535 5.7168L63.1155 6.39157C63.3435 6.64099 63.68 6.87216 64.0275 7.08229L64.5449 6.22656L65.0623 5.37083C64.9117 5.27972 64.7971 5.20353 64.7135 5.14189C64.6722 5.11139 64.6417 5.0869 64.6202 5.06836C64.5982 5.04936 64.5902 5.04061 64.5915 5.04203L63.8535 5.7168ZM64.5449 6.22656L64.0268 7.08187C64.417 7.31822 64.608 7.4717 64.677 7.54399L65.4004 6.85352L66.1237 6.16304C65.8646 5.89159 65.4854 5.62709 65.063 5.37125L64.5449 6.22656ZM65.4004 6.85352L64.677 7.54399C64.7555 7.62624 64.8139 7.71635 64.8562 7.81937L65.7812 7.43945L66.7063 7.05953C66.5689 6.72505 66.3734 6.42454 66.1237 6.16304L65.4004 6.85352ZM65.7812 7.43945L64.8562 7.81937C64.8863 7.89252 64.916 8.01424 64.916 8.20703H65.916H66.916C66.916 7.81388 66.8559 7.42388 66.7063 7.05953L65.7812 7.43945ZM68.4707 10.1172V11.1172H69.4707V10.1172H68.4707ZM66.9121 10.1172H65.9121V11.1172H66.9121V10.1172ZM66.9121 3.58984V2.58984H65.9121V3.58984H66.9121ZM68.4707 3.58984H69.4707V2.58984H68.4707V3.58984ZM68.3125 1.27539L67.6053 1.98256L67.6146 1.99162L68.3125 1.27539ZM68.3066 2.50586L68.9857 3.24002L68.9954 3.23086L68.3066 2.50586ZM67.082 2.50586L66.3932 3.23092L66.403 3.23996L67.082 2.50586ZM68.4707 10.1172V9.11719H66.9121V10.1172V11.1172H68.4707V10.1172ZM66.9121 10.1172H67.9121V3.58984H66.9121H65.9121V10.1172H66.9121ZM66.9121 3.58984V4.58984H68.4707V3.58984V2.58984H66.9121V3.58984ZM68.4707 3.58984H67.4707V10.1172H68.4707H69.4707V3.58984H68.4707ZM66.8477 1.88477H67.8477C67.8477 1.85101 67.8525 1.855 67.8426 1.88226C67.8376 1.89598 67.8296 1.91325 67.8177 1.93202C67.8058 1.95088 67.7919 1.96797 67.7774 1.9825L67.0703 1.27539L66.3632 0.568284C65.9862 0.945286 65.8477 1.42602 65.8477 1.88477H66.8477ZM67.0703 1.27539L67.7774 1.9825C67.7629 1.99703 67.7461 2.0105 67.728 2.02188C67.71 2.03318 67.6941 2.04034 67.6824 2.04456C67.6595 2.05284 67.6615 2.04688 67.7031 2.04688V1.04688V0.046875C67.2387 0.046875 66.7476 0.183939 66.3632 0.568284L67.0703 1.27539ZM67.7031 1.04688V2.04688C67.7302 2.04688 67.7228 2.05086 67.6948 2.04033C67.6809 2.03514 67.6648 2.02739 67.648 2.01659C67.6311 2.00578 67.6168 1.99392 67.6054 1.9825L68.3125 1.27539L69.0196 0.568284C68.6465 0.195205 68.1713 0.046875 67.7031 0.046875V1.04688ZM68.3125 1.27539L67.6146 1.99162C67.6004 1.97779 67.5864 1.96103 67.574 1.94196C67.5617 1.92295 67.5531 1.90503 67.5476 1.89019C67.5364 1.86052 67.541 1.85371 67.541 1.88477H68.541H69.541C69.541 1.41851 69.3958 0.934681 69.0104 0.559161L68.3125 1.27539ZM68.541 1.88477H67.541C67.541 1.92051 67.5357 1.91563 67.5468 1.8862C67.5524 1.87136 67.5612 1.85291 67.5743 1.83309C67.5874 1.81318 67.6024 1.79553 67.6179 1.78086L68.3066 2.50586L68.9954 3.23086C69.3949 2.85131 69.541 2.35632 69.541 1.88477H68.541ZM68.3066 2.50586L67.6276 1.77176C67.6369 1.76314 67.6487 1.75405 67.6624 1.7457C67.6762 1.73735 67.6893 1.73135 67.7005 1.72734C67.7234 1.7191 67.7281 1.72266 67.7031 1.72266V2.72266V3.72266C68.1589 3.72266 68.6159 3.58201 68.9857 3.23996L68.3066 2.50586ZM67.7031 2.72266V1.72266C67.6672 1.72266 67.6649 1.71762 67.6841 1.72432C67.6936 1.72767 67.7066 1.73328 67.7212 1.742C67.7359 1.75075 67.7494 1.76097 67.7611 1.77176L67.082 2.50586L66.403 3.23996C66.7815 3.59005 67.2497 3.72266 67.7031 3.72266V2.72266ZM67.082 2.50586L67.7708 1.78086C67.7862 1.79553 67.8012 1.81318 67.8144 1.83309C67.8274 1.85291 67.8363 1.87136 67.8419 1.8862C67.853 1.91563 67.8477 1.92051 67.8477 1.88477H66.8477H65.8477C65.8477 2.35632 65.9938 2.85131 66.3933 3.23086L67.082 2.50586ZM74.5059 3.60156H75.5059V2.60156H74.5059V3.60156ZM74.5059 4.51562L74.7259 5.49112L75.5059 5.31519V4.51562H74.5059ZM73.7266 4.69141L73.5065 3.71591L72.2023 4.01011L72.853 5.17811L73.7266 4.69141ZM71.3887 7.88477L71.7049 6.93608L71.1544 6.75257L70.7219 7.13952L71.3887 7.88477ZM74.0078 9.27344L73.296 9.97597L73.3053 9.98515L74.0078 9.27344ZM69.8359 12.5254L70.4654 11.7483L70.4606 11.7445L69.8359 12.5254ZM69.584 10.2227L68.8085 9.59122L68.8042 9.59662L69.584 10.2227ZM70.5098 9.625L70.8118 10.5783L73.5044 9.72521L70.8749 8.69403L70.5098 9.625ZM70.0176 9.26172L69.2221 9.86776L69.2267 9.87368L69.2313 9.87954L70.0176 9.26172ZM69.8887 8.33008L70.8265 8.67742L70.8304 8.66641L69.8887 8.33008ZM70.0527 8.02539L69.2566 7.42029L69.2527 7.42539L70.0527 8.02539ZM70.498 7.59766L71.1422 8.36257L72.2061 7.46665L71.018 6.74346L70.498 7.59766ZM72.2559 3.51367L72.077 4.49754L72.0878 4.49952L72.0987 4.50125L72.2559 3.51367ZM72.6484 3.60156L72.3199 4.54606L72.4795 4.60156H72.6484V3.60156ZM70.9082 11.6582L71.559 10.8989L71.5575 10.8976L70.9082 11.6582ZM72.666 11.5996L72.0639 10.8012L72.0576 10.806L72.666 11.5996ZM72.8301 10.3398L72.1995 11.116L72.2053 11.1207L72.2112 11.1253L72.8301 10.3398ZM70.8555 10.4219L70.0841 9.78549L70.0755 9.79593L70.0672 9.8066L70.8555 10.4219ZM74.5059 3.60156H73.5059V4.51562H74.5059H75.5059V3.60156H74.5059ZM74.5059 4.51562L74.2858 3.54013L73.5065 3.71591L73.7266 4.69141L73.9466 5.6669L74.7259 5.49112L74.5059 4.51562ZM73.7266 4.69141L72.853 5.17811C72.8999 5.26233 72.9551 5.42579 72.9551 5.72266H73.9551H74.9551C74.9551 5.19139 74.8579 4.66736 74.6001 4.2047L73.7266 4.69141ZM73.9551 5.72266H72.9551C72.9551 6.2304 72.8217 6.49635 72.6712 6.65317L73.3926 7.3457L74.114 8.03823C74.7134 7.4138 74.9551 6.59773 74.9551 5.72266H73.9551ZM73.3926 7.3457L72.6712 6.65317C72.5282 6.8021 72.2917 6.93164 71.8223 6.93164V7.93164V8.93164C72.6966 8.93164 73.5069 8.67056 74.114 8.03823L73.3926 7.3457ZM71.8223 7.93164V6.93164C71.7492 6.93164 71.7017 6.92862 71.6749 6.92571C71.662 6.92433 71.6581 6.92341 71.6615 6.92408C71.6644 6.92465 71.6801 6.92782 71.7049 6.93608L71.3887 7.88477L71.0724 8.83345C71.3251 8.91767 71.6031 8.93164 71.8223 8.93164V7.93164ZM71.3887 7.88477L70.7219 7.13952C70.6055 7.24364 70.4986 7.35708 70.4005 7.47822L71.1777 8.10742L71.955 8.73662C71.9897 8.6937 72.0234 8.6587 72.0555 8.63001L71.3887 7.88477ZM71.1777 8.10742L70.4005 7.47822C70.1691 7.76407 70.0781 8.09749 70.0781 8.41211H71.0781H72.0781C72.0781 8.44325 72.0738 8.49395 72.0535 8.55586C72.0327 8.61943 71.9994 8.68173 71.955 8.73662L71.1777 8.10742ZM71.0781 8.41211H70.0781C70.0781 8.90511 70.3269 9.33788 70.7546 9.58532C71.0992 9.78465 71.4871 9.82227 71.7871 9.82227V8.82227V7.82227C71.7142 7.82227 71.6768 7.81675 71.6663 7.81472C71.654 7.81236 71.6931 7.81771 71.7561 7.85414C71.8253 7.89418 71.9181 7.96945 71.9889 8.09231C72.0596 8.21509 72.0781 8.33278 72.0781 8.41211H71.0781ZM71.7871 8.82227V9.82227H72.7305V8.82227V7.82227H71.7871V8.82227ZM72.7305 8.82227V9.82227C73.1047 9.82227 73.2405 9.91959 73.2961 9.97591L74.0078 9.27344L74.7195 8.57097C74.1814 8.02572 73.4656 7.82227 72.7305 7.82227V8.82227ZM74.0078 9.27344L73.3053 9.98515C73.3474 10.0266 73.459 10.1726 73.459 10.6211H74.459H75.459C75.459 9.86651 75.2698 9.114 74.7103 8.56172L74.0078 9.27344ZM74.459 10.6211H73.459C73.459 11.1311 73.3022 11.4107 73.0653 11.6039L73.6973 12.3789L74.3292 13.1539C75.1079 12.519 75.459 11.6267 75.459 10.6211H74.459ZM73.6973 12.3789L73.0653 11.6039C72.8015 11.819 72.3305 12 71.5059 12V13V14C72.5875 14 73.5774 13.7669 74.3292 13.1539L73.6973 12.3789ZM71.5059 13V12C70.9146 12 70.6144 11.8691 70.4654 11.7483L69.8359 12.5254L69.2065 13.3025C69.8387 13.8145 70.6518 14 71.5059 14V13ZM69.8359 12.5254L70.4606 11.7445C70.3476 11.6541 70.25 11.5176 70.25 11.1836H69.25H68.25C68.25 12.0137 68.5431 12.7717 69.2112 13.3063L69.8359 12.5254ZM69.25 11.1836H70.25C70.25 11.0427 70.2869 10.9444 70.3638 10.8487L69.584 10.2227L68.8042 9.59662C68.4357 10.0556 68.25 10.5979 68.25 11.1836H69.25ZM69.584 10.2227L70.3594 10.8541C70.4389 10.7565 70.5702 10.6549 70.8118 10.5783L70.5098 9.625L70.2077 8.6717C69.6603 8.84514 69.1744 9.14194 68.8085 9.59123L69.584 10.2227ZM70.5098 9.625L70.8749 8.69403C70.837 8.67917 70.8199 8.66422 70.8039 8.6439L70.0176 9.26172L69.2313 9.87954C69.4731 10.1873 69.7841 10.4146 70.1447 10.556L70.5098 9.625ZM70.0176 9.26172L70.813 8.65568C70.8144 8.65746 70.817 8.66128 70.82 8.667C70.8231 8.67275 70.8256 8.67885 70.8276 8.68472C70.8295 8.69054 70.8302 8.6945 70.8304 8.69579C70.8306 8.697 70.8301 8.69448 70.8301 8.6875H69.8301H68.8301C68.8301 9.11104 68.9561 9.51859 69.2221 9.86776L70.0176 9.26172ZM69.8301 8.6875H70.8301C70.8301 8.65227 70.8352 8.6536 70.8264 8.67739L69.8887 8.33008L68.9509 7.98276C68.864 8.2175 68.8301 8.45711 68.8301 8.6875H69.8301ZM69.8887 8.33008L70.8304 8.66641C70.8354 8.6524 70.8421 8.6396 70.8527 8.62539L70.0527 8.02539L69.2527 7.42539C69.1228 7.59869 69.0201 7.78901 68.9469 7.99374L69.8887 8.33008ZM70.0527 8.02539L70.8489 8.63047C70.8406 8.64134 70.8542 8.62234 70.9125 8.56641C70.966 8.51496 71.0413 8.44751 71.1422 8.36257L70.498 7.59766L69.8539 6.83274C69.6306 7.02082 69.4046 7.22554 69.2566 7.42031L70.0527 8.02539ZM70.498 7.59766L71.018 6.74346C70.9481 6.70093 70.8567 6.61719 70.7679 6.42406L69.8594 6.8418L68.9508 7.25953C69.1745 7.7461 69.5089 8.16626 69.9781 8.45185L70.498 7.59766ZM69.8594 6.8418L70.7679 6.42406C70.6781 6.22867 70.625 5.99635 70.625 5.71094H69.625H68.625C68.625 6.25365 68.7281 6.77523 68.9508 7.25953L69.8594 6.8418ZM69.625 5.71094H70.625C70.625 5.1691 70.764 4.89616 70.9089 4.74527L70.1875 4.05273L69.4661 3.3602C68.861 3.99056 68.625 4.82309 68.625 5.71094H69.625ZM70.1875 4.05273L70.9089 4.74527C71.0445 4.60405 71.2885 4.4668 71.7988 4.4668V3.4668V2.4668C70.9107 2.4668 70.0805 2.72017 69.4661 3.3602L70.1875 4.05273ZM71.7988 3.4668V4.4668C71.8563 4.4668 71.9468 4.47388 72.077 4.49754L72.2559 3.51367L72.4347 2.5298C72.2211 2.49096 72.007 2.4668 71.7988 2.4668V3.4668ZM72.2559 3.51367L72.0987 4.50125C72.1698 4.51256 72.2243 4.523 72.2644 4.532C72.3064 4.54139 72.3223 4.54689 72.3199 4.54606L72.6484 3.60156L72.977 2.65707C72.8033 2.59667 72.6037 2.55644 72.413 2.52609L72.2559 3.51367ZM72.6484 3.60156V4.60156H74.5059V3.60156V2.60156H72.6484V3.60156ZM70.668 11.0664H69.668C69.668 11.5452 69.827 12.05 70.2589 12.4188L70.9082 11.6582L71.5575 10.8976C71.6007 10.9345 71.635 10.9834 71.6546 11.0316C71.6721 11.0747 71.668 11.0929 71.668 11.0664H70.668ZM70.9082 11.6582L70.2574 12.4175C70.6627 12.7648 71.159 12.8691 71.6055 12.8691V11.8691V10.8691C71.5308 10.8691 71.4982 10.8602 71.4951 10.8592C71.4943 10.859 71.5014 10.8611 71.5138 10.8677C71.5264 10.8744 71.5422 10.8846 71.559 10.8989L70.9082 11.6582ZM71.6055 11.8691V12.8691C72.1755 12.8691 72.7883 12.7659 73.2744 12.3932L72.666 11.5996L72.0576 10.806C72.0701 10.7964 72.0542 10.8134 71.9788 10.8326C71.9022 10.852 71.7818 10.8691 71.6055 10.8691V11.8691ZM72.666 11.5996L73.2681 12.398C73.7704 12.0192 74.0234 11.4704 74.0234 10.8613H73.0234H72.0234C72.0234 10.8758 72.0221 10.8795 72.0231 10.8747C72.0242 10.8694 72.0273 10.8585 72.034 10.8445C72.0408 10.8305 72.0489 10.8184 72.0565 10.8094C72.0638 10.8007 72.0676 10.7984 72.0639 10.8012L72.666 11.5996ZM73.0234 10.8613H74.0234C74.0234 10.4662 73.9197 9.92523 73.449 9.55435L72.8301 10.3398L72.2112 11.1253C72.1131 11.048 72.0607 10.9567 72.0375 10.894C72.0174 10.8399 72.0234 10.8204 72.0234 10.8613H73.0234ZM72.8301 10.3398L73.4607 9.56373C73.2299 9.37624 72.9707 9.29121 72.7692 9.2479C72.5592 9.20278 72.3376 9.1875 72.1211 9.1875V10.1875V11.1875C72.1842 11.1875 72.2348 11.1898 72.2743 11.1933C72.3142 11.1967 72.3381 11.2009 72.349 11.2033C72.3605 11.2057 72.3508 11.2047 72.327 11.1946C72.3032 11.1846 72.2555 11.1615 72.1995 11.116L72.8301 10.3398ZM72.1211 10.1875V9.1875H71.3652V10.1875V11.1875H72.1211V10.1875ZM71.3652 10.1875V9.1875C70.87 9.1875 70.4118 9.38823 70.0841 9.78549L70.8555 10.4219L71.6268 11.0583C71.6035 11.0865 71.5604 11.1257 71.4973 11.1547C71.4354 11.1831 71.3855 11.1875 71.3652 11.1875V10.1875ZM70.8555 10.4219L70.0672 9.8066C69.7661 10.1924 69.668 10.6467 69.668 11.0664H70.668H71.668C71.668 11.0375 71.6697 11.0165 71.6715 11.0025C71.6733 10.9885 71.6751 10.9823 71.675 10.9825C71.675 10.9827 71.6731 10.989 71.6679 10.9995C71.6625 11.0101 71.6547 11.0232 71.6438 11.0371L70.8555 10.4219ZM71.1484 5.72266H70.1484C70.1484 6.16855 70.2055 6.66348 70.4398 7.07927C70.7213 7.57892 71.2128 7.87695 71.7988 7.87695V6.87695V5.87695C71.8427 5.87695 71.929 5.88825 72.0234 5.94414C72.117 5.99948 72.165 6.06684 72.1823 6.09749C72.1962 6.12218 72.1851 6.11308 72.1719 6.04307C72.1591 5.975 72.1484 5.87098 72.1484 5.72266H71.1484ZM71.7988 6.87695V7.87695C72.0633 7.87695 72.3419 7.81411 72.599 7.65619C72.8537 7.49978 73.032 7.28414 73.1523 7.06244C73.3767 6.64909 73.4316 6.15734 73.4316 5.71094H72.4316H71.4316C71.4316 5.86288 71.4211 5.97092 71.4081 6.04305C71.3946 6.1174 71.3826 6.13037 71.3945 6.10845C71.4094 6.08109 71.4559 6.01121 71.5523 5.95197C71.6512 5.89121 71.7453 5.87695 71.7988 5.87695V6.87695ZM72.4316 5.71094H73.4316C73.4316 5.25689 73.3771 4.76182 73.1572 4.34657C73.0395 4.1241 72.8634 3.9046 72.6085 3.7441C72.35 3.58136 72.068 3.51562 71.7988 3.51562V4.51562V5.51562C71.7406 5.51562 71.6431 5.4997 71.5429 5.43657C71.4462 5.37568 71.402 5.30559 71.3896 5.28234C71.38 5.26413 71.3932 5.28192 71.4073 5.36177C71.421 5.43925 71.4316 5.55305 71.4316 5.71094H72.4316ZM71.7988 4.51562V3.51562C71.5301 3.51562 71.2479 3.57997 70.9882 3.74064C70.7312 3.89959 70.5518 4.11839 70.4307 4.34303C70.2048 4.76236 70.1484 5.2632 70.1484 5.72266H71.1484H72.1484C72.1484 5.56357 72.1594 5.44911 72.1733 5.37136C72.1877 5.29135 72.2011 5.2736 72.1914 5.29174C72.1787 5.31521 72.1347 5.38313 72.0404 5.44149C71.9432 5.50158 71.8508 5.51562 71.7988 5.51562V4.51562ZM78.543 10.1172H77.543V11.1172H78.543V10.1172ZM77.084 5.29492L77.9888 5.72072L77.9907 5.71665L77.084 5.29492ZM76.8496 10.1172V11.1172H77.8496V10.1172H76.8496ZM75.291 10.1172H74.291V11.1172H75.291V10.1172ZM75.291 3.58984V2.58984H74.291V3.58984H75.291ZM76.5273 3.58984L77.5032 3.37147L77.3283 2.58984H76.5273V3.58984ZM76.7148 4.42773L75.739 4.64611L75.9139 5.42773H76.7148V4.42773ZM76.8145 4.42773V5.42773H77.4508L77.7203 4.85126L76.8145 4.42773ZM77.418 3.72461L77.9581 4.56624L77.9669 4.56048L77.418 3.72461ZM79.668 4.07617L78.8569 4.6611L78.8606 4.66619L79.668 4.07617ZM80.1133 10.1172V11.1172H81.1133V10.1172H80.1133ZM78.543 10.1172H79.543V6.22656H78.543H77.543V10.1172H78.543ZM78.543 6.22656H79.543C79.543 5.70321 79.4849 5.17103 79.2789 4.73061L78.373 5.1543L77.4672 5.57798C77.4878 5.62194 77.543 5.8046 77.543 6.22656H78.543ZM78.373 5.1543L79.2789 4.73061C79.1609 4.47848 78.9771 4.22917 78.701 4.04706C78.4217 3.86284 78.1139 3.79102 77.8223 3.79102V4.79102V5.79102C77.7845 5.79102 77.6955 5.77974 77.5998 5.71661C77.5073 5.6556 77.4719 5.58792 77.4672 5.57798L78.373 5.1543ZM77.8223 4.79102V3.79102C77.4797 3.79102 77.1319 3.87955 76.822 4.09104C76.5181 4.29844 76.3129 4.5815 76.1773 4.87319L77.084 5.29492L77.9907 5.71665C78.0113 5.67241 78.0073 5.70351 77.9495 5.74294C77.9218 5.76182 77.892 5.77534 77.8644 5.7833C77.8378 5.79098 77.822 5.79102 77.8223 5.79102V4.79102ZM77.084 5.29492L76.1792 4.86912C75.9214 5.41696 75.8496 6.17453 75.8496 6.98242H76.8496H77.8496C77.8496 6.20438 77.9341 5.83695 77.9888 5.72072L77.084 5.29492ZM76.8496 6.98242H75.8496V10.1172H76.8496H77.8496V6.98242H76.8496ZM76.8496 10.1172V9.11719H75.291V10.1172V11.1172H76.8496V10.1172ZM75.291 10.1172H76.291V3.58984H75.291H74.291V10.1172H75.291ZM75.291 3.58984V4.58984H76.5273V3.58984V2.58984H75.291V3.58984ZM76.5273 3.58984L75.5515 3.80822L75.739 4.64611L76.7148 4.42773L77.6907 4.20936L77.5032 3.37147L76.5273 3.58984ZM76.7148 4.42773V5.42773H76.8145V4.42773V3.42773H76.7148V4.42773ZM76.8145 4.42773L77.7203 4.85126C77.7866 4.70949 77.8662 4.62517 77.9581 4.5662L77.418 3.72461L76.8778 2.88302C76.4463 3.15999 76.1235 3.54442 75.9086 4.0042L76.8145 4.42773ZM77.418 3.72461L77.9669 4.56048C78.046 4.50851 78.1566 4.4668 78.3379 4.4668V3.4668V2.4668C77.816 2.4668 77.3133 2.59696 76.869 2.88874L77.418 3.72461ZM78.3379 3.4668V4.4668C78.678 4.4668 78.7883 4.56596 78.8569 4.66109L79.668 4.07617L80.4791 3.49125C79.9617 2.77389 79.1853 2.4668 78.3379 2.4668V3.4668ZM79.668 4.07617L78.8606 4.66619C78.9803 4.82997 79.1133 5.17872 79.1133 5.85742H80.1133H81.1133C81.1133 4.97363 80.9494 4.13488 80.4754 3.48616L79.668 4.07617ZM80.1133 5.85742H79.1133V10.1172H80.1133H81.1133V5.85742H80.1133ZM80.1133 10.1172V9.11719H78.543V10.1172V11.1172H80.1133V10.1172Z" fill="#00DD21" mask="url(#path-1-outside-1_0_3)"/>
</svg>
