<svg width="213" height="34" viewBox="0 0 213 34" fill="none" xmlns="http://www.w3.org/2000/svg">
<mask id="path-1-outside-1_0_3" maskUnits="userSpaceOnUse" x="-0.15625" y="-0.6875" width="214" height="35" fill="black">
<rect fill="white" x="-0.15625" y="-0.6875" width="214" height="35"/>
<path d="M8.03125 25.625C5.85417 25.625 4.13542 24.8542 2.875 23.3125C1.625 21.7604 1 19.5677 1 16.7344C1 13.8594 1.56771 11.6146 2.70312 10C3.83854 8.38542 5.42188 7.57812 7.45312 7.57812C9.34896 7.57812 10.8438 8.27083 11.9375 9.65625C13.0312 11.0312 13.5781 12.9635 13.5781 15.4531V17.6719H5.21875C5.25 19.224 5.56771 20.3802 6.17188 21.1406C6.77604 21.8906 7.60938 22.2656 8.67188 22.2656C10.026 22.2656 11.4115 21.8438 12.8281 21V24.4219C11.4948 25.224 9.89583 25.625 8.03125 25.625ZM7.42188 10.7812C6.82812 10.7812 6.33854 11.099 5.95312 11.7344C5.56771 12.3594 5.34375 13.3333 5.28125 14.6562H9.5C9.47917 13.3854 9.28646 12.4219 8.92188 11.7656C8.55729 11.1094 8.05729 10.7812 7.42188 10.7812ZM25 25.3125V14.9375C25 13.6771 24.849 12.724 24.5469 12.0781C24.2448 11.4323 23.7552 11.1094 23.0781 11.1094C22.1823 11.1094 21.526 11.5573 21.1094 12.4531C20.6927 13.3385 20.4844 14.8385 20.4844 16.9531V25.3125H16.3281V7.90625H19.625L20.125 10.1406H20.3906C20.7656 9.33854 21.3021 8.71354 22 8.26562C22.6979 7.80729 23.5156 7.57812 24.4531 7.57812C26.0365 7.57812 27.2188 8.11979 28 9.20312C28.7917 10.2865 29.1875 11.8698 29.1875 13.9531V25.3125H25ZM36.6406 15.9375L37.6875 13.8594L41.125 7.90625H45.5312L41.125 15.0469L45.8281 25.3125H41.4688L38.3281 17.9531L36.7031 19.4219V25.3125H32.5469V1H36.7031V12.4531L36.5156 15.9375H36.6406ZM56.1719 25.3125L55.3438 22.9375H55.25C54.6354 23.9583 54 24.6615 53.3438 25.0469C52.6875 25.4323 51.8594 25.625 50.8594 25.625C49.5781 25.625 48.5677 25.1458 47.8281 24.1875C47.099 23.2292 46.7344 21.8958 46.7344 20.1875C46.7344 18.3542 47.2344 16.9948 48.2344 16.1094C49.2448 15.2135 50.75 14.7188 52.75 14.625L55.0625 14.5312V13.2812C55.0625 11.6562 54.3594 10.8438 52.9531 10.8438C51.9115 10.8438 50.7135 11.25 49.3594 12.0625L47.9219 9.1875C49.651 8.09375 51.5312 7.54688 53.5625 7.54688C55.4062 7.54688 56.8073 8.07812 57.7656 9.14062C58.7344 10.1927 59.2188 11.6875 59.2188 13.625V25.3125H56.1719ZM52.5625 22.375C53.3229 22.375 53.9271 22.0365 54.375 21.3594C54.8333 20.6719 55.0625 19.7604 55.0625 18.625V17.1562L53.7812 17.2188C52.8333 17.2708 52.1354 17.5417 51.6875 18.0312C51.25 18.5208 51.0312 19.25 51.0312 20.2188C51.0312 21.6562 51.5417 22.375 52.5625 22.375ZM70.4375 7.57812C72.0208 7.57812 73.2656 8.36458 74.1719 9.9375C75.0781 11.5104 75.5312 13.724 75.5312 16.5781C75.5312 19.4635 75.0729 21.6927 74.1562 23.2656C73.25 24.8385 71.9896 25.625 70.375 25.625C69.5938 25.625 68.901 25.4583 68.2969 25.125C67.7031 24.7812 67.1406 24.1823 66.6094 23.3281H66.3438L65.6406 25.3125H62.5781V1H66.7344V6.6875C66.7344 6.92708 66.7292 7.17708 66.7188 7.4375C66.7083 7.69792 66.6406 8.60938 66.5156 10.1719H66.7344C67.2448 9.21354 67.7969 8.54167 68.3906 8.15625C68.9844 7.77083 69.6667 7.57812 70.4375 7.57812ZM69 11.1094C68.2083 11.1094 67.6354 11.4792 67.2812 12.2188C66.9375 12.9583 66.7552 14.2604 66.7344 16.125V16.5469C66.7344 18.5677 66.9115 19.9896 67.2656 20.8125C67.6302 21.6354 68.2188 22.0469 69.0312 22.0469C70.5312 22.0469 71.2812 20.2031 71.2812 16.5156C71.2812 12.9115 70.5208 11.1094 69 11.1094Z"/>
<path d="M90.5781 25.3125L88.8438 15.2031L88.2344 10.9375H88.1719C88.0156 12.3229 87.8906 13.3281 87.7969 13.9531C87.7031 14.5677 87.0417 18.3542 85.8125 25.3125H80.4688L77 7.90625H81.1719L82.7656 17.5C82.9531 18.5625 83.125 20.1198 83.2812 22.1719H83.375C83.3958 21.6198 83.4688 20.7812 83.5938 19.6562C83.7188 18.5208 83.8073 17.7917 83.8594 17.4688L85.5781 7.90625H90.9219L92.625 17.5C92.8229 18.5208 92.9948 20.0781 93.1406 22.1719H93.2031C93.349 20.3073 93.5312 18.75 93.75 17.5L95.4062 7.90625H99.4688L95.9844 25.3125H90.5781ZM108 25.625C105.823 25.625 104.104 24.8542 102.844 23.3125C101.594 21.7604 100.969 19.5677 100.969 16.7344C100.969 13.8594 101.536 11.6146 102.672 10C103.807 8.38542 105.391 7.57812 107.422 7.57812C109.318 7.57812 110.812 8.27083 111.906 9.65625C113 11.0312 113.547 12.9635 113.547 15.4531V17.6719H105.188C105.219 19.224 105.536 20.3802 106.141 21.1406C106.745 21.8906 107.578 22.2656 108.641 22.2656C109.995 22.2656 111.38 21.8438 112.797 21V24.4219C111.464 25.224 109.865 25.625 108 25.625ZM107.391 10.7812C106.797 10.7812 106.307 11.099 105.922 11.7344C105.536 12.3594 105.312 13.3333 105.25 14.6562H109.469C109.448 13.3854 109.255 12.4219 108.891 11.7656C108.526 11.1094 108.026 10.7812 107.391 10.7812ZM124.156 7.57812C125.74 7.57812 126.984 8.36458 127.891 9.9375C128.797 11.5104 129.25 13.724 129.25 16.5781C129.25 19.4635 128.792 21.6927 127.875 23.2656C126.969 24.8385 125.708 25.625 124.094 25.625C123.312 25.625 122.62 25.4583 122.016 25.125C121.422 24.7812 120.859 24.1823 120.328 23.3281H120.062L119.359 25.3125H116.297V1H120.453V6.6875C120.453 6.92708 120.448 7.17708 120.438 7.4375C120.427 7.69792 120.359 8.60938 120.234 10.1719H120.453C120.964 9.21354 121.516 8.54167 122.109 8.15625C122.703 7.77083 123.385 7.57812 124.156 7.57812ZM122.719 11.1094C121.927 11.1094 121.354 11.4792 121 12.2188C120.656 12.9583 120.474 14.2604 120.453 16.125V16.5469C120.453 18.5677 120.63 19.9896 120.984 20.8125C121.349 21.6354 121.938 22.0469 122.75 22.0469C124.25 22.0469 125 20.2031 125 16.5156C125 12.9115 124.24 11.1094 122.719 11.1094ZM146.953 13.6719C146.953 17.4427 146.182 20.3281 144.641 22.3281C143.109 24.3177 140.901 25.3125 138.016 25.3125H132.422V2.46875H138.531C141.188 2.46875 143.255 3.45312 144.734 5.42188C146.214 7.38021 146.953 10.1302 146.953 13.6719ZM142.594 13.7969C142.594 8.69271 141.188 6.14062 138.375 6.14062H136.672V21.5938H138.047C139.599 21.5938 140.745 20.9479 141.484 19.6562C142.224 18.3542 142.594 16.401 142.594 13.7969ZM156.469 25.625C154.292 25.625 152.573 24.8542 151.312 23.3125C150.062 21.7604 149.438 19.5677 149.438 16.7344C149.438 13.8594 150.005 11.6146 151.141 10C152.276 8.38542 153.859 7.57812 155.891 7.57812C157.786 7.57812 159.281 8.27083 160.375 9.65625C161.469 11.0312 162.016 12.9635 162.016 15.4531V17.6719H153.656C153.688 19.224 154.005 20.3802 154.609 21.1406C155.214 21.8906 156.047 22.2656 157.109 22.2656C158.464 22.2656 159.849 21.8438 161.266 21V24.4219C159.932 25.224 158.333 25.625 156.469 25.625ZM155.859 10.7812C155.266 10.7812 154.776 11.099 154.391 11.7344C154.005 12.3594 153.781 13.3333 153.719 14.6562H157.938C157.917 13.3854 157.724 12.4219 157.359 11.7656C156.995 11.1094 156.495 10.7812 155.859 10.7812ZM174.109 20.2188C174.109 21.9167 173.609 23.2448 172.609 24.2031C171.62 25.151 170.156 25.625 168.219 25.625C166.5 25.625 165.078 25.2865 163.953 24.6094V21C164.526 21.3958 165.193 21.724 165.953 21.9844C166.724 22.2448 167.401 22.375 167.984 22.375C168.63 22.375 169.12 22.2188 169.453 21.9062C169.797 21.5833 169.969 21.1615 169.969 20.6406C169.969 20.1094 169.792 19.6458 169.438 19.25C169.083 18.8542 168.432 18.3698 167.484 17.7969C166.224 17.0469 165.318 16.25 164.766 15.4062C164.224 14.5521 163.953 13.5469 163.953 12.3906C163.953 10.9115 164.458 9.73958 165.469 8.875C166.49 8.01042 167.885 7.57812 169.656 7.57812C171.198 7.57812 172.651 7.98438 174.016 8.79688L172.656 11.7812C171.542 11.1771 170.562 10.875 169.719 10.875C169.188 10.875 168.786 11.0156 168.516 11.2969C168.255 11.5781 168.125 11.9219 168.125 12.3281C168.125 12.7969 168.286 13.2135 168.609 13.5781C168.943 13.9427 169.557 14.3958 170.453 14.9375C171.536 15.5938 172.297 16.151 172.734 16.6094C173.172 17.0677 173.51 17.5885 173.75 18.1719C173.99 18.7552 174.109 19.4375 174.109 20.2188ZM180.922 25.3125H176.766V7.90625H180.922V25.3125ZM176.594 3.35938C176.594 2.67188 176.792 2.13021 177.188 1.73438C177.594 1.32812 178.156 1.125 178.875 1.125C179.552 1.125 180.094 1.32812 180.5 1.73438C180.906 2.13021 181.109 2.67188 181.109 3.35938C181.109 4.06771 180.901 4.61979 180.484 5.01562C180.068 5.40104 179.531 5.59375 178.875 5.59375C178.188 5.59375 177.635 5.40104 177.219 5.01562C176.802 4.61979 176.594 4.06771 176.594 3.35938ZM197.016 7.9375V10.375L194.938 10.8438C195.344 11.5729 195.547 12.4896 195.547 13.5938C195.547 15.4375 195.047 16.8802 194.047 17.9219C193.047 18.9635 191.651 19.4844 189.859 19.4844C189.339 19.4844 188.953 19.4427 188.703 19.3594C188.505 19.5365 188.318 19.7344 188.141 19.9531C187.964 20.1719 187.875 20.4427 187.875 20.7656C187.875 21.4948 188.505 21.8594 189.766 21.8594H192.281C193.76 21.8594 194.896 22.2604 195.688 23.0625C196.49 23.8542 196.891 25.0521 196.891 26.6562C196.891 28.6771 196.214 30.2396 194.859 31.3438C193.505 32.4479 191.557 33 189.016 33C187.089 33 185.604 32.5781 184.562 31.7344C183.521 30.901 183 29.7083 183 28.1562C183 27.1875 183.297 26.3333 183.891 25.5938C184.484 24.8646 185.307 24.3333 186.359 24C185.828 23.7917 185.391 23.4688 185.047 23.0312C184.714 22.5938 184.547 22.0833 184.547 21.5C184.547 21.1458 184.599 20.8281 184.703 20.5469C184.807 20.2552 184.953 19.9844 185.141 19.7344C185.339 19.474 185.734 19.0938 186.328 18.5938C185.609 18.1562 185.042 17.4844 184.625 16.5781C184.208 15.6719 184 14.6667 184 13.5625C184 11.6562 184.5 10.1823 185.5 9.14062C186.5 8.09896 187.932 7.57812 189.797 7.57812C190.151 7.57812 190.557 7.61979 191.016 7.70312C191.474 7.77604 191.823 7.85417 192.062 7.9375H197.016ZM186.781 27.8438C186.781 28.5312 186.995 29.0573 187.422 29.4219C187.859 29.7969 188.479 29.9844 189.281 29.9844C190.542 29.9844 191.484 29.7448 192.109 29.2656C192.745 28.7865 193.062 28.1302 193.062 27.2969C193.062 26.6406 192.891 26.1771 192.547 25.9062C192.214 25.6354 191.583 25.5 190.656 25.5H188.641C188.078 25.5 187.625 25.7083 187.281 26.125C186.948 26.5521 186.781 27.125 186.781 27.8438ZM188.062 13.5938C188.062 15.6458 188.641 16.6719 189.797 16.6719C190.922 16.6719 191.484 15.6354 191.484 13.5625C191.484 11.4375 190.922 10.375 189.797 10.375C188.641 10.375 188.062 11.4479 188.062 13.5938ZM207.781 25.3125V14.9375C207.781 13.6771 207.63 12.724 207.328 12.0781C207.026 11.4323 206.536 11.1094 205.859 11.1094C204.964 11.1094 204.307 11.5573 203.891 12.4531C203.474 13.3385 203.266 14.8385 203.266 16.9531V25.3125H199.109V7.90625H202.406L202.906 10.1406H203.172C203.547 9.33854 204.083 8.71354 204.781 8.26562C205.479 7.80729 206.297 7.57812 207.234 7.57812C208.818 7.57812 210 8.11979 210.781 9.20312C211.573 10.2865 211.969 11.8698 211.969 13.9531V25.3125H207.781Z"/>
</mask>
<path d="M8.03125 25.625C5.85417 25.625 4.13542 24.8542 2.875 23.3125C1.625 21.7604 1 19.5677 1 16.7344C1 13.8594 1.56771 11.6146 2.70312 10C3.83854 8.38542 5.42188 7.57812 7.45312 7.57812C9.34896 7.57812 10.8438 8.27083 11.9375 9.65625C13.0312 11.0312 13.5781 12.9635 13.5781 15.4531V17.6719H5.21875C5.25 19.224 5.56771 20.3802 6.17188 21.1406C6.77604 21.8906 7.60938 22.2656 8.67188 22.2656C10.026 22.2656 11.4115 21.8438 12.8281 21V24.4219C11.4948 25.224 9.89583 25.625 8.03125 25.625ZM7.42188 10.7812C6.82812 10.7812 6.33854 11.099 5.95312 11.7344C5.56771 12.3594 5.34375 13.3333 5.28125 14.6562H9.5C9.47917 13.3854 9.28646 12.4219 8.92188 11.7656C8.55729 11.1094 8.05729 10.7812 7.42188 10.7812ZM25 25.3125V14.9375C25 13.6771 24.849 12.724 24.5469 12.0781C24.2448 11.4323 23.7552 11.1094 23.0781 11.1094C22.1823 11.1094 21.526 11.5573 21.1094 12.4531C20.6927 13.3385 20.4844 14.8385 20.4844 16.9531V25.3125H16.3281V7.90625H19.625L20.125 10.1406H20.3906C20.7656 9.33854 21.3021 8.71354 22 8.26562C22.6979 7.80729 23.5156 7.57812 24.4531 7.57812C26.0365 7.57812 27.2188 8.11979 28 9.20312C28.7917 10.2865 29.1875 11.8698 29.1875 13.9531V25.3125H25ZM36.6406 15.9375L37.6875 13.8594L41.125 7.90625H45.5312L41.125 15.0469L45.8281 25.3125H41.4688L38.3281 17.9531L36.7031 19.4219V25.3125H32.5469V1H36.7031V12.4531L36.5156 15.9375H36.6406ZM56.1719 25.3125L55.3438 22.9375H55.25C54.6354 23.9583 54 24.6615 53.3438 25.0469C52.6875 25.4323 51.8594 25.625 50.8594 25.625C49.5781 25.625 48.5677 25.1458 47.8281 24.1875C47.099 23.2292 46.7344 21.8958 46.7344 20.1875C46.7344 18.3542 47.2344 16.9948 48.2344 16.1094C49.2448 15.2135 50.75 14.7188 52.75 14.625L55.0625 14.5312V13.2812C55.0625 11.6562 54.3594 10.8438 52.9531 10.8438C51.9115 10.8438 50.7135 11.25 49.3594 12.0625L47.9219 9.1875C49.651 8.09375 51.5312 7.54688 53.5625 7.54688C55.4062 7.54688 56.8073 8.07812 57.7656 9.14062C58.7344 10.1927 59.2188 11.6875 59.2188 13.625V25.3125H56.1719ZM52.5625 22.375C53.3229 22.375 53.9271 22.0365 54.375 21.3594C54.8333 20.6719 55.0625 19.7604 55.0625 18.625V17.1562L53.7812 17.2188C52.8333 17.2708 52.1354 17.5417 51.6875 18.0312C51.25 18.5208 51.0312 19.25 51.0312 20.2188C51.0312 21.6562 51.5417 22.375 52.5625 22.375ZM70.4375 7.57812C72.0208 7.57812 73.2656 8.36458 74.1719 9.9375C75.0781 11.5104 75.5312 13.724 75.5312 16.5781C75.5312 19.4635 75.0729 21.6927 74.1562 23.2656C73.25 24.8385 71.9896 25.625 70.375 25.625C69.5938 25.625 68.901 25.4583 68.2969 25.125C67.7031 24.7812 67.1406 24.1823 66.6094 23.3281H66.3438L65.6406 25.3125H62.5781V1H66.7344V6.6875C66.7344 6.92708 66.7292 7.17708 66.7188 7.4375C66.7083 7.69792 66.6406 8.60938 66.5156 10.1719H66.7344C67.2448 9.21354 67.7969 8.54167 68.3906 8.15625C68.9844 7.77083 69.6667 7.57812 70.4375 7.57812ZM69 11.1094C68.2083 11.1094 67.6354 11.4792 67.2812 12.2188C66.9375 12.9583 66.7552 14.2604 66.7344 16.125V16.5469C66.7344 18.5677 66.9115 19.9896 67.2656 20.8125C67.6302 21.6354 68.2188 22.0469 69.0312 22.0469C70.5312 22.0469 71.2812 20.2031 71.2812 16.5156C71.2812 12.9115 70.5208 11.1094 69 11.1094Z" fill="black"/>
<path d="M90.5781 25.3125L88.8438 15.2031L88.2344 10.9375H88.1719C88.0156 12.3229 87.8906 13.3281 87.7969 13.9531C87.7031 14.5677 87.0417 18.3542 85.8125 25.3125H80.4688L77 7.90625H81.1719L82.7656 17.5C82.9531 18.5625 83.125 20.1198 83.2812 22.1719H83.375C83.3958 21.6198 83.4688 20.7812 83.5938 19.6562C83.7188 18.5208 83.8073 17.7917 83.8594 17.4688L85.5781 7.90625H90.9219L92.625 17.5C92.8229 18.5208 92.9948 20.0781 93.1406 22.1719H93.2031C93.349 20.3073 93.5312 18.75 93.75 17.5L95.4062 7.90625H99.4688L95.9844 25.3125H90.5781ZM108 25.625C105.823 25.625 104.104 24.8542 102.844 23.3125C101.594 21.7604 100.969 19.5677 100.969 16.7344C100.969 13.8594 101.536 11.6146 102.672 10C103.807 8.38542 105.391 7.57812 107.422 7.57812C109.318 7.57812 110.812 8.27083 111.906 9.65625C113 11.0312 113.547 12.9635 113.547 15.4531V17.6719H105.188C105.219 19.224 105.536 20.3802 106.141 21.1406C106.745 21.8906 107.578 22.2656 108.641 22.2656C109.995 22.2656 111.38 21.8438 112.797 21V24.4219C111.464 25.224 109.865 25.625 108 25.625ZM107.391 10.7812C106.797 10.7812 106.307 11.099 105.922 11.7344C105.536 12.3594 105.312 13.3333 105.25 14.6562H109.469C109.448 13.3854 109.255 12.4219 108.891 11.7656C108.526 11.1094 108.026 10.7812 107.391 10.7812ZM124.156 7.57812C125.74 7.57812 126.984 8.36458 127.891 9.9375C128.797 11.5104 129.25 13.724 129.25 16.5781C129.25 19.4635 128.792 21.6927 127.875 23.2656C126.969 24.8385 125.708 25.625 124.094 25.625C123.312 25.625 122.62 25.4583 122.016 25.125C121.422 24.7812 120.859 24.1823 120.328 23.3281H120.062L119.359 25.3125H116.297V1H120.453V6.6875C120.453 6.92708 120.448 7.17708 120.438 7.4375C120.427 7.69792 120.359 8.60938 120.234 10.1719H120.453C120.964 9.21354 121.516 8.54167 122.109 8.15625C122.703 7.77083 123.385 7.57812 124.156 7.57812ZM122.719 11.1094C121.927 11.1094 121.354 11.4792 121 12.2188C120.656 12.9583 120.474 14.2604 120.453 16.125V16.5469C120.453 18.5677 120.63 19.9896 120.984 20.8125C121.349 21.6354 121.938 22.0469 122.75 22.0469C124.25 22.0469 125 20.2031 125 16.5156C125 12.9115 124.24 11.1094 122.719 11.1094ZM146.953 13.6719C146.953 17.4427 146.182 20.3281 144.641 22.3281C143.109 24.3177 140.901 25.3125 138.016 25.3125H132.422V2.46875H138.531C141.188 2.46875 143.255 3.45312 144.734 5.42188C146.214 7.38021 146.953 10.1302 146.953 13.6719ZM142.594 13.7969C142.594 8.69271 141.188 6.14062 138.375 6.14062H136.672V21.5938H138.047C139.599 21.5938 140.745 20.9479 141.484 19.6562C142.224 18.3542 142.594 16.401 142.594 13.7969ZM156.469 25.625C154.292 25.625 152.573 24.8542 151.312 23.3125C150.062 21.7604 149.438 19.5677 149.438 16.7344C149.438 13.8594 150.005 11.6146 151.141 10C152.276 8.38542 153.859 7.57812 155.891 7.57812C157.786 7.57812 159.281 8.27083 160.375 9.65625C161.469 11.0312 162.016 12.9635 162.016 15.4531V17.6719H153.656C153.688 19.224 154.005 20.3802 154.609 21.1406C155.214 21.8906 156.047 22.2656 157.109 22.2656C158.464 22.2656 159.849 21.8438 161.266 21V24.4219C159.932 25.224 158.333 25.625 156.469 25.625ZM155.859 10.7812C155.266 10.7812 154.776 11.099 154.391 11.7344C154.005 12.3594 153.781 13.3333 153.719 14.6562H157.938C157.917 13.3854 157.724 12.4219 157.359 11.7656C156.995 11.1094 156.495 10.7812 155.859 10.7812ZM174.109 20.2188C174.109 21.9167 173.609 23.2448 172.609 24.2031C171.62 25.151 170.156 25.625 168.219 25.625C166.5 25.625 165.078 25.2865 163.953 24.6094V21C164.526 21.3958 165.193 21.724 165.953 21.9844C166.724 22.2448 167.401 22.375 167.984 22.375C168.63 22.375 169.12 22.2188 169.453 21.9062C169.797 21.5833 169.969 21.1615 169.969 20.6406C169.969 20.1094 169.792 19.6458 169.438 19.25C169.083 18.8542 168.432 18.3698 167.484 17.7969C166.224 17.0469 165.318 16.25 164.766 15.4062C164.224 14.5521 163.953 13.5469 163.953 12.3906C163.953 10.9115 164.458 9.73958 165.469 8.875C166.49 8.01042 167.885 7.57812 169.656 7.57812C171.198 7.57812 172.651 7.98438 174.016 8.79688L172.656 11.7812C171.542 11.1771 170.562 10.875 169.719 10.875C169.188 10.875 168.786 11.0156 168.516 11.2969C168.255 11.5781 168.125 11.9219 168.125 12.3281C168.125 12.7969 168.286 13.2135 168.609 13.5781C168.943 13.9427 169.557 14.3958 170.453 14.9375C171.536 15.5938 172.297 16.151 172.734 16.6094C173.172 17.0677 173.51 17.5885 173.75 18.1719C173.99 18.7552 174.109 19.4375 174.109 20.2188ZM180.922 25.3125H176.766V7.90625H180.922V25.3125ZM176.594 3.35938C176.594 2.67188 176.792 2.13021 177.188 1.73438C177.594 1.32812 178.156 1.125 178.875 1.125C179.552 1.125 180.094 1.32812 180.5 1.73438C180.906 2.13021 181.109 2.67188 181.109 3.35938C181.109 4.06771 180.901 4.61979 180.484 5.01562C180.068 5.40104 179.531 5.59375 178.875 5.59375C178.188 5.59375 177.635 5.40104 177.219 5.01562C176.802 4.61979 176.594 4.06771 176.594 3.35938ZM197.016 7.9375V10.375L194.938 10.8438C195.344 11.5729 195.547 12.4896 195.547 13.5938C195.547 15.4375 195.047 16.8802 194.047 17.9219C193.047 18.9635 191.651 19.4844 189.859 19.4844C189.339 19.4844 188.953 19.4427 188.703 19.3594C188.505 19.5365 188.318 19.7344 188.141 19.9531C187.964 20.1719 187.875 20.4427 187.875 20.7656C187.875 21.4948 188.505 21.8594 189.766 21.8594H192.281C193.76 21.8594 194.896 22.2604 195.688 23.0625C196.49 23.8542 196.891 25.0521 196.891 26.6562C196.891 28.6771 196.214 30.2396 194.859 31.3438C193.505 32.4479 191.557 33 189.016 33C187.089 33 185.604 32.5781 184.562 31.7344C183.521 30.901 183 29.7083 183 28.1562C183 27.1875 183.297 26.3333 183.891 25.5938C184.484 24.8646 185.307 24.3333 186.359 24C185.828 23.7917 185.391 23.4688 185.047 23.0312C184.714 22.5938 184.547 22.0833 184.547 21.5C184.547 21.1458 184.599 20.8281 184.703 20.5469C184.807 20.2552 184.953 19.9844 185.141 19.7344C185.339 19.474 185.734 19.0938 186.328 18.5938C185.609 18.1562 185.042 17.4844 184.625 16.5781C184.208 15.6719 184 14.6667 184 13.5625C184 11.6562 184.5 10.1823 185.5 9.14062C186.5 8.09896 187.932 7.57812 189.797 7.57812C190.151 7.57812 190.557 7.61979 191.016 7.70312C191.474 7.77604 191.823 7.85417 192.062 7.9375H197.016ZM186.781 27.8438C186.781 28.5312 186.995 29.0573 187.422 29.4219C187.859 29.7969 188.479 29.9844 189.281 29.9844C190.542 29.9844 191.484 29.7448 192.109 29.2656C192.745 28.7865 193.062 28.1302 193.062 27.2969C193.062 26.6406 192.891 26.1771 192.547 25.9062C192.214 25.6354 191.583 25.5 190.656 25.5H188.641C188.078 25.5 187.625 25.7083 187.281 26.125C186.948 26.5521 186.781 27.125 186.781 27.8438ZM188.062 13.5938C188.062 15.6458 188.641 16.6719 189.797 16.6719C190.922 16.6719 191.484 15.6354 191.484 13.5625C191.484 11.4375 190.922 10.375 189.797 10.375C188.641 10.375 188.062 11.4479 188.062 13.5938ZM207.781 25.3125V14.9375C207.781 13.6771 207.63 12.724 207.328 12.0781C207.026 11.4323 206.536 11.1094 205.859 11.1094C204.964 11.1094 204.307 11.5573 203.891 12.4531C203.474 13.3385 203.266 14.8385 203.266 16.9531V25.3125H199.109V7.90625H202.406L202.906 10.1406H203.172C203.547 9.33854 204.083 8.71354 204.781 8.26562C205.479 7.80729 206.297 7.57812 207.234 7.57812C208.818 7.57812 210 8.11979 210.781 9.20312C211.573 10.2865 211.969 11.8698 211.969 13.9531V25.3125H207.781Z" fill="#A7A7A7"/>
<path d="M2.875 23.3125L2.09615 23.9398L2.10081 23.9455L2.875 23.3125ZM2.70312 10L1.88513 9.42477L2.70312 10ZM11.9375 9.65625L11.1526 10.2759L11.1549 10.2788L11.9375 9.65625ZM13.5781 17.6719V18.6719H14.5781V17.6719H13.5781ZM5.21875 17.6719V16.6719H4.19841L4.21895 17.692L5.21875 17.6719ZM6.17188 21.1406L5.3889 21.7627L5.39312 21.768L6.17188 21.1406ZM12.8281 21H13.8281V19.2405L12.3164 20.1408L12.8281 21ZM12.8281 24.4219L13.3436 25.2788L13.8281 24.9873V24.4219H12.8281ZM5.95312 11.7344L6.80432 12.2593L6.80813 12.253L5.95312 11.7344ZM5.28125 14.6562L4.28236 14.6091L4.23289 15.6562H5.28125V14.6562ZM9.5 14.6562V15.6562H10.5165L10.4999 14.6399L9.5 14.6562ZM8.03125 25.625V24.625C6.12237 24.625 4.70039 23.9653 3.64919 22.6795L2.875 23.3125L2.10081 23.9455C3.57044 25.743 5.58597 26.625 8.03125 26.625V25.625ZM2.875 23.3125L3.65382 22.6853C2.59658 21.3725 2 19.4337 2 16.7344H1H0C0 19.7017 0.653419 22.1483 2.09618 23.9397L2.875 23.3125ZM1 16.7344H2C2 13.9756 2.54698 11.9605 3.52112 10.5752L2.70312 10L1.88513 9.42477C0.588432 11.2687 0 13.7432 0 16.7344H1ZM2.70312 10L3.52112 10.5752C4.46288 9.23603 5.73616 8.57812 7.45312 8.57812V7.57812V6.57812C5.10759 6.57812 3.2142 7.53481 1.88513 9.42477L2.70312 10ZM7.45312 7.57812V8.57812C9.069 8.57812 10.2641 9.15045 11.1526 10.2759L11.9375 9.65625L12.7224 9.03661C11.4234 7.39122 9.62892 6.57812 7.45312 6.57812V7.57812ZM11.9375 9.65625L11.1549 10.2788C12.0596 11.4161 12.5781 13.0974 12.5781 15.4531H13.5781H14.5781C14.5781 12.8297 14.0029 10.6464 12.7201 9.03373L11.9375 9.65625ZM13.5781 15.4531H12.5781V17.6719H13.5781H14.5781V15.4531H13.5781ZM13.5781 17.6719V16.6719H5.21875V17.6719V18.6719H13.5781V17.6719ZM5.21875 17.6719L4.21895 17.692C4.25216 19.3414 4.58843 20.7552 5.38892 21.7627L6.17188 21.1406L6.95483 20.5185C6.54698 20.0052 6.24784 19.1065 6.21855 17.6517L5.21875 17.6719ZM6.17188 21.1406L5.39312 21.768C6.20836 22.78 7.34234 23.2656 8.67188 23.2656V22.2656V21.2656C7.87641 21.2656 7.34373 21.0013 6.95063 20.5133L6.17188 21.1406ZM8.67188 22.2656V23.2656C10.2417 23.2656 11.8021 22.775 13.3398 21.8592L12.8281 21L12.3164 20.1408C11.0209 20.9125 9.81039 21.2656 8.67188 21.2656V22.2656ZM12.8281 21H11.8281V24.4219H12.8281H13.8281V21H12.8281ZM12.8281 24.4219L12.3126 23.565C11.1633 24.2564 9.75041 24.625 8.03125 24.625V25.625V26.625C10.0413 26.625 11.8263 26.1915 13.3436 25.2788L12.8281 24.4219ZM7.42188 10.7812V9.78125C6.38785 9.78125 5.6122 10.3682 5.09812 11.2158L5.95312 11.7344L6.80813 12.253C7.06489 11.8297 7.2684 11.7812 7.42188 11.7812V10.7812ZM5.95312 11.7344L5.10195 11.2095C4.58193 12.0528 4.34737 13.233 4.28236 14.6091L5.28125 14.6562L6.28014 14.7034C6.34013 13.4336 6.55349 12.666 6.8043 12.2593L5.95312 11.7344ZM5.28125 14.6562V15.6562H9.5V14.6562V13.6562H5.28125V14.6562ZM9.5 14.6562L10.4999 14.6399C10.478 13.3044 10.2779 12.1473 9.79603 11.28L8.92188 11.7656L8.04772 12.2513C8.29506 12.6965 8.48036 13.4664 8.50013 14.6726L9.5 14.6562ZM8.92188 11.7656L9.79603 11.28C9.29334 10.3751 8.49295 9.78125 7.42188 9.78125V10.7812V11.7812C7.62164 11.7812 7.82125 11.8436 8.04772 12.2513L8.92188 11.7656ZM25 25.3125H24V26.3125H25V25.3125ZM21.1094 12.4531L22.0142 12.8789L22.0161 12.8749L21.1094 12.4531ZM20.4844 25.3125V26.3125H21.4844V25.3125H20.4844ZM16.3281 25.3125H15.3281V26.3125H16.3281V25.3125ZM16.3281 7.90625V6.90625H15.3281V7.90625H16.3281ZM19.625 7.90625L20.6009 7.68787L20.426 6.90625H19.625V7.90625ZM20.125 10.1406L19.1491 10.359L19.324 11.1406H20.125V10.1406ZM20.3906 10.1406V11.1406H21.027L21.2965 10.5642L20.3906 10.1406ZM22 8.26562L22.5402 9.10726L22.5489 9.10149L22 8.26562ZM28 9.20312L27.1889 9.78806L27.1926 9.79314L28 9.20312ZM29.1875 25.3125V26.3125H30.1875V25.3125H29.1875ZM25 25.3125H26V14.9375H25H24V25.3125H25ZM25 14.9375H26C26 13.6264 25.8475 12.4985 25.4527 11.6544L24.5469 12.0781L23.6411 12.5018C23.8504 12.9494 24 13.7278 24 14.9375H25ZM24.5469 12.0781L25.4527 11.6544C25.2404 11.2005 24.9328 10.7998 24.5037 10.5168C24.0714 10.2317 23.5814 10.1094 23.0781 10.1094V11.1094V12.1094C23.2519 12.1094 23.3452 12.1486 23.4025 12.1863C23.463 12.2262 23.5513 12.3099 23.6411 12.5018L24.5469 12.0781ZM23.0781 11.1094V10.1094C22.4557 10.1094 21.8653 10.2679 21.3503 10.6194C20.8414 10.9667 20.4685 11.4598 20.2027 12.0314L21.1094 12.4531L22.0161 12.8749C22.1669 12.5507 22.3305 12.3718 22.4778 12.2713C22.6191 12.1748 22.8048 12.1094 23.0781 12.1094V11.1094ZM21.1094 12.4531L20.2046 12.0273C19.6863 13.1285 19.4844 14.8236 19.4844 16.9531H20.4844H21.4844C21.4844 14.8535 21.6991 13.5485 22.0142 12.8789L21.1094 12.4531ZM20.4844 16.9531H19.4844V25.3125H20.4844H21.4844V16.9531H20.4844ZM20.4844 25.3125V24.3125H16.3281V25.3125V26.3125H20.4844V25.3125ZM16.3281 25.3125H17.3281V7.90625H16.3281H15.3281V25.3125H16.3281ZM16.3281 7.90625V8.90625H19.625V7.90625V6.90625H16.3281V7.90625ZM19.625 7.90625L18.6491 8.12463L19.1491 10.359L20.125 10.1406L21.1009 9.92225L20.6009 7.68787L19.625 7.90625ZM20.125 10.1406V11.1406H20.3906V10.1406V9.14062H20.125V10.1406ZM20.3906 10.1406L21.2965 10.5642C21.5972 9.92107 22.012 9.44613 22.5401 9.10721L22 8.26562L21.4599 7.42404C20.5921 7.98095 19.9341 8.75601 19.4847 9.71709L20.3906 10.1406ZM22 8.26562L22.5489 9.10149C23.0643 8.76307 23.6859 8.57812 24.4531 8.57812V7.57812V6.57812C23.3453 6.57812 22.3316 6.85151 21.4511 7.42976L22 8.26562ZM24.4531 7.57812V8.57812C25.7828 8.57812 26.632 9.01583 27.1889 9.78805L28 9.20312L28.8111 8.6182C27.8055 7.22376 26.2901 6.57812 24.4531 6.57812V7.57812ZM28 9.20312L27.1926 9.79314C27.8071 10.634 28.1875 11.9723 28.1875 13.9531H29.1875H30.1875C30.1875 11.7672 29.7762 9.93892 28.8074 8.61311L28 9.20312ZM29.1875 13.9531H28.1875V25.3125H29.1875H30.1875V13.9531H29.1875ZM29.1875 25.3125V24.3125H25V25.3125V26.3125H29.1875V25.3125ZM36.6406 15.9375V16.9375H37.2566L37.5337 16.3874L36.6406 15.9375ZM37.6875 13.8594L36.8215 13.3593L36.8072 13.384L36.7944 13.4095L37.6875 13.8594ZM41.125 7.90625V6.90625H40.5477L40.259 7.4062L41.125 7.90625ZM45.5312 7.90625L46.3823 8.43139L47.3234 6.90625H45.5312V7.90625ZM41.125 15.0469L40.274 14.5217L39.993 14.977L40.2159 15.4634L41.125 15.0469ZM45.8281 25.3125V26.3125H47.3862L46.7373 24.896L45.8281 25.3125ZM41.4688 25.3125L40.549 25.705L40.8083 26.3125H41.4688V25.3125ZM38.3281 17.9531L39.2479 17.5606L38.6976 16.2712L37.6576 17.2113L38.3281 17.9531ZM36.7031 19.4219L36.0326 18.68L35.7031 18.9778V19.4219H36.7031ZM36.7031 25.3125V26.3125H37.7031V25.3125H36.7031ZM32.5469 25.3125H31.5469V26.3125H32.5469V25.3125ZM32.5469 1V0H31.5469V1H32.5469ZM36.7031 1H37.7031V0H36.7031V1ZM36.7031 12.4531L37.7017 12.5069L37.7031 12.48V12.4531H36.7031ZM36.5156 15.9375L35.5171 15.8838L35.4604 16.9375H36.5156V15.9375ZM36.6406 15.9375L37.5337 16.3874L38.5806 14.3093L37.6875 13.8594L36.7944 13.4095L35.7475 15.4876L36.6406 15.9375ZM37.6875 13.8594L38.5535 14.3594L41.991 8.4063L41.125 7.90625L40.259 7.4062L36.8215 13.3593L37.6875 13.8594ZM41.125 7.90625V8.90625H45.5312V7.90625V6.90625H41.125V7.90625ZM45.5312 7.90625L44.6802 7.38111L40.274 14.5217L41.125 15.0469L41.976 15.572L46.3823 8.43139L45.5312 7.90625ZM41.125 15.0469L40.2159 15.4634L44.919 25.729L45.8281 25.3125L46.7373 24.896L42.0341 14.6304L41.125 15.0469ZM45.8281 25.3125V24.3125H41.4688V25.3125V26.3125H45.8281V25.3125ZM41.4688 25.3125L42.3885 24.92L39.2479 17.5606L38.3281 17.9531L37.4084 18.3456L40.549 25.705L41.4688 25.3125ZM38.3281 17.9531L37.6576 17.2113L36.0326 18.68L36.7031 19.4219L37.3737 20.1637L38.9987 18.695L38.3281 17.9531ZM36.7031 19.4219H35.7031V25.3125H36.7031H37.7031V19.4219H36.7031ZM36.7031 25.3125V24.3125H32.5469V25.3125V26.3125H36.7031V25.3125ZM32.5469 25.3125H33.5469V1H32.5469H31.5469V25.3125H32.5469ZM32.5469 1V2H36.7031V1V0H32.5469V1ZM36.7031 1H35.7031V12.4531H36.7031H37.7031V1H36.7031ZM36.7031 12.4531L35.7046 12.3994L35.5171 15.8838L36.5156 15.9375L37.5142 15.9912L37.7017 12.5069L36.7031 12.4531ZM36.5156 15.9375V16.9375H36.6406V15.9375V14.9375H36.5156V15.9375ZM56.1719 25.3125L55.2276 25.6417L55.4615 26.3125H56.1719V25.3125ZM55.3438 22.9375L56.288 22.6083L56.0541 21.9375H55.3438V22.9375ZM55.25 22.9375V21.9375H54.6848L54.3933 22.4217L55.25 22.9375ZM47.8281 24.1875L47.0323 24.793L47.0365 24.7985L47.8281 24.1875ZM48.2344 16.1094L48.8973 16.8581L48.8978 16.8576L48.2344 16.1094ZM52.75 14.625L52.7095 13.6258L52.7032 13.6261L52.75 14.625ZM55.0625 14.5312L55.103 15.5304L56.0625 15.4915V14.5312H55.0625ZM49.3594 12.0625L48.4649 12.5097L48.9479 13.4756L49.8739 12.92L49.3594 12.0625ZM47.9219 9.1875L47.3873 8.34237L46.623 8.82582L47.0274 9.63471L47.9219 9.1875ZM57.7656 9.14062L57.023 9.81043L57.03 9.818L57.7656 9.14062ZM59.2188 25.3125V26.3125H60.2188V25.3125H59.2188ZM54.375 21.3594L53.5429 20.8047L53.541 20.8076L54.375 21.3594ZM55.0625 17.1562H56.0625V16.1063L55.0138 16.1574L55.0625 17.1562ZM53.7812 17.2188L53.7325 16.2199L53.7264 16.2203L53.7812 17.2188ZM51.6875 18.0312L50.9496 17.3562L50.9418 17.3649L51.6875 18.0312ZM56.1719 25.3125L57.1161 24.9833L56.288 22.6083L55.3438 22.9375L54.3995 23.2667L55.2276 25.6417L56.1719 25.3125ZM55.3438 22.9375V21.9375H55.25V22.9375V23.9375H55.3438V22.9375ZM55.25 22.9375L54.3933 22.4217C53.8207 23.3729 53.2907 23.9183 52.8373 24.1846L53.3438 25.0469L53.8502 25.9092C54.7093 25.4046 55.4502 24.5438 56.1067 23.4533L55.25 22.9375ZM53.3438 25.0469L52.8373 24.1846C52.3756 24.4558 51.7357 24.625 50.8594 24.625V25.625V26.625C51.983 26.625 52.9994 26.4088 53.8502 25.9092L53.3438 25.0469ZM50.8594 25.625V24.625C49.867 24.625 49.1575 24.2734 48.6198 23.5765L47.8281 24.1875L47.0365 24.7985C47.9779 26.0183 49.2892 26.625 50.8594 26.625V25.625ZM47.8281 24.1875L48.624 23.582C48.0726 22.8573 47.7344 21.7662 47.7344 20.1875H46.7344H45.7344C45.7344 22.0255 46.1253 23.601 47.0323 24.793L47.8281 24.1875ZM46.7344 20.1875H47.7344C47.7344 18.5293 48.1828 17.4907 48.8973 16.8581L48.2344 16.1094L47.5715 15.3607C46.2859 16.4989 45.7344 18.1791 45.7344 20.1875H46.7344ZM48.2344 16.1094L48.8978 16.8576C49.6719 16.1713 50.9189 15.7119 52.7968 15.6239L52.75 14.625L52.7032 13.6261C50.5811 13.7256 48.8177 14.2558 47.571 15.3611L48.2344 16.1094ZM52.75 14.625L52.7905 15.6242L55.103 15.5304L55.0625 14.5312L55.022 13.5321L52.7095 13.6258L52.75 14.625ZM55.0625 14.5312H56.0625V13.2812H55.0625H54.0625V14.5312H55.0625ZM55.0625 13.2812H56.0625C56.0625 12.3472 55.8635 11.46 55.2913 10.7987C54.6952 10.1099 53.8511 9.84375 52.9531 9.84375V10.8438V11.8438C53.4614 11.8438 53.672 11.9839 53.779 12.1075C53.9099 12.2588 54.0625 12.5903 54.0625 13.2812H55.0625ZM52.9531 10.8438V9.84375C51.6598 9.84375 50.2803 10.3438 48.8449 11.205L49.3594 12.0625L49.8739 12.92C51.1468 12.1562 52.1631 11.8438 52.9531 11.8438V10.8438ZM49.3594 12.0625L50.2538 11.6153L48.8163 8.74029L47.9219 9.1875L47.0274 9.63471L48.4649 12.5097L49.3594 12.0625ZM47.9219 9.1875L48.4564 10.0326C50.0269 9.03926 51.722 8.54688 53.5625 8.54688V7.54688V6.54688C51.3405 6.54688 49.2752 7.14824 47.3873 8.34237L47.9219 9.1875ZM53.5625 7.54688V8.54688C55.21 8.54688 56.3056 9.01497 57.0231 9.81039L57.7656 9.14062L58.5082 8.47086C57.309 7.14128 55.6025 6.54688 53.5625 6.54688V7.54688ZM57.7656 9.14062L57.03 9.818C57.7761 10.6283 58.2188 11.8481 58.2188 13.625H59.2188H60.2188C60.2188 11.5269 59.6926 9.7571 58.5013 8.46325L57.7656 9.14062ZM59.2188 13.625H58.2188V25.3125H59.2188H60.2188V13.625H59.2188ZM59.2188 25.3125V24.3125H56.1719V25.3125V26.3125H59.2188V25.3125ZM52.5625 22.375V23.375C53.6847 23.375 54.5909 22.8456 55.209 21.9111L54.375 21.3594L53.541 20.8076C53.2633 21.2274 52.9611 21.375 52.5625 21.375V22.375ZM54.375 21.3594L55.2071 21.9141C55.8088 21.0114 56.0625 19.8862 56.0625 18.625H55.0625H54.0625C54.0625 19.6346 53.8578 20.3323 53.5429 20.8047L54.375 21.3594ZM55.0625 18.625H56.0625V17.1562H55.0625H54.0625V18.625H55.0625ZM55.0625 17.1562L55.0138 16.1574L53.7325 16.2199L53.7812 17.2188L53.83 18.2176L55.1112 18.1551L55.0625 17.1562ZM53.7812 17.2188L53.7264 16.2203C52.6301 16.2805 51.6381 16.6038 50.9497 17.3562L51.6875 18.0312L52.4253 18.7063C52.6327 18.4795 53.0365 18.2612 53.8361 18.2172L53.7812 17.2188ZM51.6875 18.0312L50.9418 17.3649C50.2777 18.1081 50.0312 19.1185 50.0312 20.2188H51.0312H52.0312C52.0312 19.3815 52.2223 18.9335 52.4332 18.6976L51.6875 18.0312ZM51.0312 20.2188H50.0312C50.0312 21.0255 50.169 21.8098 50.5987 22.4149C51.0731 23.0829 51.7869 23.375 52.5625 23.375V22.375V21.375C52.4243 21.375 52.3513 21.3509 52.3175 21.335C52.2889 21.3216 52.2616 21.3022 52.2294 21.2569C52.1487 21.1433 52.0312 20.8495 52.0312 20.2188H51.0312ZM74.1719 9.9375L73.3054 10.4367L74.1719 9.9375ZM74.1562 23.2656L73.2923 22.7621L73.2898 22.7664L74.1562 23.2656ZM68.2969 25.125L67.7958 25.9904L67.8048 25.9956L67.8138 26.0006L68.2969 25.125ZM66.6094 23.3281L67.4585 22.8L67.1651 22.3281H66.6094V23.3281ZM66.3438 23.3281V22.3281H65.6372L65.4012 22.9941L66.3438 23.3281ZM65.6406 25.3125V26.3125H66.3472L66.5832 25.6465L65.6406 25.3125ZM62.5781 25.3125H61.5781V26.3125H62.5781V25.3125ZM62.5781 1V0H61.5781V1H62.5781ZM66.7344 1H67.7344V0H66.7344V1ZM66.5156 10.1719L65.5188 10.0921L65.4324 11.1719H66.5156V10.1719ZM66.7344 10.1719V11.1719H67.3348L67.617 10.642L66.7344 10.1719ZM67.2812 12.2188L66.3793 11.7868L66.3744 11.7973L67.2812 12.2188ZM66.7344 16.125L65.7344 16.1138V16.125H66.7344ZM67.2656 20.8125L66.347 21.2078L66.3513 21.2176L67.2656 20.8125ZM70.4375 7.57812V8.57812C71.6046 8.57812 72.5463 9.11926 73.3054 10.4367L74.1719 9.9375L75.0383 9.43827C73.9849 7.60991 72.437 6.57812 70.4375 6.57812V7.57812ZM74.1719 9.9375L73.3054 10.4367C74.0878 11.7947 74.5312 13.8081 74.5312 16.5781H75.5312H76.5312C76.5312 13.6398 76.0685 11.2262 75.0383 9.43827L74.1719 9.9375ZM75.5312 16.5781H74.5312C74.5312 19.3804 74.0822 21.4066 73.2923 22.7621L74.1562 23.2656L75.0202 23.7691C76.0636 21.9788 76.5312 19.5467 76.5312 16.5781H75.5312ZM74.1562 23.2656L73.2898 22.7664C72.5353 24.0759 71.5815 24.625 70.375 24.625V25.625V26.625C72.3977 26.625 73.9647 25.6012 75.0227 23.7649L74.1562 23.2656ZM70.375 25.625V24.625C69.74 24.625 69.2175 24.4908 68.78 24.2494L68.2969 25.125L67.8138 26.0006C68.5845 26.4258 69.4475 26.625 70.375 26.625V25.625ZM68.2969 25.125L68.7979 24.2596C68.3969 24.0274 67.9406 23.5751 67.4585 22.8L66.6094 23.3281L65.7602 23.8563C66.3406 24.7895 67.0093 25.5351 67.7958 25.9904L68.2969 25.125ZM66.6094 23.3281V22.3281H66.3438V23.3281V24.3281H66.6094V23.3281ZM66.3438 23.3281L65.4012 22.9941L64.698 24.9785L65.6406 25.3125L66.5832 25.6465L67.2863 23.6621L66.3438 23.3281ZM65.6406 25.3125V24.3125H62.5781V25.3125V26.3125H65.6406V25.3125ZM62.5781 25.3125H63.5781V1H62.5781H61.5781V25.3125H62.5781ZM62.5781 1V2H66.7344V1V0H62.5781V1ZM66.7344 1H65.7344V6.6875H66.7344H67.7344V1H66.7344ZM66.7344 6.6875H65.7344C65.7344 6.91266 65.7295 7.14929 65.7196 7.39753L66.7188 7.4375L67.7179 7.47747C67.7289 7.20488 67.7344 6.94151 67.7344 6.6875H66.7344ZM66.7188 7.4375L65.7196 7.39753C65.7102 7.63248 65.6448 8.51717 65.5188 10.0921L66.5156 10.1719L67.5124 10.2516C67.6364 8.70158 67.7065 7.76336 67.7179 7.47747L66.7188 7.4375ZM66.5156 10.1719V11.1719H66.7344V10.1719V9.17188H66.5156V10.1719ZM66.7344 10.1719L67.617 10.642C68.0866 9.76018 68.5396 9.25172 68.9351 8.99503L68.3906 8.15625L67.8462 7.31747C67.0541 7.83161 66.4029 8.66691 65.8518 9.70179L66.7344 10.1719ZM68.3906 8.15625L68.9351 8.99503C69.3524 8.72418 69.842 8.57812 70.4375 8.57812V7.57812V6.57812C69.4913 6.57812 68.6164 6.81749 67.8462 7.31747L68.3906 8.15625ZM69 11.1094V10.1094C68.4434 10.1094 67.907 10.2414 67.4343 10.5465C66.9636 10.8503 66.62 11.2843 66.3793 11.7868L67.2812 12.2188L68.1832 12.6507C68.2967 12.4136 68.4166 12.2929 68.5189 12.2269C68.619 12.1623 68.7649 12.1094 69 12.1094V11.1094ZM67.2812 12.2188L66.3744 11.7973C65.9321 12.749 65.7553 14.2442 65.7344 16.1138L66.7344 16.125L67.7343 16.1362C67.7551 14.2766 67.9429 13.1677 68.1881 12.6402L67.2812 12.2188ZM66.7344 16.125H65.7344V16.5469H66.7344H67.7344V16.125H66.7344ZM66.7344 16.5469H65.7344C65.7344 18.575 65.9047 20.18 66.3471 21.2078L67.2656 20.8125L68.1842 20.4172C67.9182 19.7991 67.7344 18.5604 67.7344 16.5469H66.7344ZM67.2656 20.8125L66.3513 21.2176C66.5889 21.7539 66.9303 22.2242 67.4075 22.5579C67.8913 22.8961 68.448 23.0469 69.0312 23.0469V22.0469V21.0469C68.802 21.0469 68.6582 20.9919 68.5534 20.9187C68.4421 20.8409 68.3069 20.6941 68.1799 20.4074L67.2656 20.8125ZM69.0312 22.0469V23.0469C69.6295 23.0469 70.1835 22.8565 70.6494 22.4747C71.0985 22.1066 71.4168 21.6021 71.645 21.0409C72.0941 19.9368 72.2812 18.3974 72.2812 16.5156H71.2812H70.2812C70.2812 18.3213 70.0934 19.5475 69.7925 20.2873C69.6457 20.6479 69.4952 20.8348 69.3818 20.9277C69.2853 21.0068 69.183 21.0469 69.0312 21.0469V22.0469ZM71.2812 16.5156H72.2812C72.2812 14.6735 72.0914 13.1602 71.6323 12.0722C71.3984 11.5179 71.0732 11.0222 70.6179 10.6626C70.1476 10.2911 69.594 10.1094 69 10.1094V11.1094V12.1094C69.1665 12.1094 69.2781 12.1529 69.3782 12.232C69.4932 12.3229 69.6433 12.503 69.7896 12.8497C70.0909 13.5638 70.2812 14.7536 70.2812 16.5156H71.2812ZM90.5781 25.3125L89.5925 25.4816L89.7351 26.3125H90.5781V25.3125ZM88.8438 15.2031L87.8538 15.3445L87.8558 15.3584L87.8581 15.3722L88.8438 15.2031ZM88.2344 10.9375L89.2243 10.7961L89.1017 9.9375H88.2344V10.9375ZM88.1719 10.9375V9.9375H87.2783L87.1782 10.8254L88.1719 10.9375ZM87.7969 13.9531L88.7854 14.1039L88.7858 14.1015L87.7969 13.9531ZM85.8125 25.3125V26.3125H86.6513L86.7973 25.4865L85.8125 25.3125ZM80.4688 25.3125L79.488 25.5079L79.6484 26.3125H80.4688V25.3125ZM77 7.90625V6.90625H75.7811L76.0193 8.10169L77 7.90625ZM81.1719 7.90625L82.1584 7.74237L82.0195 6.90625H81.1719V7.90625ZM82.7656 17.5L81.7791 17.6639L81.7808 17.6738L82.7656 17.5ZM83.2812 22.1719L82.2841 22.2478L82.3545 23.1719H83.2812V22.1719ZM83.375 22.1719V23.1719H84.338L84.3743 22.2096L83.375 22.1719ZM83.5938 19.6562L84.5876 19.7667L84.5877 19.7657L83.5938 19.6562ZM83.8594 17.4688L82.8751 17.2918L82.8736 17.3007L82.8721 17.3095L83.8594 17.4688ZM85.5781 7.90625V6.90625H84.7418L84.5939 7.72935L85.5781 7.90625ZM90.9219 7.90625L91.9065 7.73146L91.76 6.90625H90.9219V7.90625ZM92.625 17.5L91.6404 17.6748L91.6418 17.6826L91.6433 17.6903L92.625 17.5ZM93.1406 22.1719L92.143 22.2414L92.2079 23.1719H93.1406V22.1719ZM93.2031 22.1719V23.1719H94.128L94.2001 22.2498L93.2031 22.1719ZM93.75 17.5L94.735 17.6724L94.7354 17.6701L93.75 17.5ZM95.4062 7.90625V6.90625H94.5641L94.4208 7.73613L95.4062 7.90625ZM99.4688 7.90625L100.449 8.10254L100.689 6.90625H99.4688V7.90625ZM95.9844 25.3125V26.3125H96.804L96.9649 25.5088L95.9844 25.3125ZM90.5781 25.3125L91.5637 25.1434L89.8294 15.034L88.8438 15.2031L87.8581 15.3722L89.5925 25.4816L90.5781 25.3125ZM88.8438 15.2031L89.8337 15.0617L89.2243 10.7961L88.2344 10.9375L87.2444 11.0789L87.8538 15.3445L88.8438 15.2031ZM88.2344 10.9375V9.9375H88.1719V10.9375V11.9375H88.2344V10.9375ZM88.1719 10.9375L87.1782 10.8254C87.0221 12.2096 86.8988 13.1992 86.8079 13.8048L87.7969 13.9531L88.7858 14.1015C88.8825 13.457 89.0092 12.4363 89.1656 11.0496L88.1719 10.9375ZM87.7969 13.9531L86.8083 13.8023C86.7169 14.4016 86.0588 18.1696 84.8277 25.1385L85.8125 25.3125L86.7973 25.4865C88.0245 18.5387 88.6894 14.7338 88.7854 14.1039L87.7969 13.9531ZM85.8125 25.3125V24.3125H80.4688V25.3125V26.3125H85.8125V25.3125ZM80.4688 25.3125L81.4495 25.1171L77.9807 7.71081L77 7.90625L76.0193 8.10169L79.488 25.5079L80.4688 25.3125ZM77 7.90625V8.90625H81.1719V7.90625V6.90625H77V7.90625ZM81.1719 7.90625L80.1854 8.07013L81.7791 17.6639L82.7656 17.5L83.7521 17.3361L82.1584 7.74237L81.1719 7.90625ZM82.7656 17.5L81.7808 17.6738C81.9596 18.6868 82.1286 20.2048 82.2841 22.2478L83.2812 22.1719L84.2784 22.096C84.1214 20.0348 83.9466 18.4382 83.7504 17.3262L82.7656 17.5ZM83.2812 22.1719V23.1719H83.375V22.1719V21.1719H83.2812V22.1719ZM83.375 22.1719L84.3743 22.2096C84.3937 21.6957 84.4632 20.887 84.5876 19.7667L83.5938 19.6562L82.5999 19.5458C82.4743 20.6755 82.398 21.5439 82.3757 22.1342L83.375 22.1719ZM83.5938 19.6562L84.5877 19.7657C84.7135 18.6233 84.7993 17.9211 84.8466 17.628L83.8594 17.4688L82.8721 17.3095C82.8152 17.6622 82.724 18.4184 82.5998 19.5468L83.5938 19.6562ZM83.8594 17.4688L84.8436 17.6457L86.5624 8.08315L85.5781 7.90625L84.5939 7.72935L82.8751 17.2918L83.8594 17.4688ZM85.5781 7.90625V8.90625H90.9219V7.90625V6.90625H85.5781V7.90625ZM90.9219 7.90625L89.9373 8.08104L91.6404 17.6748L92.625 17.5L93.6096 17.3252L91.9065 7.73146L90.9219 7.90625ZM92.625 17.5L91.6433 17.6903C91.8291 18.6488 91.9978 20.1561 92.143 22.2414L93.1406 22.1719L94.1382 22.1024C93.9918 20.0001 93.8167 18.3929 93.6067 17.3097L92.625 17.5ZM93.1406 22.1719V23.1719H93.2031V22.1719V21.1719H93.1406V22.1719ZM93.2031 22.1719L94.2001 22.2498C94.3445 20.4036 94.5237 18.8803 94.735 17.6724L93.75 17.5L92.765 17.3276C92.5388 18.6197 92.3534 20.211 92.2062 22.0939L93.2031 22.1719ZM93.75 17.5L94.7354 17.6701L96.3917 8.07637L95.4062 7.90625L94.4208 7.73613L92.7646 17.3299L93.75 17.5ZM95.4062 7.90625V8.90625H99.4688V7.90625V6.90625H95.4062V7.90625ZM99.4688 7.90625L98.4882 7.70996L95.0038 25.1162L95.9844 25.3125L96.9649 25.5088L100.449 8.10254L99.4688 7.90625ZM95.9844 25.3125V24.3125H90.5781V25.3125V26.3125H95.9844V25.3125ZM102.844 23.3125L102.065 23.9398L102.07 23.9455L102.844 23.3125ZM102.672 10L101.854 9.42477L102.672 10ZM111.906 9.65625L111.121 10.2759L111.124 10.2788L111.906 9.65625ZM113.547 17.6719V18.6719H114.547V17.6719H113.547ZM105.188 17.6719V16.6719H104.167L104.188 17.692L105.188 17.6719ZM106.141 21.1406L105.358 21.7627L105.362 21.768L106.141 21.1406ZM112.797 21H113.797V19.2405L112.285 20.1408L112.797 21ZM112.797 24.4219L113.312 25.2788L113.797 24.9873V24.4219H112.797ZM105.922 11.7344L106.773 12.2593L106.777 12.253L105.922 11.7344ZM105.25 14.6562L104.251 14.6091L104.202 15.6562H105.25V14.6562ZM109.469 14.6562V15.6562H110.485L110.469 14.6399L109.469 14.6562ZM108 25.625V24.625C106.091 24.625 104.669 23.9653 103.618 22.6795L102.844 23.3125L102.07 23.9455C103.539 25.743 105.555 26.625 108 26.625V25.625ZM102.844 23.3125L103.623 22.6853C102.565 21.3725 101.969 19.4337 101.969 16.7344H100.969H99.9688C99.9688 19.7017 100.622 22.1483 102.065 23.9397L102.844 23.3125ZM100.969 16.7344H101.969C101.969 13.9756 102.516 11.9605 103.49 10.5752L102.672 10L101.854 9.42477C100.557 11.2687 99.9688 13.7432 99.9688 16.7344H100.969ZM102.672 10L103.49 10.5752C104.432 9.23603 105.705 8.57812 107.422 8.57812V7.57812V6.57812C105.076 6.57812 103.183 7.53481 101.854 9.42477L102.672 10ZM107.422 7.57812V8.57812C109.038 8.57812 110.233 9.15045 111.121 10.2759L111.906 9.65625L112.691 9.03661C111.392 7.39122 109.598 6.57812 107.422 6.57812V7.57812ZM111.906 9.65625L111.124 10.2788C112.028 11.4161 112.547 13.0974 112.547 15.4531H113.547H114.547C114.547 12.8297 113.972 10.6464 112.689 9.03373L111.906 9.65625ZM113.547 15.4531H112.547V17.6719H113.547H114.547V15.4531H113.547ZM113.547 17.6719V16.6719H105.188V17.6719V18.6719H113.547V17.6719ZM105.188 17.6719L104.188 17.692C104.221 19.3414 104.557 20.7552 105.358 21.7627L106.141 21.1406L106.924 20.5185C106.516 20.0052 106.217 19.1065 106.187 17.6517L105.188 17.6719ZM106.141 21.1406L105.362 21.768C106.177 22.78 107.311 23.2656 108.641 23.2656V22.2656V21.2656C107.845 21.2656 107.312 21.0013 106.919 20.5133L106.141 21.1406ZM108.641 22.2656V23.2656C110.21 23.2656 111.771 22.775 113.309 21.8592L112.797 21L112.285 20.1408C110.99 20.9125 109.779 21.2656 108.641 21.2656V22.2656ZM112.797 21H111.797V24.4219H112.797H113.797V21H112.797ZM112.797 24.4219L112.281 23.565C111.132 24.2564 109.719 24.625 108 24.625V25.625V26.625C110.01 26.625 111.795 26.1915 113.312 25.2788L112.797 24.4219ZM107.391 10.7812V9.78125C106.357 9.78125 105.581 10.3682 105.067 11.2158L105.922 11.7344L106.777 12.253C107.034 11.8297 107.237 11.7812 107.391 11.7812V10.7812ZM105.922 11.7344L105.071 11.2095C104.551 12.0528 104.316 13.233 104.251 14.6091L105.25 14.6562L106.249 14.7034C106.309 13.4336 106.522 12.666 106.773 12.2593L105.922 11.7344ZM105.25 14.6562V15.6562H109.469V14.6562V13.6562H105.25V14.6562ZM109.469 14.6562L110.469 14.6399C110.447 13.3044 110.247 12.1473 109.765 11.28L108.891 11.7656L108.016 12.2513C108.264 12.6965 108.449 13.4664 108.469 14.6726L109.469 14.6562ZM108.891 11.7656L109.765 11.28C109.262 10.3751 108.462 9.78125 107.391 9.78125V10.7812V11.7812C107.59 11.7812 107.79 11.8436 108.016 12.2513L108.891 11.7656ZM127.891 9.9375L127.024 10.4367L127.891 9.9375ZM127.875 23.2656L127.011 22.7621L127.009 22.7664L127.875 23.2656ZM122.016 25.125L121.515 25.9904L121.524 25.9956L121.533 26.0006L122.016 25.125ZM120.328 23.3281L121.177 22.8L120.884 22.3281H120.328V23.3281ZM120.062 23.3281V22.3281H119.356L119.12 22.9941L120.062 23.3281ZM119.359 25.3125V26.3125H120.066L120.302 25.6465L119.359 25.3125ZM116.297 25.3125H115.297V26.3125H116.297V25.3125ZM116.297 1V0H115.297V1H116.297ZM120.453 1H121.453V0H120.453V1ZM120.234 10.1719L119.238 10.0921L119.151 11.1719H120.234V10.1719ZM120.453 10.1719V11.1719H121.054L121.336 10.642L120.453 10.1719ZM121 12.2188L120.098 11.7868L120.093 11.7973L121 12.2188ZM120.453 16.125L119.453 16.1138V16.125H120.453ZM120.984 20.8125L120.066 21.2078L120.07 21.2176L120.984 20.8125ZM124.156 7.57812V8.57812C125.323 8.57812 126.265 9.11926 127.024 10.4367L127.891 9.9375L128.757 9.43827C127.704 7.60991 126.156 6.57812 124.156 6.57812V7.57812ZM127.891 9.9375L127.024 10.4367C127.807 11.7947 128.25 13.8081 128.25 16.5781H129.25H130.25C130.25 13.6398 129.787 11.2262 128.757 9.43827L127.891 9.9375ZM129.25 16.5781H128.25C128.25 19.3804 127.801 21.4066 127.011 22.7621L127.875 23.2656L128.739 23.7691C129.782 21.9788 130.25 19.5467 130.25 16.5781H129.25ZM127.875 23.2656L127.009 22.7664C126.254 24.0759 125.3 24.625 124.094 24.625V25.625V26.625C126.116 26.625 127.683 25.6012 128.741 23.7649L127.875 23.2656ZM124.094 25.625V24.625C123.459 24.625 122.936 24.4908 122.499 24.2494L122.016 25.125L121.533 26.0006C122.303 26.4258 123.166 26.625 124.094 26.625V25.625ZM122.016 25.125L122.517 24.2596C122.116 24.0274 121.659 23.5751 121.177 22.8L120.328 23.3281L119.479 23.8563C120.059 24.7895 120.728 25.5351 121.515 25.9904L122.016 25.125ZM120.328 23.3281V22.3281H120.062V23.3281V24.3281H120.328V23.3281ZM120.062 23.3281L119.12 22.9941L118.417 24.9785L119.359 25.3125L120.302 25.6465L121.005 23.6621L120.062 23.3281ZM119.359 25.3125V24.3125H116.297V25.3125V26.3125H119.359V25.3125ZM116.297 25.3125H117.297V1H116.297H115.297V25.3125H116.297ZM116.297 1V2H120.453V1V0H116.297V1ZM120.453 1H119.453V6.6875H120.453H121.453V1H120.453ZM120.453 6.6875H119.453C119.453 6.91266 119.448 7.14929 119.438 7.39753L120.438 7.4375L121.437 7.47747C121.448 7.20488 121.453 6.94151 121.453 6.6875H120.453ZM120.438 7.4375L119.438 7.39753C119.429 7.63248 119.364 8.51717 119.238 10.0921L120.234 10.1719L121.231 10.2516C121.355 8.70158 121.425 7.76336 121.437 7.47747L120.438 7.4375ZM120.234 10.1719V11.1719H120.453V10.1719V9.17188H120.234V10.1719ZM120.453 10.1719L121.336 10.642C121.805 9.76018 122.258 9.25172 122.654 8.99503L122.109 8.15625L121.565 7.31747C120.773 7.83161 120.122 8.66691 119.571 9.70179L120.453 10.1719ZM122.109 8.15625L122.654 8.99503C123.071 8.72418 123.561 8.57812 124.156 8.57812V7.57812V6.57812C123.21 6.57812 122.335 6.81749 121.565 7.31747L122.109 8.15625ZM122.719 11.1094V10.1094C122.162 10.1094 121.626 10.2414 121.153 10.5465C120.682 10.8503 120.339 11.2843 120.098 11.7868L121 12.2188L121.902 12.6507C122.015 12.4136 122.135 12.2929 122.238 12.2269C122.338 12.1623 122.484 12.1094 122.719 12.1094V11.1094ZM121 12.2188L120.093 11.7973C119.651 12.749 119.474 14.2442 119.453 16.1138L120.453 16.125L121.453 16.1362C121.474 14.2766 121.662 13.1677 121.907 12.6402L121 12.2188ZM120.453 16.125H119.453V16.5469H120.453H121.453V16.125H120.453ZM120.453 16.5469H119.453C119.453 18.575 119.623 20.18 120.066 21.2078L120.984 20.8125L121.903 20.4172C121.637 19.7991 121.453 18.5604 121.453 16.5469H120.453ZM120.984 20.8125L120.07 21.2176C120.308 21.7539 120.649 22.2242 121.126 22.5579C121.61 22.8961 122.167 23.0469 122.75 23.0469V22.0469V21.0469C122.521 21.0469 122.377 20.9919 122.272 20.9187C122.161 20.8409 122.026 20.6941 121.899 20.4074L120.984 20.8125ZM122.75 22.0469V23.0469C123.348 23.0469 123.902 22.8565 124.368 22.4747C124.817 22.1066 125.136 21.6021 125.364 21.0409C125.813 19.9368 126 18.3974 126 16.5156H125H124C124 18.3213 123.812 19.5475 123.511 20.2873C123.364 20.6479 123.214 20.8348 123.101 20.9277C123.004 21.0068 122.902 21.0469 122.75 21.0469V22.0469ZM125 16.5156H126C126 14.6735 125.81 13.1602 125.351 12.0722C125.117 11.5179 124.792 11.0222 124.337 10.6626C123.866 10.2911 123.313 10.1094 122.719 10.1094V11.1094V12.1094C122.885 12.1094 122.997 12.1529 123.097 12.232C123.212 12.3229 123.362 12.503 123.508 12.8497C123.81 13.5638 124 14.7536 124 16.5156H125ZM144.641 22.3281L143.849 21.7176L143.848 21.7182L144.641 22.3281ZM132.422 25.3125H131.422V26.3125H132.422V25.3125ZM132.422 2.46875V1.46875H131.422V2.46875H132.422ZM144.734 5.42188L143.935 6.02255L143.936 6.02459L144.734 5.42188ZM136.672 6.14062V5.14062H135.672V6.14062H136.672ZM136.672 21.5938H135.672V22.5938H136.672V21.5938ZM141.484 19.6562L142.352 20.1531L142.354 20.1501L141.484 19.6562ZM146.953 13.6719H145.953C145.953 17.3259 145.203 19.9602 143.849 21.7176L144.641 22.3281L145.433 22.9386C147.161 20.6961 147.953 17.5595 147.953 13.6719H146.953ZM144.641 22.3281L143.848 21.7182C142.536 23.423 140.643 24.3125 138.016 24.3125V25.3125V26.3125C141.159 26.3125 143.683 25.2124 145.433 22.938L144.641 22.3281ZM138.016 25.3125V24.3125H132.422V25.3125V26.3125H138.016V25.3125ZM132.422 25.3125H133.422V2.46875H132.422H131.422V25.3125H132.422ZM132.422 2.46875V3.46875H138.531V2.46875V1.46875H132.422V2.46875ZM138.531 2.46875V3.46875C140.902 3.46875 142.661 4.32731 143.935 6.02255L144.734 5.42188L145.534 4.8212C143.849 2.57894 141.473 1.46875 138.531 1.46875V2.46875ZM144.734 5.42188L143.936 6.02459C145.238 7.74741 145.953 10.2547 145.953 13.6719H146.953H147.953C147.953 10.0058 147.189 7.01301 145.532 4.81916L144.734 5.42188ZM142.594 13.7969H143.594C143.594 11.1857 143.24 9.06894 142.415 7.57208C141.994 6.80857 141.441 6.18858 140.738 5.76352C140.034 5.33735 139.234 5.14062 138.375 5.14062V6.14062V7.14062C138.922 7.14062 139.353 7.26291 139.703 7.47476C140.055 7.68772 140.381 8.02477 140.663 8.53729C141.245 9.59252 141.594 11.3039 141.594 13.7969H142.594ZM138.375 6.14062V5.14062H136.672V6.14062V7.14062H138.375V6.14062ZM136.672 6.14062H135.672V21.5938H136.672H137.672V6.14062H136.672ZM136.672 21.5938V22.5938H138.047V21.5938V20.5938H136.672V21.5938ZM138.047 21.5938V22.5938C139.939 22.5938 141.425 21.772 142.352 20.1531L141.484 19.6562L140.617 19.1594C140.064 20.1238 139.259 20.5938 138.047 20.5938V21.5938ZM141.484 19.6562L142.354 20.1501C143.221 18.6237 143.594 16.4629 143.594 13.7969H142.594H141.594C141.594 16.3392 141.227 18.0846 140.615 19.1624L141.484 19.6562ZM151.312 23.3125L150.534 23.9398L150.538 23.9455L151.312 23.3125ZM151.141 10L150.323 9.42477L151.141 10ZM160.375 9.65625L159.59 10.2759L159.592 10.2788L160.375 9.65625ZM162.016 17.6719V18.6719H163.016V17.6719H162.016ZM153.656 17.6719V16.6719H152.636L152.656 17.692L153.656 17.6719ZM154.609 21.1406L153.826 21.7627L153.831 21.768L154.609 21.1406ZM161.266 21H162.266V19.2405L160.754 20.1408L161.266 21ZM161.266 24.4219L161.781 25.2788L162.266 24.9873V24.4219H161.266ZM154.391 11.7344L155.242 12.2593L155.246 12.253L154.391 11.7344ZM153.719 14.6562L152.72 14.6091L152.67 15.6562H153.719V14.6562ZM157.938 14.6562V15.6562H158.954L158.937 14.6399L157.938 14.6562ZM156.469 25.625V24.625C154.56 24.625 153.138 23.9653 152.087 22.6795L151.312 23.3125L150.538 23.9455C152.008 25.743 154.023 26.625 156.469 26.625V25.625ZM151.312 23.3125L152.091 22.6853C151.034 21.3725 150.438 19.4337 150.438 16.7344H149.438H148.438C148.438 19.7017 149.091 22.1483 150.534 23.9397L151.312 23.3125ZM149.438 16.7344H150.438C150.438 13.9756 150.984 11.9605 151.959 10.5752L151.141 10L150.323 9.42477C149.026 11.2687 148.438 13.7432 148.438 16.7344H149.438ZM151.141 10L151.959 10.5752C152.9 9.23603 154.174 8.57812 155.891 8.57812V7.57812V6.57812C153.545 6.57812 151.652 7.53481 150.323 9.42477L151.141 10ZM155.891 7.57812V8.57812C157.507 8.57812 158.702 9.15045 159.59 10.2759L160.375 9.65625L161.16 9.03661C159.861 7.39122 158.066 6.57812 155.891 6.57812V7.57812ZM160.375 9.65625L159.592 10.2788C160.497 11.4161 161.016 13.0974 161.016 15.4531H162.016H163.016C163.016 12.8297 162.44 10.6464 161.158 9.03373L160.375 9.65625ZM162.016 15.4531H161.016V17.6719H162.016H163.016V15.4531H162.016ZM162.016 17.6719V16.6719H153.656V17.6719V18.6719H162.016V17.6719ZM153.656 17.6719L152.656 17.692C152.69 19.3414 153.026 20.7552 153.826 21.7627L154.609 21.1406L155.392 20.5185C154.984 20.0052 154.685 19.1065 154.656 17.6517L153.656 17.6719ZM154.609 21.1406L153.831 21.768C154.646 22.78 155.78 23.2656 157.109 23.2656V22.2656V21.2656C156.314 21.2656 155.781 21.0013 155.388 20.5133L154.609 21.1406ZM157.109 22.2656V23.2656C158.679 23.2656 160.24 22.775 161.777 21.8592L161.266 21L160.754 20.1408C159.458 20.9125 158.248 21.2656 157.109 21.2656V22.2656ZM161.266 21H160.266V24.4219H161.266H162.266V21H161.266ZM161.266 24.4219L160.75 23.565C159.601 24.2564 158.188 24.625 156.469 24.625V25.625V26.625C158.479 26.625 160.264 26.1915 161.781 25.2788L161.266 24.4219ZM155.859 10.7812V9.78125C154.825 9.78125 154.05 10.3682 153.536 11.2158L154.391 11.7344L155.246 12.253C155.502 11.8297 155.706 11.7812 155.859 11.7812V10.7812ZM154.391 11.7344L153.539 11.2095C153.019 12.0528 152.785 13.233 152.72 14.6091L153.719 14.6562L154.718 14.7034C154.778 13.4336 154.991 12.666 155.242 12.2593L154.391 11.7344ZM153.719 14.6562V15.6562H157.938V14.6562V13.6562H153.719V14.6562ZM157.938 14.6562L158.937 14.6399C158.915 13.3044 158.715 12.1473 158.234 11.28L157.359 11.7656L156.485 12.2513C156.733 12.6965 156.918 13.4664 156.938 14.6726L157.938 14.6562ZM157.359 11.7656L158.234 11.28C157.731 10.3751 156.93 9.78125 155.859 9.78125V10.7812V11.7812C156.059 11.7812 156.259 11.8436 156.485 12.2513L157.359 11.7656ZM172.609 24.2031L173.301 24.9253L173.301 24.9251L172.609 24.2031ZM163.953 24.6094H162.953V25.1747L163.437 25.4662L163.953 24.6094ZM163.953 21L164.522 20.1773L162.953 19.0936V21H163.953ZM165.953 21.9844L165.629 22.9304L165.633 22.9318L165.953 21.9844ZM169.453 21.9062L170.137 22.6358L170.138 22.6351L169.453 21.9062ZM167.484 17.7969L168.002 16.941L167.996 16.9375L167.484 17.7969ZM164.766 15.4062L163.921 15.9418L163.925 15.9478L163.929 15.9538L164.766 15.4062ZM165.469 8.875L164.822 8.1119L164.819 8.11519L165.469 8.875ZM174.016 8.79688L174.926 9.2114L175.297 8.39603L174.527 7.93765L174.016 8.79688ZM172.656 11.7812L172.18 12.6604L173.122 13.1712L173.566 12.1958L172.656 11.7812ZM168.516 11.2969L167.795 10.6032L167.789 10.6103L167.782 10.6175L168.516 11.2969ZM168.609 13.5781L167.861 14.2412L167.866 14.2471L167.871 14.2529L168.609 13.5781ZM170.453 14.9375L170.971 14.0822L170.971 14.0818L170.453 14.9375ZM174.109 20.2188H173.109C173.109 21.71 172.678 22.7526 171.917 23.4811L172.609 24.2031L173.301 24.9251C174.541 23.737 175.109 22.1234 175.109 20.2188H174.109ZM172.609 24.2031L171.918 23.481C171.179 24.1881 170.006 24.625 168.219 24.625V25.625V26.625C170.307 26.625 172.06 26.1139 173.301 24.9253L172.609 24.2031ZM168.219 25.625V24.625C166.627 24.625 165.397 24.3112 164.469 23.7526L163.953 24.6094L163.437 25.4662C164.759 26.2617 166.373 26.625 168.219 26.625V25.625ZM163.953 24.6094H164.953V21H163.953H162.953V24.6094H163.953ZM163.953 21L163.385 21.8227C164.044 22.278 164.795 22.6448 165.629 22.9304L165.953 21.9844L166.277 21.0383C165.59 20.8031 165.008 20.5137 164.522 20.1773L163.953 21ZM165.953 21.9844L165.633 22.9318C166.469 23.2143 167.259 23.375 167.984 23.375V22.375V21.375C167.543 21.375 166.978 21.2752 166.273 21.037L165.953 21.9844ZM167.984 22.375V23.375C168.779 23.375 169.554 23.1827 170.137 22.6358L169.453 21.9062L168.769 21.1767C168.686 21.2548 168.481 21.375 167.984 21.375V22.375ZM169.453 21.9062L170.138 22.6351C170.705 22.1024 170.969 21.4056 170.969 20.6406H169.969H168.969C168.969 20.9173 168.889 21.0643 168.768 21.1774L169.453 21.9062ZM169.969 20.6406H170.969C170.969 19.8634 170.701 19.1624 170.183 18.5832L169.438 19.25L168.692 19.9168C168.882 20.1292 168.969 20.3554 168.969 20.6406H169.969ZM169.438 19.25L170.183 18.5832C169.723 18.0698 168.963 17.5222 168.002 16.941L167.484 17.7969L166.967 18.6527C167.901 19.2174 168.443 19.6385 168.692 19.9168L169.438 19.25ZM167.484 17.7969L167.996 16.9375C166.811 16.2326 166.042 15.5306 165.602 14.8587L164.766 15.4062L163.929 15.9538C164.593 16.9694 165.637 17.8611 166.973 18.6562L167.484 17.7969ZM164.766 15.4062L165.61 14.8707C165.184 14.1987 164.953 13.3851 164.953 12.3906H163.953H162.953C162.953 13.7087 163.264 14.9055 163.921 15.9418L164.766 15.4062ZM163.953 12.3906H164.953C164.953 11.1668 165.357 10.2867 166.119 9.63481L165.469 8.875L164.819 8.11519C163.56 9.1925 162.953 10.6561 162.953 12.3906H163.953ZM165.469 8.875L166.115 9.63809C166.904 8.97002 168.045 8.57812 169.656 8.57812V7.57812V6.57812C167.726 6.57812 166.075 7.05081 164.822 8.11191L165.469 8.875ZM169.656 7.57812V8.57812C171.012 8.57812 172.289 8.93283 173.504 9.6561L174.016 8.79688L174.527 7.93765C173.013 7.03592 171.384 6.57812 169.656 6.57812V7.57812ZM174.016 8.79688L173.106 8.38235L171.746 11.3667L172.656 11.7812L173.566 12.1958L174.926 9.2114L174.016 8.79688ZM172.656 11.7812L173.133 10.9021C171.94 10.2553 170.792 9.875 169.719 9.875V10.875V11.875C170.333 11.875 171.144 12.0989 172.18 12.6604L172.656 11.7812ZM169.719 10.875V9.875C169.017 9.875 168.315 10.0637 167.795 10.6032L168.516 11.2969L169.236 11.9905C169.258 11.9675 169.358 11.875 169.719 11.875V10.875ZM168.516 11.2969L167.782 10.6175C167.339 11.0954 167.125 11.6865 167.125 12.3281H168.125H169.125C169.125 12.1572 169.171 12.0609 169.249 11.9763L168.516 11.2969ZM168.125 12.3281H167.125C167.125 13.0514 167.383 13.7015 167.861 14.2412L168.609 13.5781L169.358 12.9151C169.19 12.7256 169.125 12.5423 169.125 12.3281H168.125ZM168.609 13.5781L167.871 14.2529C168.308 14.7302 169.028 15.2446 169.936 15.7932L170.453 14.9375L170.971 14.0818C170.086 13.5471 169.578 13.1552 169.347 12.9034L168.609 13.5781ZM170.453 14.9375L169.935 15.7928C171.002 16.4393 171.669 16.9411 172.011 17.2999L172.734 16.6094L173.458 15.9189C172.925 15.361 172.071 14.7482 170.971 14.0822L170.453 14.9375ZM172.734 16.6094L172.011 17.2999C172.363 17.6686 172.633 18.0842 172.825 18.5518L173.75 18.1719L174.675 17.792C174.388 17.0929 173.981 16.4669 173.458 15.9189L172.734 16.6094ZM173.75 18.1719L172.825 18.5518C173.005 18.9895 173.109 19.5377 173.109 20.2188H174.109H175.109C175.109 19.3373 174.974 18.5209 174.675 17.792L173.75 18.1719ZM180.922 25.3125V26.3125H181.922V25.3125H180.922ZM176.766 25.3125H175.766V26.3125H176.766V25.3125ZM176.766 7.90625V6.90625H175.766V7.90625H176.766ZM180.922 7.90625H181.922V6.90625H180.922V7.90625ZM177.188 1.73438L177.895 2.44148L177.188 1.73438ZM180.5 1.73438L179.793 2.44154L179.802 2.45061L180.5 1.73438ZM180.484 5.01562L181.163 5.74979L181.173 5.74063L180.484 5.01562ZM177.219 5.01562L176.53 5.74069L176.54 5.74973L177.219 5.01562ZM180.922 25.3125V24.3125H176.766V25.3125V26.3125H180.922V25.3125ZM176.766 25.3125H177.766V7.90625H176.766H175.766V25.3125H176.766ZM176.766 7.90625V8.90625H180.922V7.90625V6.90625H176.766V7.90625ZM180.922 7.90625H179.922V25.3125H180.922H181.922V7.90625H180.922ZM176.594 3.35938H177.594C177.594 2.87281 177.727 2.60875 177.895 2.44148L177.188 1.73438L176.48 1.02727C175.856 1.65166 175.594 2.47094 175.594 3.35938H176.594ZM177.188 1.73438L177.895 2.44148C178.069 2.26723 178.351 2.125 178.875 2.125V1.125V0.125C177.961 0.125 177.119 0.389017 176.48 1.02727L177.188 1.73438ZM178.875 1.125V2.125C179.338 2.125 179.607 2.25597 179.793 2.44148L180.5 1.73438L181.207 1.02727C180.58 0.400282 179.766 0.125 178.875 0.125V1.125ZM180.5 1.73438L179.802 2.45061C179.975 2.61936 180.109 2.88031 180.109 3.35938H181.109H182.109C182.109 2.46344 181.837 1.64106 181.198 1.01814L180.5 1.73438ZM181.109 3.35938H180.109C180.109 3.86178 179.969 4.1259 179.796 4.29062L180.484 5.01562L181.173 5.74063C181.833 5.11368 182.109 4.27364 182.109 3.35938H181.109ZM180.484 5.01562L179.805 4.28152C179.602 4.46942 179.322 4.59375 178.875 4.59375V5.59375V6.59375C179.741 6.59375 180.533 6.33266 181.163 5.74973L180.484 5.01562ZM178.875 5.59375V4.59375C178.383 4.59375 178.092 4.46138 177.898 4.28152L177.219 5.01562L176.54 5.74973C177.179 6.3407 177.992 6.59375 178.875 6.59375V5.59375ZM177.219 5.01562L177.908 4.29062C177.734 4.1259 177.594 3.86178 177.594 3.35938H176.594H175.594C175.594 4.27364 175.87 5.11368 176.53 5.74063L177.219 5.01562ZM197.016 7.9375H198.016V6.9375H197.016V7.9375ZM197.016 10.375L197.236 11.3505L198.016 11.1746V10.375H197.016ZM194.938 10.8438L194.717 9.86826L193.413 10.1625L194.064 11.3305L194.938 10.8438ZM194.047 17.9219L193.325 17.2293L194.047 17.9219ZM188.703 19.3594L189.019 18.4107L188.469 18.2272L188.036 18.6141L188.703 19.3594ZM195.688 23.0625L194.976 23.765L194.985 23.7742L195.688 23.0625ZM184.562 31.7344L185.192 30.9573L185.187 30.9535L184.562 31.7344ZM183.891 25.5938L183.115 24.9623L183.111 24.9677L183.891 25.5938ZM186.359 24L186.661 24.9533L189.354 24.1002L186.724 23.069L186.359 24ZM185.047 23.0312L184.251 23.6373L184.256 23.6432L184.261 23.6491L185.047 23.0312ZM184.703 20.5469L185.641 20.8942L185.645 20.8832L184.703 20.5469ZM185.141 19.7344L184.344 19.1293L184.341 19.1344L185.141 19.7344ZM186.328 18.5938L186.972 19.3587L188.036 18.4627L186.848 17.7396L186.328 18.5938ZM185.5 9.14062L186.221 9.83316L185.5 9.14062ZM191.016 7.70312L190.837 8.68699L190.848 8.68897L190.859 8.69071L191.016 7.70312ZM192.062 7.9375L191.734 8.882L191.894 8.9375H192.062V7.9375ZM187.422 29.4219L188.073 28.6626L188.071 28.6613L187.422 29.4219ZM192.109 29.2656L191.507 28.4672L191.501 28.472L192.109 29.2656ZM192.547 25.9062L191.916 26.6824L191.922 26.6871L191.928 26.6917L192.547 25.9062ZM187.281 26.125L186.51 25.4886L186.501 25.4991L186.493 25.5097L187.281 26.125ZM197.016 7.9375H196.016V10.375H197.016H198.016V7.9375H197.016ZM197.016 10.375L196.796 9.39951L194.717 9.86826L194.938 10.8438L195.158 11.8192L197.236 11.3505L197.016 10.375ZM194.938 10.8438L194.064 11.3305C194.365 11.8704 194.547 12.6068 194.547 13.5938H195.547H196.547C196.547 12.3724 196.323 11.2754 195.811 10.357L194.938 10.8438ZM195.547 13.5938H194.547C194.547 15.2538 194.101 16.4215 193.325 17.2293L194.047 17.9219L194.768 18.6144C195.993 17.3389 196.547 15.6212 196.547 13.5938H195.547ZM194.047 17.9219L193.325 17.2293C192.558 18.0293 191.449 18.4844 189.859 18.4844V19.4844V20.4844C191.853 20.4844 193.536 19.8978 194.768 18.6144L194.047 17.9219ZM189.859 19.4844V18.4844C189.362 18.4844 189.11 18.4411 189.019 18.4107L188.703 19.3594L188.387 20.3081C188.796 20.4444 189.315 20.4844 189.859 20.4844V19.4844ZM188.703 19.3594L188.036 18.6141C187.796 18.8289 187.572 19.0661 187.363 19.3239L188.141 19.9531L188.918 20.5823C189.063 20.4027 189.214 20.244 189.37 20.1046L188.703 19.3594ZM188.141 19.9531L187.363 19.3239C187.021 19.7465 186.875 20.2492 186.875 20.7656H187.875H188.875C188.875 20.6362 188.906 20.5973 188.918 20.5823L188.141 19.9531ZM187.875 20.7656H186.875C186.875 21.4865 187.222 22.0902 187.847 22.4515C188.388 22.7648 189.072 22.8594 189.766 22.8594V21.8594V20.8594C189.199 20.8594 188.937 20.7717 188.848 20.7203C188.819 20.7034 188.838 20.7075 188.86 20.7449C188.881 20.7822 188.875 20.8002 188.875 20.7656H187.875ZM189.766 21.8594V22.8594H192.281V21.8594V20.8594H189.766V21.8594ZM192.281 21.8594V22.8594C193.58 22.8594 194.425 23.2074 194.976 23.765L195.688 23.0625L196.399 22.36C195.366 21.3135 193.941 20.8594 192.281 20.8594V21.8594ZM195.688 23.0625L194.985 23.7742C195.528 24.3105 195.891 25.2051 195.891 26.6562H196.891H197.891C197.891 24.8991 197.451 23.3979 196.39 22.3508L195.688 23.0625ZM196.891 26.6562H195.891C195.891 28.4293 195.311 29.6855 194.227 30.5687L194.859 31.3438L195.491 32.1188C197.116 30.7937 197.891 28.9249 197.891 26.6562H196.891ZM194.859 31.3438L194.227 30.5687C193.117 31.474 191.429 32 189.016 32V33V34C191.686 34 193.893 33.4219 195.491 32.1188L194.859 31.3438ZM189.016 33V32C187.22 32 185.992 31.6054 185.192 30.9573L184.562 31.7344L183.933 32.5114C185.216 33.5508 186.957 34 189.016 34V33ZM184.562 31.7344L185.187 30.9535C184.423 30.3422 184 29.4603 184 28.1562H183H182C182 29.9564 182.619 31.4599 183.938 32.5152L184.562 31.7344ZM183 28.1562H184C184 27.4099 184.222 26.7778 184.67 26.2198L183.891 25.5938L183.111 24.9677C182.371 25.8889 182 26.9651 182 28.1562H183ZM183.891 25.5938L184.666 26.2252C185.117 25.6719 185.762 25.2382 186.661 24.9533L186.359 24L186.057 23.0467C184.852 23.4285 183.852 24.0573 183.115 24.9623L183.891 25.5938ZM186.359 24L186.724 23.069C186.355 22.924 186.064 22.7072 185.833 22.4134L185.047 23.0312L184.261 23.6491C184.717 24.2303 185.302 24.6594 185.994 24.931L186.359 24ZM185.047 23.0312L185.842 22.4252C185.65 22.1728 185.547 21.8785 185.547 21.5H184.547H183.547C183.547 22.2881 183.777 23.0147 184.251 23.6373L185.047 23.0312ZM184.547 21.5H185.547C185.547 21.2434 185.585 21.0462 185.641 20.8942L184.703 20.5469L183.765 20.1996C183.613 20.6101 183.547 21.0483 183.547 21.5H184.547ZM184.703 20.5469L185.645 20.8832C185.715 20.6869 185.813 20.5048 185.941 20.3344L185.141 19.7344L184.341 19.1344C184.093 19.4639 183.9 19.8235 183.761 20.2105L184.703 20.5469ZM185.141 19.7344L185.937 20.3395C186.061 20.1762 186.379 19.8581 186.972 19.3587L186.328 18.5938L185.684 17.8288C185.09 18.3294 184.616 18.7718 184.344 19.1293L185.141 19.7344ZM186.328 18.5938L186.848 17.7396C186.329 17.4236 185.883 16.9199 185.534 16.1604L184.625 16.5781L183.716 16.9959C184.201 18.0488 184.89 18.8889 185.808 19.4479L186.328 18.5938ZM184.625 16.5781L185.534 16.1604C185.183 15.3986 185 14.538 185 13.5625H184H183C183 14.7953 183.233 15.9452 183.716 16.9959L184.625 16.5781ZM184 13.5625H185C185 11.8293 185.452 10.6351 186.221 9.83316L185.5 9.14062L184.779 8.44809C183.548 9.72949 183 11.4832 183 13.5625H184ZM185.5 9.14062L186.221 9.83316C186.982 9.0409 188.121 8.57812 189.797 8.57812V7.57812V6.57812C187.743 6.57812 186.018 7.15702 184.779 8.44809L185.5 9.14062ZM189.797 7.57812V8.57812C190.076 8.57812 190.42 8.61125 190.837 8.68699L191.016 7.70312L191.195 6.71926C190.694 6.62833 190.226 6.57812 189.797 6.57812V7.57812ZM191.016 7.70312L190.859 8.69071C191.298 8.76062 191.578 8.82781 191.734 8.882L192.062 7.9375L192.391 6.993C192.068 6.88052 191.65 6.79147 191.173 6.71554L191.016 7.70312ZM192.062 7.9375V8.9375H197.016V7.9375V6.9375H192.062V7.9375ZM186.781 27.8438H185.781C185.781 28.7522 186.074 29.5858 186.773 30.1824L187.422 29.4219L188.071 28.6613C187.916 28.5288 187.781 28.3103 187.781 27.8438H186.781ZM187.422 29.4219L186.771 30.1811C187.45 30.7629 188.334 30.9844 189.281 30.9844V29.9844V28.9844C188.625 28.9844 188.269 28.8309 188.073 28.6626L187.422 29.4219ZM189.281 29.9844V30.9844C190.639 30.9844 191.841 30.7314 192.718 30.0592L192.109 29.2656L191.501 28.472C191.128 28.7582 190.444 28.9844 189.281 28.9844V29.9844ZM192.109 29.2656L192.711 30.0641C193.611 29.3858 194.062 28.4268 194.062 27.2969H193.062H192.062C192.062 27.8337 191.879 28.1872 191.507 28.4672L192.109 29.2656ZM193.062 27.2969H194.062C194.062 26.4915 193.851 25.6609 193.166 25.1208L192.547 25.9062L191.928 26.6917C191.93 26.6933 192.062 26.7897 192.062 27.2969H193.062ZM192.547 25.9062L193.177 25.1301C192.843 24.858 192.433 24.7095 192.034 24.6239C191.627 24.5364 191.163 24.5 190.656 24.5V25.5V26.5C191.077 26.5 191.391 26.5313 191.614 26.5792C191.846 26.629 191.918 26.6837 191.916 26.6824L192.547 25.9062ZM190.656 25.5V24.5H188.641V25.5V26.5H190.656V25.5ZM188.641 25.5V24.5C187.794 24.5 187.052 24.8309 186.51 25.4886L187.281 26.125L188.053 26.7614C188.198 26.5857 188.362 26.5 188.641 26.5V25.5ZM187.281 26.125L186.493 25.5097C185.984 26.1624 185.781 26.9749 185.781 27.8438H186.781H187.781C187.781 27.2751 187.912 26.9417 188.07 26.7403L187.281 26.125ZM188.062 13.5938H187.062C187.062 14.6809 187.21 15.6568 187.625 16.3932C188.087 17.2135 188.849 17.6719 189.797 17.6719V16.6719V15.6719C189.588 15.6719 189.483 15.6172 189.367 15.4115C189.204 15.1218 189.062 14.5587 189.062 13.5938H188.062ZM189.797 16.6719V17.6719C190.237 17.6719 190.67 17.5685 191.059 17.3296C191.445 17.0923 191.733 16.7552 191.941 16.3715C192.342 15.6343 192.484 14.6567 192.484 13.5625H191.484H190.484C190.484 14.5412 190.346 15.1183 190.184 15.4175C190.111 15.5521 190.047 15.6037 190.012 15.6254C189.979 15.6456 189.919 15.6719 189.797 15.6719V16.6719ZM191.484 13.5625H192.484C192.484 12.4444 192.342 11.4513 191.946 10.704C191.741 10.3155 191.455 9.97149 191.068 9.72799C190.678 9.48224 190.242 9.375 189.797 9.375V10.375V11.375C189.914 11.375 189.971 11.4006 190.002 11.4205C190.037 11.4426 190.103 11.497 190.179 11.6398C190.346 11.955 190.484 12.5556 190.484 13.5625H191.484ZM189.797 10.375V9.375C189.347 9.375 188.907 9.48125 188.512 9.72574C188.12 9.96852 187.827 10.313 187.616 10.7053C187.209 11.46 187.062 12.4637 187.062 13.5938H188.062H189.062C189.062 12.5779 189.205 11.9723 189.376 11.654C189.454 11.5099 189.523 11.4521 189.564 11.4266C189.603 11.4029 189.668 11.375 189.797 11.375V10.375ZM207.781 25.3125H206.781V26.3125H207.781V25.3125ZM203.891 12.4531L204.795 12.8789L204.797 12.8749L203.891 12.4531ZM203.266 25.3125V26.3125H204.266V25.3125H203.266ZM199.109 25.3125H198.109V26.3125H199.109V25.3125ZM199.109 7.90625V6.90625H198.109V7.90625H199.109ZM202.406 7.90625L203.382 7.68787L203.207 6.90625H202.406V7.90625ZM202.906 10.1406L201.93 10.359L202.105 11.1406H202.906V10.1406ZM203.172 10.1406V11.1406H203.808L204.078 10.5642L203.172 10.1406ZM204.781 8.26562L205.321 9.10726L205.33 9.10149L204.781 8.26562ZM210.781 9.20312L209.97 9.78806L209.974 9.79314L210.781 9.20312ZM211.969 25.3125V26.3125H212.969V25.3125H211.969ZM207.781 25.3125H208.781V14.9375H207.781H206.781V25.3125H207.781ZM207.781 14.9375H208.781C208.781 13.6264 208.629 12.4985 208.234 11.6544L207.328 12.0781L206.422 12.5018C206.632 12.9494 206.781 13.7278 206.781 14.9375H207.781ZM207.328 12.0781L208.234 11.6544C208.022 11.2005 207.714 10.7998 207.285 10.5168C206.853 10.2317 206.363 10.1094 205.859 10.1094V11.1094V12.1094C206.033 12.1094 206.126 12.1486 206.184 12.1863C206.244 12.2262 206.333 12.3099 206.422 12.5018L207.328 12.0781ZM205.859 11.1094V10.1094C205.237 10.1094 204.647 10.2679 204.132 10.6194C203.623 10.9667 203.25 11.4598 202.984 12.0314L203.891 12.4531L204.797 12.8749C204.948 12.5507 205.112 12.3718 205.259 12.2713C205.4 12.1748 205.586 12.1094 205.859 12.1094V11.1094ZM203.891 12.4531L202.986 12.0273C202.468 13.1285 202.266 14.8236 202.266 16.9531H203.266H204.266C204.266 14.8535 204.48 13.5485 204.795 12.8789L203.891 12.4531ZM203.266 16.9531H202.266V25.3125H203.266H204.266V16.9531H203.266ZM203.266 25.3125V24.3125H199.109V25.3125V26.3125H203.266V25.3125ZM199.109 25.3125H200.109V7.90625H199.109H198.109V25.3125H199.109ZM199.109 7.90625V8.90625H202.406V7.90625V6.90625H199.109V7.90625ZM202.406 7.90625L201.43 8.12463L201.93 10.359L202.906 10.1406L203.882 9.92225L203.382 7.68787L202.406 7.90625ZM202.906 10.1406V11.1406H203.172V10.1406V9.14062H202.906V10.1406ZM203.172 10.1406L204.078 10.5642C204.378 9.92107 204.793 9.44613 205.321 9.10721L204.781 8.26562L204.241 7.42404C203.373 7.98095 202.715 8.75601 202.266 9.71709L203.172 10.1406ZM204.781 8.26562L205.33 9.10149C205.846 8.76307 206.467 8.57812 207.234 8.57812V7.57812V6.57812C206.127 6.57812 205.113 6.85151 204.232 7.42976L204.781 8.26562ZM207.234 7.57812V8.57812C208.564 8.57812 209.413 9.01583 209.97 9.78805L210.781 9.20312L211.592 8.6182C210.587 7.22376 209.071 6.57812 207.234 6.57812V7.57812ZM210.781 9.20312L209.974 9.79314C210.588 10.634 210.969 11.9723 210.969 13.9531H211.969H212.969C212.969 11.7672 212.557 9.93892 211.589 8.61311L210.781 9.20312ZM211.969 13.9531H210.969V25.3125H211.969H212.969V13.9531H211.969ZM211.969 25.3125V24.3125H207.781V25.3125V26.3125H211.969V25.3125Z" fill="#01410B" mask="url(#path-1-outside-1_0_3)"/>
</svg>
