<svg width="319" height="50" viewBox="0 0 319 50" fill="none" xmlns="http://www.w3.org/2000/svg">
<mask id="path-1-outside-1_0_3" maskUnits="userSpaceOnUse" x="-0.734375" y="-0.53125" width="320" height="51" fill="black">
<rect fill="white" x="-0.734375" y="-0.53125" width="320" height="51"/>
<path d="M11.5469 37.9375C8.28125 37.9375 5.70312 36.7812 3.8125 34.4688C1.9375 32.1406 1 28.8516 1 24.6016C1 20.2891 1.85156 16.9219 3.55469 14.5C5.25781 12.0781 7.63281 10.8672 10.6797 10.8672C13.5234 10.8672 15.7656 11.9062 17.4062 13.9844C19.0469 16.0469 19.8672 18.9453 19.8672 22.6797V26.0078H7.32812C7.375 28.3359 7.85156 30.0703 8.75781 31.2109C9.66406 32.3359 10.9141 32.8984 12.5078 32.8984C14.5391 32.8984 16.6172 32.2656 18.7422 31V36.1328C16.7422 37.3359 14.3438 37.9375 11.5469 37.9375ZM10.6328 15.6719C9.74219 15.6719 9.00781 16.1484 8.42969 17.1016C7.85156 18.0391 7.51562 19.5 7.42188 21.4844H13.75C13.7188 19.5781 13.4297 18.1328 12.8828 17.1484C12.3359 16.1641 11.5859 15.6719 10.6328 15.6719ZM37 37.4688V21.9062C37 20.0156 36.7734 18.5859 36.3203 17.6172C35.8672 16.6484 35.1328 16.1641 34.1172 16.1641C32.7734 16.1641 31.7891 16.8359 31.1641 18.1797C30.5391 19.5078 30.2266 21.7578 30.2266 24.9297V37.4688H23.9922V11.3594H28.9375L29.6875 14.7109H30.0859C30.6484 13.5078 31.4531 12.5703 32.5 11.8984C33.5469 11.2109 34.7734 10.8672 36.1797 10.8672C38.5547 10.8672 40.3281 11.6797 41.5 13.3047C42.6875 14.9297 43.2812 17.3047 43.2812 20.4297V37.4688H37ZM54.4609 23.4062L56.0312 20.2891L61.1875 11.3594H67.7969L61.1875 22.0703L68.2422 37.4688H61.7031L56.9922 26.4297L54.5547 28.6328V37.4688H48.3203V1H54.5547V18.1797L54.2734 23.4062H54.4609ZM83.7578 37.4688L82.5156 33.9062H82.375C81.4531 35.4375 80.5 36.4922 79.5156 37.0703C78.5312 37.6484 77.2891 37.9375 75.7891 37.9375C73.8672 37.9375 72.3516 37.2188 71.2422 35.7812C70.1484 34.3438 69.6016 32.3438 69.6016 29.7812C69.6016 27.0312 70.3516 24.9922 71.8516 23.6641C73.3672 22.3203 75.625 21.5781 78.625 21.4375L82.0938 21.2969V19.4219C82.0938 16.9844 81.0391 15.7656 78.9297 15.7656C77.3672 15.7656 75.5703 16.375 73.5391 17.5938L71.3828 13.2812C73.9766 11.6406 76.7969 10.8203 79.8438 10.8203C82.6094 10.8203 84.7109 11.6172 86.1484 13.2109C87.6016 14.7891 88.3281 17.0312 88.3281 19.9375V37.4688H83.7578ZM78.3438 33.0625C79.4844 33.0625 80.3906 32.5547 81.0625 31.5391C81.75 30.5078 82.0938 29.1406 82.0938 27.4375V25.2344L80.1719 25.3281C78.75 25.4062 77.7031 25.8125 77.0312 26.5469C76.375 27.2812 76.0469 28.375 76.0469 29.8281C76.0469 31.9844 76.8125 33.0625 78.3438 33.0625ZM105.156 10.8672C107.531 10.8672 109.398 12.0469 110.758 14.4062C112.117 16.7656 112.797 20.0859 112.797 24.3672C112.797 28.6953 112.109 32.0391 110.734 34.3984C109.375 36.7578 107.484 37.9375 105.062 37.9375C103.891 37.9375 102.852 37.6875 101.945 37.1875C101.055 36.6719 100.211 35.7734 99.4141 34.4922H99.0156L97.9609 37.4688H93.3672V1H99.6016V9.53125C99.6016 9.89062 99.5938 10.2656 99.5781 10.6562C99.5625 11.0469 99.4609 12.4141 99.2734 14.7578H99.6016C100.367 13.3203 101.195 12.3125 102.086 11.7344C102.977 11.1562 104 10.8672 105.156 10.8672ZM103 16.1641C101.812 16.1641 100.953 16.7188 100.422 17.8281C99.9062 18.9375 99.6328 20.8906 99.6016 23.6875V24.3203C99.6016 27.3516 99.8672 29.4844 100.398 30.7188C100.945 31.9531 101.828 32.5703 103.047 32.5703C105.297 32.5703 106.422 29.8047 106.422 24.2734C106.422 18.8672 105.281 16.1641 103 16.1641Z"/>
<path d="M135.367 37.4688L132.766 22.3047L131.852 15.9062H131.758C131.523 17.9844 131.336 19.4922 131.195 20.4297C131.055 21.3516 130.062 27.0312 128.219 37.4688H120.203L115 11.3594H121.258L123.648 25.75C123.93 27.3438 124.188 29.6797 124.422 32.7578H124.562C124.594 31.9297 124.703 30.6719 124.891 28.9844C125.078 27.2812 125.211 26.1875 125.289 25.7031L127.867 11.3594H135.883L138.438 25.75C138.734 27.2812 138.992 29.6172 139.211 32.7578H139.305C139.523 29.9609 139.797 27.625 140.125 25.75L142.609 11.3594H148.703L143.477 37.4688H135.367ZM161.5 37.9375C158.234 37.9375 155.656 36.7812 153.766 34.4688C151.891 32.1406 150.953 28.8516 150.953 24.6016C150.953 20.2891 151.805 16.9219 153.508 14.5C155.211 12.0781 157.586 10.8672 160.633 10.8672C163.477 10.8672 165.719 11.9062 167.359 13.9844C169 16.0469 169.82 18.9453 169.82 22.6797V26.0078H157.281C157.328 28.3359 157.805 30.0703 158.711 31.2109C159.617 32.3359 160.867 32.8984 162.461 32.8984C164.492 32.8984 166.57 32.2656 168.695 31V36.1328C166.695 37.3359 164.297 37.9375 161.5 37.9375ZM160.586 15.6719C159.695 15.6719 158.961 16.1484 158.383 17.1016C157.805 18.0391 157.469 19.5 157.375 21.4844H163.703C163.672 19.5781 163.383 18.1328 162.836 17.1484C162.289 16.1641 161.539 15.6719 160.586 15.6719ZM185.734 10.8672C188.109 10.8672 189.977 12.0469 191.336 14.4062C192.695 16.7656 193.375 20.0859 193.375 24.3672C193.375 28.6953 192.688 32.0391 191.312 34.3984C189.953 36.7578 188.062 37.9375 185.641 37.9375C184.469 37.9375 183.43 37.6875 182.523 37.1875C181.633 36.6719 180.789 35.7734 179.992 34.4922H179.594L178.539 37.4688H173.945V1H180.18V9.53125C180.18 9.89062 180.172 10.2656 180.156 10.6562C180.141 11.0469 180.039 12.4141 179.852 14.7578H180.18C180.945 13.3203 181.773 12.3125 182.664 11.7344C183.555 11.1562 184.578 10.8672 185.734 10.8672ZM183.578 16.1641C182.391 16.1641 181.531 16.7188 181 17.8281C180.484 18.9375 180.211 20.8906 180.18 23.6875V24.3203C180.18 27.3516 180.445 29.4844 180.977 30.7188C181.523 31.9531 182.406 32.5703 183.625 32.5703C185.875 32.5703 187 29.8047 187 24.2734C187 18.8672 185.859 16.1641 183.578 16.1641ZM219.93 20.0078C219.93 25.6641 218.773 29.9922 216.461 32.9922C214.164 35.9766 210.852 37.4688 206.523 37.4688H198.133V3.20312H207.297C211.281 3.20312 214.383 4.67969 216.602 7.63281C218.82 10.5703 219.93 14.6953 219.93 20.0078ZM213.391 20.1953C213.391 12.5391 211.281 8.71094 207.062 8.71094H204.508V31.8906H206.57C208.898 31.8906 210.617 30.9219 211.727 28.9844C212.836 27.0312 213.391 24.1016 213.391 20.1953ZM234.203 37.9375C230.938 37.9375 228.359 36.7812 226.469 34.4688C224.594 32.1406 223.656 28.8516 223.656 24.6016C223.656 20.2891 224.508 16.9219 226.211 14.5C227.914 12.0781 230.289 10.8672 233.336 10.8672C236.18 10.8672 238.422 11.9062 240.062 13.9844C241.703 16.0469 242.523 18.9453 242.523 22.6797V26.0078H229.984C230.031 28.3359 230.508 30.0703 231.414 31.2109C232.32 32.3359 233.57 32.8984 235.164 32.8984C237.195 32.8984 239.273 32.2656 241.398 31V36.1328C239.398 37.3359 237 37.9375 234.203 37.9375ZM233.289 15.6719C232.398 15.6719 231.664 16.1484 231.086 17.1016C230.508 18.0391 230.172 19.5 230.078 21.4844H236.406C236.375 19.5781 236.086 18.1328 235.539 17.1484C234.992 16.1641 234.242 15.6719 233.289 15.6719ZM260.664 29.8281C260.664 32.375 259.914 34.3672 258.414 35.8047C256.93 37.2266 254.734 37.9375 251.828 37.9375C249.25 37.9375 247.117 37.4297 245.43 36.4141V31C246.289 31.5938 247.289 32.0859 248.43 32.4766C249.586 32.8672 250.602 33.0625 251.477 33.0625C252.445 33.0625 253.18 32.8281 253.68 32.3594C254.195 31.875 254.453 31.2422 254.453 30.4609C254.453 29.6641 254.188 28.9688 253.656 28.375C253.125 27.7812 252.148 27.0547 250.727 26.1953C248.836 25.0703 247.477 23.875 246.648 22.6094C245.836 21.3281 245.43 19.8203 245.43 18.0859C245.43 15.8672 246.188 14.1094 247.703 12.8125C249.234 11.5156 251.328 10.8672 253.984 10.8672C256.297 10.8672 258.477 11.4766 260.523 12.6953L258.484 17.1719C256.812 16.2656 255.344 15.8125 254.078 15.8125C253.281 15.8125 252.68 16.0234 252.273 16.4453C251.883 16.8672 251.688 17.3828 251.688 17.9922C251.688 18.6953 251.93 19.3203 252.414 19.8672C252.914 20.4141 253.836 21.0938 255.18 21.9062C256.805 22.8906 257.945 23.7266 258.602 24.4141C259.258 25.1016 259.766 25.8828 260.125 26.7578C260.484 27.6328 260.664 28.6562 260.664 29.8281ZM270.883 37.4688H264.648V11.3594H270.883V37.4688ZM264.391 4.53906C264.391 3.50781 264.688 2.69531 265.281 2.10156C265.891 1.49219 266.734 1.1875 267.812 1.1875C268.828 1.1875 269.641 1.49219 270.25 2.10156C270.859 2.69531 271.164 3.50781 271.164 4.53906C271.164 5.60156 270.852 6.42969 270.227 7.02344C269.602 7.60156 268.797 7.89062 267.812 7.89062C266.781 7.89062 265.953 7.60156 265.328 7.02344C264.703 6.42969 264.391 5.60156 264.391 4.53906ZM295.023 11.4062V15.0625L291.906 15.7656C292.516 16.8594 292.82 18.2344 292.82 19.8906C292.82 22.6562 292.07 24.8203 290.57 26.3828C289.07 27.9453 286.977 28.7266 284.289 28.7266C283.508 28.7266 282.93 28.6641 282.555 28.5391C282.258 28.8047 281.977 29.1016 281.711 29.4297C281.445 29.7578 281.312 30.1641 281.312 30.6484C281.312 31.7422 282.258 32.2891 284.148 32.2891H287.922C290.141 32.2891 291.844 32.8906 293.031 34.0938C294.234 35.2812 294.836 37.0781 294.836 39.4844C294.836 42.5156 293.82 44.8594 291.789 46.5156C289.758 48.1719 286.836 49 283.023 49C280.133 49 277.906 48.3672 276.344 47.1016C274.781 45.8516 274 44.0625 274 41.7344C274 40.2812 274.445 39 275.336 37.8906C276.227 36.7969 277.461 36 279.039 35.5C278.242 35.1875 277.586 34.7031 277.07 34.0469C276.57 33.3906 276.32 32.625 276.32 31.75C276.32 31.2188 276.398 30.7422 276.555 30.3203C276.711 29.8828 276.93 29.4766 277.211 29.1016C277.508 28.7109 278.102 28.1406 278.992 27.3906C277.914 26.7344 277.062 25.7266 276.438 24.3672C275.812 23.0078 275.5 21.5 275.5 19.8438C275.5 16.9844 276.25 14.7734 277.75 13.2109C279.25 11.6484 281.398 10.8672 284.195 10.8672C284.727 10.8672 285.336 10.9297 286.023 11.0547C286.711 11.1641 287.234 11.2812 287.594 11.4062H295.023ZM279.672 41.2656C279.672 42.2969 279.992 43.0859 280.633 43.6328C281.289 44.1953 282.219 44.4766 283.422 44.4766C285.312 44.4766 286.727 44.1172 287.664 43.3984C288.617 42.6797 289.094 41.6953 289.094 40.4453C289.094 39.4609 288.836 38.7656 288.32 38.3594C287.82 37.9531 286.875 37.75 285.484 37.75H282.461C281.617 37.75 280.938 38.0625 280.422 38.6875C279.922 39.3281 279.672 40.1875 279.672 41.2656ZM281.594 19.8906C281.594 22.9688 282.461 24.5078 284.195 24.5078C285.883 24.5078 286.727 22.9531 286.727 19.8438C286.727 16.6562 285.883 15.0625 284.195 15.0625C282.461 15.0625 281.594 16.6719 281.594 19.8906ZM311.172 37.4688V21.9062C311.172 20.0156 310.945 18.5859 310.492 17.6172C310.039 16.6484 309.305 16.1641 308.289 16.1641C306.945 16.1641 305.961 16.8359 305.336 18.1797C304.711 19.5078 304.398 21.7578 304.398 24.9297V37.4688H298.164V11.3594H303.109L303.859 14.7109H304.258C304.82 13.5078 305.625 12.5703 306.672 11.8984C307.719 11.2109 308.945 10.8672 310.352 10.8672C312.727 10.8672 314.5 11.6797 315.672 13.3047C316.859 14.9297 317.453 17.3047 317.453 20.4297V37.4688H311.172Z"/>
</mask>
<path d="M11.5469 37.9375C8.28125 37.9375 5.70312 36.7812 3.8125 34.4688C1.9375 32.1406 1 28.8516 1 24.6016C1 20.2891 1.85156 16.9219 3.55469 14.5C5.25781 12.0781 7.63281 10.8672 10.6797 10.8672C13.5234 10.8672 15.7656 11.9062 17.4062 13.9844C19.0469 16.0469 19.8672 18.9453 19.8672 22.6797V26.0078H7.32812C7.375 28.3359 7.85156 30.0703 8.75781 31.2109C9.66406 32.3359 10.9141 32.8984 12.5078 32.8984C14.5391 32.8984 16.6172 32.2656 18.7422 31V36.1328C16.7422 37.3359 14.3438 37.9375 11.5469 37.9375ZM10.6328 15.6719C9.74219 15.6719 9.00781 16.1484 8.42969 17.1016C7.85156 18.0391 7.51562 19.5 7.42188 21.4844H13.75C13.7188 19.5781 13.4297 18.1328 12.8828 17.1484C12.3359 16.1641 11.5859 15.6719 10.6328 15.6719ZM37 37.4688V21.9062C37 20.0156 36.7734 18.5859 36.3203 17.6172C35.8672 16.6484 35.1328 16.1641 34.1172 16.1641C32.7734 16.1641 31.7891 16.8359 31.1641 18.1797C30.5391 19.5078 30.2266 21.7578 30.2266 24.9297V37.4688H23.9922V11.3594H28.9375L29.6875 14.7109H30.0859C30.6484 13.5078 31.4531 12.5703 32.5 11.8984C33.5469 11.2109 34.7734 10.8672 36.1797 10.8672C38.5547 10.8672 40.3281 11.6797 41.5 13.3047C42.6875 14.9297 43.2812 17.3047 43.2812 20.4297V37.4688H37ZM54.4609 23.4062L56.0312 20.2891L61.1875 11.3594H67.7969L61.1875 22.0703L68.2422 37.4688H61.7031L56.9922 26.4297L54.5547 28.6328V37.4688H48.3203V1H54.5547V18.1797L54.2734 23.4062H54.4609ZM83.7578 37.4688L82.5156 33.9062H82.375C81.4531 35.4375 80.5 36.4922 79.5156 37.0703C78.5312 37.6484 77.2891 37.9375 75.7891 37.9375C73.8672 37.9375 72.3516 37.2188 71.2422 35.7812C70.1484 34.3438 69.6016 32.3438 69.6016 29.7812C69.6016 27.0312 70.3516 24.9922 71.8516 23.6641C73.3672 22.3203 75.625 21.5781 78.625 21.4375L82.0938 21.2969V19.4219C82.0938 16.9844 81.0391 15.7656 78.9297 15.7656C77.3672 15.7656 75.5703 16.375 73.5391 17.5938L71.3828 13.2812C73.9766 11.6406 76.7969 10.8203 79.8438 10.8203C82.6094 10.8203 84.7109 11.6172 86.1484 13.2109C87.6016 14.7891 88.3281 17.0312 88.3281 19.9375V37.4688H83.7578ZM78.3438 33.0625C79.4844 33.0625 80.3906 32.5547 81.0625 31.5391C81.75 30.5078 82.0938 29.1406 82.0938 27.4375V25.2344L80.1719 25.3281C78.75 25.4062 77.7031 25.8125 77.0312 26.5469C76.375 27.2812 76.0469 28.375 76.0469 29.8281C76.0469 31.9844 76.8125 33.0625 78.3438 33.0625ZM105.156 10.8672C107.531 10.8672 109.398 12.0469 110.758 14.4062C112.117 16.7656 112.797 20.0859 112.797 24.3672C112.797 28.6953 112.109 32.0391 110.734 34.3984C109.375 36.7578 107.484 37.9375 105.062 37.9375C103.891 37.9375 102.852 37.6875 101.945 37.1875C101.055 36.6719 100.211 35.7734 99.4141 34.4922H99.0156L97.9609 37.4688H93.3672V1H99.6016V9.53125C99.6016 9.89062 99.5938 10.2656 99.5781 10.6562C99.5625 11.0469 99.4609 12.4141 99.2734 14.7578H99.6016C100.367 13.3203 101.195 12.3125 102.086 11.7344C102.977 11.1562 104 10.8672 105.156 10.8672ZM103 16.1641C101.812 16.1641 100.953 16.7188 100.422 17.8281C99.9062 18.9375 99.6328 20.8906 99.6016 23.6875V24.3203C99.6016 27.3516 99.8672 29.4844 100.398 30.7188C100.945 31.9531 101.828 32.5703 103.047 32.5703C105.297 32.5703 106.422 29.8047 106.422 24.2734C106.422 18.8672 105.281 16.1641 103 16.1641Z" fill="black"/>
<path d="M135.367 37.4688L132.766 22.3047L131.852 15.9062H131.758C131.523 17.9844 131.336 19.4922 131.195 20.4297C131.055 21.3516 130.062 27.0312 128.219 37.4688H120.203L115 11.3594H121.258L123.648 25.75C123.93 27.3438 124.188 29.6797 124.422 32.7578H124.562C124.594 31.9297 124.703 30.6719 124.891 28.9844C125.078 27.2812 125.211 26.1875 125.289 25.7031L127.867 11.3594H135.883L138.438 25.75C138.734 27.2812 138.992 29.6172 139.211 32.7578H139.305C139.523 29.9609 139.797 27.625 140.125 25.75L142.609 11.3594H148.703L143.477 37.4688H135.367ZM161.5 37.9375C158.234 37.9375 155.656 36.7812 153.766 34.4688C151.891 32.1406 150.953 28.8516 150.953 24.6016C150.953 20.2891 151.805 16.9219 153.508 14.5C155.211 12.0781 157.586 10.8672 160.633 10.8672C163.477 10.8672 165.719 11.9062 167.359 13.9844C169 16.0469 169.82 18.9453 169.82 22.6797V26.0078H157.281C157.328 28.3359 157.805 30.0703 158.711 31.2109C159.617 32.3359 160.867 32.8984 162.461 32.8984C164.492 32.8984 166.57 32.2656 168.695 31V36.1328C166.695 37.3359 164.297 37.9375 161.5 37.9375ZM160.586 15.6719C159.695 15.6719 158.961 16.1484 158.383 17.1016C157.805 18.0391 157.469 19.5 157.375 21.4844H163.703C163.672 19.5781 163.383 18.1328 162.836 17.1484C162.289 16.1641 161.539 15.6719 160.586 15.6719ZM185.734 10.8672C188.109 10.8672 189.977 12.0469 191.336 14.4062C192.695 16.7656 193.375 20.0859 193.375 24.3672C193.375 28.6953 192.688 32.0391 191.312 34.3984C189.953 36.7578 188.062 37.9375 185.641 37.9375C184.469 37.9375 183.43 37.6875 182.523 37.1875C181.633 36.6719 180.789 35.7734 179.992 34.4922H179.594L178.539 37.4688H173.945V1H180.18V9.53125C180.18 9.89062 180.172 10.2656 180.156 10.6562C180.141 11.0469 180.039 12.4141 179.852 14.7578H180.18C180.945 13.3203 181.773 12.3125 182.664 11.7344C183.555 11.1562 184.578 10.8672 185.734 10.8672ZM183.578 16.1641C182.391 16.1641 181.531 16.7188 181 17.8281C180.484 18.9375 180.211 20.8906 180.18 23.6875V24.3203C180.18 27.3516 180.445 29.4844 180.977 30.7188C181.523 31.9531 182.406 32.5703 183.625 32.5703C185.875 32.5703 187 29.8047 187 24.2734C187 18.8672 185.859 16.1641 183.578 16.1641ZM219.93 20.0078C219.93 25.6641 218.773 29.9922 216.461 32.9922C214.164 35.9766 210.852 37.4688 206.523 37.4688H198.133V3.20312H207.297C211.281 3.20312 214.383 4.67969 216.602 7.63281C218.82 10.5703 219.93 14.6953 219.93 20.0078ZM213.391 20.1953C213.391 12.5391 211.281 8.71094 207.062 8.71094H204.508V31.8906H206.57C208.898 31.8906 210.617 30.9219 211.727 28.9844C212.836 27.0312 213.391 24.1016 213.391 20.1953ZM234.203 37.9375C230.938 37.9375 228.359 36.7812 226.469 34.4688C224.594 32.1406 223.656 28.8516 223.656 24.6016C223.656 20.2891 224.508 16.9219 226.211 14.5C227.914 12.0781 230.289 10.8672 233.336 10.8672C236.18 10.8672 238.422 11.9062 240.062 13.9844C241.703 16.0469 242.523 18.9453 242.523 22.6797V26.0078H229.984C230.031 28.3359 230.508 30.0703 231.414 31.2109C232.32 32.3359 233.57 32.8984 235.164 32.8984C237.195 32.8984 239.273 32.2656 241.398 31V36.1328C239.398 37.3359 237 37.9375 234.203 37.9375ZM233.289 15.6719C232.398 15.6719 231.664 16.1484 231.086 17.1016C230.508 18.0391 230.172 19.5 230.078 21.4844H236.406C236.375 19.5781 236.086 18.1328 235.539 17.1484C234.992 16.1641 234.242 15.6719 233.289 15.6719ZM260.664 29.8281C260.664 32.375 259.914 34.3672 258.414 35.8047C256.93 37.2266 254.734 37.9375 251.828 37.9375C249.25 37.9375 247.117 37.4297 245.43 36.4141V31C246.289 31.5938 247.289 32.0859 248.43 32.4766C249.586 32.8672 250.602 33.0625 251.477 33.0625C252.445 33.0625 253.18 32.8281 253.68 32.3594C254.195 31.875 254.453 31.2422 254.453 30.4609C254.453 29.6641 254.188 28.9688 253.656 28.375C253.125 27.7812 252.148 27.0547 250.727 26.1953C248.836 25.0703 247.477 23.875 246.648 22.6094C245.836 21.3281 245.43 19.8203 245.43 18.0859C245.43 15.8672 246.188 14.1094 247.703 12.8125C249.234 11.5156 251.328 10.8672 253.984 10.8672C256.297 10.8672 258.477 11.4766 260.523 12.6953L258.484 17.1719C256.812 16.2656 255.344 15.8125 254.078 15.8125C253.281 15.8125 252.68 16.0234 252.273 16.4453C251.883 16.8672 251.688 17.3828 251.688 17.9922C251.688 18.6953 251.93 19.3203 252.414 19.8672C252.914 20.4141 253.836 21.0938 255.18 21.9062C256.805 22.8906 257.945 23.7266 258.602 24.4141C259.258 25.1016 259.766 25.8828 260.125 26.7578C260.484 27.6328 260.664 28.6562 260.664 29.8281ZM270.883 37.4688H264.648V11.3594H270.883V37.4688ZM264.391 4.53906C264.391 3.50781 264.688 2.69531 265.281 2.10156C265.891 1.49219 266.734 1.1875 267.812 1.1875C268.828 1.1875 269.641 1.49219 270.25 2.10156C270.859 2.69531 271.164 3.50781 271.164 4.53906C271.164 5.60156 270.852 6.42969 270.227 7.02344C269.602 7.60156 268.797 7.89062 267.812 7.89062C266.781 7.89062 265.953 7.60156 265.328 7.02344C264.703 6.42969 264.391 5.60156 264.391 4.53906ZM295.023 11.4062V15.0625L291.906 15.7656C292.516 16.8594 292.82 18.2344 292.82 19.8906C292.82 22.6562 292.07 24.8203 290.57 26.3828C289.07 27.9453 286.977 28.7266 284.289 28.7266C283.508 28.7266 282.93 28.6641 282.555 28.5391C282.258 28.8047 281.977 29.1016 281.711 29.4297C281.445 29.7578 281.312 30.1641 281.312 30.6484C281.312 31.7422 282.258 32.2891 284.148 32.2891H287.922C290.141 32.2891 291.844 32.8906 293.031 34.0938C294.234 35.2812 294.836 37.0781 294.836 39.4844C294.836 42.5156 293.82 44.8594 291.789 46.5156C289.758 48.1719 286.836 49 283.023 49C280.133 49 277.906 48.3672 276.344 47.1016C274.781 45.8516 274 44.0625 274 41.7344C274 40.2812 274.445 39 275.336 37.8906C276.227 36.7969 277.461 36 279.039 35.5C278.242 35.1875 277.586 34.7031 277.07 34.0469C276.57 33.3906 276.32 32.625 276.32 31.75C276.32 31.2188 276.398 30.7422 276.555 30.3203C276.711 29.8828 276.93 29.4766 277.211 29.1016C277.508 28.7109 278.102 28.1406 278.992 27.3906C277.914 26.7344 277.062 25.7266 276.438 24.3672C275.812 23.0078 275.5 21.5 275.5 19.8438C275.5 16.9844 276.25 14.7734 277.75 13.2109C279.25 11.6484 281.398 10.8672 284.195 10.8672C284.727 10.8672 285.336 10.9297 286.023 11.0547C286.711 11.1641 287.234 11.2812 287.594 11.4062H295.023ZM279.672 41.2656C279.672 42.2969 279.992 43.0859 280.633 43.6328C281.289 44.1953 282.219 44.4766 283.422 44.4766C285.312 44.4766 286.727 44.1172 287.664 43.3984C288.617 42.6797 289.094 41.6953 289.094 40.4453C289.094 39.4609 288.836 38.7656 288.32 38.3594C287.82 37.9531 286.875 37.75 285.484 37.75H282.461C281.617 37.75 280.938 38.0625 280.422 38.6875C279.922 39.3281 279.672 40.1875 279.672 41.2656ZM281.594 19.8906C281.594 22.9688 282.461 24.5078 284.195 24.5078C285.883 24.5078 286.727 22.9531 286.727 19.8438C286.727 16.6562 285.883 15.0625 284.195 15.0625C282.461 15.0625 281.594 16.6719 281.594 19.8906ZM311.172 37.4688V21.9062C311.172 20.0156 310.945 18.5859 310.492 17.6172C310.039 16.6484 309.305 16.1641 308.289 16.1641C306.945 16.1641 305.961 16.8359 305.336 18.1797C304.711 19.5078 304.398 21.7578 304.398 24.9297V37.4688H298.164V11.3594H303.109L303.859 14.7109H304.258C304.82 13.5078 305.625 12.5703 306.672 11.8984C307.719 11.2109 308.945 10.8672 310.352 10.8672C312.727 10.8672 314.5 11.6797 315.672 13.3047C316.859 14.9297 317.453 17.3047 317.453 20.4297V37.4688H311.172Z" fill="#A7A7A7"/>
<path d="M3.8125 34.4688L3.03365 35.096L3.03831 35.1017L3.8125 34.4688ZM17.4062 13.9844L16.6214 14.604L16.6236 14.6069L17.4062 13.9844ZM19.8672 26.0078V27.0078H20.8672V26.0078H19.8672ZM7.32812 26.0078V25.0078H6.30779L6.32833 26.0279L7.32812 26.0078ZM8.75781 31.2109L7.97484 31.833L7.97906 31.8383L8.75781 31.2109ZM18.7422 31H19.7422V29.2405L18.2305 30.1408L18.7422 31ZM18.7422 36.1328L19.2577 36.9897L19.7422 36.6982V36.1328H18.7422ZM8.42969 17.1016L9.28088 17.6265L9.2847 17.6202L8.42969 17.1016ZM7.42188 21.4844L6.42299 21.4372L6.37352 22.4844H7.42188V21.4844ZM13.75 21.4844V22.4844H14.7665L14.7499 21.468L13.75 21.4844ZM11.5469 37.9375V36.9375C8.54945 36.9375 6.2681 35.8924 4.58669 33.8358L3.8125 34.4688L3.03831 35.1017C5.13815 37.6701 8.01305 38.9375 11.5469 38.9375V37.9375ZM3.8125 34.4688L4.59132 33.8415C2.90908 31.7527 2 28.7176 2 24.6016H1H0C0 28.9856 0.965919 32.5285 3.03368 35.096L3.8125 34.4688ZM1 24.6016H2C2 20.4053 2.83084 17.2678 4.37268 15.0752L3.55469 14.5L2.7367 13.9248C0.872286 16.576 0 20.1729 0 24.6016H1ZM3.55469 14.5L4.37268 15.0752C5.88215 12.9287 7.9471 11.8672 10.6797 11.8672V10.8672V9.86719C7.31853 9.86719 4.63348 11.2275 2.7367 13.9248L3.55469 14.5ZM10.6797 10.8672V11.8672C13.2435 11.8672 15.186 12.7859 16.6214 14.604L17.4062 13.9844L18.1911 13.3647C16.3453 11.0266 13.8034 9.86719 10.6797 9.86719V10.8672ZM17.4062 13.9844L16.6236 14.6069C18.0752 16.4317 18.8672 19.0792 18.8672 22.6797H19.8672H20.8672C20.8672 18.8114 20.0186 15.6621 18.1889 13.3619L17.4062 13.9844ZM19.8672 22.6797H18.8672V26.0078H19.8672H20.8672V22.6797H19.8672ZM19.8672 26.0078V25.0078H7.32812V26.0078V27.0078H19.8672V26.0078ZM7.32812 26.0078L6.32833 26.0279C6.37716 28.4534 6.87229 30.4453 7.97486 31.833L8.75781 31.2109L9.54077 30.5889C8.83084 29.6953 8.37284 28.2184 8.32792 25.9877L7.32812 26.0078ZM8.75781 31.2109L7.97906 31.8383C9.09638 33.2253 10.647 33.8984 12.5078 33.8984V32.8984V31.8984C11.1811 31.8984 10.2317 31.4466 9.53657 30.5836L8.75781 31.2109ZM12.5078 32.8984V33.8984C14.7547 33.8984 17.0078 33.1969 19.2539 31.8592L18.7422 31L18.2305 30.1408C16.2266 31.3343 14.3234 31.8984 12.5078 31.8984V32.8984ZM18.7422 31H17.7422V36.1328H18.7422H19.7422V31H18.7422ZM18.7422 36.1328L18.2267 35.2759C16.4107 36.3684 14.1983 36.9375 11.5469 36.9375V37.9375V38.9375C14.4892 38.9375 17.0737 38.3035 19.2577 36.9897L18.7422 36.1328ZM10.6328 15.6719V14.6719C9.30191 14.6719 8.28147 15.4177 7.57468 16.583L8.42969 17.1016L9.2847 17.6202C9.73416 16.8792 10.1825 16.6719 10.6328 16.6719V15.6719ZM8.42969 17.1016L7.57852 16.5767C6.86578 17.7325 6.51925 19.3997 6.42299 21.4372L7.42188 21.4844L8.42076 21.5316C8.512 19.6003 8.83734 18.3457 9.28086 17.6265L8.42969 17.1016ZM7.42188 21.4844V22.4844H13.75V21.4844V20.4844H7.42188V21.4844ZM13.75 21.4844L14.7499 21.468C14.7176 19.4971 14.4211 17.8582 13.757 16.6628L12.8828 17.1484L12.0087 17.6341C12.4383 18.4074 12.7199 19.6592 12.7501 21.5008L13.75 21.4844ZM12.8828 17.1484L13.757 16.6628C13.072 15.4298 12.0216 14.6719 10.6328 14.6719V15.6719V16.6719C11.1503 16.6719 11.5999 16.8983 12.0087 17.6341L12.8828 17.1484ZM37 37.4688H36V38.4688H37V37.4688ZM31.1641 18.1797L32.0689 18.6055L32.0708 18.6014L31.1641 18.1797ZM30.2266 37.4688V38.4688H31.2266V37.4688H30.2266ZM23.9922 37.4688H22.9922V38.4688H23.9922V37.4688ZM23.9922 11.3594V10.3594H22.9922V11.3594H23.9922ZM28.9375 11.3594L29.9134 11.141L29.7385 10.3594H28.9375V11.3594ZM29.6875 14.7109L28.7116 14.9293L28.8865 15.7109H29.6875V14.7109ZM30.0859 14.7109V15.7109H30.7223L30.9918 15.1345L30.0859 14.7109ZM32.5 11.8984L33.0402 12.7401L33.0489 12.7343L32.5 11.8984ZM41.5 13.3047L40.6889 13.8896L40.6926 13.8947L41.5 13.3047ZM43.2812 37.4688V38.4688H44.2812V37.4688H43.2812ZM37 37.4688H38V21.9062H37H36V37.4688H37ZM37 21.9062H38C38 19.9649 37.772 18.3605 37.2261 17.1935L36.3203 17.6172L35.4145 18.0409C35.7749 18.8114 36 20.0663 36 21.9062H37ZM36.3203 17.6172L37.2261 17.1935C36.9383 16.5781 36.5318 16.0563 35.9803 15.6926C35.4256 15.3267 34.7897 15.1641 34.1172 15.1641V16.1641V17.1641C34.4603 17.1641 34.6994 17.2436 34.8791 17.3621C35.062 17.4827 35.2492 17.6875 35.4145 18.0409L36.3203 17.6172ZM34.1172 16.1641V15.1641C33.2708 15.1641 32.4864 15.3786 31.8074 15.842C31.1343 16.3014 30.6274 16.9624 30.2573 17.758L31.1641 18.1797L32.0708 18.6014C32.3257 18.0533 32.6235 17.7064 32.9348 17.4939C33.2402 17.2855 33.6199 17.1641 34.1172 17.1641V16.1641ZM31.1641 18.1797L30.2592 17.7539C29.5327 19.2978 29.2266 21.7429 29.2266 24.9297H30.2266H31.2266C31.2266 21.7727 31.5454 19.7178 32.0689 18.6055L31.1641 18.1797ZM30.2266 24.9297H29.2266V37.4688H30.2266H31.2266V24.9297H30.2266ZM30.2266 37.4688V36.4688H23.9922V37.4688V38.4688H30.2266V37.4688ZM23.9922 37.4688H24.9922V11.3594H23.9922H22.9922V37.4688H23.9922ZM23.9922 11.3594V12.3594H28.9375V11.3594V10.3594H23.9922V11.3594ZM28.9375 11.3594L27.9616 11.5778L28.7116 14.9293L29.6875 14.7109L30.6634 14.4926L29.9134 11.141L28.9375 11.3594ZM29.6875 14.7109V15.7109H30.0859V14.7109V13.7109H29.6875V14.7109ZM30.0859 14.7109L30.9918 15.1345C31.48 14.0903 32.1631 13.3029 33.0401 12.74L32.5 11.8984L31.9599 11.0569C30.7432 11.8377 29.8169 12.9253 29.1801 14.2874L30.0859 14.7109ZM32.5 11.8984L33.0489 12.7343C33.9132 12.1667 34.9437 11.8672 36.1797 11.8672V10.8672V9.86719C34.6031 9.86719 33.1805 10.2552 31.9511 11.0626L32.5 11.8984ZM36.1797 10.8672V11.8672C38.3011 11.8672 39.7414 12.5757 40.6889 13.8896L41.5 13.3047L42.3111 12.7198C40.9149 10.7837 38.8083 9.86719 36.1797 9.86719V10.8672ZM41.5 13.3047L40.6926 13.8947C41.7029 15.2772 42.2812 17.4072 42.2812 20.4297H43.2812H44.2812C44.2812 17.2021 43.6721 14.5821 42.3074 12.7147L41.5 13.3047ZM43.2812 20.4297H42.2812V37.4688H43.2812H44.2812V20.4297H43.2812ZM43.2812 37.4688V36.4688H37V37.4688V38.4688H43.2812V37.4688ZM54.4609 23.4062V24.4062H55.0769L55.354 23.8561L54.4609 23.4062ZM56.0312 20.2891L55.1653 19.789L55.151 19.8137L55.1382 19.8392L56.0312 20.2891ZM61.1875 11.3594V10.3594H60.6102L60.3215 10.8593L61.1875 11.3594ZM67.7969 11.3594L68.6479 11.8845L69.589 10.3594H67.7969V11.3594ZM61.1875 22.0703L60.3365 21.5452L60.0555 22.0005L60.2784 22.4868L61.1875 22.0703ZM68.2422 37.4688V38.4688H69.8003L69.1513 37.0522L68.2422 37.4688ZM61.7031 37.4688L60.7834 37.8613L61.0426 38.4688H61.7031V37.4688ZM56.9922 26.4297L57.9119 26.0372L57.3617 24.7478L56.3216 25.6878L56.9922 26.4297ZM54.5547 28.6328L53.8841 27.8909L53.5547 28.1887V28.6328H54.5547ZM54.5547 37.4688V38.4688H55.5547V37.4688H54.5547ZM48.3203 37.4688H47.3203V38.4688H48.3203V37.4688ZM48.3203 1V0H47.3203V1H48.3203ZM54.5547 1H55.5547V0H54.5547V1ZM54.5547 18.1797L55.5532 18.2334L55.5547 18.2066V18.1797H54.5547ZM54.2734 23.4062L53.2749 23.3525L53.2182 24.4062H54.2734V23.4062ZM54.4609 23.4062L55.354 23.8561L56.9243 20.739L56.0312 20.2891L55.1382 19.8392L53.5679 22.9564L54.4609 23.4062ZM56.0312 20.2891L56.8972 20.7891L62.0535 11.8594L61.1875 11.3594L60.3215 10.8593L55.1653 19.789L56.0312 20.2891ZM61.1875 11.3594V12.3594H67.7969V11.3594V10.3594H61.1875V11.3594ZM67.7969 11.3594L66.9459 10.8342L60.3365 21.5452L61.1875 22.0703L62.0385 22.5954L68.6479 11.8845L67.7969 11.3594ZM61.1875 22.0703L60.2784 22.4868L67.3331 37.8853L68.2422 37.4688L69.1513 37.0522L62.0966 21.6538L61.1875 22.0703ZM68.2422 37.4688V36.4688H61.7031V37.4688V38.4688H68.2422V37.4688ZM61.7031 37.4688L62.6229 37.0762L57.9119 26.0372L56.9922 26.4297L56.0724 26.8222L60.7834 37.8613L61.7031 37.4688ZM56.9922 26.4297L56.3216 25.6878L53.8841 27.8909L54.5547 28.6328L55.2252 29.3747L57.6627 27.1716L56.9922 26.4297ZM54.5547 28.6328H53.5547V37.4688H54.5547H55.5547V28.6328H54.5547ZM54.5547 37.4688V36.4688H48.3203V37.4688V38.4688H54.5547V37.4688ZM48.3203 37.4688H49.3203V1H48.3203H47.3203V37.4688H48.3203ZM48.3203 1V2H54.5547V1V0H48.3203V1ZM54.5547 1H53.5547V18.1797H54.5547H55.5547V1H54.5547ZM54.5547 18.1797L53.5561 18.126L53.2749 23.3525L54.2734 23.4062L55.272 23.46L55.5532 18.2334L54.5547 18.1797ZM54.2734 23.4062V24.4062H54.4609V23.4062V22.4062H54.2734V23.4062ZM83.7578 37.4688L82.8136 37.798L83.0474 38.4688H83.7578V37.4688ZM82.5156 33.9062L83.4599 33.577L83.226 32.9062H82.5156V33.9062ZM82.375 33.9062V32.9062H81.8098L81.5183 33.3905L82.375 33.9062ZM71.2422 35.7812L70.4463 36.3868L70.4505 36.3922L71.2422 35.7812ZM71.8516 23.6641L72.5145 24.4128L72.515 24.4123L71.8516 23.6641ZM78.625 21.4375L78.5845 20.4383L78.5782 20.4386L78.625 21.4375ZM82.0938 21.2969L82.1343 22.2961L83.0938 22.2572V21.2969H82.0938ZM73.5391 17.5938L72.6446 18.041L73.1276 19.0068L74.0536 18.4512L73.5391 17.5938ZM71.3828 13.2812L70.8482 12.4361L70.0839 12.9196L70.4884 13.7285L71.3828 13.2812ZM86.1484 13.2109L85.4058 13.8807L85.4128 13.8883L86.1484 13.2109ZM88.3281 37.4688V38.4688H89.3281V37.4688H88.3281ZM81.0625 31.5391L80.2304 30.9844L80.2285 30.9873L81.0625 31.5391ZM82.0938 25.2344H83.0938V24.1844L82.045 24.2356L82.0938 25.2344ZM80.1719 25.3281L80.1232 24.3293L80.117 24.3296L80.1719 25.3281ZM77.0312 26.5469L76.2934 25.8718L76.2856 25.8805L77.0312 26.5469ZM83.7578 37.4688L84.7021 37.1395L83.4599 33.577L82.5156 33.9062L81.5714 34.2355L82.8136 37.798L83.7578 37.4688ZM82.5156 33.9062V32.9062H82.375V33.9062V34.9062H82.5156V33.9062ZM82.375 33.9062L81.5183 33.3905C80.6384 34.852 79.7907 35.7491 79.0092 36.208L79.5156 37.0703L80.022 37.9326C81.2093 37.2353 82.2679 36.023 83.2317 34.422L82.375 33.9062ZM79.5156 37.0703L79.0092 36.208C78.2193 36.6719 77.1654 36.9375 75.7891 36.9375V37.9375V38.9375C77.4127 38.9375 78.8432 38.6249 80.022 37.9326L79.5156 37.0703ZM75.7891 37.9375V36.9375C74.1561 36.9375 72.9414 36.3463 72.0339 35.1703L71.2422 35.7812L70.4505 36.3922C71.7617 38.0912 73.5783 38.9375 75.7891 38.9375V37.9375ZM71.2422 35.7812L72.038 35.1757C71.1221 33.9719 70.6016 32.2141 70.6016 29.7812H69.6016H68.6016C68.6016 32.4734 69.1748 34.7156 70.4464 36.3868L71.2422 35.7812ZM69.6016 29.7812H70.6016C70.6016 27.2063 71.3 25.4881 72.5145 24.4128L71.8516 23.6641L71.1887 22.9154C69.4031 24.4963 68.6016 26.8562 68.6016 29.7812H69.6016ZM71.8516 23.6641L72.515 24.4123C73.7943 23.278 75.7939 22.5713 78.6718 22.4364L78.625 21.4375L78.5782 20.4386C75.4561 20.5849 72.94 21.3626 71.1882 22.9158L71.8516 23.6641ZM78.625 21.4375L78.6655 22.4367L82.1343 22.2961L82.0938 21.2969L82.0532 20.2977L78.5845 20.4383L78.625 21.4375ZM82.0938 21.2969H83.0938V19.4219H82.0938H81.0938V21.2969H82.0938ZM82.0938 19.4219H83.0938C83.0938 18.0816 82.8069 16.8896 82.0589 16.0253C81.287 15.1333 80.1792 14.7656 78.9297 14.7656V15.7656V16.7656C79.7895 16.7656 80.2638 17.0073 80.5466 17.3341C80.8533 17.6885 81.0938 18.3247 81.0938 19.4219H82.0938ZM78.9297 15.7656V14.7656C77.1155 14.7656 75.137 15.4688 73.0246 16.7363L73.5391 17.5938L74.0536 18.4512C76.0036 17.2812 77.6189 16.7656 78.9297 16.7656V15.7656ZM73.5391 17.5938L74.4335 17.1465L72.2772 12.834L71.3828 13.2812L70.4884 13.7285L72.6446 18.041L73.5391 17.5938ZM71.3828 13.2812L71.9174 14.1264C74.3524 12.5861 76.9876 11.8203 79.8438 11.8203V10.8203V9.82031C76.6062 9.82031 73.6007 10.6951 70.8482 12.4361L71.3828 13.2812ZM79.8438 10.8203V11.8203C82.4131 11.8203 84.2093 12.554 85.4059 13.8807L86.1484 13.2109L86.891 12.5412C85.2126 10.6803 82.8056 9.82031 79.8438 9.82031V10.8203ZM86.1484 13.2109L85.4128 13.8883C86.6433 15.2247 87.3281 17.1919 87.3281 19.9375H88.3281H89.3281C89.3281 16.8706 88.5598 14.3535 86.8841 12.5336L86.1484 13.2109ZM88.3281 19.9375H87.3281V37.4688H88.3281H89.3281V19.9375H88.3281ZM88.3281 37.4688V36.4688H83.7578V37.4688V38.4688H88.3281V37.4688ZM78.3438 33.0625V34.0625C79.8462 34.0625 81.0544 33.3638 81.8965 32.0908L81.0625 31.5391L80.2285 30.9873C79.7269 31.7456 79.1226 32.0625 78.3438 32.0625V33.0625ZM81.0625 31.5391L81.8945 32.0938C82.7255 30.8474 83.0938 29.2664 83.0938 27.4375H82.0938H81.0938C81.0938 29.0148 80.7745 30.1683 80.2305 30.9844L81.0625 31.5391ZM82.0938 27.4375H83.0938V25.2344H82.0938H81.0938V27.4375H82.0938ZM82.0938 25.2344L82.045 24.2356L80.1232 24.3293L80.1719 25.3281L80.2206 26.3269L82.1425 26.2332L82.0938 25.2344ZM80.1719 25.3281L80.117 24.3296C78.5468 24.4159 77.2058 24.8746 76.2934 25.8719L77.0312 26.5469L77.7691 27.2219C78.2005 26.7504 78.9532 26.3966 80.2267 26.3266L80.1719 25.3281ZM77.0312 26.5469L76.2856 25.8805C75.4027 26.8686 75.0469 28.2435 75.0469 29.8281H76.0469H77.0469C77.0469 28.5065 77.3473 27.6939 77.7769 27.2132L77.0312 26.5469ZM76.0469 29.8281H75.0469C75.0469 30.9943 75.2484 32.0481 75.8058 32.8329C76.4078 33.6806 77.313 34.0625 78.3438 34.0625V33.0625V32.0625C77.8433 32.0625 77.6001 31.9053 77.4364 31.6749C77.2281 31.3816 77.0469 30.8182 77.0469 29.8281H76.0469ZM110.734 34.3984L109.87 33.8949L109.868 33.8992L110.734 34.3984ZM101.945 37.1875L101.444 38.0529L101.453 38.0581L101.462 38.0631L101.945 37.1875ZM99.4141 34.4922L100.263 33.9641L99.9697 33.4922H99.4141V34.4922ZM99.0156 34.4922V33.4922H98.309L98.073 34.1582L99.0156 34.4922ZM97.9609 37.4688V38.4688H98.6675L98.9035 37.8027L97.9609 37.4688ZM93.3672 37.4688H92.3672V38.4688H93.3672V37.4688ZM93.3672 1V0H92.3672V1H93.3672ZM99.6016 1H100.602V0H99.6016V1ZM99.2734 14.7578L98.2766 14.6781L98.1902 15.7578H99.2734V14.7578ZM99.6016 14.7578V15.7578H100.202L100.484 15.2279L99.6016 14.7578ZM100.422 17.8281L99.5199 17.3962L99.515 17.4066L100.422 17.8281ZM99.6016 23.6875L98.6016 23.6763V23.6875H99.6016ZM100.398 30.7188L99.4798 31.1141L99.4841 31.1238L100.398 30.7188ZM105.156 10.8672V11.8672C107.115 11.8672 108.679 12.8015 109.891 14.9055L110.758 14.4062L111.624 13.907C110.118 11.2922 107.947 9.86719 105.156 9.86719V10.8672ZM110.758 14.4062L109.891 14.9055C111.127 17.0499 111.797 20.1701 111.797 24.3672H112.797H113.797C113.797 20.0018 113.108 16.4814 111.624 13.907L110.758 14.4062ZM112.797 24.3672H111.797C111.797 28.6122 111.119 31.753 109.87 33.8949L110.734 34.3984L111.598 34.902C113.1 32.3251 113.797 28.7784 113.797 24.3672H112.797ZM110.734 34.3984L109.868 33.8992C108.66 35.9952 107.076 36.9375 105.062 36.9375V37.9375V38.9375C107.892 38.9375 110.09 37.5205 111.601 34.8977L110.734 34.3984ZM105.062 37.9375V36.9375C104.037 36.9375 103.168 36.72 102.428 36.3119L101.945 37.1875L101.462 38.0631C102.535 38.655 103.744 38.9375 105.062 38.9375V37.9375ZM101.945 37.1875L102.446 36.3221C101.748 35.918 101.011 35.1663 100.263 33.9641L99.4141 34.4922L98.5649 35.0203C99.4109 36.3806 100.361 37.4257 101.444 38.0529L101.945 37.1875ZM99.4141 34.4922V33.4922H99.0156V34.4922V35.4922H99.4141V34.4922ZM99.0156 34.4922L98.073 34.1582L97.0184 37.1348L97.9609 37.4688L98.9035 37.8027L99.9582 34.8262L99.0156 34.4922ZM97.9609 37.4688V36.4688H93.3672V37.4688V38.4688H97.9609V37.4688ZM93.3672 37.4688H94.3672V1H93.3672H92.3672V37.4688H93.3672ZM93.3672 1V2H99.6016V1V0H93.3672V1ZM99.6016 1H98.6016V9.53125H99.6016H100.602V1H99.6016ZM99.6016 9.53125H98.6016C98.6016 9.8762 98.5941 10.2378 98.5789 10.6163L99.5781 10.6562L100.577 10.6962C100.593 10.2934 100.602 9.90505 100.602 9.53125H99.6016ZM99.5781 10.6562L98.5789 10.6163C98.5643 10.9814 98.4651 12.3219 98.2766 14.6781L99.2734 14.7578L100.27 14.8376C100.457 12.5063 100.561 11.1123 100.577 10.6962L99.5781 10.6562ZM99.2734 14.7578V15.7578H99.6016V14.7578V13.7578H99.2734V14.7578ZM99.6016 14.7578L100.484 15.2279C101.209 13.8669 101.938 13.0226 102.63 12.5732L102.086 11.7344L101.541 10.8956C100.453 11.6024 99.5253 12.7737 98.7189 14.2877L99.6016 14.7578ZM102.086 11.7344L102.63 12.5732C103.345 12.1096 104.175 11.8672 105.156 11.8672V10.8672V9.86719C103.825 9.86719 102.609 10.2029 101.541 10.8956L102.086 11.7344ZM103 16.1641V15.1641C102.246 15.1641 101.539 15.3423 100.923 15.7399C100.309 16.1361 99.8492 16.7088 99.52 17.3962L100.422 17.8281L101.324 18.26C101.526 17.8381 101.762 17.5787 102.007 17.4203C102.251 17.2632 102.567 17.1641 103 17.1641V16.1641ZM100.422 17.8281L99.515 17.4066C98.9008 18.7282 98.6329 20.8745 98.6016 23.6763L99.6016 23.6875L100.602 23.6987C100.633 20.9068 100.912 19.1468 101.329 18.2496L100.422 17.8281ZM99.6016 23.6875H98.6016V24.3203H99.6016H100.602V23.6875H99.6016ZM99.6016 24.3203H98.6016C98.6016 27.3589 98.8605 29.6748 99.4799 31.1141L100.398 30.7188L101.317 30.3234C100.874 29.2939 100.602 27.3442 100.602 24.3203H99.6016ZM100.398 30.7188L99.4841 31.1238C99.8129 31.8658 100.273 32.4905 100.898 32.927C101.529 33.3681 102.261 33.5703 103.047 33.5703V32.5703V31.5703C102.614 31.5703 102.296 31.4639 102.044 31.2878C101.785 31.1072 101.531 30.806 101.313 30.3137L100.398 30.7188ZM103.047 32.5703V33.5703C103.833 33.5703 104.551 33.3223 105.157 32.8252C105.747 32.342 106.182 31.6646 106.504 30.8729C107.141 29.3079 107.422 27.0771 107.422 24.2734H106.422H105.422C105.422 27.001 105.14 28.9186 104.652 30.1193C104.411 30.7104 104.144 31.0701 103.89 31.2783C103.652 31.4726 103.386 31.5703 103.047 31.5703V32.5703ZM106.422 24.2734H107.422C107.422 21.5303 107.137 19.3412 106.488 17.8026C106.159 17.0231 105.715 16.3585 105.117 15.8862C104.504 15.4021 103.784 15.1641 103 15.1641V16.1641V17.1641C103.357 17.1641 103.635 17.2639 103.877 17.4556C104.135 17.6591 104.404 18.0082 104.645 18.5802C105.136 19.7448 105.422 21.6103 105.422 24.2734H106.422ZM135.367 37.4688L134.382 37.6378L134.524 38.4688H135.367V37.4688ZM132.766 22.3047L131.776 22.4461L131.778 22.46L131.78 22.4738L132.766 22.3047ZM131.852 15.9062L132.842 15.7648L132.719 14.9062H131.852V15.9062ZM131.758 15.9062V14.9062H130.864L130.764 15.7942L131.758 15.9062ZM131.195 20.4297L132.184 20.5805L132.184 20.578L131.195 20.4297ZM128.219 37.4688V38.4688H129.058L129.204 37.6427L128.219 37.4688ZM120.203 37.4688L119.222 37.6642L119.383 38.4688H120.203V37.4688ZM115 11.3594V10.3594H113.781L114.019 11.5548L115 11.3594ZM121.258 11.3594L122.244 11.1955L122.105 10.3594H121.258V11.3594ZM123.648 25.75L122.662 25.9139L122.664 25.9238L123.648 25.75ZM124.422 32.7578L123.425 32.8337L123.495 33.7578H124.422V32.7578ZM124.562 32.7578V33.7578H125.525L125.562 32.7955L124.562 32.7578ZM124.891 28.9844L125.885 29.0948L125.885 29.0938L124.891 28.9844ZM125.289 25.7031L124.305 25.5262L124.303 25.535L124.302 25.5439L125.289 25.7031ZM127.867 11.3594V10.3594H127.031L126.883 11.1825L127.867 11.3594ZM135.883 11.3594L136.867 11.1846L136.721 10.3594H135.883V11.3594ZM138.438 25.75L137.453 25.9248L137.454 25.9326L137.456 25.9403L138.438 25.75ZM139.211 32.7578L138.213 32.8273L138.278 33.7578H139.211V32.7578ZM139.305 32.7578V33.7578H140.23L140.302 32.8358L139.305 32.7578ZM140.125 25.75L141.11 25.9224L141.11 25.9201L140.125 25.75ZM142.609 11.3594V10.3594H141.767L141.624 11.1893L142.609 11.3594ZM148.703 11.3594L149.684 11.5557L149.923 10.3594H148.703V11.3594ZM143.477 37.4688V38.4688H144.296L144.457 37.665L143.477 37.4688ZM135.367 37.4688L136.353 37.2997L133.751 22.1356L132.766 22.3047L131.78 22.4738L134.382 37.6378L135.367 37.4688ZM132.766 22.3047L133.756 22.1633L132.842 15.7648L131.852 15.9062L130.862 16.0477L131.776 22.4461L132.766 22.3047ZM131.852 15.9062V14.9062H131.758V15.9062V16.9062H131.852V15.9062ZM131.758 15.9062L130.764 15.7942C130.53 17.871 130.344 19.3633 130.206 20.2813L131.195 20.4297L132.184 20.578C132.328 19.6211 132.517 18.0977 132.752 16.0183L131.758 15.9062ZM131.195 20.4297L130.207 20.2789C130.068 21.1855 129.08 26.8467 127.234 37.2948L128.219 37.4688L129.204 37.6427C131.045 27.2158 132.041 21.5176 132.184 20.5805L131.195 20.4297ZM128.219 37.4688V36.4688H120.203V37.4688V38.4688H128.219V37.4688ZM120.203 37.4688L121.184 37.2733L115.981 11.1639L115 11.3594L114.019 11.5548L119.222 37.6642L120.203 37.4688ZM115 11.3594V12.3594H121.258V11.3594V10.3594H115V11.3594ZM121.258 11.3594L120.271 11.5233L122.662 25.9139L123.648 25.75L124.635 25.5861L122.244 11.1955L121.258 11.3594ZM123.648 25.75L122.664 25.9238C122.936 27.468 123.191 29.7647 123.425 32.8337L124.422 32.7578L125.419 32.6819C125.184 29.5947 124.923 27.2195 124.633 25.5762L123.648 25.75ZM124.422 32.7578V33.7578H124.562V32.7578V31.7578H124.422V32.7578ZM124.562 32.7578L125.562 32.7955C125.592 32.0056 125.698 30.7776 125.885 29.0948L124.891 28.9844L123.897 28.8739C123.709 30.5661 123.596 31.8538 123.563 32.7201L124.562 32.7578ZM124.891 28.9844L125.885 29.0938C126.073 27.3837 126.203 26.3169 126.276 25.8624L125.289 25.7031L124.302 25.5439C124.219 26.0581 124.083 27.1788 123.897 28.8749L124.891 28.9844ZM125.289 25.7031L126.273 25.88L128.851 11.5363L127.867 11.3594L126.883 11.1825L124.305 25.5262L125.289 25.7031ZM127.867 11.3594V12.3594H135.883V11.3594V10.3594H127.867V11.3594ZM135.883 11.3594L134.898 11.5342L137.453 25.9248L138.438 25.75L139.422 25.5752L136.867 11.1846L135.883 11.3594ZM138.438 25.75L137.456 25.9403C137.741 27.4092 137.995 29.6952 138.213 32.8273L139.211 32.7578L140.209 32.6883C139.989 29.5392 139.728 27.1533 139.419 25.5597L138.438 25.75ZM139.211 32.7578V33.7578H139.305V32.7578V31.7578H139.211V32.7578ZM139.305 32.7578L140.302 32.8358C140.519 30.0572 140.789 27.7553 141.11 25.9224L140.125 25.75L139.14 25.5776C138.804 27.4947 138.528 29.8646 138.308 32.6798L139.305 32.7578ZM140.125 25.75L141.11 25.9201L143.595 11.5295L142.609 11.3594L141.624 11.1893L139.14 25.5799L140.125 25.75ZM142.609 11.3594V12.3594H148.703V11.3594V10.3594H142.609V11.3594ZM148.703 11.3594L147.723 11.1631L142.496 37.2725L143.477 37.4688L144.457 37.665L149.684 11.5557L148.703 11.3594ZM143.477 37.4688V36.4688H135.367V37.4688V38.4688H143.477V37.4688ZM153.766 34.4688L152.987 35.096L152.991 35.1017L153.766 34.4688ZM167.359 13.9844L166.574 14.604L166.577 14.6069L167.359 13.9844ZM169.82 26.0078V27.0078H170.82V26.0078H169.82ZM157.281 26.0078V25.0078H156.261L156.281 26.0279L157.281 26.0078ZM158.711 31.2109L157.928 31.833L157.932 31.8383L158.711 31.2109ZM168.695 31H169.695V29.2405L168.184 30.1408L168.695 31ZM168.695 36.1328L169.211 36.9897L169.695 36.6982V36.1328H168.695ZM158.383 17.1016L159.234 17.6265L159.238 17.6202L158.383 17.1016ZM157.375 21.4844L156.376 21.4372L156.327 22.4844H157.375V21.4844ZM163.703 21.4844V22.4844H164.72L164.703 21.468L163.703 21.4844ZM161.5 37.9375V36.9375C158.503 36.9375 156.221 35.8924 154.54 33.8358L153.766 34.4688L152.991 35.1017C155.091 37.6701 157.966 38.9375 161.5 38.9375V37.9375ZM153.766 34.4688L154.544 33.8415C152.862 31.7527 151.953 28.7176 151.953 24.6016H150.953H149.953C149.953 28.9856 150.919 32.5285 152.987 35.096L153.766 34.4688ZM150.953 24.6016H151.953C151.953 20.4053 152.784 17.2678 154.326 15.0752L153.508 14.5L152.69 13.9248C150.825 16.576 149.953 20.1729 149.953 24.6016H150.953ZM153.508 14.5L154.326 15.0752C155.835 12.9287 157.9 11.8672 160.633 11.8672V10.8672V9.86719C157.272 9.86719 154.587 11.2275 152.69 13.9248L153.508 14.5ZM160.633 10.8672V11.8672C163.197 11.8672 165.139 12.7859 166.574 14.604L167.359 13.9844L168.144 13.3647C166.298 11.0266 163.757 9.86719 160.633 9.86719V10.8672ZM167.359 13.9844L166.577 14.6069C168.028 16.4317 168.82 19.0792 168.82 22.6797H169.82H170.82C170.82 18.8114 169.972 15.6621 168.142 13.3619L167.359 13.9844ZM169.82 22.6797H168.82V26.0078H169.82H170.82V22.6797H169.82ZM169.82 26.0078V25.0078H157.281V26.0078V27.0078H169.82V26.0078ZM157.281 26.0078L156.281 26.0279C156.33 28.4534 156.825 30.4453 157.928 31.833L158.711 31.2109L159.494 30.5889C158.784 29.6953 158.326 28.2184 158.281 25.9877L157.281 26.0078ZM158.711 31.2109L157.932 31.8383C159.049 33.2253 160.6 33.8984 162.461 33.8984V32.8984V31.8984C161.134 31.8984 160.185 31.4466 159.49 30.5836L158.711 31.2109ZM162.461 32.8984V33.8984C164.708 33.8984 166.961 33.1969 169.207 31.8592L168.695 31L168.184 30.1408C166.18 31.3343 164.277 31.8984 162.461 31.8984V32.8984ZM168.695 31H167.695V36.1328H168.695H169.695V31H168.695ZM168.695 36.1328L168.18 35.2759C166.364 36.3684 164.151 36.9375 161.5 36.9375V37.9375V38.9375C164.442 38.9375 167.027 38.3035 169.211 36.9897L168.695 36.1328ZM160.586 15.6719V14.6719C159.255 14.6719 158.235 15.4177 157.528 16.583L158.383 17.1016L159.238 17.6202C159.687 16.8792 160.136 16.6719 160.586 16.6719V15.6719ZM158.383 17.1016L157.532 16.5767C156.819 17.7325 156.472 19.3997 156.376 21.4372L157.375 21.4844L158.374 21.5316C158.465 19.6003 158.79 18.3457 159.234 17.6265L158.383 17.1016ZM157.375 21.4844V22.4844H163.703V21.4844V20.4844H157.375V21.4844ZM163.703 21.4844L164.703 21.468C164.671 19.4971 164.374 17.8582 163.71 16.6628L162.836 17.1484L161.962 17.6341C162.391 18.4074 162.673 19.6592 162.703 21.5008L163.703 21.4844ZM162.836 17.1484L163.71 16.6628C163.025 15.4298 161.975 14.6719 160.586 14.6719V15.6719V16.6719C161.103 16.6719 161.553 16.8983 161.962 17.6341L162.836 17.1484ZM191.312 34.3984L190.449 33.8949L190.446 33.8992L191.312 34.3984ZM182.523 37.1875L182.022 38.0529L182.031 38.0581L182.04 38.0631L182.523 37.1875ZM179.992 34.4922L180.841 33.9641L180.548 33.4922H179.992V34.4922ZM179.594 34.4922V33.4922H178.887L178.651 34.1582L179.594 34.4922ZM178.539 37.4688V38.4688H179.246L179.482 37.8027L178.539 37.4688ZM173.945 37.4688H172.945V38.4688H173.945V37.4688ZM173.945 1V0H172.945V1H173.945ZM180.18 1H181.18V0H180.18V1ZM179.852 14.7578L178.855 14.6781L178.768 15.7578H179.852V14.7578ZM180.18 14.7578V15.7578H180.78L181.062 15.2279L180.18 14.7578ZM181 17.8281L180.098 17.3962L180.093 17.4066L181 17.8281ZM180.18 23.6875L179.18 23.6763V23.6875H180.18ZM180.977 30.7188L180.058 31.1141L180.062 31.1238L180.977 30.7188ZM185.734 10.8672V11.8672C187.693 11.8672 189.257 12.8015 190.469 14.9055L191.336 14.4062L192.202 13.907C190.696 11.2922 188.526 9.86719 185.734 9.86719V10.8672ZM191.336 14.4062L190.469 14.9055C191.705 17.0499 192.375 20.1701 192.375 24.3672H193.375H194.375C194.375 20.0018 193.686 16.4814 192.202 13.907L191.336 14.4062ZM193.375 24.3672H192.375C192.375 28.6122 191.697 31.753 190.449 33.8949L191.312 34.3984L192.176 34.902C193.678 32.3251 194.375 28.7784 194.375 24.3672H193.375ZM191.312 34.3984L190.446 33.8992C189.238 35.9952 187.654 36.9375 185.641 36.9375V37.9375V38.9375C188.471 38.9375 190.668 37.5205 192.179 34.8977L191.312 34.3984ZM185.641 37.9375V36.9375C184.615 36.9375 183.746 36.72 183.007 36.3119L182.523 37.1875L182.04 38.0631C183.113 38.655 184.322 38.9375 185.641 38.9375V37.9375ZM182.523 37.1875L183.024 36.3221C182.327 35.918 181.589 35.1663 180.841 33.9641L179.992 34.4922L179.143 35.0203C179.989 36.3806 180.939 37.4257 182.022 38.0529L182.523 37.1875ZM179.992 34.4922V33.4922H179.594V34.4922V35.4922H179.992V34.4922ZM179.594 34.4922L178.651 34.1582L177.596 37.1348L178.539 37.4688L179.482 37.8027L180.536 34.8262L179.594 34.4922ZM178.539 37.4688V36.4688H173.945V37.4688V38.4688H178.539V37.4688ZM173.945 37.4688H174.945V1H173.945H172.945V37.4688H173.945ZM173.945 1V2H180.18V1V0H173.945V1ZM180.18 1H179.18V9.53125H180.18H181.18V1H180.18ZM180.18 9.53125H179.18C179.18 9.8762 179.172 10.2378 179.157 10.6163L180.156 10.6562L181.155 10.6962C181.172 10.2934 181.18 9.90505 181.18 9.53125H180.18ZM180.156 10.6562L179.157 10.6163C179.142 10.9814 179.043 12.3219 178.855 14.6781L179.852 14.7578L180.848 14.8376C181.035 12.5063 181.139 11.1123 181.155 10.6962L180.156 10.6562ZM179.852 14.7578V15.7578H180.18V14.7578V13.7578H179.852V14.7578ZM180.18 14.7578L181.062 15.2279C181.787 13.8669 182.516 13.0226 183.209 12.5732L182.664 11.7344L182.12 10.8956C181.031 11.6024 180.103 12.7737 179.297 14.2877L180.18 14.7578ZM182.664 11.7344L183.209 12.5732C183.923 12.1096 184.753 11.8672 185.734 11.8672V10.8672V9.86719C184.403 9.86719 183.187 10.2029 182.12 10.8956L182.664 11.7344ZM183.578 16.1641V15.1641C182.824 15.1641 182.117 15.3423 181.501 15.7399C180.887 16.1361 180.427 16.7088 180.098 17.3962L181 17.8281L181.902 18.26C182.104 17.8381 182.34 17.5787 182.585 17.4203C182.829 17.2632 183.145 17.1641 183.578 17.1641V16.1641ZM181 17.8281L180.093 17.4066C179.479 18.7282 179.211 20.8745 179.18 23.6763L180.18 23.6875L181.18 23.6987C181.211 20.9068 181.49 19.1468 181.907 18.2496L181 17.8281ZM180.18 23.6875H179.18V24.3203H180.18H181.18V23.6875H180.18ZM180.18 24.3203H179.18C179.18 27.3589 179.439 29.6748 180.058 31.1141L180.977 30.7188L181.895 30.3234C181.452 29.2939 181.18 27.3442 181.18 24.3203H180.18ZM180.977 30.7188L180.062 31.1238C180.391 31.8658 180.851 32.4905 181.476 32.927C182.107 33.3681 182.839 33.5703 183.625 33.5703V32.5703V31.5703C183.193 31.5703 182.874 31.4639 182.622 31.2878C182.363 31.1072 182.109 30.806 181.891 30.3137L180.977 30.7188ZM183.625 32.5703V33.5703C184.411 33.5703 185.129 33.3223 185.735 32.8252C186.325 32.342 186.761 31.6646 187.083 30.8729C187.719 29.3079 188 27.0771 188 24.2734H187H186C186 27.001 185.718 28.9186 185.23 30.1193C184.989 30.7104 184.722 31.0701 184.468 31.2783C184.231 31.4726 183.964 31.5703 183.625 31.5703V32.5703ZM187 24.2734H188C188 21.5303 187.715 19.3412 187.066 17.8026C186.737 17.0231 186.293 16.3585 185.695 15.8862C185.082 15.4021 184.362 15.1641 183.578 15.1641V16.1641V17.1641C183.935 17.1641 184.213 17.2639 184.455 17.4556C184.713 17.6591 184.982 18.0082 185.223 18.5802C185.715 19.7448 186 21.6103 186 24.2734H187ZM216.461 32.9922L215.669 32.3817L215.668 32.3823L216.461 32.9922ZM198.133 37.4688H197.133V38.4688H198.133V37.4688ZM198.133 3.20312V2.20312H197.133V3.20312H198.133ZM216.602 7.63281L215.802 8.23349L215.804 8.23553L216.602 7.63281ZM204.508 8.71094V7.71094H203.508V8.71094H204.508ZM204.508 31.8906H203.508V32.8906H204.508V31.8906ZM211.727 28.9844L212.594 29.4813L212.596 29.4783L211.727 28.9844ZM219.93 20.0078H218.93C218.93 25.5473 217.794 29.6242 215.669 32.3817L216.461 32.9922L217.253 33.6027C219.752 30.3601 220.93 25.7809 220.93 20.0078H219.93ZM216.461 32.9922L215.668 32.3823C213.591 35.0818 210.594 36.4688 206.523 36.4688V37.4688V38.4688C211.109 38.4688 214.737 36.8713 217.253 33.6021L216.461 32.9922ZM206.523 37.4688V36.4688H198.133V37.4688V38.4688H206.523V37.4688ZM198.133 37.4688H199.133V3.20312H198.133H197.133V37.4688H198.133ZM198.133 3.20312V4.20312H207.297V3.20312V2.20312H198.133V3.20312ZM207.297 3.20312V4.20312C210.995 4.20312 213.789 5.55387 215.802 8.23349L216.602 7.63281L217.401 7.03214C214.977 3.80551 211.567 2.20312 207.297 2.20312V3.20312ZM216.602 7.63281L215.804 8.23553C217.844 10.9375 218.93 14.8198 218.93 20.0078H219.93H220.93C220.93 14.5709 219.796 10.2031 217.4 7.0301L216.602 7.63281ZM213.391 20.1953H214.391C214.391 16.3081 213.861 13.2343 212.684 11.0994C212.088 10.0169 211.315 9.15766 210.349 8.57309C209.38 7.98741 208.273 7.71094 207.062 7.71094V8.71094V9.71094C207.961 9.71094 208.7 9.91298 209.313 10.2843C209.929 10.6568 210.475 11.2331 210.933 12.0646C211.866 13.7579 212.391 16.4263 212.391 20.1953H213.391ZM207.062 8.71094V7.71094H204.508V8.71094V9.71094H207.062V8.71094ZM204.508 8.71094H203.508V31.8906H204.508H205.508V8.71094H204.508ZM204.508 31.8906V32.8906H206.57V31.8906V30.8906H204.508V31.8906ZM206.57 31.8906V32.8906C209.238 32.8906 211.298 31.746 212.594 29.4813L211.727 28.9844L210.859 28.4875C209.937 30.0978 208.559 30.8906 206.57 30.8906V31.8906ZM211.727 28.9844L212.596 29.4783C213.833 27.3008 214.391 24.1634 214.391 20.1953H213.391H212.391C212.391 24.0397 211.839 26.7617 210.857 28.4905L211.727 28.9844ZM226.469 34.4688L225.69 35.096L225.695 35.1017L226.469 34.4688ZM240.062 13.9844L239.278 14.604L239.28 14.6069L240.062 13.9844ZM242.523 26.0078V27.0078H243.523V26.0078H242.523ZM229.984 26.0078V25.0078H228.964L228.985 26.0279L229.984 26.0078ZM231.414 31.2109L230.631 31.833L230.635 31.8383L231.414 31.2109ZM241.398 31H242.398V29.2405L240.887 30.1408L241.398 31ZM241.398 36.1328L241.914 36.9897L242.398 36.6982V36.1328H241.398ZM231.086 17.1016L231.937 17.6265L231.941 17.6202L231.086 17.1016ZM230.078 21.4844L229.079 21.4372L229.03 22.4844H230.078V21.4844ZM236.406 21.4844V22.4844H237.423L237.406 21.468L236.406 21.4844ZM234.203 37.9375V36.9375C231.206 36.9375 228.924 35.8924 227.243 33.8358L226.469 34.4688L225.695 35.1017C227.794 37.6701 230.669 38.9375 234.203 38.9375V37.9375ZM226.469 34.4688L227.248 33.8415C225.565 31.7527 224.656 28.7176 224.656 24.6016H223.656H222.656C222.656 28.9856 223.622 32.5285 225.69 35.096L226.469 34.4688ZM223.656 24.6016H224.656C224.656 20.4053 225.487 17.2678 227.029 15.0752L226.211 14.5L225.393 13.9248C223.529 16.576 222.656 20.1729 222.656 24.6016H223.656ZM226.211 14.5L227.029 15.0752C228.538 12.9287 230.603 11.8672 233.336 11.8672V10.8672V9.86719C229.975 9.86719 227.29 11.2275 225.393 13.9248L226.211 14.5ZM233.336 10.8672V11.8672C235.9 11.8672 237.842 12.7859 239.278 14.604L240.062 13.9844L240.847 13.3647C239.002 11.0266 236.46 9.86719 233.336 9.86719V10.8672ZM240.062 13.9844L239.28 14.6069C240.731 16.4317 241.523 19.0792 241.523 22.6797H242.523H243.523C243.523 18.8114 242.675 15.6621 240.845 13.3619L240.062 13.9844ZM242.523 22.6797H241.523V26.0078H242.523H243.523V22.6797H242.523ZM242.523 26.0078V25.0078H229.984V26.0078V27.0078H242.523V26.0078ZM229.984 26.0078L228.985 26.0279C229.033 28.4534 229.529 30.4453 230.631 31.833L231.414 31.2109L232.197 30.5889C231.487 29.6953 231.029 28.2184 230.984 25.9877L229.984 26.0078ZM231.414 31.2109L230.635 31.8383C231.753 33.2253 233.303 33.8984 235.164 33.8984V32.8984V31.8984C233.837 31.8984 232.888 31.4466 232.193 30.5836L231.414 31.2109ZM235.164 32.8984V33.8984C237.411 33.8984 239.664 33.1969 241.91 31.8592L241.398 31L240.887 30.1408C238.883 31.3343 236.98 31.8984 235.164 31.8984V32.8984ZM241.398 31H240.398V36.1328H241.398H242.398V31H241.398ZM241.398 36.1328L240.883 35.2759C239.067 36.3684 236.855 36.9375 234.203 36.9375V37.9375V38.9375C237.145 38.9375 239.73 38.3035 241.914 36.9897L241.398 36.1328ZM233.289 15.6719V14.6719C231.958 14.6719 230.938 15.4177 230.231 16.583L231.086 17.1016L231.941 17.6202C232.39 16.8792 232.839 16.6719 233.289 16.6719V15.6719ZM231.086 17.1016L230.235 16.5767C229.522 17.7325 229.175 19.3997 229.079 21.4372L230.078 21.4844L231.077 21.5316C231.168 19.6003 231.494 18.3457 231.937 17.6265L231.086 17.1016ZM230.078 21.4844V22.4844H236.406V21.4844V20.4844H230.078V21.4844ZM236.406 21.4844L237.406 21.468C237.374 19.4971 237.077 17.8582 236.413 16.6628L235.539 17.1484L234.665 17.6341C235.095 18.4074 235.376 19.6592 235.406 21.5008L236.406 21.4844ZM235.539 17.1484L236.413 16.6628C235.728 15.4298 234.678 14.6719 233.289 14.6719V15.6719V16.6719C233.807 16.6719 234.256 16.8983 234.665 17.6341L235.539 17.1484ZM258.414 35.8047L259.106 36.5268L259.106 36.5267L258.414 35.8047ZM245.43 36.4141H244.43V36.9794L244.914 37.2709L245.43 36.4141ZM245.43 31L245.998 30.1773L244.43 29.0936V31H245.43ZM248.43 32.4766L248.106 33.4226L248.11 33.424L248.43 32.4766ZM253.68 32.3594L254.364 33.0889L254.364 33.0882L253.68 32.3594ZM250.727 26.1953L251.244 25.3395L251.238 25.3359L250.727 26.1953ZM246.648 22.6094L245.804 23.1449L245.808 23.1509L245.812 23.1569L246.648 22.6094ZM247.703 12.8125L247.057 12.0494L247.053 12.0527L247.703 12.8125ZM260.523 12.6953L261.433 13.1098L261.805 12.2945L261.035 11.8361L260.523 12.6953ZM258.484 17.1719L258.008 18.051L258.95 18.5618L259.394 17.5864L258.484 17.1719ZM252.273 16.4453L251.553 15.7517L251.546 15.7587L251.54 15.7659L252.273 16.4453ZM252.414 19.8672L251.665 20.5302L251.671 20.5361L251.676 20.542L252.414 19.8672ZM255.18 21.9062L255.698 21.0509L255.697 21.0505L255.18 21.9062ZM260.664 29.8281H259.664C259.664 32.1683 258.982 33.875 257.722 35.0827L258.414 35.8047L259.106 36.5267C260.846 34.8594 261.664 32.5817 261.664 29.8281H260.664ZM258.414 35.8047L257.722 35.0825C256.489 36.2637 254.584 36.9375 251.828 36.9375V37.9375V38.9375C254.885 38.9375 257.37 38.1895 259.106 36.5268L258.414 35.8047ZM251.828 37.9375V36.9375C249.377 36.9375 247.436 36.4545 245.945 35.5573L245.43 36.4141L244.914 37.2709C246.798 38.4049 249.123 38.9375 251.828 38.9375V37.9375ZM245.43 36.4141H246.43V31H245.43H244.43V36.4141H245.43ZM245.43 31L244.861 31.8227C245.807 32.4759 246.891 33.0068 248.106 33.4226L248.43 32.4766L248.754 31.5305C247.687 31.1651 246.771 30.7116 245.998 30.1773L245.43 31ZM248.43 32.4766L248.11 33.424C249.331 33.8367 250.459 34.0625 251.477 34.0625V33.0625V32.0625C250.744 32.0625 249.84 31.8976 248.75 31.5292L248.43 32.4766ZM251.477 33.0625V34.0625C252.594 34.0625 253.614 33.792 254.364 33.0889L253.68 32.3594L252.996 31.6298C252.746 31.8642 252.296 32.0625 251.477 32.0625V33.0625ZM253.68 32.3594L254.364 33.0882C255.103 32.394 255.453 31.4863 255.453 30.4609H254.453H253.453C253.453 30.9981 253.287 31.356 252.995 31.6305L253.68 32.3594ZM254.453 30.4609H255.453C255.453 29.4181 255.097 28.4854 254.401 27.7082L253.656 28.375L252.911 29.0418C253.278 29.4521 253.453 29.91 253.453 30.4609H254.453ZM253.656 28.375L254.401 27.7082C253.765 26.9969 252.679 26.2071 251.244 25.3395L250.727 26.1953L250.209 27.0511C251.618 27.9023 252.485 28.5656 252.911 29.0418L253.656 28.375ZM250.727 26.1953L251.238 25.3359C249.423 24.2561 248.201 23.1556 247.485 22.0618L246.648 22.6094L245.812 23.1569C246.752 24.5944 248.249 25.8846 250.215 27.0547L250.727 26.1953ZM246.648 22.6094L247.493 22.0738C246.796 20.9747 246.43 19.6585 246.43 18.0859H245.43H244.43C244.43 19.9821 244.876 21.6815 245.804 23.1449L246.648 22.6094ZM245.43 18.0859H246.43C246.43 16.1225 247.086 14.6565 248.353 13.5723L247.703 12.8125L247.053 12.0527C245.289 13.5623 244.43 15.6118 244.43 18.0859H245.43ZM247.703 12.8125L248.349 13.5756C249.649 12.4752 251.487 11.8672 253.984 11.8672V10.8672V9.86719C251.169 9.86719 248.82 10.556 247.057 12.0494L247.703 12.8125ZM253.984 10.8672V11.8672C256.111 11.8672 258.115 12.425 260.012 13.5545L260.523 12.6953L261.035 11.8361C258.838 10.5281 256.483 9.86719 253.984 9.86719V10.8672ZM260.523 12.6953L259.613 12.2808L257.574 16.7574L258.484 17.1719L259.394 17.5864L261.433 13.1098L260.523 12.6953ZM258.484 17.1719L258.961 16.2927C257.21 15.3439 255.573 14.8125 254.078 14.8125V15.8125V16.8125C255.114 16.8125 256.415 17.1874 258.008 18.051L258.484 17.1719ZM254.078 15.8125V14.8125C253.111 14.8125 252.208 15.0715 251.553 15.7517L252.273 16.4453L252.994 17.139C253.151 16.9753 253.452 16.8125 254.078 16.8125V15.8125ZM252.273 16.4453L251.54 15.7659C250.967 16.3844 250.688 17.1474 250.688 17.9922H251.688H252.688C252.688 17.6182 252.799 17.35 253.007 17.1247L252.273 16.4453ZM251.688 17.9922H250.688C250.688 18.9499 251.026 19.8083 251.665 20.5302L252.414 19.8672L253.163 19.2042C252.833 18.8323 252.688 18.4408 252.688 17.9922H251.688ZM252.414 19.8672L251.676 20.542C252.279 21.2015 253.307 21.9425 254.662 22.762L255.18 21.9062L255.697 21.0505C254.365 20.245 253.549 19.6266 253.152 19.1924L252.414 19.8672ZM255.18 21.9062L254.662 22.7616C256.27 23.7362 257.317 24.5166 257.878 25.1045L258.602 24.4141L259.325 23.7236C258.574 22.9365 257.339 22.0451 255.698 21.0509L255.18 21.9062ZM258.602 24.4141L257.878 25.1045C258.449 25.7024 258.888 26.3785 259.2 27.1377L260.125 26.7578L261.05 26.3779C260.643 25.3872 260.067 24.5007 259.325 23.7236L258.602 24.4141ZM260.125 26.7578L259.2 27.1377C259.5 27.8671 259.664 28.7564 259.664 29.8281H260.664H261.664C261.664 28.5561 261.469 27.3985 261.05 26.3779L260.125 26.7578ZM270.883 37.4688V38.4688H271.883V37.4688H270.883ZM264.648 37.4688H263.648V38.4688H264.648V37.4688ZM264.648 11.3594V10.3594H263.648V11.3594H264.648ZM270.883 11.3594H271.883V10.3594H270.883V11.3594ZM270.25 2.10156L269.543 2.80873L269.552 2.81779L270.25 2.10156ZM270.227 7.02344L270.906 7.7576L270.915 7.74844L270.227 7.02344ZM265.328 7.02344L264.639 7.7485L264.649 7.75754L265.328 7.02344ZM270.883 37.4688V36.4688H264.648V37.4688V38.4688H270.883V37.4688ZM264.648 37.4688H265.648V11.3594H264.648H263.648V37.4688H264.648ZM264.648 11.3594V12.3594H270.883V11.3594V10.3594H264.648V11.3594ZM270.883 11.3594H269.883V37.4688H270.883H271.883V11.3594H270.883ZM264.391 4.53906H265.391C265.391 3.70875 265.623 3.17385 265.988 2.80867L265.281 2.10156L264.574 1.39445C263.752 2.21677 263.391 3.30688 263.391 4.53906H264.391ZM265.281 2.10156L265.988 2.80867C266.366 2.4313 266.929 2.1875 267.812 2.1875V1.1875V0.1875C266.539 0.1875 265.416 0.553078 264.574 1.39445L265.281 2.10156ZM267.812 1.1875V2.1875C268.614 2.1875 269.154 2.42003 269.543 2.80867L270.25 2.10156L270.957 1.39445C270.127 0.564346 269.042 0.1875 267.812 0.1875V1.1875ZM270.25 2.10156L269.552 2.81779C269.928 3.18446 270.164 3.71625 270.164 4.53906H271.164H272.164C272.164 3.29937 271.79 2.20617 270.948 1.38533L270.25 2.10156ZM271.164 4.53906H270.164C270.164 5.39563 269.92 5.9358 269.538 6.29844L270.227 7.02344L270.915 7.74844C271.784 6.92358 272.164 5.80749 272.164 4.53906H271.164ZM270.227 7.02344L269.548 6.28934C269.136 6.66994 268.587 6.89062 267.812 6.89062V7.89062V8.89062C269.007 8.89062 270.067 8.53318 270.906 7.75754L270.227 7.02344ZM267.812 7.89062V6.89062C266.977 6.89062 266.41 6.6619 266.007 6.28934L265.328 7.02344L264.649 7.75754C265.496 8.54123 266.586 8.89062 267.812 8.89062V7.89062ZM265.328 7.02344L266.017 6.29844C265.635 5.9358 265.391 5.39563 265.391 4.53906H264.391H263.391C263.391 5.80749 263.771 6.92358 264.639 7.74844L265.328 7.02344ZM295.023 11.4062H296.023V10.4062H295.023V11.4062ZM295.023 15.0625L295.243 16.038L296.023 15.8621V15.0625H295.023ZM291.906 15.7656L291.686 14.7901L290.382 15.0843L291.033 16.2523L291.906 15.7656ZM282.555 28.5391L282.871 27.5904L282.32 27.4069L281.888 27.7938L282.555 28.5391ZM293.031 34.0938L292.319 34.7963L292.329 34.8055L293.031 34.0938ZM276.344 47.1016L276.973 46.3245L276.968 46.3207L276.344 47.1016ZM275.336 37.8906L274.56 37.2592L274.556 37.2646L275.336 37.8906ZM279.039 35.5L279.341 36.4533L282.034 35.6002L279.404 34.569L279.039 35.5ZM277.07 34.0469L276.275 34.6529L276.279 34.6588L276.284 34.6647L277.07 34.0469ZM276.555 30.3203L277.492 30.6677L277.496 30.6567L276.555 30.3203ZM277.211 29.1016L276.415 28.4965L276.411 28.5016L277.211 29.1016ZM278.992 27.3906L279.636 28.1555L280.7 27.2596L279.512 26.5364L278.992 27.3906ZM286.023 11.0547L285.845 12.0386L285.855 12.0405L285.866 12.0423L286.023 11.0547ZM287.594 11.4062L287.265 12.3507L287.425 12.4062H287.594V11.4062ZM280.633 43.6328L281.284 42.8736L281.282 42.8722L280.633 43.6328ZM287.664 43.3984L287.062 42.6L287.056 42.6048L287.664 43.3984ZM288.32 38.3594L287.69 39.1355L287.696 39.1402L287.701 39.1449L288.32 38.3594ZM280.422 38.6875L279.651 38.0511L279.642 38.0616L279.634 38.0722L280.422 38.6875ZM295.023 11.4062H294.023V15.0625H295.023H296.023V11.4062H295.023ZM295.023 15.0625L294.803 14.087L291.686 14.7901L291.906 15.7656L292.126 16.7411L295.243 16.038L295.023 15.0625ZM291.906 15.7656L291.033 16.2523C291.537 17.1569 291.82 18.3516 291.82 19.8906H292.82H293.82C293.82 18.1172 293.495 16.5619 292.78 15.2789L291.906 15.7656ZM292.82 19.8906H291.82C291.82 22.4726 291.124 24.3616 289.849 25.6903L290.57 26.3828L291.292 27.0753C293.016 25.279 293.82 22.8399 293.82 19.8906H292.82ZM290.57 26.3828L289.849 25.6903C288.581 27.0111 286.774 27.7266 284.289 27.7266V28.7266V29.7266C287.179 29.7266 289.56 28.8795 291.292 27.0753L290.57 26.3828ZM284.289 28.7266V27.7266C283.532 27.7266 283.087 27.6624 282.871 27.5904L282.555 28.5391L282.238 29.4877C282.772 29.6657 283.484 29.7266 284.289 29.7266V28.7266ZM282.555 28.5391L281.888 27.7938C281.549 28.0972 281.231 28.4333 280.934 28.8005L281.711 29.4297L282.488 30.0589C282.722 29.7699 282.967 29.5122 283.221 29.2843L282.555 28.5391ZM281.711 29.4297L280.934 28.8005C280.503 29.3324 280.312 29.9705 280.312 30.6484H281.312H282.312C282.312 30.3576 282.388 30.1832 282.488 30.0589L281.711 29.4297ZM281.312 30.6484H280.312C280.312 31.5516 280.739 32.292 281.521 32.7445C282.22 33.1489 283.139 33.2891 284.148 33.2891V32.2891V31.2891C283.267 31.2891 282.768 31.1558 282.522 31.0133C282.359 30.919 282.312 30.839 282.312 30.6484H281.312ZM284.148 32.2891V33.2891H287.922V32.2891V31.2891H284.148V32.2891ZM287.922 32.2891V33.2891C289.96 33.2891 291.373 33.8376 292.32 34.7962L293.031 34.0938L293.743 33.3913C292.314 31.9437 290.321 31.2891 287.922 31.2891V32.2891ZM293.031 34.0938L292.329 34.8055C293.273 35.7376 293.836 37.2311 293.836 39.4844H294.836H295.836C295.836 36.9251 295.196 34.8249 293.734 33.382L293.031 34.0938ZM294.836 39.4844H293.836C293.836 42.2678 292.917 44.3052 291.157 45.7406L291.789 46.5156L292.421 47.2906C294.723 45.4135 295.836 42.7634 295.836 39.4844H294.836ZM291.789 46.5156L291.157 45.7406C289.37 47.1979 286.707 48 283.023 48V49V50C286.964 50 290.146 49.1458 292.421 47.2906L291.789 46.5156ZM283.023 49V48C280.264 48 278.294 47.3945 276.973 46.3245L276.344 47.1016L275.714 47.8786C277.518 49.3399 280.001 50 283.023 50V49ZM276.344 47.1016L276.968 46.3207C275.684 45.2927 275 43.8144 275 41.7344H274H273C273 44.3106 273.879 46.4104 275.719 47.8824L276.344 47.1016ZM274 41.7344H275C275 40.5036 275.371 39.4444 276.116 38.5167L275.336 37.8906L274.556 37.2646C273.52 38.5556 273 40.0589 273 41.7344H274ZM275.336 37.8906L276.111 38.5221C276.859 37.6041 277.916 36.9049 279.341 36.4533L279.039 35.5L278.737 34.5467C277.006 35.0951 275.594 35.9896 274.561 37.2592L275.336 37.8906ZM279.039 35.5L279.404 34.569C278.769 34.3198 278.259 33.9416 277.857 33.4291L277.07 34.0469L276.284 34.6647C276.913 35.4647 277.716 36.0552 278.674 36.431L279.039 35.5ZM277.07 34.0469L277.866 33.4408C277.507 32.9697 277.32 32.4202 277.32 31.75H276.32H275.32C275.32 32.8298 275.634 33.8116 276.275 34.6529L277.07 34.0469ZM276.32 31.75H277.32C277.32 31.3163 277.384 30.9602 277.492 30.6676L276.555 30.3203L275.617 29.973C275.413 30.5241 275.32 31.1212 275.32 31.75H276.32ZM276.555 30.3203L277.496 30.6567C277.619 30.3145 277.789 29.997 278.011 29.7016L277.211 29.1016L276.411 28.5016C276.07 28.9561 275.803 29.4511 275.613 29.984L276.555 30.3203ZM277.211 29.1016L278.007 29.7066C278.23 29.4131 278.746 28.905 279.636 28.1555L278.992 27.3906L278.348 26.6257C277.457 27.3763 276.785 28.0087 276.415 28.4965L277.211 29.1016ZM278.992 27.3906L279.512 26.5364C278.634 26.0017 277.904 25.1621 277.346 23.9495L276.438 24.3672L275.529 24.7849C276.221 26.291 277.194 27.467 278.472 28.2448L278.992 27.3906ZM276.438 24.3672L277.346 23.9495C276.787 22.7345 276.5 21.3713 276.5 19.8438H275.5H274.5C274.5 21.6287 274.838 23.2811 275.529 24.7849L276.438 24.3672ZM275.5 19.8438H276.5C276.5 17.1574 277.202 15.2262 278.471 13.9035L277.75 13.2109L277.029 12.5184C275.298 14.3206 274.5 16.8114 274.5 19.8438H275.5ZM277.75 13.2109L278.471 13.9035C279.732 12.5904 281.587 11.8672 284.195 11.8672V10.8672V9.86719C281.21 9.86719 278.768 10.7065 277.029 12.5184L277.75 13.2109ZM284.195 10.8672V11.8672C284.651 11.8672 285.199 11.9211 285.845 12.0386L286.023 11.0547L286.202 10.0708C285.473 9.93823 284.802 9.86719 284.195 9.86719V10.8672ZM286.023 11.0547L285.866 12.0423C286.535 12.1486 286.99 12.2549 287.265 12.3507L287.594 11.4062L287.922 10.4618C287.479 10.3076 286.887 10.1795 286.181 10.0671L286.023 11.0547ZM287.594 11.4062V12.4062H295.023V11.4062V10.4062H287.594V11.4062ZM279.672 41.2656H278.672C278.672 42.5179 279.071 43.6145 279.984 44.3934L280.633 43.6328L281.282 42.8722C280.913 42.5574 280.672 42.0759 280.672 41.2656H279.672ZM280.633 43.6328L279.982 44.3921C280.879 45.1613 282.073 45.4766 283.422 45.4766V44.4766V43.4766C282.364 43.4766 281.699 43.2293 281.284 42.8736L280.633 43.6328ZM283.422 44.4766V45.4766C285.41 45.4766 287.083 45.1038 288.272 44.192L287.664 43.3984L287.056 42.6048C286.37 43.1306 285.215 43.4766 283.422 43.4766V44.4766ZM287.664 43.3984L288.266 44.1969C289.483 43.279 290.094 41.9919 290.094 40.4453H289.094H288.094C288.094 41.3988 287.751 42.0804 287.062 42.6L287.664 43.3984ZM289.094 40.4453H290.094C290.094 39.3119 289.797 38.2495 288.939 37.5739L288.32 38.3594L287.701 39.1449C287.875 39.2818 288.094 39.61 288.094 40.4453H289.094ZM288.32 38.3594L288.951 37.5833C288.533 37.2434 288.002 37.0441 287.446 36.9247C286.882 36.8034 286.222 36.75 285.484 36.75V37.75V38.75C286.137 38.75 286.645 38.7982 287.026 38.88C287.416 38.9637 287.608 39.0691 287.69 39.1355L288.32 38.3594ZM285.484 37.75V36.75H282.461V37.75V38.75H285.484V37.75ZM282.461 37.75V36.75C281.333 36.75 280.365 37.1851 279.651 38.0511L280.422 38.6875L281.193 39.3239C281.51 38.9399 281.901 38.75 282.461 38.75V37.75ZM280.422 38.6875L279.634 38.0722C278.957 38.9385 278.672 40.0374 278.672 41.2656H279.672H280.672C280.672 40.3376 280.886 39.7178 281.21 39.3028L280.422 38.6875ZM281.594 19.8906H280.594C280.594 21.4908 280.813 22.8515 281.373 23.8444C281.98 24.9212 282.959 25.5078 284.195 25.5078V24.5078V23.5078C283.697 23.5078 283.376 23.3249 283.115 22.8626C282.808 22.3165 282.594 21.3686 282.594 19.8906H281.594ZM284.195 24.5078V25.5078C284.776 25.5078 285.332 25.3721 285.826 25.0684C286.318 24.7663 286.694 24.332 286.973 23.8188C287.513 22.8224 287.727 21.4562 287.727 19.8438H286.727H285.727C285.727 21.3407 285.518 22.3065 285.215 22.8648C285.072 23.1289 284.92 23.2777 284.779 23.3642C284.641 23.4492 284.458 23.5078 284.195 23.5078V24.5078ZM286.727 19.8438H287.727C287.727 18.1944 287.514 16.8028 286.978 15.7899C286.702 15.2686 286.328 14.825 285.836 14.5151C285.34 14.2029 284.781 14.0625 284.195 14.0625V15.0625V16.0625C284.454 16.0625 284.633 16.1213 284.77 16.2076C284.911 16.2961 285.064 16.4501 285.21 16.7257C285.517 17.3065 285.727 18.3056 285.727 19.8438H286.727ZM284.195 15.0625V14.0625C283.601 14.0625 283.035 14.2023 282.531 14.5138C282.03 14.8237 281.647 15.2688 281.364 15.7952C280.813 16.818 280.594 18.2241 280.594 19.8906H281.594H282.594C282.594 18.3384 282.808 17.3304 283.124 16.7439C283.274 16.4656 283.434 16.3072 283.583 16.2147C283.73 16.1239 283.922 16.0625 284.195 16.0625V15.0625ZM311.172 37.4688H310.172V38.4688H311.172V37.4688ZM305.336 18.1797L306.241 18.6055L306.243 18.6014L305.336 18.1797ZM304.398 37.4688V38.4688H305.398V37.4688H304.398ZM298.164 37.4688H297.164V38.4688H298.164V37.4688ZM298.164 11.3594V10.3594H297.164V11.3594H298.164ZM303.109 11.3594L304.085 11.141L303.91 10.3594H303.109V11.3594ZM303.859 14.7109L302.884 14.9293L303.058 15.7109H303.859V14.7109ZM304.258 14.7109V15.7109H304.894L305.164 15.1345L304.258 14.7109ZM306.672 11.8984L307.212 12.7401L307.221 12.7343L306.672 11.8984ZM315.672 13.3047L314.861 13.8896L314.864 13.8947L315.672 13.3047ZM317.453 37.4688V38.4688H318.453V37.4688H317.453ZM311.172 37.4688H312.172V21.9062H311.172H310.172V37.4688H311.172ZM311.172 21.9062H312.172C312.172 19.9649 311.944 18.3605 311.398 17.1935L310.492 17.6172L309.586 18.0409C309.947 18.8114 310.172 20.0663 310.172 21.9062H311.172ZM310.492 17.6172L311.398 17.1935C311.11 16.5781 310.704 16.0563 310.152 15.6926C309.597 15.3267 308.962 15.1641 308.289 15.1641V16.1641V17.1641C308.632 17.1641 308.871 17.2436 309.051 17.3621C309.234 17.4827 309.421 17.6875 309.586 18.0409L310.492 17.6172ZM308.289 16.1641V15.1641C307.443 15.1641 306.658 15.3786 305.979 15.842C305.306 16.3014 304.799 16.9624 304.429 17.758L305.336 18.1797L306.243 18.6014C306.498 18.0533 306.795 17.7064 307.107 17.4939C307.412 17.2855 307.792 17.1641 308.289 17.1641V16.1641ZM305.336 18.1797L304.431 17.7539C303.705 19.2978 303.398 21.7429 303.398 24.9297H304.398H305.398C305.398 21.7727 305.717 19.7178 306.241 18.6055L305.336 18.1797ZM304.398 24.9297H303.398V37.4688H304.398H305.398V24.9297H304.398ZM304.398 37.4688V36.4688H298.164V37.4688V38.4688H304.398V37.4688ZM298.164 37.4688H299.164V11.3594H298.164H297.164V37.4688H298.164ZM298.164 11.3594V12.3594H303.109V11.3594V10.3594H298.164V11.3594ZM303.109 11.3594L302.134 11.5778L302.884 14.9293L303.859 14.7109L304.835 14.4926L304.085 11.141L303.109 11.3594ZM303.859 14.7109V15.7109H304.258V14.7109V13.7109H303.859V14.7109ZM304.258 14.7109L305.164 15.1345C305.652 14.0903 306.335 13.3029 307.212 12.74L306.672 11.8984L306.132 11.0569C304.915 11.8377 303.989 12.9253 303.352 14.2874L304.258 14.7109ZM306.672 11.8984L307.221 12.7343C308.085 12.1667 309.116 11.8672 310.352 11.8672V10.8672V9.86719C308.775 9.86719 307.352 10.2552 306.123 11.0626L306.672 11.8984ZM310.352 10.8672V11.8672C312.473 11.8672 313.913 12.5757 314.861 13.8896L315.672 13.3047L316.483 12.7198C315.087 10.7837 312.98 9.86719 310.352 9.86719V10.8672ZM315.672 13.3047L314.864 13.8947C315.875 15.2772 316.453 17.4072 316.453 20.4297H317.453H318.453C318.453 17.2021 317.844 14.5821 316.479 12.7147L315.672 13.3047ZM317.453 20.4297H316.453V37.4688H317.453H318.453V20.4297H317.453ZM317.453 37.4688V36.4688H311.172V37.4688V38.4688H317.453V37.4688Z" fill="#01410B" mask="url(#path-1-outside-1_0_3)"/>
</svg>
