<svg width="14" height="14" viewBox="0 0 14 14" fill="none" xmlns="http://www.w3.org/2000/svg">
<rect width="14" height="14" fill="white"/>
<mask id="path-1-outside-1_0_1" maskUnits="userSpaceOnUse" x="-0.84375" y="-0.578122" width="8" height="14" fill="black">
<rect fill="white" x="-0.84375" y="-0.578122" width="8" height="14"/>
<path d="M1 12.4219H6.14844V1H1V2.83594H4.02344V5.55469H1.21875V7.39844H4.02344V10.5625H1V12.4219Z"/>
</mask>
<path d="M1 12.4219H6.14844V1H1V2.83594H4.02344V5.55469H1.21875V7.39844H4.02344V10.5625H1V12.4219Z" fill="black"/>
<path d="M1 12.4219V13.4219H0V12.4219H1ZM6.14844 12.4219H7.14844V13.4219H6.14844V12.4219ZM6.14844 1V2.86102e-06H7.14844V1H6.14844ZM1 1H0V2.86102e-06H1V1ZM1 2.83594V3.83594H0V2.83594H1ZM4.02344 2.83594V1.83594H5.02344V2.83594H4.02344ZM4.02344 5.55469H5.02344V6.55469H4.02344V5.55469ZM1.21875 5.55469H0.21875V4.55469H1.21875V5.55469ZM1.21875 7.39844V8.39844H0.21875V7.39844H1.21875ZM4.02344 7.39844V6.39844H5.02344V7.39844H4.02344ZM4.02344 10.5625H5.02344V11.5625H4.02344V10.5625ZM1 10.5625H0V9.5625H1V10.5625ZM1 12.4219V11.4219H6.14844V12.4219V13.4219H1V12.4219ZM6.14844 12.4219H5.14844V1H6.14844H7.14844V12.4219H6.14844ZM6.14844 1V2H1V1V2.86102e-06H6.14844V1ZM1 1H2V2.83594H1H0V1H1ZM1 2.83594V1.83594H4.02344V2.83594V3.83594H1V2.83594ZM4.02344 2.83594H5.02344V5.55469H4.02344H3.02344V2.83594H4.02344ZM4.02344 5.55469V6.55469H1.21875V5.55469V4.55469H4.02344V5.55469ZM1.21875 5.55469H2.21875V7.39844H1.21875H0.21875V5.55469H1.21875ZM1.21875 7.39844V6.39844H4.02344V7.39844V8.39844H1.21875V7.39844ZM4.02344 7.39844H5.02344V10.5625H4.02344H3.02344V7.39844H4.02344ZM4.02344 10.5625V11.5625H1V10.5625V9.5625H4.02344V10.5625ZM1 10.5625H2V12.4219H1H0V10.5625H1Z" fill="#01410B" mask="url(#path-1-outside-1_0_1)"/>
<mask id="path-3-outside-2_0_1" maskUnits="userSpaceOnUse" x="3.29368" y="-0.57815" width="10.0519" height="14.037" fill="black">
<rect fill="white" x="3.29368" y="-0.57815" width="10.0519" height="14.037"/>
<path d="M11.4223 12.4519L9.15673 12.4435L7.29988 7.55378L6.44516 8.40217L6.43019 12.4334L4.3052 12.4255L4.34763 1.00371L6.47261 1.0116L6.45157 6.67562L7.20011 4.96745L9.16009 1.02158L11.4335 1.03003L8.77454 5.9655L11.4223 12.4519Z"/>
</mask>
<path d="M11.4223 12.4519L9.15673 12.4435L7.29988 7.55378L6.44516 8.40217L6.43019 12.4334L4.3052 12.4255L4.34763 1.00371L6.47261 1.0116L6.45157 6.67562L7.20011 4.96745L9.16009 1.02158L11.4335 1.03003L8.77454 5.9655L11.4223 12.4519Z" fill="black"/>
<path d="M11.4223 12.4519L11.4186 13.4519L12.9129 13.4575L12.3482 12.074L11.4223 12.4519ZM9.15673 12.4435L8.22187 12.7985L8.46583 13.441L9.15301 13.4435L9.15673 12.4435ZM7.29988 7.55378L8.23474 7.19877L7.68815 5.7594L6.5954 6.84405L7.29988 7.55378ZM6.44516 8.40217L5.74068 7.69245L5.4467 7.98425L5.44517 8.39846L6.44516 8.40217ZM6.43019 12.4334L6.42647 13.4334L7.42646 13.4371L7.43018 12.4371L6.43019 12.4334ZM4.3052 12.4255L3.30521 12.4218L3.30149 13.4218L4.30149 13.4255L4.3052 12.4255ZM4.34763 1.00371L4.35134 0.00371456L3.35135 2.25451e-07L3.34763 0.999993L4.34763 1.00371ZM6.47261 1.0116L7.4726 1.01531L7.47632 0.0153218L6.47632 0.0116075L6.47261 1.0116ZM6.45157 6.67562L5.45158 6.67191L7.36749 7.07699L6.45157 6.67562ZM7.20011 4.96745L6.30451 4.5226L6.29383 4.5441L6.28419 4.56609L7.20011 4.96745ZM9.16009 1.02158L9.16381 0.0215898L8.54138 0.0192779L8.26449 0.576723L9.16009 1.02158ZM11.4335 1.03003L12.3139 1.50432L13.1048 0.0362281L11.4372 0.0300341L11.4335 1.03003ZM8.77454 5.9655L7.89417 5.4912L7.67038 5.90659L7.8487 6.34343L8.77454 5.9655ZM11.4223 12.4519L11.4261 11.4519L9.16044 11.4435L9.15673 12.4435L9.15301 13.4435L11.4186 13.4519L11.4223 12.4519ZM9.15673 12.4435L10.0916 12.0885L8.23474 7.19877L7.29988 7.55378L6.36502 7.90879L8.22187 12.7985L9.15673 12.4435ZM7.29988 7.55378L6.5954 6.84405L5.74068 7.69245L6.44516 8.40217L7.14963 9.1119L8.00435 8.26351L7.29988 7.55378ZM6.44516 8.40217L5.44517 8.39846L5.43019 12.4297L6.43019 12.4334L7.43018 12.4371L7.44515 8.40589L6.44516 8.40217ZM6.43019 12.4334L6.4339 11.4334L4.30891 11.4255L4.3052 12.4255L4.30149 13.4255L6.42647 13.4334L6.43019 12.4334ZM4.3052 12.4255L5.30519 12.4292L5.34762 1.00742L4.34763 1.00371L3.34763 0.999993L3.30521 12.4218L4.3052 12.4255ZM4.34763 1.00371L4.34391 2.0037L6.4689 2.01159L6.47261 1.0116L6.47632 0.0116075L4.35134 0.00371456L4.34763 1.00371ZM6.47261 1.0116L5.47262 1.00789L5.45158 6.67191L6.45157 6.67562L7.45157 6.67934L7.4726 1.01531L6.47261 1.0116ZM6.45157 6.67562L7.36749 7.07699L8.11603 5.36882L7.20011 4.96745L6.28419 4.56609L5.53565 6.27426L6.45157 6.67562ZM7.20011 4.96745L8.09571 5.41231L10.0557 1.46644L9.16009 1.02158L8.26449 0.576723L6.30451 4.5226L7.20011 4.96745ZM9.16009 1.02158L9.15638 2.02158L11.4298 2.03002L11.4335 1.03003L11.4372 0.0300341L9.16381 0.0215898L9.16009 1.02158ZM11.4335 1.03003L10.5531 0.555731L7.89417 5.4912L8.77454 5.9655L9.6549 6.43979L12.3139 1.50432L11.4335 1.03003ZM8.77454 5.9655L7.8487 6.34343L10.4965 12.8299L11.4223 12.4519L12.3482 12.074L9.70037 5.58757L8.77454 5.9655Z" fill="#01410B" mask="url(#path-3-outside-2_0_1)"/>
</svg>
