<svg width="160" height="25" viewBox="0 0 160 25" fill="none" xmlns="http://www.w3.org/2000/svg">
<mask id="path-1-outside-1_0_3" maskUnits="userSpaceOnUse" x="-0.367188" y="-0.265625" width="160" height="26" fill="black">
<rect fill="white" x="-0.367188" y="-0.265625" width="160" height="26"/>
<path d="M5.77344 18.9688C4.14062 18.9688 2.85156 18.3906 1.90625 17.2344C0.96875 16.0703 0.5 14.4258 0.5 12.3008C0.5 10.1445 0.925781 8.46094 1.77734 7.25C2.62891 6.03906 3.81641 5.43359 5.33984 5.43359C6.76172 5.43359 7.88281 5.95312 8.70312 6.99219C9.52344 8.02344 9.93359 9.47266 9.93359 11.3398V13.0039H3.66406C3.6875 14.168 3.92578 15.0352 4.37891 15.6055C4.83203 16.168 5.45703 16.4492 6.25391 16.4492C7.26953 16.4492 8.30859 16.1328 9.37109 15.5V18.0664C8.37109 18.668 7.17188 18.9688 5.77344 18.9688ZM5.31641 7.83594C4.87109 7.83594 4.50391 8.07422 4.21484 8.55078C3.92578 9.01953 3.75781 9.75 3.71094 10.7422H6.875C6.85938 9.78906 6.71484 9.06641 6.44141 8.57422C6.16797 8.08203 5.79297 7.83594 5.31641 7.83594ZM18.5 18.7344V10.9531C18.5 10.0078 18.3867 9.29297 18.1602 8.80859C17.9336 8.32422 17.5664 8.08203 17.0586 8.08203C16.3867 8.08203 15.8945 8.41797 15.582 9.08984C15.2695 9.75391 15.1133 10.8789 15.1133 12.4648V18.7344H11.9961V5.67969H14.4688L14.8438 7.35547H15.043C15.3242 6.75391 15.7266 6.28516 16.25 5.94922C16.7734 5.60547 17.3867 5.43359 18.0898 5.43359C19.2773 5.43359 20.1641 5.83984 20.75 6.65234C21.3438 7.46484 21.6406 8.65234 21.6406 10.2148V18.7344H18.5ZM27.2305 11.7031L28.0156 10.1445L30.5938 5.67969H33.8984L30.5938 11.0352L34.1211 18.7344H30.8516L28.4961 13.2148L27.2773 14.3164V18.7344H24.1602V0.5H27.2773V9.08984L27.1367 11.7031H27.2305ZM41.8789 18.7344L41.2578 16.9531H41.1875C40.7266 17.7188 40.25 18.2461 39.7578 18.5352C39.2656 18.8242 38.6445 18.9688 37.8945 18.9688C36.9336 18.9688 36.1758 18.6094 35.6211 17.8906C35.0742 17.1719 34.8008 16.1719 34.8008 14.8906C34.8008 13.5156 35.1758 12.4961 35.9258 11.832C36.6836 11.1602 37.8125 10.7891 39.3125 10.7188L41.0469 10.6484V9.71094C41.0469 8.49219 40.5195 7.88281 39.4648 7.88281C38.6836 7.88281 37.7852 8.1875 36.7695 8.79688L35.6914 6.64062C36.9883 5.82031 38.3984 5.41016 39.9219 5.41016C41.3047 5.41016 42.3555 5.80859 43.0742 6.60547C43.8008 7.39453 44.1641 8.51562 44.1641 9.96875V18.7344H41.8789ZM39.1719 16.5312C39.7422 16.5312 40.1953 16.2773 40.5312 15.7695C40.875 15.2539 41.0469 14.5703 41.0469 13.7188V12.6172L40.0859 12.6641C39.375 12.7031 38.8516 12.9062 38.5156 13.2734C38.1875 13.6406 38.0234 14.1875 38.0234 14.9141C38.0234 15.9922 38.4062 16.5312 39.1719 16.5312ZM52.5781 5.43359C53.7656 5.43359 54.6992 6.02344 55.3789 7.20312C56.0586 8.38281 56.3984 10.043 56.3984 12.1836C56.3984 14.3477 56.0547 16.0195 55.3672 17.1992C54.6875 18.3789 53.7422 18.9688 52.5312 18.9688C51.9453 18.9688 51.4258 18.8438 50.9727 18.5938C50.5273 18.3359 50.1055 17.8867 49.707 17.2461H49.5078L48.9805 18.7344H46.6836V0.5H49.8008V4.76562C49.8008 4.94531 49.7969 5.13281 49.7891 5.32812C49.7812 5.52344 49.7305 6.20703 49.6367 7.37891H49.8008C50.1836 6.66016 50.5977 6.15625 51.043 5.86719C51.4883 5.57812 52 5.43359 52.5781 5.43359ZM51.5 8.08203C50.9062 8.08203 50.4766 8.35938 50.2109 8.91406C49.9531 9.46875 49.8164 10.4453 49.8008 11.8438V12.1602C49.8008 13.6758 49.9336 14.7422 50.1992 15.3594C50.4727 15.9766 50.9141 16.2852 51.5234 16.2852C52.6484 16.2852 53.2109 14.9023 53.2109 12.1367C53.2109 9.43359 52.6406 8.08203 51.5 8.08203Z"/>
<path d="M67.6836 18.7344L66.3828 11.1523L65.9258 7.95312H65.8789C65.7617 8.99219 65.668 9.74609 65.5977 10.2148C65.5273 10.6758 65.0312 13.5156 64.1094 18.7344H60.1016L57.5 5.67969H60.6289L61.8242 12.875C61.9648 13.6719 62.0938 14.8398 62.2109 16.3789H62.2812C62.2969 15.9648 62.3516 15.3359 62.4453 14.4922C62.5391 13.6406 62.6055 13.0938 62.6445 12.8516L63.9336 5.67969H67.9414L69.2188 12.875C69.3672 13.6406 69.4961 14.8086 69.6055 16.3789H69.6523C69.7617 14.9805 69.8984 13.8125 70.0625 12.875L71.3047 5.67969H74.3516L71.7383 18.7344H67.6836ZM80.75 18.9688C79.1172 18.9688 77.8281 18.3906 76.8828 17.2344C75.9453 16.0703 75.4766 14.4258 75.4766 12.3008C75.4766 10.1445 75.9023 8.46094 76.7539 7.25C77.6055 6.03906 78.793 5.43359 80.3164 5.43359C81.7383 5.43359 82.8594 5.95312 83.6797 6.99219C84.5 8.02344 84.9102 9.47266 84.9102 11.3398V13.0039H78.6406C78.6641 14.168 78.9023 15.0352 79.3555 15.6055C79.8086 16.168 80.4336 16.4492 81.2305 16.4492C82.2461 16.4492 83.2852 16.1328 84.3477 15.5V18.0664C83.3477 18.668 82.1484 18.9688 80.75 18.9688ZM80.293 7.83594C79.8477 7.83594 79.4805 8.07422 79.1914 8.55078C78.9023 9.01953 78.7344 9.75 78.6875 10.7422H81.8516C81.8359 9.78906 81.6914 9.06641 81.418 8.57422C81.1445 8.08203 80.7695 7.83594 80.293 7.83594ZM92.8672 5.43359C94.0547 5.43359 94.9883 6.02344 95.668 7.20312C96.3477 8.38281 96.6875 10.043 96.6875 12.1836C96.6875 14.3477 96.3438 16.0195 95.6562 17.1992C94.9766 18.3789 94.0312 18.9688 92.8203 18.9688C92.2344 18.9688 91.7148 18.8438 91.2617 18.5938C90.8164 18.3359 90.3945 17.8867 89.9961 17.2461H89.7969L89.2695 18.7344H86.9727V0.5H90.0898V4.76562C90.0898 4.94531 90.0859 5.13281 90.0781 5.32812C90.0703 5.52344 90.0195 6.20703 89.9258 7.37891H90.0898C90.4727 6.66016 90.8867 6.15625 91.332 5.86719C91.7773 5.57812 92.2891 5.43359 92.8672 5.43359ZM91.7891 8.08203C91.1953 8.08203 90.7656 8.35938 90.5 8.91406C90.2422 9.46875 90.1055 10.4453 90.0898 11.8438V12.1602C90.0898 13.6758 90.2227 14.7422 90.4883 15.3594C90.7617 15.9766 91.2031 16.2852 91.8125 16.2852C92.9375 16.2852 93.5 14.9023 93.5 12.1367C93.5 9.43359 92.9297 8.08203 91.7891 8.08203ZM109.965 10.0039C109.965 12.832 109.387 14.9961 108.23 16.4961C107.082 17.9883 105.426 18.7344 103.262 18.7344H99.0664V1.60156H103.648C105.641 1.60156 107.191 2.33984 108.301 3.81641C109.41 5.28516 109.965 7.34766 109.965 10.0039ZM106.695 10.0977C106.695 6.26953 105.641 4.35547 103.531 4.35547H102.254V15.9453H103.285C104.449 15.9453 105.309 15.4609 105.863 14.4922C106.418 13.5156 106.695 12.0508 106.695 10.0977ZM117.102 18.9688C115.469 18.9688 114.18 18.3906 113.234 17.2344C112.297 16.0703 111.828 14.4258 111.828 12.3008C111.828 10.1445 112.254 8.46094 113.105 7.25C113.957 6.03906 115.145 5.43359 116.668 5.43359C118.09 5.43359 119.211 5.95312 120.031 6.99219C120.852 8.02344 121.262 9.47266 121.262 11.3398V13.0039H114.992C115.016 14.168 115.254 15.0352 115.707 15.6055C116.16 16.168 116.785 16.4492 117.582 16.4492C118.598 16.4492 119.637 16.1328 120.699 15.5V18.0664C119.699 18.668 118.5 18.9688 117.102 18.9688ZM116.645 7.83594C116.199 7.83594 115.832 8.07422 115.543 8.55078C115.254 9.01953 115.086 9.75 115.039 10.7422H118.203C118.188 9.78906 118.043 9.06641 117.77 8.57422C117.496 8.08203 117.121 7.83594 116.645 7.83594ZM130.332 14.9141C130.332 16.1875 129.957 17.1836 129.207 17.9023C128.465 18.6133 127.367 18.9688 125.914 18.9688C124.625 18.9688 123.559 18.7148 122.715 18.207V15.5C123.145 15.7969 123.645 16.043 124.215 16.2383C124.793 16.4336 125.301 16.5312 125.738 16.5312C126.223 16.5312 126.59 16.4141 126.84 16.1797C127.098 15.9375 127.227 15.6211 127.227 15.2305C127.227 14.832 127.094 14.4844 126.828 14.1875C126.562 13.8906 126.074 13.5273 125.363 13.0977C124.418 12.5352 123.738 11.9375 123.324 11.3047C122.918 10.6641 122.715 9.91016 122.715 9.04297C122.715 7.93359 123.094 7.05469 123.852 6.40625C124.617 5.75781 125.664 5.43359 126.992 5.43359C128.148 5.43359 129.238 5.73828 130.262 6.34766L129.242 8.58594C128.406 8.13281 127.672 7.90625 127.039 7.90625C126.641 7.90625 126.34 8.01172 126.137 8.22266C125.941 8.43359 125.844 8.69141 125.844 8.99609C125.844 9.34766 125.965 9.66016 126.207 9.93359C126.457 10.207 126.918 10.5469 127.59 10.9531C128.402 11.4453 128.973 11.8633 129.301 12.207C129.629 12.5508 129.883 12.9414 130.062 13.3789C130.242 13.8164 130.332 14.3281 130.332 14.9141ZM135.441 18.7344H132.324V5.67969H135.441V18.7344ZM132.195 2.26953C132.195 1.75391 132.344 1.34766 132.641 1.05078C132.945 0.746094 133.367 0.59375 133.906 0.59375C134.414 0.59375 134.82 0.746094 135.125 1.05078C135.43 1.34766 135.582 1.75391 135.582 2.26953C135.582 2.80078 135.426 3.21484 135.113 3.51172C134.801 3.80078 134.398 3.94531 133.906 3.94531C133.391 3.94531 132.977 3.80078 132.664 3.51172C132.352 3.21484 132.195 2.80078 132.195 2.26953ZM147.512 5.70312V7.53125L145.953 7.88281C146.258 8.42969 146.41 9.11719 146.41 9.94531C146.41 11.3281 146.035 12.4102 145.285 13.1914C144.535 13.9727 143.488 14.3633 142.145 14.3633C141.754 14.3633 141.465 14.332 141.277 14.2695C141.129 14.4023 140.988 14.5508 140.855 14.7148C140.723 14.8789 140.656 15.082 140.656 15.3242C140.656 15.8711 141.129 16.1445 142.074 16.1445H143.961C145.07 16.1445 145.922 16.4453 146.516 17.0469C147.117 17.6406 147.418 18.5391 147.418 19.7422C147.418 21.2578 146.91 22.4297 145.895 23.2578C144.879 24.0859 143.418 24.5 141.512 24.5C140.066 24.5 138.953 24.1836 138.172 23.5508C137.391 22.9258 137 22.0312 137 20.8672C137 20.1406 137.223 19.5 137.668 18.9453C138.113 18.3984 138.73 18 139.52 17.75C139.121 17.5938 138.793 17.3516 138.535 17.0234C138.285 16.6953 138.16 16.3125 138.16 15.875C138.16 15.6094 138.199 15.3711 138.277 15.1602C138.355 14.9414 138.465 14.7383 138.605 14.5508C138.754 14.3555 139.051 14.0703 139.496 13.6953C138.957 13.3672 138.531 12.8633 138.219 12.1836C137.906 11.5039 137.75 10.75 137.75 9.92188C137.75 8.49219 138.125 7.38672 138.875 6.60547C139.625 5.82422 140.699 5.43359 142.098 5.43359C142.363 5.43359 142.668 5.46484 143.012 5.52734C143.355 5.58203 143.617 5.64062 143.797 5.70312H147.512ZM139.836 20.6328C139.836 21.1484 139.996 21.543 140.316 21.8164C140.645 22.0977 141.109 22.2383 141.711 22.2383C142.656 22.2383 143.363 22.0586 143.832 21.6992C144.309 21.3398 144.547 20.8477 144.547 20.2227C144.547 19.7305 144.418 19.3828 144.16 19.1797C143.91 18.9766 143.438 18.875 142.742 18.875H141.23C140.809 18.875 140.469 19.0312 140.211 19.3438C139.961 19.6641 139.836 20.0938 139.836 20.6328ZM140.797 9.94531C140.797 11.4844 141.23 12.2539 142.098 12.2539C142.941 12.2539 143.363 11.4766 143.363 9.92188C143.363 8.32812 142.941 7.53125 142.098 7.53125C141.23 7.53125 140.797 8.33594 140.797 9.94531ZM155.586 18.7344V10.9531C155.586 10.0078 155.473 9.29297 155.246 8.80859C155.02 8.32422 154.652 8.08203 154.145 8.08203C153.473 8.08203 152.98 8.41797 152.668 9.08984C152.355 9.75391 152.199 10.8789 152.199 12.4648V18.7344H149.082V5.67969H151.555L151.93 7.35547H152.129C152.41 6.75391 152.812 6.28516 153.336 5.94922C153.859 5.60547 154.473 5.43359 155.176 5.43359C156.363 5.43359 157.25 5.83984 157.836 6.65234C158.43 7.46484 158.727 8.65234 158.727 10.2148V18.7344H155.586Z"/>
</mask>
<path d="M5.77344 18.9688C4.14062 18.9688 2.85156 18.3906 1.90625 17.2344C0.96875 16.0703 0.5 14.4258 0.5 12.3008C0.5 10.1445 0.925781 8.46094 1.77734 7.25C2.62891 6.03906 3.81641 5.43359 5.33984 5.43359C6.76172 5.43359 7.88281 5.95312 8.70312 6.99219C9.52344 8.02344 9.93359 9.47266 9.93359 11.3398V13.0039H3.66406C3.6875 14.168 3.92578 15.0352 4.37891 15.6055C4.83203 16.168 5.45703 16.4492 6.25391 16.4492C7.26953 16.4492 8.30859 16.1328 9.37109 15.5V18.0664C8.37109 18.668 7.17188 18.9688 5.77344 18.9688ZM5.31641 7.83594C4.87109 7.83594 4.50391 8.07422 4.21484 8.55078C3.92578 9.01953 3.75781 9.75 3.71094 10.7422H6.875C6.85938 9.78906 6.71484 9.06641 6.44141 8.57422C6.16797 8.08203 5.79297 7.83594 5.31641 7.83594ZM18.5 18.7344V10.9531C18.5 10.0078 18.3867 9.29297 18.1602 8.80859C17.9336 8.32422 17.5664 8.08203 17.0586 8.08203C16.3867 8.08203 15.8945 8.41797 15.582 9.08984C15.2695 9.75391 15.1133 10.8789 15.1133 12.4648V18.7344H11.9961V5.67969H14.4688L14.8438 7.35547H15.043C15.3242 6.75391 15.7266 6.28516 16.25 5.94922C16.7734 5.60547 17.3867 5.43359 18.0898 5.43359C19.2773 5.43359 20.1641 5.83984 20.75 6.65234C21.3438 7.46484 21.6406 8.65234 21.6406 10.2148V18.7344H18.5ZM27.2305 11.7031L28.0156 10.1445L30.5938 5.67969H33.8984L30.5938 11.0352L34.1211 18.7344H30.8516L28.4961 13.2148L27.2773 14.3164V18.7344H24.1602V0.5H27.2773V9.08984L27.1367 11.7031H27.2305ZM41.8789 18.7344L41.2578 16.9531H41.1875C40.7266 17.7188 40.25 18.2461 39.7578 18.5352C39.2656 18.8242 38.6445 18.9688 37.8945 18.9688C36.9336 18.9688 36.1758 18.6094 35.6211 17.8906C35.0742 17.1719 34.8008 16.1719 34.8008 14.8906C34.8008 13.5156 35.1758 12.4961 35.9258 11.832C36.6836 11.1602 37.8125 10.7891 39.3125 10.7188L41.0469 10.6484V9.71094C41.0469 8.49219 40.5195 7.88281 39.4648 7.88281C38.6836 7.88281 37.7852 8.1875 36.7695 8.79688L35.6914 6.64062C36.9883 5.82031 38.3984 5.41016 39.9219 5.41016C41.3047 5.41016 42.3555 5.80859 43.0742 6.60547C43.8008 7.39453 44.1641 8.51562 44.1641 9.96875V18.7344H41.8789ZM39.1719 16.5312C39.7422 16.5312 40.1953 16.2773 40.5312 15.7695C40.875 15.2539 41.0469 14.5703 41.0469 13.7188V12.6172L40.0859 12.6641C39.375 12.7031 38.8516 12.9062 38.5156 13.2734C38.1875 13.6406 38.0234 14.1875 38.0234 14.9141C38.0234 15.9922 38.4062 16.5312 39.1719 16.5312ZM52.5781 5.43359C53.7656 5.43359 54.6992 6.02344 55.3789 7.20312C56.0586 8.38281 56.3984 10.043 56.3984 12.1836C56.3984 14.3477 56.0547 16.0195 55.3672 17.1992C54.6875 18.3789 53.7422 18.9688 52.5312 18.9688C51.9453 18.9688 51.4258 18.8438 50.9727 18.5938C50.5273 18.3359 50.1055 17.8867 49.707 17.2461H49.5078L48.9805 18.7344H46.6836V0.5H49.8008V4.76562C49.8008 4.94531 49.7969 5.13281 49.7891 5.32812C49.7812 5.52344 49.7305 6.20703 49.6367 7.37891H49.8008C50.1836 6.66016 50.5977 6.15625 51.043 5.86719C51.4883 5.57812 52 5.43359 52.5781 5.43359ZM51.5 8.08203C50.9062 8.08203 50.4766 8.35938 50.2109 8.91406C49.9531 9.46875 49.8164 10.4453 49.8008 11.8438V12.1602C49.8008 13.6758 49.9336 14.7422 50.1992 15.3594C50.4727 15.9766 50.9141 16.2852 51.5234 16.2852C52.6484 16.2852 53.2109 14.9023 53.2109 12.1367C53.2109 9.43359 52.6406 8.08203 51.5 8.08203Z" fill="black"/>
<path d="M67.6836 18.7344L66.3828 11.1523L65.9258 7.95312H65.8789C65.7617 8.99219 65.668 9.74609 65.5977 10.2148C65.5273 10.6758 65.0312 13.5156 64.1094 18.7344H60.1016L57.5 5.67969H60.6289L61.8242 12.875C61.9648 13.6719 62.0938 14.8398 62.2109 16.3789H62.2812C62.2969 15.9648 62.3516 15.3359 62.4453 14.4922C62.5391 13.6406 62.6055 13.0938 62.6445 12.8516L63.9336 5.67969H67.9414L69.2188 12.875C69.3672 13.6406 69.4961 14.8086 69.6055 16.3789H69.6523C69.7617 14.9805 69.8984 13.8125 70.0625 12.875L71.3047 5.67969H74.3516L71.7383 18.7344H67.6836ZM80.75 18.9688C79.1172 18.9688 77.8281 18.3906 76.8828 17.2344C75.9453 16.0703 75.4766 14.4258 75.4766 12.3008C75.4766 10.1445 75.9023 8.46094 76.7539 7.25C77.6055 6.03906 78.793 5.43359 80.3164 5.43359C81.7383 5.43359 82.8594 5.95312 83.6797 6.99219C84.5 8.02344 84.9102 9.47266 84.9102 11.3398V13.0039H78.6406C78.6641 14.168 78.9023 15.0352 79.3555 15.6055C79.8086 16.168 80.4336 16.4492 81.2305 16.4492C82.2461 16.4492 83.2852 16.1328 84.3477 15.5V18.0664C83.3477 18.668 82.1484 18.9688 80.75 18.9688ZM80.293 7.83594C79.8477 7.83594 79.4805 8.07422 79.1914 8.55078C78.9023 9.01953 78.7344 9.75 78.6875 10.7422H81.8516C81.8359 9.78906 81.6914 9.06641 81.418 8.57422C81.1445 8.08203 80.7695 7.83594 80.293 7.83594ZM92.8672 5.43359C94.0547 5.43359 94.9883 6.02344 95.668 7.20312C96.3477 8.38281 96.6875 10.043 96.6875 12.1836C96.6875 14.3477 96.3438 16.0195 95.6562 17.1992C94.9766 18.3789 94.0312 18.9688 92.8203 18.9688C92.2344 18.9688 91.7148 18.8438 91.2617 18.5938C90.8164 18.3359 90.3945 17.8867 89.9961 17.2461H89.7969L89.2695 18.7344H86.9727V0.5H90.0898V4.76562C90.0898 4.94531 90.0859 5.13281 90.0781 5.32812C90.0703 5.52344 90.0195 6.20703 89.9258 7.37891H90.0898C90.4727 6.66016 90.8867 6.15625 91.332 5.86719C91.7773 5.57812 92.2891 5.43359 92.8672 5.43359ZM91.7891 8.08203C91.1953 8.08203 90.7656 8.35938 90.5 8.91406C90.2422 9.46875 90.1055 10.4453 90.0898 11.8438V12.1602C90.0898 13.6758 90.2227 14.7422 90.4883 15.3594C90.7617 15.9766 91.2031 16.2852 91.8125 16.2852C92.9375 16.2852 93.5 14.9023 93.5 12.1367C93.5 9.43359 92.9297 8.08203 91.7891 8.08203ZM109.965 10.0039C109.965 12.832 109.387 14.9961 108.23 16.4961C107.082 17.9883 105.426 18.7344 103.262 18.7344H99.0664V1.60156H103.648C105.641 1.60156 107.191 2.33984 108.301 3.81641C109.41 5.28516 109.965 7.34766 109.965 10.0039ZM106.695 10.0977C106.695 6.26953 105.641 4.35547 103.531 4.35547H102.254V15.9453H103.285C104.449 15.9453 105.309 15.4609 105.863 14.4922C106.418 13.5156 106.695 12.0508 106.695 10.0977ZM117.102 18.9688C115.469 18.9688 114.18 18.3906 113.234 17.2344C112.297 16.0703 111.828 14.4258 111.828 12.3008C111.828 10.1445 112.254 8.46094 113.105 7.25C113.957 6.03906 115.145 5.43359 116.668 5.43359C118.09 5.43359 119.211 5.95312 120.031 6.99219C120.852 8.02344 121.262 9.47266 121.262 11.3398V13.0039H114.992C115.016 14.168 115.254 15.0352 115.707 15.6055C116.16 16.168 116.785 16.4492 117.582 16.4492C118.598 16.4492 119.637 16.1328 120.699 15.5V18.0664C119.699 18.668 118.5 18.9688 117.102 18.9688ZM116.645 7.83594C116.199 7.83594 115.832 8.07422 115.543 8.55078C115.254 9.01953 115.086 9.75 115.039 10.7422H118.203C118.188 9.78906 118.043 9.06641 117.77 8.57422C117.496 8.08203 117.121 7.83594 116.645 7.83594ZM130.332 14.9141C130.332 16.1875 129.957 17.1836 129.207 17.9023C128.465 18.6133 127.367 18.9688 125.914 18.9688C124.625 18.9688 123.559 18.7148 122.715 18.207V15.5C123.145 15.7969 123.645 16.043 124.215 16.2383C124.793 16.4336 125.301 16.5312 125.738 16.5312C126.223 16.5312 126.59 16.4141 126.84 16.1797C127.098 15.9375 127.227 15.6211 127.227 15.2305C127.227 14.832 127.094 14.4844 126.828 14.1875C126.562 13.8906 126.074 13.5273 125.363 13.0977C124.418 12.5352 123.738 11.9375 123.324 11.3047C122.918 10.6641 122.715 9.91016 122.715 9.04297C122.715 7.93359 123.094 7.05469 123.852 6.40625C124.617 5.75781 125.664 5.43359 126.992 5.43359C128.148 5.43359 129.238 5.73828 130.262 6.34766L129.242 8.58594C128.406 8.13281 127.672 7.90625 127.039 7.90625C126.641 7.90625 126.34 8.01172 126.137 8.22266C125.941 8.43359 125.844 8.69141 125.844 8.99609C125.844 9.34766 125.965 9.66016 126.207 9.93359C126.457 10.207 126.918 10.5469 127.59 10.9531C128.402 11.4453 128.973 11.8633 129.301 12.207C129.629 12.5508 129.883 12.9414 130.062 13.3789C130.242 13.8164 130.332 14.3281 130.332 14.9141ZM135.441 18.7344H132.324V5.67969H135.441V18.7344ZM132.195 2.26953C132.195 1.75391 132.344 1.34766 132.641 1.05078C132.945 0.746094 133.367 0.59375 133.906 0.59375C134.414 0.59375 134.82 0.746094 135.125 1.05078C135.43 1.34766 135.582 1.75391 135.582 2.26953C135.582 2.80078 135.426 3.21484 135.113 3.51172C134.801 3.80078 134.398 3.94531 133.906 3.94531C133.391 3.94531 132.977 3.80078 132.664 3.51172C132.352 3.21484 132.195 2.80078 132.195 2.26953ZM147.512 5.70312V7.53125L145.953 7.88281C146.258 8.42969 146.41 9.11719 146.41 9.94531C146.41 11.3281 146.035 12.4102 145.285 13.1914C144.535 13.9727 143.488 14.3633 142.145 14.3633C141.754 14.3633 141.465 14.332 141.277 14.2695C141.129 14.4023 140.988 14.5508 140.855 14.7148C140.723 14.8789 140.656 15.082 140.656 15.3242C140.656 15.8711 141.129 16.1445 142.074 16.1445H143.961C145.07 16.1445 145.922 16.4453 146.516 17.0469C147.117 17.6406 147.418 18.5391 147.418 19.7422C147.418 21.2578 146.91 22.4297 145.895 23.2578C144.879 24.0859 143.418 24.5 141.512 24.5C140.066 24.5 138.953 24.1836 138.172 23.5508C137.391 22.9258 137 22.0312 137 20.8672C137 20.1406 137.223 19.5 137.668 18.9453C138.113 18.3984 138.73 18 139.52 17.75C139.121 17.5938 138.793 17.3516 138.535 17.0234C138.285 16.6953 138.16 16.3125 138.16 15.875C138.16 15.6094 138.199 15.3711 138.277 15.1602C138.355 14.9414 138.465 14.7383 138.605 14.5508C138.754 14.3555 139.051 14.0703 139.496 13.6953C138.957 13.3672 138.531 12.8633 138.219 12.1836C137.906 11.5039 137.75 10.75 137.75 9.92188C137.75 8.49219 138.125 7.38672 138.875 6.60547C139.625 5.82422 140.699 5.43359 142.098 5.43359C142.363 5.43359 142.668 5.46484 143.012 5.52734C143.355 5.58203 143.617 5.64062 143.797 5.70312H147.512ZM139.836 20.6328C139.836 21.1484 139.996 21.543 140.316 21.8164C140.645 22.0977 141.109 22.2383 141.711 22.2383C142.656 22.2383 143.363 22.0586 143.832 21.6992C144.309 21.3398 144.547 20.8477 144.547 20.2227C144.547 19.7305 144.418 19.3828 144.16 19.1797C143.91 18.9766 143.438 18.875 142.742 18.875H141.23C140.809 18.875 140.469 19.0312 140.211 19.3438C139.961 19.6641 139.836 20.0938 139.836 20.6328ZM140.797 9.94531C140.797 11.4844 141.23 12.2539 142.098 12.2539C142.941 12.2539 143.363 11.4766 143.363 9.92188C143.363 8.32812 142.941 7.53125 142.098 7.53125C141.23 7.53125 140.797 8.33594 140.797 9.94531ZM155.586 18.7344V10.9531C155.586 10.0078 155.473 9.29297 155.246 8.80859C155.02 8.32422 154.652 8.08203 154.145 8.08203C153.473 8.08203 152.98 8.41797 152.668 9.08984C152.355 9.75391 152.199 10.8789 152.199 12.4648V18.7344H149.082V5.67969H151.555L151.93 7.35547H152.129C152.41 6.75391 152.812 6.28516 153.336 5.94922C153.859 5.60547 154.473 5.43359 155.176 5.43359C156.363 5.43359 157.25 5.83984 157.836 6.65234C158.43 7.46484 158.727 8.65234 158.727 10.2148V18.7344H155.586Z" fill="white"/>
<path d="M1.90625 17.2344L1.51683 17.548L1.51915 17.5509L1.90625 17.2344ZM8.70312 6.99219L8.31068 7.30201L8.31182 7.30345L8.70312 6.99219ZM9.93359 13.0039V13.5039H10.4336V13.0039H9.93359ZM3.66406 13.0039V12.5039H3.15389L3.16416 13.014L3.66406 13.0039ZM4.37891 15.6055L3.98742 15.9165L3.98953 15.9191L4.37891 15.6055ZM9.37109 15.5H9.87109V14.6202L9.11524 15.0704L9.37109 15.5ZM9.37109 18.0664L9.62883 18.4949L9.87109 18.3491V18.0664H9.37109ZM4.21484 8.55078L4.64044 8.81323L4.64235 8.81009L4.21484 8.55078ZM3.71094 10.7422L3.21149 10.7186L3.18676 11.2422H3.71094V10.7422ZM6.875 10.7422V11.2422H7.38326L7.37493 10.734L6.875 10.7422ZM5.77344 18.9688V18.4688C4.27472 18.4688 3.13405 17.9462 2.29335 16.9179L1.90625 17.2344L1.51915 17.5509C2.56907 18.8351 4.00653 19.4688 5.77344 19.4688V18.9688ZM1.90625 17.2344L2.29566 16.9208C1.45454 15.8764 1 14.3588 1 12.3008H0.5H0C0 14.4928 0.482959 16.2643 1.51684 17.548L1.90625 17.2344ZM0.5 12.3008H1C1 10.2026 1.41542 8.63388 2.18634 7.53762L1.77734 7.25L1.36835 6.96238C0.436143 8.288 0 10.0864 0 12.3008H0.5ZM1.77734 7.25L2.18634 7.53762C2.94107 6.46437 3.97355 5.93359 5.33984 5.93359V5.43359V4.93359C3.65926 4.93359 2.31674 5.61376 1.36835 6.96238L1.77734 7.25ZM5.33984 5.43359V5.93359C6.62174 5.93359 7.59299 6.39293 8.31068 7.30201L8.70312 6.99219L9.09557 6.68237C8.17263 5.51332 6.9017 4.93359 5.33984 4.93359V5.43359ZM8.70312 6.99219L8.31182 7.30345C9.0376 8.21585 9.43359 9.53959 9.43359 11.3398H9.93359H10.4336C10.4336 9.40572 10.0093 7.83103 9.09443 6.68093L8.70312 6.99219ZM9.93359 11.3398H9.43359V13.0039H9.93359H10.4336V11.3398H9.93359ZM9.93359 13.0039V12.5039H3.66406V13.0039V13.5039H9.93359V13.0039ZM3.66406 13.0039L3.16416 13.014C3.18858 14.2267 3.43614 15.2227 3.98743 15.9165L4.37891 15.6055L4.77038 15.2944C4.41542 14.8477 4.18642 14.1092 4.16396 12.9938L3.66406 13.0039ZM4.37891 15.6055L3.98953 15.9191C4.54819 16.6126 5.32351 16.9492 6.25391 16.9492V16.4492V15.9492C5.59055 15.9492 5.11587 15.7233 4.76828 15.2918L4.37891 15.6055ZM6.25391 16.4492V16.9492C7.37736 16.9492 8.50389 16.5985 9.62695 15.9296L9.37109 15.5L9.11524 15.0704C8.1133 15.6672 7.16171 15.9492 6.25391 15.9492V16.4492ZM9.37109 15.5H8.87109V18.0664H9.37109H9.87109V15.5H9.37109ZM9.37109 18.0664L9.11335 17.638C8.20535 18.1842 7.09916 18.4688 5.77344 18.4688V18.9688V19.4688C7.24459 19.4688 8.53684 19.1518 9.62883 18.4949L9.37109 18.0664ZM5.31641 7.83594V7.33594C4.65095 7.33594 4.14073 7.70885 3.78734 8.29148L4.21484 8.55078L4.64235 8.81009C4.86708 8.43958 5.09123 8.33594 5.31641 8.33594V7.83594ZM4.21484 8.55078L3.78926 8.28834C3.43289 8.86623 3.25962 9.69985 3.21149 10.7186L3.71094 10.7422L4.21038 10.7658C4.256 9.80015 4.41867 9.17283 4.64043 8.81322L4.21484 8.55078ZM3.71094 10.7422V11.2422H6.875V10.7422V10.2422H3.71094V10.7422ZM6.875 10.7422L7.37493 10.734C7.35878 9.74855 7.21054 8.9291 6.87848 8.3314L6.44141 8.57422L6.00433 8.81704C6.21914 9.20371 6.35997 9.82958 6.37507 10.7504L6.875 10.7422ZM6.44141 8.57422L6.87848 8.3314C6.53599 7.71491 6.0108 7.33594 5.31641 7.33594V7.83594V8.33594C5.57514 8.33594 5.79995 8.44915 6.00433 8.81704L6.44141 8.57422ZM18.5 18.7344H18V19.2344H18.5V18.7344ZM15.582 9.08984L16.0344 9.30275L16.0354 9.30071L15.582 9.08984ZM15.1133 18.7344V19.2344H15.6133V18.7344H15.1133ZM11.9961 18.7344H11.4961V19.2344H11.9961V18.7344ZM11.9961 5.67969V5.17969H11.4961V5.67969H11.9961ZM14.4688 5.67969L14.9567 5.5705L14.8692 5.17969H14.4688V5.67969ZM14.8438 7.35547L14.3558 7.46466L14.4433 7.85547H14.8438V7.35547ZM15.043 7.35547V7.85547H15.3612L15.4959 7.56723L15.043 7.35547ZM16.25 5.94922L16.5201 6.37004L16.5245 6.36715L16.25 5.94922ZM20.75 6.65234L20.3444 6.94481L20.3463 6.94735L20.75 6.65234ZM21.6406 18.7344V19.2344H22.1406V18.7344H21.6406ZM18.5 18.7344H19V10.9531H18.5H18V18.7344H18.5ZM18.5 10.9531H19C19 9.98246 18.886 9.18024 18.6131 8.59675L18.1602 8.80859L17.7073 9.02044C17.8875 9.40569 18 10.0332 18 10.9531H18.5ZM18.1602 8.80859L18.6131 8.59675C18.4691 8.28905 18.2659 8.02816 17.9901 7.84629C17.7128 7.66335 17.3949 7.58203 17.0586 7.58203V8.08203V8.58203C17.2301 8.58203 17.3497 8.6218 17.4395 8.68106C17.531 8.74137 17.6246 8.84377 17.7073 9.02044L18.1602 8.80859ZM17.0586 8.08203V7.58203C16.6354 7.58203 16.2432 7.68929 15.9037 7.92101C15.5672 8.15069 15.3137 8.48118 15.1287 8.87898L15.582 9.08984L16.0354 9.30071C16.1629 9.02663 16.3117 8.85322 16.4674 8.74696C16.6201 8.64275 16.8099 8.58203 17.0586 8.58203V8.08203ZM15.582 9.08984L15.1296 8.87695C14.7663 9.64891 14.6133 10.8714 14.6133 12.4648H15.1133H15.6133C15.6133 10.8864 15.7727 9.8589 16.0344 9.30274L15.582 9.08984ZM15.1133 12.4648H14.6133V18.7344H15.1133H15.6133V12.4648H15.1133ZM15.1133 18.7344V18.2344H11.9961V18.7344V19.2344H15.1133V18.7344ZM11.9961 18.7344H12.4961V5.67969H11.9961H11.4961V18.7344H11.9961ZM11.9961 5.67969V6.17969H14.4688V5.67969V5.17969H11.9961V5.67969ZM14.4688 5.67969L13.9808 5.78888L14.3558 7.46466L14.8438 7.35547L15.3317 7.24628L14.9567 5.5705L14.4688 5.67969ZM14.8438 7.35547V7.85547H15.043V7.35547V6.85547H14.8438V7.35547ZM15.043 7.35547L15.4959 7.56723C15.74 7.04517 16.0815 6.65145 16.5201 6.37001L16.25 5.94922L15.9799 5.52843C15.3716 5.91886 14.9084 6.46264 14.59 7.1437L15.043 7.35547ZM16.25 5.94922L16.5245 6.36715C16.9566 6.08336 17.4719 5.93359 18.0898 5.93359V5.43359V4.93359C17.3016 4.93359 16.5903 5.12758 15.9755 5.53128L16.25 5.94922ZM18.0898 5.43359V5.93359C19.1505 5.93359 19.8707 6.28786 20.3445 6.9448L20.75 6.65234L21.1555 6.35988C20.4574 5.39183 19.4042 4.93359 18.0898 4.93359V5.43359ZM20.75 6.65234L20.3463 6.94735C20.8515 7.63862 21.1406 8.70362 21.1406 10.2148H21.6406H22.1406C22.1406 8.60107 21.836 7.29107 21.1537 6.35734L20.75 6.65234ZM21.6406 10.2148H21.1406V18.7344H21.6406H22.1406V10.2148H21.6406ZM21.6406 18.7344V18.2344H18.5V18.7344V19.2344H21.6406V18.7344ZM27.2305 11.7031V12.2031H27.5384L27.677 11.9281L27.2305 11.7031ZM28.0156 10.1445L27.5826 9.89451L27.5755 9.90685L27.5691 9.91958L28.0156 10.1445ZM30.5938 5.67969V5.17969H30.3051L30.1608 5.42966L30.5938 5.67969ZM33.8984 5.67969L34.3239 5.94226L34.7945 5.17969H33.8984V5.67969ZM30.5938 11.0352L30.1682 10.7726L30.0278 11.0002L30.1392 11.2434L30.5938 11.0352ZM34.1211 18.7344V19.2344H34.9001L34.5757 18.5261L34.1211 18.7344ZM30.8516 18.7344L30.3917 18.9306L30.5213 19.2344H30.8516V18.7344ZM28.4961 13.2148L28.956 13.0186L28.6808 12.3739L28.1608 12.8439L28.4961 13.2148ZM27.2773 14.3164L26.9421 13.9455L26.7773 14.0944V14.3164H27.2773ZM27.2773 18.7344V19.2344H27.7773V18.7344H27.2773ZM24.1602 18.7344H23.6602V19.2344H24.1602V18.7344ZM24.1602 0.5V0H23.6602V0.5H24.1602ZM27.2773 0.5H27.7773V0H27.2773V0.5ZM27.2773 9.08984L27.7766 9.11671L27.7773 9.10329V9.08984H27.2773ZM27.1367 11.7031L26.6374 11.6763L26.6091 12.2031H27.1367V11.7031ZM27.2305 11.7031L27.677 11.9281L28.4622 10.3695L28.0156 10.1445L27.5691 9.91958L26.7839 11.4782L27.2305 11.7031ZM28.0156 10.1445L28.4486 10.3946L31.0267 5.92971L30.5938 5.67969L30.1608 5.42966L27.5826 9.89451L28.0156 10.1445ZM30.5938 5.67969V6.17969H33.8984V5.67969V5.17969H30.5938V5.67969ZM33.8984 5.67969L33.4729 5.41712L30.1682 10.7726L30.5938 11.0352L31.0193 11.2977L34.3239 5.94226L33.8984 5.67969ZM30.5938 11.0352L30.1392 11.2434L33.6665 18.9426L34.1211 18.7344L34.5757 18.5261L31.0483 10.8269L30.5938 11.0352ZM34.1211 18.7344V18.2344H30.8516V18.7344V19.2344H34.1211V18.7344ZM30.8516 18.7344L31.3114 18.5381L28.956 13.0186L28.4961 13.2148L28.0362 13.4111L30.3917 18.9306L30.8516 18.7344ZM28.4961 13.2148L28.1608 12.8439L26.9421 13.9455L27.2773 14.3164L27.6126 14.6873L28.8314 13.5858L28.4961 13.2148ZM27.2773 14.3164H26.7773V18.7344H27.2773H27.7773V14.3164H27.2773ZM27.2773 18.7344V18.2344H24.1602V18.7344V19.2344H27.2773V18.7344ZM24.1602 18.7344H24.6602V0.5H24.1602H23.6602V18.7344H24.1602ZM24.1602 0.5V1H27.2773V0.5V0H24.1602V0.5ZM27.2773 0.5H26.7773V9.08984H27.2773H27.7773V0.5H27.2773ZM27.2773 9.08984L26.7781 9.06298L26.6374 11.6763L27.1367 11.7031L27.636 11.73L27.7766 9.11671L27.2773 9.08984ZM27.1367 11.7031V12.2031H27.2305V11.7031V11.2031H27.1367V11.7031ZM41.8789 18.7344L41.4068 18.899L41.5237 19.2344H41.8789V18.7344ZM41.2578 16.9531L41.7299 16.7885L41.613 16.4531H41.2578V16.9531ZM41.1875 16.9531V16.4531H40.9049L40.7591 16.6952L41.1875 16.9531ZM35.6211 17.8906L35.2232 18.1934L35.2253 18.1961L35.6211 17.8906ZM35.9258 11.832L36.2572 12.2064L36.2575 12.2062L35.9258 11.832ZM39.3125 10.7188L39.2922 10.2192L39.2891 10.2193L39.3125 10.7188ZM41.0469 10.6484L41.0671 11.148L41.5469 11.1286V10.6484H41.0469ZM36.7695 8.79688L36.3223 9.02048L36.5638 9.50342L37.0268 9.22562L36.7695 8.79688ZM35.6914 6.64062L35.4241 6.21806L35.042 6.45979L35.2442 6.86423L35.6914 6.64062ZM43.0742 6.60547L42.7029 6.94037L42.7064 6.94415L43.0742 6.60547ZM44.1641 18.7344V19.2344H44.6641V18.7344H44.1641ZM40.5312 15.7695L40.1152 15.4922L40.1142 15.4937L40.5312 15.7695ZM41.0469 12.6172H41.5469V12.0922L41.0225 12.1178L41.0469 12.6172ZM40.0859 12.6641L40.0616 12.1646L40.0585 12.1648L40.0859 12.6641ZM38.5156 13.2734L38.1467 12.9359L38.1428 12.9403L38.5156 13.2734ZM41.8789 18.7344L42.351 18.5698L41.7299 16.7885L41.2578 16.9531L40.7857 17.1177L41.4068 18.899L41.8789 18.7344ZM41.2578 16.9531V16.4531H41.1875V16.9531V17.4531H41.2578V16.9531ZM41.1875 16.9531L40.7591 16.6952C40.3192 17.426 39.8953 17.8745 39.5046 18.104L39.7578 18.5352L40.011 18.9663C40.6047 18.6177 41.1339 18.0115 41.6159 17.211L41.1875 16.9531ZM39.7578 18.5352L39.5046 18.104C39.1097 18.336 38.5827 18.4688 37.8945 18.4688V18.9688V19.4688C38.7064 19.4688 39.4216 19.3125 40.011 18.9663L39.7578 18.5352ZM37.8945 18.9688V18.4688C37.078 18.4688 36.4707 18.1731 36.0169 17.5851L35.6211 17.8906L35.2253 18.1961C35.8809 19.0456 36.7891 19.4688 37.8945 19.4688V18.9688ZM35.6211 17.8906L36.019 17.5879C35.561 16.986 35.3008 16.107 35.3008 14.8906H34.8008H34.3008C34.3008 16.2367 34.5874 17.3578 35.2232 18.1934L35.6211 17.8906ZM34.8008 14.8906H35.3008C35.3008 13.6032 35.65 12.744 36.2572 12.2064L35.9258 11.832L35.5943 11.4577C34.7016 12.2481 34.3008 13.4281 34.3008 14.8906H34.8008ZM35.9258 11.832L36.2575 12.2062C36.8972 11.639 37.8969 11.2857 39.3359 11.2182L39.3125 10.7188L39.2891 10.2193C37.7281 10.2925 36.47 10.6813 35.5941 11.4579L35.9258 11.832ZM39.3125 10.7188L39.3328 11.2183L41.0671 11.148L41.0469 10.6484L41.0266 10.1488L39.2922 10.2192L39.3125 10.7188ZM41.0469 10.6484H41.5469V9.71094H41.0469H40.5469V10.6484H41.0469ZM41.0469 9.71094H41.5469C41.5469 9.04079 41.4034 8.44482 41.0294 8.01266C40.6435 7.56666 40.0896 7.38281 39.4648 7.38281V7.88281V8.38281C39.8948 8.38281 40.1319 8.50365 40.2733 8.66703C40.4266 8.84424 40.5469 9.16234 40.5469 9.71094H41.0469ZM39.4648 7.88281V7.38281C38.5578 7.38281 37.5685 7.73438 36.5123 8.36813L36.7695 8.79688L37.0268 9.22562C38.0018 8.64062 38.8094 8.38281 39.4648 8.38281V7.88281ZM36.7695 8.79688L37.2167 8.57327L36.1386 6.41702L35.6914 6.64062L35.2442 6.86423L36.3223 9.02048L36.7695 8.79688ZM35.6914 6.64062L35.9587 7.06319C37.1762 6.29307 38.4938 5.91016 39.9219 5.91016V5.41016V4.91016C38.3031 4.91016 36.8004 5.34756 35.4241 6.21806L35.6914 6.64062ZM39.9219 5.41016V5.91016C41.2066 5.91016 42.1046 6.27702 42.7029 6.94035L43.0742 6.60547L43.4455 6.27058C42.6063 5.34017 41.4028 4.91016 39.9219 4.91016V5.41016ZM43.0742 6.60547L42.7064 6.94415C43.3217 7.61233 43.6641 8.59594 43.6641 9.96875H44.1641H44.6641C44.6641 8.43531 44.2799 7.17673 43.442 6.26678L43.0742 6.60547ZM44.1641 9.96875H43.6641V18.7344H44.1641H44.6641V9.96875H44.1641ZM44.1641 18.7344V18.2344H41.8789V18.7344V19.2344H44.1641V18.7344ZM39.1719 16.5312V17.0312C39.9231 17.0312 40.5272 16.6819 40.9483 16.0454L40.5312 15.7695L40.1142 15.4937C39.8634 15.8728 39.5613 16.0312 39.1719 16.0312V16.5312ZM40.5312 15.7695L40.9473 16.0469C41.3627 15.4237 41.5469 14.6332 41.5469 13.7188H41.0469H40.5469C40.5469 14.5074 40.3873 15.0841 40.1152 15.4922L40.5312 15.7695ZM41.0469 13.7188H41.5469V12.6172H41.0469H40.5469V13.7188H41.0469ZM41.0469 12.6172L41.0225 12.1178L40.0616 12.1647L40.0859 12.6641L40.1103 13.1635L41.0712 13.1166L41.0469 12.6172ZM40.0859 12.6641L40.0585 12.1648C39.2734 12.208 38.6029 12.4373 38.1467 12.9359L38.5156 13.2734L38.8845 13.6109C39.1002 13.3752 39.4766 13.1983 40.1134 13.1633L40.0859 12.6641ZM38.5156 13.2734L38.1428 12.9403C37.7013 13.4343 37.5234 14.1218 37.5234 14.9141H38.0234H38.5234C38.5234 14.2532 38.6737 13.847 38.8885 13.6066L38.5156 13.2734ZM38.0234 14.9141H37.5234C37.5234 15.4971 37.6242 16.024 37.9029 16.4165C38.2039 16.8403 38.6565 17.0312 39.1719 17.0312V16.5312V16.0312C38.9216 16.0312 38.8 15.9527 38.7182 15.8375C38.6141 15.6908 38.5234 15.4091 38.5234 14.9141H38.0234ZM55.3672 17.1992L54.9352 16.9475L54.934 16.9496L55.3672 17.1992ZM50.9727 18.5938L50.7221 19.0266L50.7311 19.0315L50.9727 18.5938ZM49.707 17.2461L50.1316 16.982L49.9849 16.7461H49.707V17.2461ZM49.5078 17.2461V16.7461H49.1545L49.0365 17.0791L49.5078 17.2461ZM48.9805 18.7344V19.2344H49.3338L49.4518 18.9014L48.9805 18.7344ZM46.6836 18.7344H46.1836V19.2344H46.6836V18.7344ZM46.6836 0.5V0H46.1836V0.5H46.6836ZM49.8008 0.5H50.3008V0H49.8008V0.5ZM49.6367 7.37891L49.1383 7.33903L49.0951 7.87891H49.6367V7.37891ZM49.8008 7.37891V7.87891H50.101L50.2421 7.61395L49.8008 7.37891ZM50.2109 8.91406L49.7599 8.6981L49.7575 8.70332L50.2109 8.91406ZM49.8008 11.8438L49.3008 11.8382V11.8438H49.8008ZM50.1992 15.3594L49.7399 15.557L49.7421 15.5619L50.1992 15.3594ZM52.5781 5.43359V5.93359C53.5575 5.93359 54.3396 6.40077 54.9457 7.45274L55.3789 7.20312L55.8121 6.95351C55.0589 5.6461 53.9737 4.93359 52.5781 4.93359V5.43359ZM55.3789 7.20312L54.9457 7.45274C55.5634 8.52494 55.8984 10.085 55.8984 12.1836H56.3984H56.8984C56.8984 10.0009 56.5538 8.24069 55.8121 6.95351L55.3789 7.20312ZM56.3984 12.1836H55.8984C55.8984 14.3061 55.5593 15.8765 54.9352 16.9475L55.3672 17.1992L55.7992 17.451C56.55 16.1626 56.8984 14.3892 56.8984 12.1836H56.3984ZM55.3672 17.1992L54.934 16.9496C54.3301 17.9976 53.5381 18.4688 52.5312 18.4688V18.9688V19.4688C53.9462 19.4688 55.0449 18.7602 55.8004 17.4488L55.3672 17.1992ZM52.5312 18.9688V18.4688C52.0185 18.4688 51.584 18.36 51.2142 18.156L50.9727 18.5938L50.7311 19.0315C51.2675 19.3275 51.8722 19.4688 52.5312 19.4688V18.9688ZM50.9727 18.5938L51.2232 18.161C50.8742 17.959 50.5055 17.5831 50.1316 16.982L49.707 17.2461L49.2825 17.5102C49.7055 18.1903 50.1805 18.7129 50.7221 19.0265L50.9727 18.5938ZM49.707 17.2461V16.7461H49.5078V17.2461V17.7461H49.707V17.2461ZM49.5078 17.2461L49.0365 17.0791L48.5092 18.5674L48.9805 18.7344L49.4518 18.9014L49.9791 17.4131L49.5078 17.2461ZM48.9805 18.7344V18.2344H46.6836V18.7344V19.2344H48.9805V18.7344ZM46.6836 18.7344H47.1836V0.5H46.6836H46.1836V18.7344H46.6836ZM46.6836 0.5V1H49.8008V0.5V0H46.6836V0.5ZM49.8008 0.5H49.3008V4.76562H49.8008H50.3008V0.5H49.8008ZM49.8008 4.76562H49.3008C49.3008 4.9381 49.297 5.11891 49.2895 5.30814L49.7891 5.32812L50.2887 5.34811C50.2967 5.14671 50.3008 4.95253 50.3008 4.76562H49.8008ZM49.7891 5.32812L49.2895 5.30814C49.2822 5.49072 49.2326 6.16093 49.1383 7.33903L49.6367 7.37891L50.1351 7.41878C50.2284 6.25313 50.2803 5.55616 50.2887 5.34811L49.7891 5.32812ZM49.6367 7.37891V7.87891H49.8008V7.37891V6.87891H49.6367V7.37891ZM49.8008 7.37891L50.2421 7.61395C50.6045 6.93347 50.969 6.51128 51.3152 6.28658L51.043 5.86719L50.7707 5.4478C50.2263 5.80122 49.7627 6.38684 49.3595 7.14386L49.8008 7.37891ZM51.043 5.86719L51.3152 6.28658C51.6723 6.0548 52.0877 5.93359 52.5781 5.93359V5.43359V4.93359C51.9123 4.93359 51.3043 5.10145 50.7707 5.4478L51.043 5.86719ZM51.5 8.08203V7.58203C51.1228 7.58203 50.7693 7.67115 50.4613 7.86995C50.1543 8.06805 49.9246 8.35439 49.76 8.69811L50.2109 8.91406L50.6619 9.13002C50.7629 8.91904 50.8808 8.78937 51.0036 8.71013C51.1253 8.63159 51.2835 8.58203 51.5 8.58203V8.08203ZM50.2109 8.91406L49.7575 8.70332C49.4504 9.36408 49.3165 10.4372 49.3008 11.8382L49.8008 11.8438L50.3008 11.8493C50.3163 10.4534 50.4558 9.57342 50.6644 9.12481L50.2109 8.91406ZM49.8008 11.8438H49.3008V12.1602H49.8008H50.3008V11.8438H49.8008ZM49.8008 12.1602H49.3008C49.3008 13.6794 49.4302 14.8374 49.7399 15.557L50.1992 15.3594L50.6585 15.1617C50.4369 14.647 50.3008 13.6721 50.3008 12.1602H49.8008ZM50.1992 15.3594L49.7421 15.5619C49.9064 15.9329 50.1367 16.2452 50.4489 16.4635C50.7643 16.6841 51.1303 16.7852 51.5234 16.7852V16.2852V15.7852C51.3072 15.7852 51.1478 15.732 51.0218 15.6439C50.8926 15.5536 50.7654 15.403 50.6564 15.1568L50.1992 15.3594ZM51.5234 16.2852V16.7852C51.9163 16.7852 52.2753 16.6612 52.5786 16.4126C52.8735 16.171 53.0912 15.8323 53.2522 15.4364C53.5705 14.654 53.7109 13.5386 53.7109 12.1367H53.2109H52.7109C52.7109 13.5005 52.5701 14.4593 52.3259 15.0596C52.2057 15.3552 52.0718 15.5351 51.9448 15.6391C51.8262 15.7363 51.6931 15.7852 51.5234 15.7852V16.2852ZM53.2109 12.1367H53.7109C53.7109 10.7651 53.5685 9.67058 53.2439 8.90132C53.0794 8.51155 52.8574 8.17923 52.5585 7.9431C52.252 7.70103 51.892 7.58203 51.5 7.58203V8.08203V8.58203C51.6783 8.58203 51.8173 8.63197 51.9386 8.7278C52.0674 8.82956 52.2019 9.00408 52.3225 9.29009C52.5682 9.87239 52.7109 10.8052 52.7109 12.1367H53.2109ZM67.6836 18.7344L67.1908 18.8189L67.2621 19.2344H67.6836V18.7344ZM66.3828 11.1523L65.8876 11.2231L65.89 11.2369L66.3828 11.1523ZM65.9258 7.95312L66.4208 7.88241L66.3594 7.45312H65.9258V7.95312ZM65.8789 7.95312V7.45312H65.4321L65.3821 7.89709L65.8789 7.95312ZM65.5977 10.2148L66.0919 10.2902L66.0921 10.289L65.5977 10.2148ZM64.1094 18.7344V19.2344H64.5288L64.6018 18.8214L64.1094 18.7344ZM60.1016 18.7344L59.6112 18.8321L59.6914 19.2344H60.1016V18.7344ZM57.5 5.67969V5.17969H56.8905L57.0096 5.77741L57.5 5.67969ZM60.6289 5.67969L61.1221 5.59775L61.0527 5.17969H60.6289V5.67969ZM61.8242 12.875L61.331 12.9569L61.3318 12.9619L61.8242 12.875ZM62.2109 16.3789L61.7124 16.4169L61.7476 16.8789H62.2109V16.3789ZM62.2812 16.3789V16.8789H62.7627L62.7809 16.3978L62.2812 16.3789ZM62.4453 14.4922L62.9423 14.5474L62.9423 14.5469L62.4453 14.4922ZM62.6445 12.8516L62.1523 12.7631L62.1509 12.7719L62.6445 12.8516ZM63.9336 5.67969V5.17969H63.5154L63.4415 5.59124L63.9336 5.67969ZM67.9414 5.67969L68.4337 5.59229L68.3605 5.17969H67.9414V5.67969ZM69.2188 12.875L68.7264 12.9624L68.7279 12.9702L69.2188 12.875ZM69.6055 16.3789L69.1067 16.4136L69.1391 16.8789H69.6055V16.3789ZM69.6523 16.3789V16.8789H70.1148L70.1508 16.4179L69.6523 16.3789ZM70.0625 12.875L70.555 12.9612L70.5552 12.9601L70.0625 12.875ZM71.3047 5.67969V5.17969H70.8836L70.812 5.59463L71.3047 5.67969ZM74.3516 5.67969L74.8418 5.77783L74.9616 5.17969H74.3516V5.67969ZM71.7383 18.7344V19.2344H72.1481L72.2286 18.8325L71.7383 18.7344ZM67.6836 18.7344L68.1764 18.6498L66.8756 11.0678L66.3828 11.1523L65.89 11.2369L67.1908 18.8189L67.6836 18.7344ZM66.3828 11.1523L66.8778 11.0816L66.4208 7.88241L65.9258 7.95312L65.4308 8.02384L65.8878 11.2231L66.3828 11.1523ZM65.9258 7.95312V7.45312H65.8789V7.95312V8.45312H65.9258V7.95312ZM65.8789 7.95312L65.3821 7.89709C65.2649 8.93551 65.172 9.68164 65.1032 10.1407L65.5977 10.2148L66.0921 10.289C66.1639 9.81055 66.2585 9.04887 66.3758 8.00916L65.8789 7.95312ZM65.5977 10.2148L65.1034 10.1394C65.0342 10.5928 64.5398 13.4233 63.617 18.6474L64.1094 18.7344L64.6018 18.8214C65.5227 13.6079 66.0205 10.7588 66.0919 10.2902L65.5977 10.2148ZM64.1094 18.7344V18.2344H60.1016V18.7344V19.2344H64.1094V18.7344ZM60.1016 18.7344L60.5919 18.6367L57.9904 5.58197L57.5 5.67969L57.0096 5.77741L59.6112 18.8321L60.1016 18.7344ZM57.5 5.67969V6.17969H60.6289V5.67969V5.17969H57.5V5.67969ZM60.6289 5.67969L60.1357 5.76163L61.331 12.9569L61.8242 12.875L62.3175 12.7931L61.1221 5.59775L60.6289 5.67969ZM61.8242 12.875L61.3318 12.9619C61.4681 13.734 61.5955 14.8824 61.7124 16.4169L62.2109 16.3789L62.7095 16.3409C62.592 14.7973 62.4616 13.6097 62.3166 12.7881L61.8242 12.875ZM62.2109 16.3789V16.8789H62.2812V16.3789V15.8789H62.2109V16.3789ZM62.2812 16.3789L62.7809 16.3978C62.7958 16.0028 62.8488 15.3888 62.9423 14.5474L62.4453 14.4922L61.9484 14.437C61.8544 15.2831 61.798 15.9269 61.7816 16.3601L62.2812 16.3789ZM62.4453 14.4922L62.9423 14.5469C63.0364 13.6919 63.1015 13.1585 63.1382 12.9312L62.6445 12.8516L62.1509 12.7719C62.1094 13.029 62.0417 13.5894 61.9483 14.4375L62.4453 14.4922ZM62.6445 12.8516L63.1366 12.94L64.4257 5.76814L63.9336 5.67969L63.4415 5.59124L62.1524 12.7631L62.6445 12.8516ZM63.9336 5.67969V6.17969H67.9414V5.67969V5.17969H63.9336V5.67969ZM67.9414 5.67969L67.4491 5.76708L68.7264 12.9624L69.2188 12.875L69.7111 12.7876L68.4337 5.59229L67.9414 5.67969ZM69.2188 12.875L68.7279 12.9702C68.8703 13.7046 68.9976 14.8476 69.1067 16.4136L69.6055 16.3789L70.1043 16.3442C69.9946 14.7696 69.8641 13.5766 69.7096 12.7798L69.2188 12.875ZM69.6055 16.3789V16.8789H69.6523V16.3789V15.8789H69.6055V16.3789ZM69.6523 16.3789L70.1508 16.4179C70.2595 15.0286 70.3946 13.8776 70.555 12.9612L70.0625 12.875L69.57 12.7888C69.4022 13.7474 69.264 14.9323 69.1539 16.3399L69.6523 16.3789ZM70.0625 12.875L70.5552 12.9601L71.7974 5.76475L71.3047 5.67969L70.812 5.59463L69.5698 12.7899L70.0625 12.875ZM71.3047 5.67969V6.17969H74.3516V5.67969V5.17969H71.3047V5.67969ZM74.3516 5.67969L73.8613 5.58154L71.248 18.6362L71.7383 18.7344L72.2286 18.8325L74.8418 5.77783L74.3516 5.67969ZM71.7383 18.7344V18.2344H67.6836V18.7344V19.2344H71.7383V18.7344ZM76.8828 17.2344L76.4934 17.548L76.4957 17.5509L76.8828 17.2344ZM83.6797 6.99219L83.2872 7.30201L83.2884 7.30345L83.6797 6.99219ZM84.9102 13.0039V13.5039H85.4102V13.0039H84.9102ZM78.6406 13.0039V12.5039H78.1305L78.1407 13.014L78.6406 13.0039ZM79.3555 15.6055L78.964 15.9165L78.9661 15.9191L79.3555 15.6055ZM84.3477 15.5H84.8477V14.6202L84.0918 15.0704L84.3477 15.5ZM84.3477 18.0664L84.6054 18.4949L84.8477 18.3491V18.0664H84.3477ZM79.1914 8.55078L79.617 8.81323L79.6189 8.81009L79.1914 8.55078ZM78.6875 10.7422L78.1881 10.7186L78.1633 11.2422H78.6875V10.7422ZM81.8516 10.7422V11.2422H82.3598L82.3515 10.734L81.8516 10.7422ZM80.75 18.9688V18.4688C79.2513 18.4688 78.1106 17.9462 77.2699 16.9179L76.8828 17.2344L76.4957 17.5509C77.5456 18.8351 78.9831 19.4688 80.75 19.4688V18.9688ZM76.8828 17.2344L77.2722 16.9208C76.4311 15.8764 75.9766 14.3588 75.9766 12.3008H75.4766H74.9766C74.9766 14.4928 75.4595 16.2643 76.4934 17.548L76.8828 17.2344ZM75.4766 12.3008H75.9766C75.9766 10.2026 76.392 8.63388 77.1629 7.53762L76.7539 7.25L76.3449 6.96238C75.4127 8.288 74.9766 10.0864 74.9766 12.3008H75.4766ZM76.7539 7.25L77.1629 7.53762C77.9176 6.46437 78.9501 5.93359 80.3164 5.93359V5.43359V4.93359C78.6358 4.93359 77.2933 5.61376 76.3449 6.96238L76.7539 7.25ZM80.3164 5.43359V5.93359C81.5983 5.93359 82.5695 6.39293 83.2872 7.30201L83.6797 6.99219L84.0721 6.68237C83.1492 5.51332 81.8783 4.93359 80.3164 4.93359V5.43359ZM83.6797 6.99219L83.2884 7.30345C84.0142 8.21585 84.4102 9.53959 84.4102 11.3398H84.9102H85.4102C85.4102 9.40572 84.9858 7.83103 84.071 6.68093L83.6797 6.99219ZM84.9102 11.3398H84.4102V13.0039H84.9102H85.4102V11.3398H84.9102ZM84.9102 13.0039V12.5039H78.6406V13.0039V13.5039H84.9102V13.0039ZM78.6406 13.0039L78.1407 13.014C78.1651 14.2267 78.4127 15.2227 78.964 15.9165L79.3555 15.6055L79.7469 15.2944C79.392 14.8477 79.163 14.1092 79.1405 12.9938L78.6406 13.0039ZM79.3555 15.6055L78.9661 15.9191C79.5247 16.6126 80.3001 16.9492 81.2305 16.9492V16.4492V15.9492C80.5671 15.9492 80.0924 15.7233 79.7448 15.2918L79.3555 15.6055ZM81.2305 16.4492V16.9492C82.3539 16.9492 83.4805 16.5985 84.6035 15.9296L84.3477 15.5L84.0918 15.0704C83.0899 15.6672 82.1383 15.9492 81.2305 15.9492V16.4492ZM84.3477 15.5H83.8477V18.0664H84.3477H84.8477V15.5H84.3477ZM84.3477 18.0664L84.0899 17.638C83.1819 18.1842 82.0757 18.4688 80.75 18.4688V18.9688V19.4688C82.2212 19.4688 83.5134 19.1518 84.6054 18.4949L84.3477 18.0664ZM80.293 7.83594V7.33594C79.6275 7.33594 79.1173 7.70885 78.7639 8.29148L79.1914 8.55078L79.6189 8.81009C79.8436 8.43958 80.0678 8.33594 80.293 8.33594V7.83594ZM79.1914 8.55078L78.7658 8.28834C78.4095 8.86623 78.2362 9.69985 78.1881 10.7186L78.6875 10.7422L79.1869 10.7658C79.2326 9.80015 79.3952 9.17283 79.617 8.81322L79.1914 8.55078ZM78.6875 10.7422V11.2422H81.8516V10.7422V10.2422H78.6875V10.7422ZM81.8516 10.7422L82.3515 10.734C82.3353 9.74855 82.1871 8.9291 81.855 8.3314L81.418 8.57422L80.9809 8.81704C81.1957 9.20371 81.3365 9.82958 81.3516 10.7504L81.8516 10.7422ZM81.418 8.57422L81.855 8.3314C81.5126 7.71491 80.9874 7.33594 80.293 7.33594V7.83594V8.33594C80.5517 8.33594 80.7765 8.44915 80.9809 8.81704L81.418 8.57422ZM95.6562 17.1992L95.2243 16.9475L95.223 16.9496L95.6562 17.1992ZM91.2617 18.5938L91.0111 19.0266L91.0202 19.0315L91.2617 18.5938ZM89.9961 17.2461L90.4207 16.982L90.2739 16.7461H89.9961V17.2461ZM89.7969 17.2461V16.7461H89.4436L89.3256 17.0791L89.7969 17.2461ZM89.2695 18.7344V19.2344H89.6228L89.7408 18.9014L89.2695 18.7344ZM86.9727 18.7344H86.4727V19.2344H86.9727V18.7344ZM86.9727 0.5V0H86.4727V0.5H86.9727ZM90.0898 0.5H90.5898V0H90.0898V0.5ZM89.9258 7.37891L89.4274 7.33903L89.3842 7.87891H89.9258V7.37891ZM90.0898 7.37891V7.87891H90.39L90.5312 7.61395L90.0898 7.37891ZM90.5 8.91406L90.049 8.6981L90.0466 8.70332L90.5 8.91406ZM90.0898 11.8438L89.5898 11.8382V11.8438H90.0898ZM90.4883 15.3594L90.029 15.557L90.0311 15.5619L90.4883 15.3594ZM92.8672 5.43359V5.93359C93.8466 5.93359 94.6286 6.40077 95.2347 7.45274L95.668 7.20312L96.1012 6.95351C95.3479 5.6461 94.2628 4.93359 92.8672 4.93359V5.43359ZM95.668 7.20312L95.2347 7.45274C95.8525 8.52494 96.1875 10.085 96.1875 12.1836H96.6875H97.1875C97.1875 10.0009 96.8428 8.24069 96.1012 6.95351L95.668 7.20312ZM96.6875 12.1836H96.1875C96.1875 14.3061 95.8484 15.8765 95.2243 16.9475L95.6562 17.1992L96.0882 17.451C96.8391 16.1626 97.1875 14.3892 97.1875 12.1836H96.6875ZM95.6562 17.1992L95.223 16.9496C94.6192 17.9976 93.8272 18.4688 92.8203 18.4688V18.9688V19.4688C94.2353 19.4688 95.3339 18.7602 96.0895 17.4488L95.6562 17.1992ZM92.8203 18.9688V18.4688C92.3075 18.4688 91.8731 18.36 91.5033 18.156L91.2617 18.5938L91.0202 19.0315C91.5566 19.3275 92.1612 19.4688 92.8203 19.4688V18.9688ZM91.2617 18.5938L91.5122 18.161C91.1633 17.959 90.7945 17.5831 90.4207 16.982L89.9961 17.2461L89.5715 17.5102C89.9945 18.1903 90.4695 18.7129 91.0112 19.0265L91.2617 18.5938ZM89.9961 17.2461V16.7461H89.7969V17.2461V17.7461H89.9961V17.2461ZM89.7969 17.2461L89.3256 17.0791L88.7982 18.5674L89.2695 18.7344L89.7408 18.9014L90.2682 17.4131L89.7969 17.2461ZM89.2695 18.7344V18.2344H86.9727V18.7344V19.2344H89.2695V18.7344ZM86.9727 18.7344H87.4727V0.5H86.9727H86.4727V18.7344H86.9727ZM86.9727 0.5V1H90.0898V0.5V0H86.9727V0.5ZM90.0898 0.5H89.5898V4.76562H90.0898H90.5898V0.5H90.0898ZM90.0898 4.76562H89.5898C89.5898 4.9381 89.5861 5.11891 89.5785 5.30814L90.0781 5.32812L90.5777 5.34811C90.5858 5.14671 90.5898 4.95253 90.5898 4.76562H90.0898ZM90.0781 5.32812L89.5785 5.30814C89.5712 5.49072 89.5216 6.16093 89.4274 7.33903L89.9258 7.37891L90.4242 7.41878C90.5174 6.25313 90.5694 5.55616 90.5777 5.34811L90.0781 5.32812ZM89.9258 7.37891V7.87891H90.0898V7.37891V6.87891H89.9258V7.37891ZM90.0898 7.37891L90.5312 7.61395C90.8936 6.93347 91.2581 6.51128 91.6043 6.28658L91.332 5.86719L91.0598 5.4478C90.5153 5.80122 90.0517 6.38684 89.6485 7.14386L90.0898 7.37891ZM91.332 5.86719L91.6043 6.28658C91.9613 6.0548 92.3767 5.93359 92.8672 5.93359V5.43359V4.93359C92.2014 4.93359 91.5934 5.10145 91.0598 5.4478L91.332 5.86719ZM91.7891 8.08203V7.58203C91.4118 7.58203 91.0583 7.67115 90.7503 7.86995C90.4434 8.06805 90.2136 8.35439 90.049 8.69811L90.5 8.91406L90.951 9.13002C91.052 8.91904 91.1699 8.78937 91.2926 8.71013C91.4143 8.63159 91.5726 8.58203 91.7891 8.58203V8.08203ZM90.5 8.91406L90.0466 8.70332C89.7395 9.36408 89.6055 10.4372 89.5899 11.8382L90.0898 11.8438L90.5898 11.8493C90.6054 10.4534 90.7449 9.57342 90.9534 9.12481L90.5 8.91406ZM90.0898 11.8438H89.5898V12.1602H90.0898H90.5898V11.8438H90.0898ZM90.0898 12.1602H89.5898C89.5898 13.6794 89.7193 14.8374 90.029 15.557L90.4883 15.3594L90.9476 15.1617C90.726 14.647 90.5898 13.6721 90.5898 12.1602H90.0898ZM90.4883 15.3594L90.0311 15.5619C90.1955 15.9329 90.4257 16.2452 90.7379 16.4635C91.0534 16.6841 91.4193 16.7852 91.8125 16.7852V16.2852V15.7852C91.5963 15.7852 91.4368 15.732 91.3109 15.6439C91.1817 15.5536 91.0545 15.403 90.9454 15.1568L90.4883 15.3594ZM91.8125 16.2852V16.7852C92.2054 16.7852 92.5644 16.6612 92.8677 16.4126C93.1626 16.171 93.3803 15.8323 93.5413 15.4364C93.8596 14.654 94 13.5386 94 12.1367H93.5H93C93 13.5005 92.8592 14.4593 92.615 15.0596C92.4947 15.3552 92.3609 15.5351 92.2339 15.6391C92.1153 15.7363 91.9821 15.7852 91.8125 15.7852V16.2852ZM93.5 12.1367H94C94 10.7651 93.8575 9.67058 93.5329 8.90132C93.3685 8.51155 93.1464 8.17923 92.8475 7.9431C92.5411 7.70103 92.1811 7.58203 91.7891 7.58203V8.08203V8.58203C91.9673 8.58203 92.1064 8.63197 92.2277 8.7278C92.3565 8.82956 92.4909 9.00408 92.6116 9.29009C92.8573 9.87239 93 10.8052 93 12.1367H93.5ZM108.23 16.4961L107.834 16.1908L107.834 16.1911L108.23 16.4961ZM99.0664 18.7344H98.5664V19.2344H99.0664V18.7344ZM99.0664 1.60156V1.10156H98.5664V1.60156H99.0664ZM108.301 3.81641L107.901 4.11675L107.902 4.11776L108.301 3.81641ZM102.254 4.35547V3.85547H101.754V4.35547H102.254ZM102.254 15.9453H101.754V16.4453H102.254V15.9453ZM105.863 14.4922L106.297 14.7406L106.298 14.7391L105.863 14.4922ZM109.965 10.0039H109.465C109.465 12.7736 108.897 14.8121 107.834 16.1908L108.23 16.4961L108.626 16.8013C109.876 15.1801 110.465 12.8904 110.465 10.0039H109.965ZM108.23 16.4961L107.834 16.1911C106.795 17.5409 105.297 18.2344 103.262 18.2344V18.7344V19.2344C105.555 19.2344 107.369 18.4356 108.627 16.8011L108.23 16.4961ZM103.262 18.7344V18.2344H99.0664V18.7344V19.2344H103.262V18.7344ZM99.0664 18.7344H99.5664V1.60156H99.0664H98.5664V18.7344H99.0664ZM99.0664 1.60156V2.10156H103.648V1.60156V1.10156H99.0664V1.60156ZM103.648 1.60156V2.10156C105.498 2.10156 106.894 2.77693 107.901 4.11674L108.301 3.81641L108.701 3.51607C107.488 1.90275 105.784 1.10156 103.648 1.10156V1.60156ZM108.301 3.81641L107.902 4.11776C108.922 5.46876 109.465 7.40988 109.465 10.0039H109.965H110.465C110.465 7.28543 109.898 5.10156 108.7 3.51505L108.301 3.81641ZM106.695 10.0977H107.195C107.195 8.15405 106.93 6.61715 106.342 5.54971C106.044 5.00845 105.657 4.57883 105.174 4.28654C104.69 3.99371 104.137 3.85547 103.531 3.85547V4.35547V4.85547C103.98 4.85547 104.35 4.95649 104.657 5.14217C104.965 5.3284 105.237 5.61655 105.466 6.03232C105.933 6.87894 106.195 8.21313 106.195 10.0977H106.695ZM103.531 4.35547V3.85547H102.254V4.35547V4.85547H103.531V4.35547ZM102.254 4.35547H101.754V15.9453H102.254H102.754V4.35547H102.254ZM102.254 15.9453V16.4453H103.285V15.9453V15.4453H102.254V15.9453ZM103.285 15.9453V16.4453C104.619 16.4453 105.649 15.873 106.297 14.7406L105.863 14.4922L105.429 14.2437C104.968 15.0489 104.279 15.4453 103.285 15.4453V15.9453ZM105.863 14.4922L106.298 14.7391C106.916 13.6504 107.195 12.0817 107.195 10.0977H106.695H106.195C106.195 12.0198 105.919 13.3808 105.429 14.2452L105.863 14.4922ZM113.234 17.2344L112.845 17.548L112.847 17.5509L113.234 17.2344ZM120.031 6.99219L119.639 7.30201L119.64 7.30345L120.031 6.99219ZM121.262 13.0039V13.5039H121.762V13.0039H121.262ZM114.992 13.0039V12.5039H114.482L114.492 13.014L114.992 13.0039ZM115.707 15.6055L115.316 15.9165L115.318 15.9191L115.707 15.6055ZM120.699 15.5H121.199V14.6202L120.443 15.0704L120.699 15.5ZM120.699 18.0664L120.957 18.4949L121.199 18.3491V18.0664H120.699ZM115.543 8.55078L115.969 8.81323L115.97 8.81009L115.543 8.55078ZM115.039 10.7422L114.54 10.7186L114.515 11.2422H115.039V10.7422ZM118.203 10.7422V11.2422H118.711L118.703 10.734L118.203 10.7422ZM117.102 18.9688V18.4688C115.603 18.4688 114.462 17.9462 113.621 16.9179L113.234 17.2344L112.847 17.5509C113.897 18.8351 115.335 19.4688 117.102 19.4688V18.9688ZM113.234 17.2344L113.624 16.9208C112.783 15.8764 112.328 14.3588 112.328 12.3008H111.828H111.328C111.328 14.4928 111.811 16.2643 112.845 17.548L113.234 17.2344ZM111.828 12.3008H112.328C112.328 10.2026 112.744 8.63388 113.514 7.53762L113.105 7.25L112.696 6.96238C111.764 8.288 111.328 10.0864 111.328 12.3008H111.828ZM113.105 7.25L113.514 7.53762C114.269 6.46437 115.302 5.93359 116.668 5.93359V5.43359V4.93359C114.987 4.93359 113.645 5.61376 112.696 6.96238L113.105 7.25ZM116.668 5.43359V5.93359C117.95 5.93359 118.921 6.39293 119.639 7.30201L120.031 6.99219L120.424 6.68237C119.501 5.51332 118.23 4.93359 116.668 4.93359V5.43359ZM120.031 6.99219L119.64 7.30345C120.366 8.21585 120.762 9.53959 120.762 11.3398H121.262H121.762C121.762 9.40572 121.337 7.83103 120.423 6.68093L120.031 6.99219ZM121.262 11.3398H120.762V13.0039H121.262H121.762V11.3398H121.262ZM121.262 13.0039V12.5039H114.992V13.0039V13.5039H121.262V13.0039ZM114.992 13.0039L114.492 13.014C114.517 14.2267 114.764 15.2227 115.316 15.9165L115.707 15.6055L116.099 15.2944C115.744 14.8477 115.515 14.1092 115.492 12.9938L114.992 13.0039ZM115.707 15.6055L115.318 15.9191C115.876 16.6126 116.652 16.9492 117.582 16.9492V16.4492V15.9492C116.919 15.9492 116.444 15.7233 116.096 15.2918L115.707 15.6055ZM117.582 16.4492V16.9492C118.705 16.9492 119.832 16.5985 120.955 15.9296L120.699 15.5L120.443 15.0704C119.441 15.6672 118.49 15.9492 117.582 15.9492V16.4492ZM120.699 15.5H120.199V18.0664H120.699H121.199V15.5H120.699ZM120.699 18.0664L120.441 17.638C119.533 18.1842 118.427 18.4688 117.102 18.4688V18.9688V19.4688C118.573 19.4688 119.865 19.1518 120.957 18.4949L120.699 18.0664ZM116.645 7.83594V7.33594C115.979 7.33594 115.469 7.70885 115.115 8.29148L115.543 8.55078L115.97 8.81009C116.195 8.43958 116.419 8.33594 116.645 8.33594V7.83594ZM115.543 8.55078L115.117 8.28834C114.761 8.86623 114.588 9.69985 114.54 10.7186L115.039 10.7422L115.539 10.7658C115.584 9.80015 115.747 9.17283 115.969 8.81322L115.543 8.55078ZM115.039 10.7422V11.2422H118.203V10.7422V10.2422H115.039V10.7422ZM118.203 10.7422L118.703 10.734C118.687 9.74855 118.539 8.9291 118.207 8.3314L117.77 8.57422L117.332 8.81704C117.547 9.20371 117.688 9.82958 117.703 10.7504L118.203 10.7422ZM117.77 8.57422L118.207 8.3314C117.864 7.71491 117.339 7.33594 116.645 7.33594V7.83594V8.33594C116.903 8.33594 117.128 8.44915 117.332 8.81704L117.77 8.57422ZM129.207 17.9023L129.553 18.2634L129.553 18.2633L129.207 17.9023ZM122.715 18.207H122.215V18.4897L122.457 18.6354L122.715 18.207ZM122.715 15.5L122.999 15.0886L122.215 14.5468V15.5H122.715ZM124.215 16.2383L124.053 16.7113L124.055 16.712L124.215 16.2383ZM126.84 16.1797L127.182 16.5445L127.182 16.5441L126.84 16.1797ZM125.363 13.0977L125.622 12.6697L125.619 12.668L125.363 13.0977ZM123.324 11.3047L122.902 11.5725L122.906 11.5785L123.324 11.3047ZM123.852 6.40625L123.528 6.0247L123.526 6.02635L123.852 6.40625ZM130.262 6.34766L130.717 6.55492L130.902 6.14723L130.518 5.91804L130.262 6.34766ZM129.242 8.58594L129.004 9.02551L129.475 9.2809L129.697 8.7932L129.242 8.58594ZM126.137 8.22266L125.776 7.87577L125.77 7.88295L126.137 8.22266ZM126.207 9.93359L125.833 10.2652L125.838 10.271L126.207 9.93359ZM127.59 10.9531L127.849 10.5255L127.849 10.5253L127.59 10.9531ZM130.332 14.9141H129.832C129.832 16.0842 129.491 16.9375 128.861 17.5413L129.207 17.9023L129.553 18.2633C130.423 17.4297 130.832 16.2908 130.832 14.9141H130.332ZM129.207 17.9023L128.861 17.5413C128.245 18.1318 127.292 18.4688 125.914 18.4688V18.9688V19.4688C127.442 19.4688 128.685 19.0947 129.553 18.2634L129.207 17.9023ZM125.914 18.9688V18.4688C124.688 18.4688 123.718 18.2272 122.973 17.7786L122.715 18.207L122.457 18.6354C123.399 19.2025 124.562 19.4688 125.914 19.4688V18.9688ZM122.715 18.207H123.215V15.5H122.715H122.215V18.207H122.715ZM122.715 15.5L122.431 15.9114C122.903 16.238 123.446 16.5034 124.053 16.7113L124.215 16.2383L124.377 15.7653C123.843 15.5826 123.386 15.3558 122.999 15.0886L122.715 15.5ZM124.215 16.2383L124.055 16.712C124.666 16.9184 125.23 17.0312 125.738 17.0312V16.5312V16.0312C125.372 16.0312 124.92 15.9488 124.375 15.7646L124.215 16.2383ZM125.738 16.5312V17.0312C126.297 17.0312 126.807 16.896 127.182 16.5445L126.84 16.1797L126.498 15.8149C126.373 15.9321 126.148 16.0312 125.738 16.0312V16.5312ZM126.84 16.1797L127.182 16.5441C127.552 16.197 127.727 15.7432 127.727 15.2305H127.227H126.727C126.727 15.499 126.644 15.678 126.498 15.8153L126.84 16.1797ZM127.227 15.2305H127.727C127.727 14.709 127.548 14.2427 127.201 13.8541L126.828 14.1875L126.456 14.5209C126.639 14.7261 126.727 14.955 126.727 15.2305H127.227ZM126.828 14.1875L127.201 13.8541C126.883 13.4985 126.34 13.1035 125.622 12.6697L125.363 13.0977L125.105 13.5256C125.809 13.9511 126.242 14.2828 126.456 14.5209L126.828 14.1875ZM125.363 13.0977L125.619 12.668C124.712 12.128 124.1 11.5778 123.743 11.0309L123.324 11.3047L122.906 11.5785C123.376 12.2972 124.124 12.9423 125.108 13.5273L125.363 13.0977ZM123.324 11.3047L123.746 11.0369C123.398 10.4874 123.215 9.82924 123.215 9.04297H122.715H122.215C122.215 9.99107 122.438 10.8408 122.902 11.5725L123.324 11.3047ZM122.715 9.04297H123.215C123.215 8.06127 123.543 7.32823 124.177 6.78615L123.852 6.40625L123.526 6.02635C122.644 6.78114 122.215 7.80592 122.215 9.04297H122.715ZM123.852 6.40625L124.175 6.7878C124.824 6.23761 125.744 5.93359 126.992 5.93359V5.43359V4.93359C125.584 4.93359 124.41 5.27801 123.528 6.0247L123.852 6.40625ZM126.992 5.43359V5.93359C128.056 5.93359 129.057 6.21251 130.006 6.77727L130.262 6.34766L130.518 5.91804C129.419 5.26406 128.241 4.93359 126.992 4.93359V5.43359ZM130.262 6.34766L129.807 6.1404L128.787 8.37868L129.242 8.58594L129.697 8.7932L130.717 6.55492L130.262 6.34766ZM129.242 8.58594L129.48 8.14636C128.605 7.67193 127.787 7.40625 127.039 7.40625V7.90625V8.40625C127.557 8.40625 128.207 8.5937 129.004 9.02551L129.242 8.58594ZM127.039 7.90625V7.40625C126.555 7.40625 126.104 7.53577 125.777 7.87584L126.137 8.22266L126.497 8.56948C126.576 8.48767 126.726 8.40625 127.039 8.40625V7.90625ZM126.137 8.22266L125.77 7.88295C125.483 8.19221 125.344 8.57372 125.344 8.99609H125.844H126.344C126.344 8.80909 126.399 8.67498 126.504 8.56236L126.137 8.22266ZM125.844 8.99609H125.344C125.344 9.47493 125.513 9.90414 125.833 10.2651L126.207 9.93359L126.581 9.60208C126.417 9.41617 126.344 9.22038 126.344 8.99609H125.844ZM126.207 9.93359L125.838 10.271C126.14 10.6008 126.653 10.9712 127.331 11.381L127.59 10.9531L127.849 10.5253C127.182 10.1225 126.775 9.8133 126.576 9.59621L126.207 9.93359ZM127.59 10.9531L127.331 11.3808C128.135 11.8681 128.659 12.2583 128.939 12.5523L129.301 12.207L129.662 11.8618C129.287 11.4683 128.669 11.0225 127.849 10.5255L127.59 10.9531ZM129.301 12.207L128.939 12.5523C129.224 12.8512 129.444 13.1892 129.6 13.5689L130.062 13.3789L130.525 13.1889C130.322 12.6936 130.033 12.2504 129.662 11.8618L129.301 12.207ZM130.062 13.3789L129.6 13.5689C129.75 13.9336 129.832 14.3782 129.832 14.9141H130.332H130.832C130.832 14.278 130.735 13.6992 130.525 13.1889L130.062 13.3789ZM135.441 18.7344V19.2344H135.941V18.7344H135.441ZM132.324 18.7344H131.824V19.2344H132.324V18.7344ZM132.324 5.67969V5.17969H131.824V5.67969H132.324ZM135.441 5.67969H135.941V5.17969H135.441V5.67969ZM135.125 1.05078L134.771 1.40436L134.776 1.4089L135.125 1.05078ZM135.113 3.51172L135.453 3.8788L135.458 3.87422L135.113 3.51172ZM132.664 3.51172L132.32 3.87425L132.325 3.87877L132.664 3.51172ZM135.441 18.7344V18.2344H132.324V18.7344V19.2344H135.441V18.7344ZM132.324 18.7344H132.824V5.67969H132.324H131.824V18.7344H132.324ZM132.324 5.67969V6.17969H135.441V5.67969V5.17969H132.324V5.67969ZM135.441 5.67969H134.941V18.7344H135.441H135.941V5.67969H135.441ZM132.195 2.26953H132.695C132.695 1.85437 132.812 1.58693 132.994 1.40434L132.641 1.05078L132.287 0.697227C131.876 1.10839 131.695 1.65344 131.695 2.26953H132.195ZM132.641 1.05078L132.994 1.40434C133.183 1.21565 133.465 1.09375 133.906 1.09375V0.59375V0.09375C133.27 0.09375 132.708 0.276539 132.287 0.697227L132.641 1.05078ZM133.906 0.59375V1.09375C134.307 1.09375 134.577 1.21001 134.771 1.40434L135.125 1.05078L135.479 0.697227C135.063 0.282173 134.521 0.09375 133.906 0.09375V0.59375ZM135.125 1.05078L134.776 1.4089C134.964 1.59223 135.082 1.85813 135.082 2.26953H135.582H136.082C136.082 1.64969 135.895 1.10308 135.474 0.692667L135.125 1.05078ZM135.582 2.26953H135.082C135.082 2.69782 134.96 2.9679 134.769 3.14922L135.113 3.51172L135.458 3.87422C135.892 3.46179 136.082 2.90375 136.082 2.26953H135.582ZM135.113 3.51172L134.774 3.14467C134.568 3.33497 134.294 3.44531 133.906 3.44531V3.94531V4.44531C134.503 4.44531 135.034 4.26659 135.453 3.87877L135.113 3.51172ZM133.906 3.94531V3.44531C133.488 3.44531 133.205 3.33095 133.004 3.14467L132.664 3.51172L132.325 3.87877C132.748 4.27061 133.293 4.44531 133.906 4.44531V3.94531ZM132.664 3.51172L133.008 3.14922C132.818 2.9679 132.695 2.69782 132.695 2.26953H132.195H131.695C131.695 2.90375 131.886 3.46179 132.32 3.87422L132.664 3.51172ZM147.512 5.70312H148.012V5.20312H147.512V5.70312ZM147.512 7.53125L147.622 8.019L148.012 7.93103V7.53125H147.512ZM145.953 7.88281L145.843 7.39507L145.191 7.54216L145.516 8.12616L145.953 7.88281ZM141.277 14.2695L141.435 13.7952L141.16 13.7034L140.944 13.8969L141.277 14.2695ZM146.516 17.0469L146.16 17.3981L146.164 17.4027L146.516 17.0469ZM138.172 23.5508L138.487 23.1622L138.484 23.1603L138.172 23.5508ZM137.668 18.9453L137.28 18.6296L137.278 18.6323L137.668 18.9453ZM139.52 17.75L139.671 18.2266L141.017 17.8001L139.702 17.2845L139.52 17.75ZM138.535 17.0234L138.137 17.3265L138.142 17.3323L138.535 17.0234ZM138.277 15.1602L138.746 15.3338L138.748 15.3283L138.277 15.1602ZM138.605 14.5508L138.207 14.2482L138.205 14.2508L138.605 14.5508ZM139.496 13.6953L139.818 14.0778L140.35 13.6298L139.756 13.2682L139.496 13.6953ZM143.012 5.52734L142.922 6.0194L142.933 6.02113L143.012 5.52734ZM143.797 5.70312L143.633 6.17537L143.712 6.20312H143.797V5.70312ZM140.316 21.8164L140.642 21.4368L140.641 21.4361L140.316 21.8164ZM143.832 21.6992L143.531 21.3L143.528 21.3024L143.832 21.6992ZM144.16 19.1797L143.845 19.5678L143.851 19.5724L144.16 19.1797ZM140.211 19.3438L139.825 19.0254L139.817 19.0361L140.211 19.3438ZM147.512 5.70312H147.012V7.53125H147.512H148.012V5.70312H147.512ZM147.512 7.53125L147.402 7.0435L145.843 7.39507L145.953 7.88281L146.063 8.37056L147.622 8.019L147.512 7.53125ZM145.953 7.88281L145.516 8.12616C145.768 8.57843 145.91 9.17579 145.91 9.94531H146.41H146.91C146.91 9.05859 146.747 8.28095 146.39 7.63946L145.953 7.88281ZM146.41 9.94531H145.91C145.91 11.2363 145.562 12.1808 144.924 12.8451L145.285 13.1914L145.646 13.5377C146.508 12.6395 146.91 11.42 146.91 9.94531H146.41ZM145.285 13.1914L144.924 12.8451C144.29 13.5055 143.387 13.8633 142.145 13.8633V14.3633V14.8633C143.589 14.8633 144.78 14.4398 145.646 13.5377L145.285 13.1914ZM142.145 14.3633V13.8633C141.766 13.8633 141.544 13.8312 141.435 13.7952L141.277 14.2695L141.119 14.7439C141.386 14.8329 141.742 14.8633 142.145 14.8633V14.3633ZM141.277 14.2695L140.944 13.8969C140.774 14.0486 140.615 14.2166 140.467 14.4002L140.855 14.7148L141.244 15.0294C141.361 14.8849 141.483 14.7561 141.611 14.6422L141.277 14.2695ZM140.855 14.7148L140.467 14.4002C140.252 14.6662 140.156 14.9853 140.156 15.3242H140.656H141.156C141.156 15.1788 141.194 15.0916 141.244 15.0294L140.855 14.7148ZM140.656 15.3242H140.156C140.156 15.7758 140.369 16.146 140.76 16.3722C141.11 16.5745 141.57 16.6445 142.074 16.6445V16.1445V15.6445C141.633 15.6445 141.384 15.5779 141.261 15.5067C141.18 15.4595 141.156 15.4195 141.156 15.3242H140.656ZM142.074 16.1445V16.6445H143.961V16.1445V15.6445H142.074V16.1445ZM143.961 16.1445V16.6445C144.98 16.6445 145.687 16.9188 146.16 17.3981L146.516 17.0469L146.871 16.6956C146.157 15.9718 145.161 15.6445 143.961 15.6445V16.1445ZM146.516 17.0469L146.164 17.4027C146.637 17.8688 146.918 18.6156 146.918 19.7422H147.418H147.918C147.918 18.4626 147.598 17.4125 146.867 16.691L146.516 17.0469ZM147.418 19.7422H146.918C146.918 21.1339 146.459 22.1526 145.579 22.8703L145.895 23.2578L146.21 23.6453C147.362 22.7068 147.918 21.3817 147.918 19.7422H147.418ZM145.895 23.2578L145.579 22.8703C144.685 23.599 143.354 24 141.512 24V24.5V25C143.482 25 145.073 24.5729 146.21 23.6453L145.895 23.2578ZM141.512 24.5V24C140.132 24 139.147 23.6972 138.487 23.1622L138.172 23.5508L137.857 23.9393C138.759 24.67 140.001 25 141.512 25V24.5ZM138.172 23.5508L138.484 23.1603C137.842 22.6464 137.5 21.9072 137.5 20.8672H137H136.5C136.5 22.1553 136.939 23.2052 137.86 23.9412L138.172 23.5508ZM137 20.8672H137.5C137.5 20.2518 137.685 19.7222 138.058 19.2583L137.668 18.9453L137.278 18.6323C136.76 19.2778 136.5 20.0294 136.5 20.8672H137ZM137.668 18.9453L138.056 19.261C138.429 18.8021 138.958 18.4524 139.671 18.2266L139.52 17.75L139.369 17.2734C138.503 17.5476 137.797 17.9948 137.28 18.6296L137.668 18.9453ZM139.52 17.75L139.702 17.2845C139.384 17.1599 139.13 16.9708 138.928 16.7145L138.535 17.0234L138.142 17.3323C138.456 17.7323 138.858 18.0276 139.337 18.2155L139.52 17.75ZM138.535 17.0234L138.933 16.7204C138.753 16.4848 138.66 16.2101 138.66 15.875H138.16H137.66C137.66 16.4149 137.817 16.9058 138.137 17.3265L138.535 17.0234ZM138.16 15.875H138.66C138.66 15.6582 138.692 15.4801 138.746 15.3338L138.277 15.1602L137.808 14.9865C137.706 15.2621 137.66 15.5606 137.66 15.875H138.16ZM138.277 15.1602L138.748 15.3283C138.809 15.1573 138.895 14.9985 139.005 14.8508L138.605 14.5508L138.205 14.2508C138.035 14.4781 137.902 14.7256 137.806 14.992L138.277 15.1602ZM138.605 14.5508L139.004 14.8533C139.115 14.7066 139.373 14.4525 139.818 14.0778L139.496 13.6953L139.174 13.3129C138.728 13.6881 138.393 14.0044 138.207 14.2482L138.605 14.5508ZM139.496 13.6953L139.756 13.2682C139.317 13.0009 138.952 12.5811 138.673 11.9747L138.219 12.1836L137.764 12.3925C138.111 13.1455 138.597 13.7335 139.236 14.1224L139.496 13.6953ZM138.219 12.1836L138.673 11.9747C138.394 11.3673 138.25 10.6857 138.25 9.92188H137.75H137.25C137.25 10.8143 137.419 11.6405 137.764 12.3925L138.219 12.1836ZM137.75 9.92188H138.25C138.25 8.57869 138.601 7.61312 139.236 6.95173L138.875 6.60547L138.514 6.2592C137.649 7.16032 137.25 8.40569 137.25 9.92188H137.75ZM138.875 6.60547L139.236 6.95173C139.866 6.29519 140.794 5.93359 142.098 5.93359V5.43359V4.93359C140.605 4.93359 139.384 5.35325 138.514 6.2592L138.875 6.60547ZM142.098 5.43359V5.93359C142.326 5.93359 142.599 5.96057 142.922 6.01928L143.012 5.52734L143.101 5.03541C142.737 4.96911 142.401 4.93359 142.098 4.93359V5.43359ZM143.012 5.52734L142.933 6.02113C143.267 6.07432 143.495 6.12745 143.633 6.17537L143.797 5.70312L143.961 5.23088C143.74 5.1538 143.443 5.08974 143.09 5.03355L143.012 5.52734ZM143.797 5.70312V6.20312H147.512V5.70312V5.20312H143.797V5.70312ZM139.836 20.6328H139.336C139.336 21.2589 139.536 21.8072 139.992 22.1967L140.316 21.8164L140.641 21.4361C140.457 21.2787 140.336 21.0379 140.336 20.6328H139.836ZM140.316 21.8164L139.991 22.196C140.44 22.5807 141.037 22.7383 141.711 22.7383V22.2383V21.7383C141.182 21.7383 140.849 21.6147 140.642 21.4368L140.316 21.8164ZM141.711 22.2383V22.7383C142.705 22.7383 143.542 22.5519 144.136 22.096L143.832 21.6992L143.528 21.3024C143.185 21.5653 142.608 21.7383 141.711 21.7383V22.2383ZM143.832 21.6992L144.133 22.0984C144.742 21.6395 145.047 20.9959 145.047 20.2227H144.547H144.047C144.047 20.6994 143.876 21.0402 143.531 21.3L143.832 21.6992ZM144.547 20.2227H145.047C145.047 19.6559 144.898 19.1247 144.47 18.7869L144.16 19.1797L143.851 19.5724C143.938 19.6409 144.047 19.805 144.047 20.2227H144.547ZM144.16 19.1797L144.475 18.7916C144.266 18.6217 144.001 18.5221 143.723 18.4623C143.441 18.4017 143.111 18.375 142.742 18.375V18.875V19.375C143.068 19.375 143.323 19.3991 143.513 19.44C143.708 19.4818 143.804 19.5345 143.845 19.5677L144.16 19.1797ZM142.742 18.875V18.375H141.23V18.875V19.375H142.742V18.875ZM141.23 18.875V18.375C140.666 18.375 140.182 18.5926 139.825 19.0256L140.211 19.3438L140.597 19.6619C140.755 19.4699 140.951 19.375 141.23 19.375V18.875ZM140.211 19.3438L139.817 19.0361C139.479 19.4692 139.336 20.0187 139.336 20.6328H139.836H140.336C140.336 20.1688 140.443 19.8589 140.605 19.6514L140.211 19.3438ZM140.797 9.94531H140.297C140.297 10.7454 140.407 11.4257 140.686 11.9222C140.99 12.4606 141.479 12.7539 142.098 12.7539V12.2539V11.7539C141.849 11.7539 141.688 11.6624 141.558 11.4313C141.404 11.1583 141.297 10.6843 141.297 9.94531H140.797ZM142.098 12.2539V12.7539C142.388 12.7539 142.666 12.686 142.913 12.5342C143.159 12.3831 143.347 12.166 143.486 11.9094C143.757 11.4112 143.863 10.7281 143.863 9.92188H143.363H142.863C142.863 10.6704 142.759 11.1532 142.607 11.4324C142.536 11.5645 142.46 11.6388 142.39 11.6821C142.32 11.7246 142.229 11.7539 142.098 11.7539V12.2539ZM143.363 9.92188H143.863C143.863 9.09719 143.757 8.40142 143.489 7.89496C143.351 7.63431 143.164 7.4125 142.918 7.25755C142.67 7.10147 142.39 7.03125 142.098 7.03125V7.53125V8.03125C142.227 8.03125 142.316 8.06064 142.385 8.10378C142.455 8.14804 142.532 8.22506 142.605 8.36285C142.759 8.65327 142.863 9.15281 142.863 9.92188H143.363ZM142.098 7.53125V7.03125C141.801 7.03125 141.517 7.10114 141.266 7.25692C141.015 7.41183 140.824 7.63439 140.682 7.89759C140.406 8.40901 140.297 9.11207 140.297 9.94531H140.797H141.297C141.297 9.16918 141.404 8.6652 141.562 8.37194C141.637 8.2328 141.717 8.1536 141.792 8.10734C141.865 8.06195 141.961 8.03125 142.098 8.03125V7.53125ZM155.586 18.7344H155.086V19.2344H155.586V18.7344ZM152.668 9.08984L153.12 9.30275L153.121 9.30071L152.668 9.08984ZM152.199 18.7344V19.2344H152.699V18.7344H152.199ZM149.082 18.7344H148.582V19.2344H149.082V18.7344ZM149.082 5.67969V5.17969H148.582V5.67969H149.082ZM151.555 5.67969L152.043 5.5705L151.955 5.17969H151.555V5.67969ZM151.93 7.35547L151.442 7.46466L151.529 7.85547H151.93V7.35547ZM152.129 7.35547V7.85547H152.447L152.582 7.56723L152.129 7.35547ZM153.336 5.94922L153.606 6.37004L153.61 6.36715L153.336 5.94922ZM157.836 6.65234L157.43 6.94481L157.432 6.94735L157.836 6.65234ZM158.727 18.7344V19.2344H159.227V18.7344H158.727ZM155.586 18.7344H156.086V10.9531H155.586H155.086V18.7344H155.586ZM155.586 10.9531H156.086C156.086 9.98246 155.972 9.18024 155.699 8.59675L155.246 8.80859L154.793 9.02044C154.973 9.40569 155.086 10.0332 155.086 10.9531H155.586ZM155.246 8.80859L155.699 8.59675C155.555 8.28905 155.352 8.02816 155.076 7.84629C154.799 7.66335 154.481 7.58203 154.145 7.58203V8.08203V8.58203C154.316 8.58203 154.436 8.6218 154.525 8.68106C154.617 8.74137 154.711 8.84377 154.793 9.02044L155.246 8.80859ZM154.145 8.08203V7.58203C153.721 7.58203 153.329 7.68929 152.99 7.92101C152.653 8.15069 152.4 8.48118 152.215 8.87898L152.668 9.08984L153.121 9.30071C153.249 9.02663 153.398 8.85322 153.553 8.74696C153.706 8.64275 153.896 8.58203 154.145 8.58203V8.08203ZM152.668 9.08984L152.216 8.87695C151.852 9.64891 151.699 10.8714 151.699 12.4648H152.199H152.699C152.699 10.8864 152.859 9.8589 153.12 9.30274L152.668 9.08984ZM152.199 12.4648H151.699V18.7344H152.199H152.699V12.4648H152.199ZM152.199 18.7344V18.2344H149.082V18.7344V19.2344H152.199V18.7344ZM149.082 18.7344H149.582V5.67969H149.082H148.582V18.7344H149.082ZM149.082 5.67969V6.17969H151.555V5.67969V5.17969H149.082V5.67969ZM151.555 5.67969L151.067 5.78888L151.442 7.46466L151.93 7.35547L152.418 7.24628L152.043 5.5705L151.555 5.67969ZM151.93 7.35547V7.85547H152.129V7.35547V6.85547H151.93V7.35547ZM152.129 7.35547L152.582 7.56723C152.826 7.04517 153.167 6.65145 153.606 6.37001L153.336 5.94922L153.066 5.52843C152.458 5.91886 151.994 6.46264 151.676 7.1437L152.129 7.35547ZM153.336 5.94922L153.61 6.36715C154.043 6.08336 154.558 5.93359 155.176 5.93359V5.43359V4.93359C154.388 4.93359 153.676 5.12758 153.061 5.53128L153.336 5.94922ZM155.176 5.43359V5.93359C156.236 5.93359 156.957 6.28786 157.43 6.9448L157.836 6.65234L158.241 6.35988C157.543 5.39183 156.49 4.93359 155.176 4.93359V5.43359ZM157.836 6.65234L157.432 6.94735C157.937 7.63862 158.227 8.70362 158.227 10.2148H158.727H159.227C159.227 8.60107 158.922 7.29107 158.24 6.35734L157.836 6.65234ZM158.727 10.2148H158.227V18.7344H158.727H159.227V10.2148H158.727ZM158.727 18.7344V18.2344H155.586V18.7344V19.2344H158.727V18.7344Z" fill="#00A218" mask="url(#path-1-outside-1_0_3)"/>
</svg>
